M48
; DRILL file {KiCad (6.0.5)} date So 15 Mai 2022 17:49:49 CEST
; FORMAT={-:-/ absolute / metric / decimal}
; #@! TF.CreationDate,2022-05-15T17:49:49+02:00
; #@! TF.GenerationSoftware,Kicad,Pcbnew,(6.0.5)
; #@! TF.FileFunction,Plated,1,2,PTH
FMAT,2
METRIC
; #@! TA.AperFunction,Plated,PTH,ViaDrill
T1C0.200
%
G90
G05
T1
X82.8Y-102.7
X84.7Y-106.1
X88.1Y-105.5
X88.261Y-109.639
X88.9Y-103.5
X91.2Y-108.3
X91.4Y-114.9
X91.5Y-100.1
X91.7Y-104.5
X91.889Y-98.679
X93.0Y-99.1
X93.235Y-101.48
X93.5Y-115.5
X94.3Y-100.2
X94.3Y-100.9
X94.4Y-104.7
X94.4Y-108.9
X95.0Y-104.1
X95.1Y-108.9
X95.2Y-111.9
X95.7Y-104.1
X95.7Y-110.3
X95.9Y-111.9
X96.3Y-95.9
X96.5Y-112.3
X97.1Y-112.8
X97.154Y-111.951
X97.2Y-111.2
X97.5Y-101.5
X97.5Y-106.9
X99.4Y-103.4
X100.1Y-103.5
X100.8Y-96.8
X102.1Y-111.8
X102.656Y-101.096
X103.2Y-111.5
X103.4Y-95.4
X103.4Y-100.9
X105.4Y-100.1
X106.3Y-101.0
X108.4Y-97.0
X114.1Y-109.6
X114.442Y-90.193
X116.0Y-93.5
X116.1Y-106.4
X117.767Y-100.033
T0
M30
