G04 #@! TF.GenerationSoftware,KiCad,Pcbnew,(6.0.5)*
G04 #@! TF.CreationDate,2022-05-15T17:49:43+02:00*
G04 #@! TF.ProjectId,watch,77617463-682e-46b6-9963-61645f706362,rev?*
G04 #@! TF.SameCoordinates,Original*
G04 #@! TF.FileFunction,Legend,Bot*
G04 #@! TF.FilePolarity,Positive*
%FSLAX46Y46*%
G04 Gerber Fmt 4.6, Leading zero omitted, Abs format (unit mm)*
G04 Created by KiCad (PCBNEW (6.0.5)) date 2022-05-15 17:49:43*
%MOMM*%
%LPD*%
G01*
G04 APERTURE LIST*
G04 Aperture macros list*
%AMRoundRect*
0 Rectangle with rounded corners*
0 $1 Rounding radius*
0 $2 $3 $4 $5 $6 $7 $8 $9 X,Y pos of 4 corners*
0 Add a 4 corners polygon primitive as box body*
4,1,4,$2,$3,$4,$5,$6,$7,$8,$9,$2,$3,0*
0 Add four circle primitives for the rounded corners*
1,1,$1+$1,$2,$3*
1,1,$1+$1,$4,$5*
1,1,$1+$1,$6,$7*
1,1,$1+$1,$8,$9*
0 Add four rect primitives between the rounded corners*
20,1,$1+$1,$2,$3,$4,$5,0*
20,1,$1+$1,$4,$5,$6,$7,0*
20,1,$1+$1,$6,$7,$8,$9,0*
20,1,$1+$1,$8,$9,$2,$3,0*%
G04 Aperture macros list end*
%ADD10C,0.150000*%
%ADD11C,0.200000*%
%ADD12C,0.125000*%
%ADD13C,0.100000*%
%ADD14C,0.120000*%
%ADD15R,2.500000X5.100000*%
%ADD16C,17.800000*%
%ADD17C,0.900000*%
%ADD18RoundRect,0.187500X-0.574638X0.461090X-0.727164X0.118510X0.574638X-0.461090X0.727164X-0.118510X0*%
%ADD19RoundRect,0.150000X-0.624149X0.442084X-0.746170X0.168021X0.624149X-0.442084X0.746170X-0.168021X0*%
%ADD20RoundRect,0.225000X-0.032685X0.479773X-0.378411X-0.296741X0.032685X-0.479773X0.378411X0.296741X0*%
%ADD21C,2.000000*%
%ADD22RoundRect,0.225000X-0.225000X-0.250000X0.225000X-0.250000X0.225000X0.250000X-0.225000X0.250000X0*%
%ADD23R,0.550000X0.800000*%
%ADD24RoundRect,0.200000X0.200000X0.275000X-0.200000X0.275000X-0.200000X-0.275000X0.200000X-0.275000X0*%
%ADD25RoundRect,0.200000X-0.200000X-0.275000X0.200000X-0.275000X0.200000X0.275000X-0.200000X0.275000X0*%
%ADD26RoundRect,0.200000X-0.275000X0.200000X-0.275000X-0.200000X0.275000X-0.200000X0.275000X0.200000X0*%
%ADD27R,0.400000X1.200000*%
%ADD28RoundRect,0.237500X0.237500X-0.287500X0.237500X0.287500X-0.237500X0.287500X-0.237500X-0.287500X0*%
%ADD29R,0.800000X0.500000*%
%ADD30RoundRect,0.225000X0.250000X-0.225000X0.250000X0.225000X-0.250000X0.225000X-0.250000X-0.225000X0*%
%ADD31RoundRect,0.225000X0.225000X0.250000X-0.225000X0.250000X-0.225000X-0.250000X0.225000X-0.250000X0*%
%ADD32RoundRect,0.187500X-0.712500X0.187500X-0.712500X-0.187500X0.712500X-0.187500X0.712500X0.187500X0*%
%ADD33RoundRect,0.150000X-0.750000X0.150000X-0.750000X-0.150000X0.750000X-0.150000X0.750000X0.150000X0*%
%ADD34RoundRect,0.225000X-0.225000X0.425000X-0.225000X-0.425000X0.225000X-0.425000X0.225000X0.425000X0*%
%ADD35R,1.200000X0.600000*%
%ADD36RoundRect,0.187500X-0.727164X-0.118510X-0.574638X-0.461090X0.727164X0.118510X0.574638X0.461090X0*%
%ADD37RoundRect,0.150000X-0.746170X-0.168021X-0.624149X-0.442084X0.746170X0.168021X0.624149X0.442084X0*%
%ADD38RoundRect,0.225000X-0.378411X0.296741X-0.032685X-0.479773X0.378411X-0.296741X0.032685X0.479773X0*%
%ADD39RoundRect,0.100000X0.637500X0.100000X-0.637500X0.100000X-0.637500X-0.100000X0.637500X-0.100000X0*%
G04 APERTURE END LIST*
D10*
X96647619Y-113371428D02*
X95933333Y-113371428D01*
X95790476Y-113400000D01*
X95695238Y-113457142D01*
X95647619Y-113542857D01*
X95647619Y-113600000D01*
X95647619Y-112800000D02*
X95647619Y-113085714D01*
X96647619Y-113085714D01*
X95742857Y-112257142D02*
X95695238Y-112285714D01*
X95647619Y-112371428D01*
X95647619Y-112428571D01*
X95695238Y-112514285D01*
X95790476Y-112571428D01*
X95885714Y-112600000D01*
X96076190Y-112628571D01*
X96219047Y-112628571D01*
X96409523Y-112600000D01*
X96504761Y-112571428D01*
X96600000Y-112514285D01*
X96647619Y-112428571D01*
X96647619Y-112371428D01*
X96600000Y-112285714D01*
X96552380Y-112257142D01*
X96647619Y-111828571D02*
X95933333Y-111828571D01*
X95790476Y-111857142D01*
X95695238Y-111914285D01*
X95647619Y-112000000D01*
X95647619Y-112057142D01*
X95647619Y-111257142D02*
X95647619Y-111542857D01*
X96647619Y-111542857D01*
X95742857Y-110714285D02*
X95695238Y-110742857D01*
X95647619Y-110828571D01*
X95647619Y-110885714D01*
X95695238Y-110971428D01*
X95790476Y-111028571D01*
X95885714Y-111057142D01*
X96076190Y-111085714D01*
X96219047Y-111085714D01*
X96409523Y-111057142D01*
X96504761Y-111028571D01*
X96600000Y-110971428D01*
X96647619Y-110885714D01*
X96647619Y-110828571D01*
X96600000Y-110742857D01*
X96552380Y-110714285D01*
X96647619Y-110285714D02*
X95933333Y-110285714D01*
X95790476Y-110314285D01*
X95695238Y-110371428D01*
X95647619Y-110457142D01*
X95647619Y-110514285D01*
X95647619Y-109714285D02*
X95647619Y-110000000D01*
X96647619Y-110000000D01*
X95742857Y-109171428D02*
X95695238Y-109200000D01*
X95647619Y-109285714D01*
X95647619Y-109342857D01*
X95695238Y-109428571D01*
X95790476Y-109485714D01*
X95885714Y-109514285D01*
X96076190Y-109542857D01*
X96219047Y-109542857D01*
X96409523Y-109514285D01*
X96504761Y-109485714D01*
X96600000Y-109428571D01*
X96647619Y-109342857D01*
X96647619Y-109285714D01*
X96600000Y-109200000D01*
X96552380Y-109171428D01*
X96647619Y-108742857D02*
X95933333Y-108742857D01*
X95790476Y-108771428D01*
X95695238Y-108828571D01*
X95647619Y-108914285D01*
X95647619Y-108971428D01*
X95647619Y-108171428D02*
X95647619Y-108457142D01*
X96647619Y-108457142D01*
X95742857Y-107628571D02*
X95695238Y-107657142D01*
X95647619Y-107742857D01*
X95647619Y-107800000D01*
X95695238Y-107885714D01*
X95790476Y-107942857D01*
X95885714Y-107971428D01*
X96076190Y-108000000D01*
X96219047Y-108000000D01*
X96409523Y-107971428D01*
X96504761Y-107942857D01*
X96600000Y-107885714D01*
X96647619Y-107800000D01*
X96647619Y-107742857D01*
X96600000Y-107657142D01*
X96552380Y-107628571D01*
D11*
X106423809Y-104252380D02*
X106090476Y-105252380D01*
X105757142Y-104252380D01*
X104900000Y-105252380D02*
X105471428Y-105252380D01*
X105185714Y-105252380D02*
X105185714Y-104252380D01*
X105280952Y-104395238D01*
X105376190Y-104490476D01*
X105471428Y-104538095D01*
X104471428Y-105157142D02*
X104423809Y-105204761D01*
X104471428Y-105252380D01*
X104519047Y-105204761D01*
X104471428Y-105157142D01*
X104471428Y-105252380D01*
X103566666Y-104585714D02*
X103566666Y-105252380D01*
X103804761Y-104204761D02*
X104042857Y-104919047D01*
X103423809Y-104919047D01*
D12*
X103459523Y-114302380D02*
X103388095Y-114326190D01*
X103269047Y-114326190D01*
X103221428Y-114302380D01*
X103197619Y-114278571D01*
X103173809Y-114230952D01*
X103173809Y-114183333D01*
X103197619Y-114135714D01*
X103221428Y-114111904D01*
X103269047Y-114088095D01*
X103364285Y-114064285D01*
X103411904Y-114040476D01*
X103435714Y-114016666D01*
X103459523Y-113969047D01*
X103459523Y-113921428D01*
X103435714Y-113873809D01*
X103411904Y-113850000D01*
X103364285Y-113826190D01*
X103245238Y-113826190D01*
X103173809Y-113850000D01*
X103007142Y-113826190D02*
X102888095Y-114326190D01*
X102792857Y-113969047D01*
X102697619Y-114326190D01*
X102578571Y-113826190D01*
X102388095Y-114326190D02*
X102388095Y-113826190D01*
X102269047Y-113826190D01*
X102197619Y-113850000D01*
X102150000Y-113897619D01*
X102126190Y-113945238D01*
X102102380Y-114040476D01*
X102102380Y-114111904D01*
X102126190Y-114207142D01*
X102150000Y-114254761D01*
X102197619Y-114302380D01*
X102269047Y-114326190D01*
X102388095Y-114326190D01*
X101888095Y-114326190D02*
X101888095Y-113826190D01*
X101554761Y-113826190D02*
X101459523Y-113826190D01*
X101411904Y-113850000D01*
X101364285Y-113897619D01*
X101340476Y-113992857D01*
X101340476Y-114159523D01*
X101364285Y-114254761D01*
X101411904Y-114302380D01*
X101459523Y-114326190D01*
X101554761Y-114326190D01*
X101602380Y-114302380D01*
X101650000Y-114254761D01*
X101673809Y-114159523D01*
X101673809Y-113992857D01*
X101650000Y-113897619D01*
X101602380Y-113850000D01*
X101554761Y-113826190D01*
X109657142Y-112302380D02*
X109585714Y-112326190D01*
X109466666Y-112326190D01*
X109419047Y-112302380D01*
X109395238Y-112278571D01*
X109371428Y-112230952D01*
X109371428Y-112183333D01*
X109395238Y-112135714D01*
X109419047Y-112111904D01*
X109466666Y-112088095D01*
X109561904Y-112064285D01*
X109609523Y-112040476D01*
X109633333Y-112016666D01*
X109657142Y-111969047D01*
X109657142Y-111921428D01*
X109633333Y-111873809D01*
X109609523Y-111850000D01*
X109561904Y-111826190D01*
X109442857Y-111826190D01*
X109371428Y-111850000D01*
X109204761Y-111826190D02*
X109085714Y-112326190D01*
X108990476Y-111969047D01*
X108895238Y-112326190D01*
X108776190Y-111826190D01*
X108585714Y-112326190D02*
X108585714Y-111826190D01*
X108466666Y-111826190D01*
X108395238Y-111850000D01*
X108347619Y-111897619D01*
X108323809Y-111945238D01*
X108300000Y-112040476D01*
X108300000Y-112111904D01*
X108323809Y-112207142D01*
X108347619Y-112254761D01*
X108395238Y-112302380D01*
X108466666Y-112326190D01*
X108585714Y-112326190D01*
X107800000Y-112326190D02*
X107966666Y-112088095D01*
X108085714Y-112326190D02*
X108085714Y-111826190D01*
X107895238Y-111826190D01*
X107847619Y-111850000D01*
X107823809Y-111873809D01*
X107800000Y-111921428D01*
X107800000Y-111992857D01*
X107823809Y-112040476D01*
X107847619Y-112064285D01*
X107895238Y-112088095D01*
X108085714Y-112088095D01*
X107609523Y-112302380D02*
X107538095Y-112326190D01*
X107419047Y-112326190D01*
X107371428Y-112302380D01*
X107347619Y-112278571D01*
X107323809Y-112230952D01*
X107323809Y-112183333D01*
X107347619Y-112135714D01*
X107371428Y-112111904D01*
X107419047Y-112088095D01*
X107514285Y-112064285D01*
X107561904Y-112040476D01*
X107585714Y-112016666D01*
X107609523Y-111969047D01*
X107609523Y-111921428D01*
X107585714Y-111873809D01*
X107561904Y-111850000D01*
X107514285Y-111826190D01*
X107395238Y-111826190D01*
X107323809Y-111850000D01*
X107180952Y-111826190D02*
X106895238Y-111826190D01*
X107038095Y-112326190D02*
X107038095Y-111826190D01*
X106780952Y-113202380D02*
X106709523Y-113226190D01*
X106590476Y-113226190D01*
X106542857Y-113202380D01*
X106519047Y-113178571D01*
X106495238Y-113130952D01*
X106495238Y-113083333D01*
X106519047Y-113035714D01*
X106542857Y-113011904D01*
X106590476Y-112988095D01*
X106685714Y-112964285D01*
X106733333Y-112940476D01*
X106757142Y-112916666D01*
X106780952Y-112869047D01*
X106780952Y-112821428D01*
X106757142Y-112773809D01*
X106733333Y-112750000D01*
X106685714Y-112726190D01*
X106566666Y-112726190D01*
X106495238Y-112750000D01*
X106328571Y-112726190D02*
X106209523Y-113226190D01*
X106114285Y-112869047D01*
X106019047Y-113226190D01*
X105900000Y-112726190D01*
X105709523Y-113226190D02*
X105709523Y-112726190D01*
X105590476Y-112726190D01*
X105519047Y-112750000D01*
X105471428Y-112797619D01*
X105447619Y-112845238D01*
X105423809Y-112940476D01*
X105423809Y-113011904D01*
X105447619Y-113107142D01*
X105471428Y-113154761D01*
X105519047Y-113202380D01*
X105590476Y-113226190D01*
X105709523Y-113226190D01*
X104923809Y-113178571D02*
X104947619Y-113202380D01*
X105019047Y-113226190D01*
X105066666Y-113226190D01*
X105138095Y-113202380D01*
X105185714Y-113154761D01*
X105209523Y-113107142D01*
X105233333Y-113011904D01*
X105233333Y-112940476D01*
X105209523Y-112845238D01*
X105185714Y-112797619D01*
X105138095Y-112750000D01*
X105066666Y-112726190D01*
X105019047Y-112726190D01*
X104947619Y-112750000D01*
X104923809Y-112773809D01*
X104471428Y-113226190D02*
X104709523Y-113226190D01*
X104709523Y-112726190D01*
X104304761Y-113226190D02*
X104304761Y-112726190D01*
X104019047Y-113226190D02*
X104233333Y-112940476D01*
X104019047Y-112726190D02*
X104304761Y-113011904D01*
X110080952Y-106850000D02*
X110128571Y-106826190D01*
X110200000Y-106826190D01*
X110271428Y-106850000D01*
X110319047Y-106897619D01*
X110342857Y-106945238D01*
X110366666Y-107040476D01*
X110366666Y-107111904D01*
X110342857Y-107207142D01*
X110319047Y-107254761D01*
X110271428Y-107302380D01*
X110200000Y-107326190D01*
X110152380Y-107326190D01*
X110080952Y-107302380D01*
X110057142Y-107278571D01*
X110057142Y-107111904D01*
X110152380Y-107111904D01*
X109842857Y-107326190D02*
X109842857Y-106826190D01*
X109557142Y-107326190D01*
X109557142Y-106826190D01*
X109319047Y-107326190D02*
X109319047Y-106826190D01*
X109200000Y-106826190D01*
X109128571Y-106850000D01*
X109080952Y-106897619D01*
X109057142Y-106945238D01*
X109033333Y-107040476D01*
X109033333Y-107111904D01*
X109057142Y-107207142D01*
X109080952Y-107254761D01*
X109128571Y-107302380D01*
X109200000Y-107326190D01*
X109319047Y-107326190D01*
X110219047Y-110126190D02*
X109909523Y-110126190D01*
X110076190Y-110316666D01*
X110004761Y-110316666D01*
X109957142Y-110340476D01*
X109933333Y-110364285D01*
X109909523Y-110411904D01*
X109909523Y-110530952D01*
X109933333Y-110578571D01*
X109957142Y-110602380D01*
X110004761Y-110626190D01*
X110147619Y-110626190D01*
X110195238Y-110602380D01*
X110219047Y-110578571D01*
X109766666Y-110126190D02*
X109600000Y-110626190D01*
X109433333Y-110126190D01*
X109314285Y-110126190D02*
X109004761Y-110126190D01*
X109171428Y-110316666D01*
X109100000Y-110316666D01*
X109052380Y-110340476D01*
X109028571Y-110364285D01*
X109004761Y-110411904D01*
X109004761Y-110530952D01*
X109028571Y-110578571D01*
X109052380Y-110602380D01*
X109100000Y-110626190D01*
X109242857Y-110626190D01*
X109290476Y-110602380D01*
X109314285Y-110578571D01*
X114777801Y-89920463D02*
X114722232Y-89971267D01*
X114613476Y-90019688D01*
X114560290Y-90017305D01*
X114528854Y-90005238D01*
X114487735Y-89971420D01*
X114468367Y-89927918D01*
X114470749Y-89874732D01*
X114482816Y-89843296D01*
X114516634Y-89802177D01*
X114593954Y-89741689D01*
X114627772Y-89700569D01*
X114639839Y-89669134D01*
X114642222Y-89615948D01*
X114622853Y-89572446D01*
X114581734Y-89538628D01*
X114550298Y-89526561D01*
X114497112Y-89524178D01*
X114388357Y-89572599D01*
X114332788Y-89623403D01*
X114170846Y-89669441D02*
X114265459Y-90174635D01*
X114033191Y-89887106D01*
X114091450Y-90252109D01*
X113779326Y-89843757D01*
X113646437Y-89955049D02*
X113615002Y-89942982D01*
X113561816Y-89940599D01*
X113453060Y-89989020D01*
X113419242Y-90030139D01*
X113407175Y-90061575D01*
X113404793Y-90114761D01*
X113424161Y-90158263D01*
X113474965Y-90213832D01*
X113852188Y-90358635D01*
X113569424Y-90484530D01*
D13*
X89450000Y-89000000D02*
X89450000Y-84250000D01*
X105000000Y-99750000D02*
X110550000Y-99750000D01*
X89450000Y-84250000D02*
X94500000Y-84250000D01*
X89450000Y-95000000D02*
X89450000Y-99750000D01*
X105000000Y-84250000D02*
X110550000Y-84250000D01*
X110550000Y-99750000D02*
X110550000Y-95000000D01*
X110550000Y-84250000D02*
X110550000Y-89000000D01*
X89450000Y-99750000D02*
X95000000Y-99750000D01*
D14*
X113427829Y-107948800D02*
X113183787Y-108496927D01*
X113183787Y-108496927D02*
X114097332Y-108903664D01*
X114892081Y-104660036D02*
X115136123Y-104111909D01*
X117124619Y-106529735D02*
X116311145Y-108356826D01*
X115136123Y-104111909D02*
X116049668Y-104518646D01*
D11*
X85800000Y-106550000D02*
X85800000Y-107750000D01*
D14*
X89710000Y-100071267D02*
X89710000Y-99728733D01*
X88690000Y-100071267D02*
X88690000Y-99728733D01*
X115500000Y-101800000D02*
X115500000Y-102400000D01*
X115500000Y-97600000D02*
X116500000Y-97600000D01*
X115500000Y-102400000D02*
X116500000Y-102400000D01*
X115500000Y-98200000D02*
X115500000Y-97600000D01*
X118300000Y-99000000D02*
X118300000Y-101000000D01*
X100100000Y-108500000D02*
X100100000Y-108300000D01*
X101400000Y-109500000D02*
X100200000Y-109500000D01*
X101500000Y-108500000D02*
X101500000Y-108300000D01*
X113183787Y-91503073D02*
X114097332Y-91096336D01*
X115136123Y-95888091D02*
X116049668Y-95481354D01*
X114892081Y-95339964D02*
X115136123Y-95888091D01*
X113427829Y-92051200D02*
X113183787Y-91503073D01*
X116311145Y-91643174D02*
X117124619Y-93470265D01*
X95900000Y-107215000D02*
X93700000Y-107215000D01*
X95900000Y-113985000D02*
X93700000Y-113985000D01*
X95900000Y-113985000D02*
X98100000Y-113985000D01*
X95900000Y-107215000D02*
X99500000Y-107215000D01*
%LPC*%
D15*
X88550000Y-92000000D03*
X111450000Y-92000000D03*
D16*
X100000000Y-92000000D03*
D17*
X116394588Y-104973239D03*
X114665958Y-108855807D03*
D18*
X115206334Y-105429367D03*
X114209830Y-107667553D03*
D19*
X114708082Y-106548460D03*
D20*
X115737033Y-109031656D03*
X117241959Y-105651537D03*
D21*
X105400000Y-114900000D03*
D22*
X102525000Y-107300000D03*
X104075000Y-107300000D03*
D21*
X108360032Y-113822636D03*
D23*
X87750000Y-101100000D03*
X86800000Y-101100000D03*
X85850000Y-101100000D03*
X85850000Y-98700000D03*
X87750000Y-98700000D03*
D24*
X95425000Y-105800000D03*
X93775000Y-105800000D03*
D22*
X89625000Y-114000000D03*
X91175000Y-114000000D03*
X89625000Y-112400000D03*
X91175000Y-112400000D03*
D25*
X92375000Y-103500000D03*
X94025000Y-103500000D03*
D24*
X112425000Y-100000000D03*
X110775000Y-100000000D03*
D26*
X106500000Y-107275000D03*
X106500000Y-108925000D03*
D27*
X86350000Y-107150000D03*
X87000000Y-107150000D03*
X87650000Y-107150000D03*
X87650000Y-109050000D03*
X87000000Y-109050000D03*
X86350000Y-109050000D03*
D28*
X89200000Y-100775000D03*
X89200000Y-99025000D03*
D25*
X96175000Y-116600000D03*
X97825000Y-116600000D03*
D24*
X112425000Y-98400000D03*
X110775000Y-98400000D03*
D29*
X90400000Y-103550000D03*
X90400000Y-104850000D03*
X88900000Y-104200000D03*
D22*
X86025000Y-96600000D03*
X87575000Y-96600000D03*
D30*
X84400000Y-100675000D03*
X84400000Y-99125000D03*
D25*
X89575000Y-109200000D03*
X91225000Y-109200000D03*
X96175000Y-115000000D03*
X97825000Y-115000000D03*
D22*
X102525000Y-108900000D03*
X104075000Y-108900000D03*
D31*
X104075000Y-110500000D03*
X102525000Y-110500000D03*
D21*
X111300000Y-111900000D03*
D17*
X117000000Y-102125000D03*
X117000000Y-97875000D03*
D32*
X116100000Y-98775000D03*
X116100000Y-101225000D03*
D33*
X116100000Y-100000000D03*
D34*
X118050000Y-98150000D03*
X118050000Y-101850000D03*
D24*
X112425000Y-101600000D03*
X110775000Y-101600000D03*
D21*
X102439967Y-115977363D03*
D35*
X100800000Y-109000000D03*
X100800000Y-107800000D03*
D21*
X111300000Y-108600000D03*
D25*
X96875000Y-105800000D03*
X98525000Y-105800000D03*
D17*
X116394588Y-95026761D03*
X114665958Y-91144193D03*
D36*
X114209830Y-92332447D03*
X115206334Y-94570633D03*
D37*
X114708082Y-93451540D03*
D38*
X115737033Y-90968344D03*
X117241959Y-94348463D03*
D22*
X89625000Y-110800000D03*
X91175000Y-110800000D03*
D39*
X98762500Y-107675000D03*
X98762500Y-108325000D03*
X98762500Y-108975000D03*
X98762500Y-109625000D03*
X98762500Y-110275000D03*
X98762500Y-110925000D03*
X98762500Y-111575000D03*
X98762500Y-112225000D03*
X98762500Y-112875000D03*
X98762500Y-113525000D03*
X93037500Y-113525000D03*
X93037500Y-112875000D03*
X93037500Y-112225000D03*
X93037500Y-111575000D03*
X93037500Y-110925000D03*
X93037500Y-110275000D03*
X93037500Y-109625000D03*
X93037500Y-108975000D03*
X93037500Y-108325000D03*
X93037500Y-107675000D03*
D26*
X99600000Y-114975000D03*
X99600000Y-116625000D03*
M02*
