%TF.GenerationSoftware,KiCad,Pcbnew,(6.0.2)*%
%TF.CreationDate,2022-03-23T22:41:37+01:00*%
%TF.ProjectId,watch,77617463-682e-46b6-9963-61645f706362,rev?*%
%TF.SameCoordinates,Original*%
%TF.FileFunction,Copper,L2,Bot*%
%TF.FilePolarity,Positive*%
%FSLAX46Y46*%
G04 Gerber Fmt 4.6, Leading zero omitted, Abs format (unit mm)*
G04 Created by KiCad (PCBNEW (6.0.2)) date 2022-03-23 22:41:37*
%MOMM*%
%LPD*%
G01*
G04 APERTURE LIST*
G04 Aperture macros list*
%AMRoundRect*
0 Rectangle with rounded corners*
0 $1 Rounding radius*
0 $2 $3 $4 $5 $6 $7 $8 $9 X,Y pos of 4 corners*
0 Add a 4 corners polygon primitive as box body*
4,1,4,$2,$3,$4,$5,$6,$7,$8,$9,$2,$3,0*
0 Add four circle primitives for the rounded corners*
1,1,$1+$1,$2,$3*
1,1,$1+$1,$4,$5*
1,1,$1+$1,$6,$7*
1,1,$1+$1,$8,$9*
0 Add four rect primitives between the rounded corners*
20,1,$1+$1,$2,$3,$4,$5,0*
20,1,$1+$1,$4,$5,$6,$7,0*
20,1,$1+$1,$6,$7,$8,$9,0*
20,1,$1+$1,$8,$9,$2,$3,0*%
G04 Aperture macros list end*
%TA.AperFunction,SMDPad,CuDef*%
%ADD10RoundRect,0.187500X-0.523293X0.518630X-0.710793X0.193870X0.523293X-0.518630X0.710793X-0.193870X0*%
%TD*%
%TA.AperFunction,SMDPad,CuDef*%
%ADD11RoundRect,0.150000X-0.574519X0.504904X-0.724519X0.245096X0.574519X-0.504904X0.724519X-0.245096X0*%
%TD*%
%TA.AperFunction,SMDPad,CuDef*%
%ADD12RoundRect,0.225000X0.017644X0.480561X-0.407356X-0.255561X-0.017644X-0.480561X0.407356X0.255561X0*%
%TD*%
%TA.AperFunction,SMDPad,CuDef*%
%ADD13RoundRect,0.187500X-0.710793X-0.193870X-0.523293X-0.518630X0.710793X0.193870X0.523293X0.518630X0*%
%TD*%
%TA.AperFunction,SMDPad,CuDef*%
%ADD14RoundRect,0.150000X-0.724519X-0.245096X-0.574519X-0.504904X0.724519X0.245096X0.574519X0.504904X0*%
%TD*%
%TA.AperFunction,SMDPad,CuDef*%
%ADD15RoundRect,0.225000X-0.407356X0.255561X0.017644X-0.480561X0.407356X-0.255561X-0.017644X0.480561X0*%
%TD*%
%TA.AperFunction,SMDPad,CuDef*%
%ADD16C,2.000000*%
%TD*%
%TA.AperFunction,SMDPad,CuDef*%
%ADD17RoundRect,0.200000X0.200000X0.275000X-0.200000X0.275000X-0.200000X-0.275000X0.200000X-0.275000X0*%
%TD*%
%TA.AperFunction,SMDPad,CuDef*%
%ADD18RoundRect,0.200000X-0.200000X-0.275000X0.200000X-0.275000X0.200000X0.275000X-0.200000X0.275000X0*%
%TD*%
%TA.AperFunction,SMDPad,CuDef*%
%ADD19RoundRect,0.225000X-0.250000X0.225000X-0.250000X-0.225000X0.250000X-0.225000X0.250000X0.225000X0*%
%TD*%
%TA.AperFunction,SMDPad,CuDef*%
%ADD20RoundRect,0.225000X-0.225000X-0.250000X0.225000X-0.250000X0.225000X0.250000X-0.225000X0.250000X0*%
%TD*%
%TA.AperFunction,SMDPad,CuDef*%
%ADD21RoundRect,0.200000X-0.275000X0.200000X-0.275000X-0.200000X0.275000X-0.200000X0.275000X0.200000X0*%
%TD*%
%TA.AperFunction,SMDPad,CuDef*%
%ADD22R,0.400000X1.200000*%
%TD*%
%TA.AperFunction,SMDPad,CuDef*%
%ADD23RoundRect,0.225000X0.225000X0.250000X-0.225000X0.250000X-0.225000X-0.250000X0.225000X-0.250000X0*%
%TD*%
%TA.AperFunction,SMDPad,CuDef*%
%ADD24R,2.500000X5.100000*%
%TD*%
%TA.AperFunction,SMDPad,CuDef*%
%ADD25C,17.800000*%
%TD*%
%TA.AperFunction,SMDPad,CuDef*%
%ADD26RoundRect,0.187500X-0.712500X0.187500X-0.712500X-0.187500X0.712500X-0.187500X0.712500X0.187500X0*%
%TD*%
%TA.AperFunction,SMDPad,CuDef*%
%ADD27RoundRect,0.150000X-0.750000X0.150000X-0.750000X-0.150000X0.750000X-0.150000X0.750000X0.150000X0*%
%TD*%
%TA.AperFunction,SMDPad,CuDef*%
%ADD28RoundRect,0.225000X-0.225000X0.425000X-0.225000X-0.425000X0.225000X-0.425000X0.225000X0.425000X0*%
%TD*%
%TA.AperFunction,SMDPad,CuDef*%
%ADD29R,1.200000X0.600000*%
%TD*%
%TA.AperFunction,SMDPad,CuDef*%
%ADD30RoundRect,0.100000X0.637500X0.100000X-0.637500X0.100000X-0.637500X-0.100000X0.637500X-0.100000X0*%
%TD*%
%TA.AperFunction,ViaPad*%
%ADD31C,0.400000*%
%TD*%
%TA.AperFunction,ViaPad*%
%ADD32C,0.800000*%
%TD*%
%TA.AperFunction,Conductor*%
%ADD33C,0.127000*%
%TD*%
%TA.AperFunction,Conductor*%
%ADD34C,0.250000*%
%TD*%
G04 APERTURE END LIST*
D10*
%TO.P,SW3,1,1*%
%TO.N,Net-(R46-Pad1)*%
X114196534Y-109610881D03*
X115421534Y-107489119D03*
D11*
%TO.P,SW3,2,2*%
%TO.N,+3V3*%
X114809034Y-108550000D03*
D12*
%TO.P,SW3,MP*%
%TO.N,N/C*%
X117422784Y-107922853D03*
X115572784Y-111127147D03*
%TD*%
D13*
%TO.P,SW2,1,1*%
%TO.N,Net-(R45-Pad1)*%
X115421534Y-92510881D03*
X114196534Y-90389119D03*
D14*
%TO.P,SW2,2,2*%
%TO.N,+3V3*%
X114809034Y-91450000D03*
D15*
%TO.P,SW2,MP*%
%TO.N,N/C*%
X117422784Y-92077147D03*
X115572784Y-88872853D03*
%TD*%
D16*
%TO.P,TP5,1,1*%
%TO.N,Net-(R3-Pad2)*%
X91300000Y-111900000D03*
%TD*%
D17*
%TO.P,R51,1*%
%TO.N,Net-(R51-Pad1)*%
X115025000Y-100000000D03*
%TO.P,R51,2*%
%TO.N,GND*%
X113375000Y-100000000D03*
%TD*%
D16*
%TO.P,TP4,1,1*%
%TO.N,Net-(R2-Pad2)*%
X94000000Y-114100000D03*
%TD*%
D18*
%TO.P,R4,1*%
%TO.N,Net-(R4-Pad1)*%
X107975000Y-108400000D03*
%TO.P,R4,2*%
%TO.N,GND*%
X109625000Y-108400000D03*
%TD*%
D19*
%TO.P,C5,1*%
%TO.N,GND*%
X109200000Y-113225000D03*
%TO.P,C5,2*%
%TO.N,+3V3*%
X109200000Y-114775000D03*
%TD*%
D20*
%TO.P,C8,1*%
%TO.N,Net-(C8-Pad1)*%
X108025000Y-110000000D03*
%TO.P,C8,2*%
%TO.N,GND*%
X109575000Y-110000000D03*
%TD*%
D21*
%TO.P,R1,1*%
%TO.N,SWDIO*%
X89800000Y-105875000D03*
%TO.P,R1,2*%
%TO.N,Net-(R1-Pad2)*%
X89800000Y-107525000D03*
%TD*%
D18*
%TO.P,R28,1*%
%TO.N,+3V3*%
X96775000Y-107600000D03*
%TO.P,R28,2*%
%TO.N,/LED_Driver/SDA*%
X98425000Y-107600000D03*
%TD*%
D16*
%TO.P,TP7,1,1*%
%TO.N,Net-(TP7-Pad1)*%
X86600000Y-106600000D03*
%TD*%
D22*
%TO.P,IC2,1,S2*%
%TO.N,Net-(D1-Pad2)*%
X84750000Y-93250000D03*
%TO.P,IC2,2,VDD*%
%TO.N,+3V3*%
X85400000Y-93250000D03*
%TO.P,IC2,3,S1*%
%TO.N,Net-(D10-Pad2)*%
X86050000Y-93250000D03*
%TO.P,IC2,4,D*%
%TO.N,+3V3*%
X86050000Y-95150000D03*
%TO.P,IC2,5,GND*%
%TO.N,GND*%
X85400000Y-95150000D03*
%TO.P,IC2,6,SEL*%
%TO.N,/LED_Driver/LED_BANK*%
X84750000Y-95150000D03*
%TD*%
D16*
%TO.P,TP1,1,1*%
%TO.N,+3V3*%
X83700000Y-101500000D03*
%TD*%
D21*
%TO.P,R3,1*%
%TO.N,nRST*%
X91400000Y-105875000D03*
%TO.P,R3,2*%
%TO.N,Net-(R3-Pad2)*%
X91400000Y-107525000D03*
%TD*%
D16*
%TO.P,TP3,1,1*%
%TO.N,Net-(R1-Pad2)*%
X88600000Y-109800000D03*
%TD*%
D23*
%TO.P,C1,1*%
%TO.N,GND*%
X109575000Y-106800000D03*
%TO.P,C1,2*%
%TO.N,nRST*%
X108025000Y-106800000D03*
%TD*%
D19*
%TO.P,C6,1*%
%TO.N,GND*%
X106000000Y-113225000D03*
%TO.P,C6,2*%
%TO.N,+3V3*%
X106000000Y-114775000D03*
%TD*%
D24*
%TO.P,BT1,1,+*%
%TO.N,+3V3*%
X88550000Y-95000000D03*
X111450000Y-95000000D03*
D25*
%TO.P,BT1,2,-*%
%TO.N,GND*%
X100000000Y-95000000D03*
%TD*%
D19*
%TO.P,C7,1*%
%TO.N,GND*%
X107600000Y-113225000D03*
%TO.P,C7,2*%
%TO.N,+3V3*%
X107600000Y-114775000D03*
%TD*%
D26*
%TO.P,SW1,1,1*%
%TO.N,Net-(R51-Pad1)*%
X117100000Y-98775000D03*
X117100000Y-101225000D03*
D27*
%TO.P,SW1,2,2*%
%TO.N,+3V3*%
X117100000Y-100000000D03*
D28*
%TO.P,SW1,MP*%
%TO.N,N/C*%
X119050000Y-101850000D03*
X119050000Y-98150000D03*
%TD*%
D21*
%TO.P,R2,1*%
%TO.N,SWDCLK*%
X93000000Y-105875000D03*
%TO.P,R2,2*%
%TO.N,Net-(R2-Pad2)*%
X93000000Y-107525000D03*
%TD*%
D16*
%TO.P,TP2,1,1*%
%TO.N,GND*%
X83700000Y-98200000D03*
%TD*%
D17*
%TO.P,R31,1*%
%TO.N,+3V3*%
X110425000Y-105200000D03*
%TO.P,R31,2*%
%TO.N,/LED_Driver/SCL*%
X108775000Y-105200000D03*
%TD*%
D29*
%TO.P,Y1,1,1*%
%TO.N,Net-(C9-Pad1)*%
X106200000Y-111800000D03*
%TO.P,Y1,2,2*%
%TO.N,Net-(C8-Pad1)*%
X106200000Y-110600000D03*
%TD*%
D30*
%TO.P,U1,1,BOOT0*%
%TO.N,Net-(R4-Pad1)*%
X102862500Y-109075000D03*
%TO.P,U1,2,PC14*%
%TO.N,Net-(C8-Pad1)*%
X102862500Y-109725000D03*
%TO.P,U1,3,PC15*%
%TO.N,Net-(C9-Pad1)*%
X102862500Y-110375000D03*
%TO.P,U1,4,NRST*%
%TO.N,nRST*%
X102862500Y-111025000D03*
%TO.P,U1,5,VDDA*%
%TO.N,+3V3*%
X102862500Y-111675000D03*
%TO.P,U1,6,PA0*%
%TO.N,Net-(R51-Pad1)*%
X102862500Y-112325000D03*
%TO.P,U1,7,PA1*%
%TO.N,/LED_Driver/LED_BANK*%
X102862500Y-112975000D03*
%TO.P,U1,8,PA2*%
%TO.N,Net-(TP6-Pad1)*%
X102862500Y-113625000D03*
%TO.P,U1,9,PA3*%
%TO.N,Net-(TP7-Pad1)*%
X102862500Y-114275000D03*
%TO.P,U1,10,PA4*%
%TO.N,unconnected-(U1-Pad10)*%
X102862500Y-114925000D03*
%TO.P,U1,11,PA5*%
%TO.N,Net-(R45-Pad1)*%
X97137500Y-114925000D03*
%TO.P,U1,12,PA6*%
%TO.N,Net-(R46-Pad1)*%
X97137500Y-114275000D03*
%TO.P,U1,13,PA7*%
%TO.N,unconnected-(U1-Pad13)*%
X97137500Y-113625000D03*
%TO.P,U1,14,PB1*%
%TO.N,/LED_Driver/EN*%
X97137500Y-112975000D03*
%TO.P,U1,15,VSS*%
%TO.N,GND*%
X97137500Y-112325000D03*
%TO.P,U1,16,VDD*%
%TO.N,+3V3*%
X97137500Y-111675000D03*
%TO.P,U1,17,PA9*%
%TO.N,/LED_Driver/SCL*%
X97137500Y-111025000D03*
%TO.P,U1,18,PA10*%
%TO.N,/LED_Driver/SDA*%
X97137500Y-110375000D03*
%TO.P,U1,19,PA13*%
%TO.N,SWDIO*%
X97137500Y-109725000D03*
%TO.P,U1,20,PA14*%
%TO.N,SWDCLK*%
X97137500Y-109075000D03*
%TD*%
D17*
%TO.P,R46,1*%
%TO.N,Net-(R46-Pad1)*%
X115025000Y-101600000D03*
%TO.P,R46,2*%
%TO.N,GND*%
X113375000Y-101600000D03*
%TD*%
D20*
%TO.P,C9,1*%
%TO.N,Net-(C9-Pad1)*%
X108025000Y-111600000D03*
%TO.P,C9,2*%
%TO.N,GND*%
X109575000Y-111600000D03*
%TD*%
D17*
%TO.P,R45,1*%
%TO.N,Net-(R45-Pad1)*%
X115025000Y-98400000D03*
%TO.P,R45,2*%
%TO.N,GND*%
X113375000Y-98400000D03*
%TD*%
D16*
%TO.P,TP6,1,1*%
%TO.N,Net-(TP6-Pad1)*%
X86600000Y-103600000D03*
%TD*%
D31*
%TO.N,Net-(R45-Pad1)*%
X108155000Y-116574230D03*
X110300000Y-114400000D03*
%TO.N,GND*%
X90200000Y-100900000D03*
X100300000Y-105200000D03*
X111200000Y-103800000D03*
D32*
X100000000Y-100000000D03*
X100000000Y-98000000D03*
X98000000Y-100000000D03*
D31*
X94200000Y-102800000D03*
D32*
X100000000Y-102000000D03*
X102000000Y-100000000D03*
D31*
X94100000Y-109200000D03*
%TO.N,+3V3*%
X113500000Y-89600000D03*
X116800000Y-97700000D03*
X118700000Y-100000000D03*
X99075000Y-111675000D03*
X95800000Y-108000000D03*
X110500000Y-103800000D03*
X116800000Y-102300000D03*
X114809034Y-91450000D03*
%TO.N,nRST*%
X99900000Y-107100000D03*
X102358252Y-108431598D03*
%TO.N,/LED_Driver/EN*%
X101400000Y-108500000D03*
X93600000Y-103000000D03*
X100500000Y-113000000D03*
X98977317Y-106377317D03*
X100500000Y-110900000D03*
%TO.N,Net-(D1-Pad2)*%
X86327624Y-91072376D03*
%TO.N,Net-(D10-Pad2)*%
X87227644Y-91727644D03*
%TO.N,/LED_Driver/LED_BANK*%
X95600000Y-106900000D03*
X99300000Y-112500000D03*
%TO.N,/LED_Driver/SCL*%
X106300000Y-103800000D03*
%TO.N,/LED_Driver/SDA*%
X105600000Y-103800000D03*
%TO.N,Net-(TP6-Pad1)*%
X103900000Y-116400000D03*
X99900000Y-117500000D03*
%TO.N,Net-(TP7-Pad1)*%
X103262150Y-116344905D03*
X99900000Y-116900000D03*
%TD*%
D33*
%TO.N,Net-(R46-Pad1)*%
X111322060Y-107736472D02*
X111322060Y-109577940D01*
X111322060Y-109577940D02*
X111322060Y-114436472D01*
X114196534Y-109610881D02*
X114163593Y-109577940D01*
X114163593Y-109577940D02*
X111322060Y-109577940D01*
%TO.N,Net-(R45-Pad1)*%
X108155000Y-116574230D02*
X107874230Y-116574230D01*
X107600000Y-116300000D02*
X105058532Y-116300000D01*
X107874230Y-116574230D02*
X107600000Y-116300000D01*
X110815020Y-113015020D02*
X110815020Y-113884980D01*
X110815020Y-113884980D02*
X110300000Y-114400000D01*
%TO.N,Net-(R46-Pad1)*%
X111322060Y-114436472D02*
X109712052Y-116046480D01*
X115025000Y-101600000D02*
X115000000Y-101625000D01*
X104100000Y-116900000D02*
X102900000Y-116900000D01*
X115000000Y-101625000D02*
X115000000Y-104100000D01*
X115000000Y-104100000D02*
X114958532Y-104100000D01*
X114958532Y-104100000D02*
X111322060Y-107736472D01*
X100275000Y-114275000D02*
X97137500Y-114275000D01*
X109712052Y-116046480D02*
X104953520Y-116046480D01*
X102900000Y-116900000D02*
X100275000Y-114275000D01*
X104953520Y-116046480D02*
X104100000Y-116900000D01*
%TO.N,Net-(R51-Pad1)*%
X115025000Y-100000000D02*
X115025000Y-100375000D01*
X114400000Y-101000000D02*
X114400000Y-104300000D01*
X115025000Y-100375000D02*
X114400000Y-101000000D01*
X111068540Y-114331460D02*
X109607040Y-115792960D01*
X114400000Y-104300000D02*
X111068540Y-107631460D01*
X104885460Y-115285460D02*
X104885460Y-113130966D01*
X111068540Y-107631460D02*
X111068540Y-114331460D01*
X109607040Y-115792960D02*
X105392960Y-115792960D01*
X105392960Y-115792960D02*
X104885460Y-115285460D01*
X104885460Y-113130966D02*
X104079494Y-112325000D01*
X104079494Y-112325000D02*
X102862500Y-112325000D01*
%TO.N,Net-(R45-Pad1)*%
X111100000Y-107241468D02*
X110815020Y-107526448D01*
X110815020Y-107526448D02*
X110815020Y-109500000D01*
X111800000Y-106541468D02*
X111100000Y-107241468D01*
X110815020Y-109500000D02*
X110815020Y-113015020D01*
D34*
%TO.N,GND*%
X109575000Y-111600000D02*
X109575000Y-110000000D01*
X107600000Y-113225000D02*
X109200000Y-113225000D01*
D33*
X113375000Y-101600000D02*
X113375000Y-101625000D01*
D34*
X85400000Y-95150000D02*
X85400000Y-96100000D01*
X94100000Y-110200000D02*
X96225000Y-112325000D01*
X100300000Y-105200000D02*
X100300000Y-95300000D01*
X109575000Y-108350000D02*
X109625000Y-108400000D01*
X109575000Y-106800000D02*
X109575000Y-108350000D01*
X94200000Y-100800000D02*
X100000000Y-95000000D01*
X109625000Y-109950000D02*
X109575000Y-110000000D01*
D33*
X113375000Y-98400000D02*
X113375000Y-101600000D01*
D34*
X85400000Y-96100000D02*
X90200000Y-100900000D01*
X109575000Y-112850000D02*
X109200000Y-113225000D01*
X107600000Y-113225000D02*
X106000000Y-113225000D01*
D33*
X85400000Y-94619978D02*
X85400000Y-95150000D01*
D34*
X100300000Y-95300000D02*
X100000000Y-95000000D01*
X90200000Y-100900000D02*
X96100000Y-95000000D01*
D33*
X83700000Y-94700000D02*
X84200000Y-94200000D01*
D34*
X94100000Y-109200000D02*
X94100000Y-110200000D01*
D33*
X84980022Y-94200000D02*
X85400000Y-94619978D01*
D34*
X109575000Y-106800000D02*
X109575000Y-104575000D01*
X109625000Y-108400000D02*
X109625000Y-109950000D01*
X96100000Y-95000000D02*
X100000000Y-95000000D01*
X109575000Y-104575000D02*
X100000000Y-95000000D01*
D33*
X83700000Y-98200000D02*
X83700000Y-94700000D01*
D34*
X94200000Y-102800000D02*
X94200000Y-100800000D01*
X96225000Y-112325000D02*
X97137500Y-112325000D01*
D33*
X84200000Y-94200000D02*
X84980022Y-94200000D01*
X113375000Y-101625000D02*
X111200000Y-103800000D01*
D34*
X109575000Y-111600000D02*
X109575000Y-112850000D01*
%TO.N,+3V3*%
X105200480Y-113975480D02*
X105200480Y-113000480D01*
X85400000Y-93800000D02*
X86050000Y-94450000D01*
D33*
X116800000Y-96000000D02*
X114000000Y-93200000D01*
X84200000Y-93841468D02*
X84200000Y-92341469D01*
X106000000Y-85600000D02*
X111450000Y-91050000D01*
D34*
X110500000Y-113475000D02*
X110500000Y-103800000D01*
D33*
X116800000Y-97700000D02*
X116800000Y-96000000D01*
X84200000Y-92341469D02*
X85941469Y-90600000D01*
D34*
X103875000Y-111675000D02*
X102862500Y-111675000D01*
D33*
X114000000Y-93200000D02*
X114000000Y-92259034D01*
D34*
X106000000Y-114775000D02*
X105200480Y-113975480D01*
X99075000Y-111675000D02*
X97137500Y-111675000D01*
X85400000Y-93250000D02*
X85400000Y-93800000D01*
D33*
X113500000Y-89600000D02*
X112900000Y-89600000D01*
X96200000Y-107600000D02*
X95800000Y-108000000D01*
X87400000Y-90600000D02*
X88550000Y-91750000D01*
D34*
X111450000Y-102850000D02*
X110500000Y-103800000D01*
D33*
X96775000Y-107600000D02*
X96200000Y-107600000D01*
X117100000Y-100000000D02*
X118700000Y-100000000D01*
D34*
X111450000Y-95000000D02*
X111450000Y-102850000D01*
X86050000Y-95150000D02*
X88400000Y-95150000D01*
D33*
X114100000Y-107840966D02*
X114809034Y-108550000D01*
X83700000Y-101500000D02*
X82300000Y-100100000D01*
X82300000Y-95741468D02*
X84200000Y-93841468D01*
X111450000Y-91050000D02*
X111450000Y-95000000D01*
X116800000Y-104300000D02*
X114100000Y-107000000D01*
D34*
X106000000Y-114775000D02*
X107600000Y-114775000D01*
D33*
X116800000Y-102300000D02*
X116800000Y-104300000D01*
X114100000Y-107000000D02*
X114100000Y-107840966D01*
D34*
X109200000Y-114775000D02*
X107600000Y-114775000D01*
X109200000Y-114775000D02*
X110500000Y-113475000D01*
D33*
X85941469Y-90600000D02*
X87400000Y-90600000D01*
D34*
X102862500Y-111675000D02*
X99075000Y-111675000D01*
D33*
X94700000Y-85600000D02*
X106000000Y-85600000D01*
X114000000Y-92259034D02*
X114809034Y-91450000D01*
D34*
X86050000Y-94450000D02*
X86050000Y-95150000D01*
X105200480Y-113000480D02*
X103875000Y-111675000D01*
D33*
X88550000Y-91750000D02*
X88550000Y-95000000D01*
X82300000Y-100100000D02*
X82300000Y-95741468D01*
X112900000Y-89600000D02*
X111450000Y-91050000D01*
X88550000Y-91750000D02*
X94700000Y-85600000D01*
%TO.N,nRST*%
X101800000Y-108989850D02*
X101800000Y-110700000D01*
X91425000Y-105875000D02*
X92300000Y-105000000D01*
X106958532Y-106800000D02*
X105505011Y-108253520D01*
X105505011Y-108253520D02*
X102536330Y-108253520D01*
X108025000Y-106800000D02*
X106958532Y-106800000D01*
X95600000Y-107600000D02*
X96400000Y-106800000D01*
X96400000Y-106800000D02*
X99600000Y-106800000D01*
X94041766Y-106558234D02*
X94941766Y-107458234D01*
X93600000Y-105000000D02*
X94041766Y-105441766D01*
X94041766Y-105441766D02*
X94041766Y-106558234D01*
X91400000Y-105875000D02*
X91425000Y-105875000D01*
X92300000Y-105000000D02*
X93600000Y-105000000D01*
X101800000Y-110700000D02*
X102125000Y-111025000D01*
X94941766Y-107458234D02*
X95083532Y-107600000D01*
X102358252Y-108431598D02*
X101800000Y-108989850D01*
X99600000Y-106800000D02*
X99900000Y-107100000D01*
X95083532Y-107600000D02*
X95600000Y-107600000D01*
X102536330Y-108253520D02*
X102358252Y-108431598D01*
X102125000Y-111025000D02*
X102862500Y-111025000D01*
%TO.N,/LED_Driver/EN*%
X98808154Y-106546480D02*
X98977317Y-106377317D01*
X97146480Y-106546480D02*
X98808154Y-106546480D01*
X101400000Y-108500000D02*
X100400000Y-109500000D01*
X97162500Y-113000000D02*
X97137500Y-112975000D01*
X100500000Y-113000000D02*
X97162500Y-113000000D01*
X93600000Y-103000000D02*
X97146480Y-106546480D01*
X100400000Y-109500000D02*
X100400000Y-110800000D01*
X100400000Y-110800000D02*
X100500000Y-110900000D01*
%TO.N,Net-(C8-Pad1)*%
X105325000Y-109725000D02*
X106200000Y-110600000D01*
X107425000Y-110600000D02*
X108025000Y-110000000D01*
X106200000Y-110600000D02*
X107425000Y-110600000D01*
X102862500Y-109725000D02*
X105325000Y-109725000D01*
%TO.N,Net-(C9-Pad1)*%
X107825000Y-111800000D02*
X108025000Y-111600000D01*
X106200000Y-111800000D02*
X107825000Y-111800000D01*
X102862500Y-110375000D02*
X104775000Y-110375000D01*
X104775000Y-110375000D02*
X106200000Y-111800000D01*
%TO.N,Net-(D1-Pad2)*%
X84750000Y-93250000D02*
X84750000Y-92150000D01*
X84750000Y-92150000D02*
X85827624Y-91072376D01*
X85827624Y-91072376D02*
X86327624Y-91072376D01*
%TO.N,Net-(D10-Pad2)*%
X86050000Y-93250000D02*
X87227644Y-92072356D01*
X87227644Y-92072356D02*
X87227644Y-91727644D01*
%TO.N,/LED_Driver/LED_BANK*%
X95600000Y-105358532D02*
X93741468Y-103500000D01*
X100700000Y-112500000D02*
X101175000Y-112975000D01*
X101175000Y-112975000D02*
X102862500Y-112975000D01*
X84750000Y-96150000D02*
X84750000Y-95150000D01*
X99300000Y-112500000D02*
X100700000Y-112500000D01*
X92100000Y-103500000D02*
X84750000Y-96150000D01*
X95600000Y-106900000D02*
X95600000Y-105358532D01*
X93741468Y-103500000D02*
X92100000Y-103500000D01*
%TO.N,/LED_Driver/SCL*%
X108775000Y-105200000D02*
X106300000Y-105200000D01*
X105400000Y-108000000D02*
X101300000Y-108000000D01*
X106300000Y-107100000D02*
X105400000Y-108000000D01*
X106300000Y-103800000D02*
X106300000Y-105200000D01*
X101300000Y-108000000D02*
X98275000Y-111025000D01*
X106300000Y-105200000D02*
X106300000Y-107100000D01*
X98275000Y-111025000D02*
X97137500Y-111025000D01*
%TO.N,/LED_Driver/SDA*%
X105294988Y-107746480D02*
X101194988Y-107746480D01*
X98425000Y-107825000D02*
X98425000Y-107600000D01*
X99770734Y-109170734D02*
X98566468Y-110375000D01*
X101194988Y-107746480D02*
X99770734Y-109170734D01*
X99770734Y-109170734D02*
X98425000Y-107825000D01*
X105600000Y-103800000D02*
X106046480Y-104246480D01*
X98566468Y-110375000D02*
X97137500Y-110375000D01*
X106046480Y-106994988D02*
X105294988Y-107746480D01*
X106046480Y-104246480D02*
X106046480Y-106994988D01*
%TO.N,Net-(R1-Pad2)*%
X89800000Y-108600000D02*
X88600000Y-109800000D01*
X89800000Y-107525000D02*
X89800000Y-108600000D01*
%TO.N,SWDIO*%
X96491468Y-109725000D02*
X97137500Y-109725000D01*
X90800000Y-106700000D02*
X93466468Y-106700000D01*
X89800000Y-105875000D02*
X89975000Y-105875000D01*
X93466468Y-106700000D02*
X96491468Y-109725000D01*
X89975000Y-105875000D02*
X90800000Y-106700000D01*
%TO.N,Net-(R2-Pad2)*%
X93000000Y-113100000D02*
X94000000Y-114100000D01*
X93000000Y-107525000D02*
X93000000Y-113100000D01*
%TO.N,SWDCLK*%
X96200000Y-109075000D02*
X97137500Y-109075000D01*
X93000000Y-105875000D02*
X96200000Y-109075000D01*
%TO.N,Net-(R3-Pad2)*%
X91400000Y-107525000D02*
X91300000Y-107625000D01*
X91300000Y-107625000D02*
X91300000Y-111900000D01*
D34*
%TO.N,Net-(R4-Pad1)*%
X107600000Y-108400000D02*
X106925000Y-109075000D01*
X107975000Y-108400000D02*
X107600000Y-108400000D01*
X106925000Y-109075000D02*
X102862500Y-109075000D01*
D33*
%TO.N,Net-(R45-Pad1)*%
X115689119Y-90389119D02*
X116300000Y-91000000D01*
X115025000Y-94583532D02*
X115025000Y-98400000D01*
X113700000Y-90885653D02*
X114196534Y-90389119D01*
X114100000Y-99325000D02*
X115025000Y-98400000D01*
X116300000Y-91632415D02*
X115421534Y-92510881D01*
X113700000Y-93258532D02*
X115025000Y-94583532D01*
X104205012Y-117153520D02*
X105058532Y-116300000D01*
X114196534Y-90389119D02*
X114010881Y-90389119D01*
X113700000Y-90700000D02*
X113700000Y-93258532D01*
X114100000Y-104241468D02*
X114100000Y-99325000D01*
X97137500Y-114925000D02*
X100566468Y-114925000D01*
X114196534Y-90389119D02*
X115689119Y-90389119D01*
X116300000Y-91000000D02*
X116300000Y-91632415D01*
X100566468Y-114925000D02*
X102794988Y-117153520D01*
X114010881Y-90389119D02*
X113700000Y-90700000D01*
X102794988Y-117153520D02*
X104205012Y-117153520D01*
X111800000Y-106541468D02*
X114100000Y-104241468D01*
%TO.N,Net-(R51-Pad1)*%
X115025000Y-100000000D02*
X116250000Y-98775000D01*
X116250000Y-101225000D02*
X115025000Y-100000000D01*
X117100000Y-101225000D02*
X116250000Y-101225000D01*
X116250000Y-98775000D02*
X117100000Y-98775000D01*
D34*
%TO.N,Net-(R46-Pad1)*%
X114189119Y-109610881D02*
X114196534Y-109610881D01*
D33*
X116200000Y-108800000D02*
X116200000Y-109100000D01*
X115421534Y-108021534D02*
X116200000Y-108800000D01*
X116200000Y-109100000D02*
X115689119Y-109610881D01*
X115421534Y-107489119D02*
X115421534Y-108021534D01*
X115689119Y-109610881D02*
X114196534Y-109610881D01*
%TO.N,Net-(TP6-Pad1)*%
X93294988Y-117153520D02*
X85200000Y-109058532D01*
X104043540Y-115614992D02*
X104043540Y-116256460D01*
X99700000Y-117500000D02*
X99353520Y-117153520D01*
X99353520Y-117153520D02*
X93294988Y-117153520D01*
X104043540Y-116256460D02*
X103900000Y-116400000D01*
X85200000Y-105000000D02*
X86600000Y-103600000D01*
X102862500Y-113625000D02*
X103360150Y-113625000D01*
X104043540Y-114308390D02*
X104043540Y-115614992D01*
X103360150Y-113625000D02*
X104043540Y-114308390D01*
X99900000Y-117500000D02*
X99700000Y-117500000D01*
X85200000Y-109058532D02*
X85200000Y-105000000D01*
%TO.N,Net-(TP7-Pad1)*%
X103790020Y-114704870D02*
X103790020Y-115509980D01*
X103790020Y-115817035D02*
X103262150Y-116344905D01*
X103790020Y-115509980D02*
X103790020Y-115790020D01*
X102862500Y-114275000D02*
X103360150Y-114275000D01*
X93400000Y-116900000D02*
X86700000Y-110200000D01*
X86600000Y-106600000D02*
X86600000Y-110100000D01*
X86600000Y-110100000D02*
X86700000Y-110200000D01*
X99900000Y-116900000D02*
X93400000Y-116900000D01*
X103360150Y-114275000D02*
X103790020Y-114704870D01*
X103790020Y-115790020D02*
X103790020Y-115817035D01*
%TD*%
M02*
