M48
; DRILL file {KiCad 5.1.10} date Fri Dec 10 14:07:22 2021
; FORMAT={-:-/ absolute / inch / decimal}
; #@! TF.CreationDate,2021-12-10T14:07:22+01:00
; #@! TF.GenerationSoftware,Kicad,Pcbnew,5.1.10
FMAT,2
INCH
T1C0.0079
T2C0.0157
%
G90
G05
T1
X5.7047Y-4.3898
X5.7362Y-4.5551
X5.748Y-4.4331
X5.8231Y-4.4885
X5.9148Y-4.4444
X5.9528Y-4.3661
X5.9528Y-4.4724
X6.0004Y-4.4602
X6.0103Y-4.3883
X6.1316Y-4.459
X6.1535Y-4.2858
X6.1929Y-4.311
X6.2096Y-4.6614
X6.2096Y-4.6899
X6.2441Y-4.4567
X6.3031Y-4.7274
X6.4637Y-4.5503
X6.5039Y-4.5945
T2
X5.5453Y-4.3209
X5.565Y-3.9547
X5.7146Y-4.624
X5.7421Y-3.6791
X5.9783Y-4.7894
X6.0453Y-3.5098
X6.0492Y-4.1634
X6.1909Y-3.9429
X6.3366Y-4.1634
X6.3445Y-4.8012
X6.3957Y-3.5295
X6.6555Y-4.6476
X6.6752Y-3.7146
X6.8209Y-4.3602
X6.8406Y-4.0059
T0
M30
