%TF.GenerationSoftware,KiCad,Pcbnew,(6.0.2)*%
%TF.CreationDate,2022-03-23T22:41:38+01:00*%
%TF.ProjectId,watch,77617463-682e-46b6-9963-61645f706362,rev?*%
%TF.SameCoordinates,Original*%
%TF.FileFunction,Paste,Bot*%
%TF.FilePolarity,Positive*%
%FSLAX46Y46*%
G04 Gerber Fmt 4.6, Leading zero omitted, Abs format (unit mm)*
G04 Created by KiCad (PCBNEW (6.0.2)) date 2022-03-23 22:41:38*
%MOMM*%
%LPD*%
G01*
G04 APERTURE LIST*
G04 Aperture macros list*
%AMRoundRect*
0 Rectangle with rounded corners*
0 $1 Rounding radius*
0 $2 $3 $4 $5 $6 $7 $8 $9 X,Y pos of 4 corners*
0 Add a 4 corners polygon primitive as box body*
4,1,4,$2,$3,$4,$5,$6,$7,$8,$9,$2,$3,0*
0 Add four circle primitives for the rounded corners*
1,1,$1+$1,$2,$3*
1,1,$1+$1,$4,$5*
1,1,$1+$1,$6,$7*
1,1,$1+$1,$8,$9*
0 Add four rect primitives between the rounded corners*
20,1,$1+$1,$2,$3,$4,$5,0*
20,1,$1+$1,$4,$5,$6,$7,0*
20,1,$1+$1,$6,$7,$8,$9,0*
20,1,$1+$1,$8,$9,$2,$3,0*%
G04 Aperture macros list end*
%ADD10RoundRect,0.187500X-0.523293X0.518630X-0.710793X0.193870X0.523293X-0.518630X0.710793X-0.193870X0*%
%ADD11RoundRect,0.150000X-0.574519X0.504904X-0.724519X0.245096X0.574519X-0.504904X0.724519X-0.245096X0*%
%ADD12RoundRect,0.225000X0.017644X0.480561X-0.407356X-0.255561X-0.017644X-0.480561X0.407356X0.255561X0*%
%ADD13RoundRect,0.187500X-0.710793X-0.193870X-0.523293X-0.518630X0.710793X0.193870X0.523293X0.518630X0*%
%ADD14RoundRect,0.150000X-0.724519X-0.245096X-0.574519X-0.504904X0.724519X0.245096X0.574519X0.504904X0*%
%ADD15RoundRect,0.225000X-0.407356X0.255561X0.017644X-0.480561X0.407356X-0.255561X-0.017644X0.480561X0*%
%ADD16RoundRect,0.200000X0.200000X0.275000X-0.200000X0.275000X-0.200000X-0.275000X0.200000X-0.275000X0*%
%ADD17RoundRect,0.200000X-0.200000X-0.275000X0.200000X-0.275000X0.200000X0.275000X-0.200000X0.275000X0*%
%ADD18RoundRect,0.225000X-0.250000X0.225000X-0.250000X-0.225000X0.250000X-0.225000X0.250000X0.225000X0*%
%ADD19RoundRect,0.225000X-0.225000X-0.250000X0.225000X-0.250000X0.225000X0.250000X-0.225000X0.250000X0*%
%ADD20RoundRect,0.200000X-0.275000X0.200000X-0.275000X-0.200000X0.275000X-0.200000X0.275000X0.200000X0*%
%ADD21R,0.400000X1.200000*%
%ADD22RoundRect,0.225000X0.225000X0.250000X-0.225000X0.250000X-0.225000X-0.250000X0.225000X-0.250000X0*%
%ADD23R,2.500000X5.100000*%
%ADD24C,17.800000*%
%ADD25RoundRect,0.187500X-0.712500X0.187500X-0.712500X-0.187500X0.712500X-0.187500X0.712500X0.187500X0*%
%ADD26RoundRect,0.150000X-0.750000X0.150000X-0.750000X-0.150000X0.750000X-0.150000X0.750000X0.150000X0*%
%ADD27RoundRect,0.225000X-0.225000X0.425000X-0.225000X-0.425000X0.225000X-0.425000X0.225000X0.425000X0*%
%ADD28R,1.200000X0.600000*%
%ADD29RoundRect,0.100000X0.637500X0.100000X-0.637500X0.100000X-0.637500X-0.100000X0.637500X-0.100000X0*%
G04 APERTURE END LIST*
D10*
%TO.C,SW3*%
X114196534Y-109610881D03*
X115421534Y-107489119D03*
D11*
X114809034Y-108550000D03*
D12*
X117422784Y-107922853D03*
X115572784Y-111127147D03*
%TD*%
D13*
%TO.C,SW2*%
X115421534Y-92510881D03*
X114196534Y-90389119D03*
D14*
X114809034Y-91450000D03*
D15*
X117422784Y-92077147D03*
X115572784Y-88872853D03*
%TD*%
D16*
%TO.C,R51*%
X115025000Y-100000000D03*
X113375000Y-100000000D03*
%TD*%
D17*
%TO.C,R4*%
X107975000Y-108400000D03*
X109625000Y-108400000D03*
%TD*%
D18*
%TO.C,C5*%
X109200000Y-113225000D03*
X109200000Y-114775000D03*
%TD*%
D19*
%TO.C,C8*%
X108025000Y-110000000D03*
X109575000Y-110000000D03*
%TD*%
D20*
%TO.C,R1*%
X89800000Y-105875000D03*
X89800000Y-107525000D03*
%TD*%
D17*
%TO.C,R28*%
X96775000Y-107600000D03*
X98425000Y-107600000D03*
%TD*%
D21*
%TO.C,IC2*%
X84750000Y-93250000D03*
X85400000Y-93250000D03*
X86050000Y-93250000D03*
X86050000Y-95150000D03*
X85400000Y-95150000D03*
X84750000Y-95150000D03*
%TD*%
D20*
%TO.C,R3*%
X91400000Y-105875000D03*
X91400000Y-107525000D03*
%TD*%
D22*
%TO.C,C1*%
X109575000Y-106800000D03*
X108025000Y-106800000D03*
%TD*%
D18*
%TO.C,C6*%
X106000000Y-113225000D03*
X106000000Y-114775000D03*
%TD*%
D23*
%TO.C,BT1*%
X88550000Y-95000000D03*
X111450000Y-95000000D03*
D24*
X100000000Y-95000000D03*
%TD*%
D18*
%TO.C,C7*%
X107600000Y-113225000D03*
X107600000Y-114775000D03*
%TD*%
D25*
%TO.C,SW1*%
X117100000Y-98775000D03*
X117100000Y-101225000D03*
D26*
X117100000Y-100000000D03*
D27*
X119050000Y-101850000D03*
X119050000Y-98150000D03*
%TD*%
D20*
%TO.C,R2*%
X93000000Y-105875000D03*
X93000000Y-107525000D03*
%TD*%
D16*
%TO.C,R31*%
X110425000Y-105200000D03*
X108775000Y-105200000D03*
%TD*%
D28*
%TO.C,Y1*%
X106200000Y-111800000D03*
X106200000Y-110600000D03*
%TD*%
D29*
%TO.C,U1*%
X102862500Y-109075000D03*
X102862500Y-109725000D03*
X102862500Y-110375000D03*
X102862500Y-111025000D03*
X102862500Y-111675000D03*
X102862500Y-112325000D03*
X102862500Y-112975000D03*
X102862500Y-113625000D03*
X102862500Y-114275000D03*
X102862500Y-114925000D03*
X97137500Y-114925000D03*
X97137500Y-114275000D03*
X97137500Y-113625000D03*
X97137500Y-112975000D03*
X97137500Y-112325000D03*
X97137500Y-111675000D03*
X97137500Y-111025000D03*
X97137500Y-110375000D03*
X97137500Y-109725000D03*
X97137500Y-109075000D03*
%TD*%
D16*
%TO.C,R46*%
X115025000Y-101600000D03*
X113375000Y-101600000D03*
%TD*%
D19*
%TO.C,C9*%
X108025000Y-111600000D03*
X109575000Y-111600000D03*
%TD*%
D16*
%TO.C,R45*%
X115025000Y-98400000D03*
X113375000Y-98400000D03*
%TD*%
M02*
