%TF.GenerationSoftware,KiCad,Pcbnew,5.1.10*%
%TF.CreationDate,2021-11-24T19:33:13+01:00*%
%TF.ProjectId,watch,77617463-682e-46b6-9963-61645f706362,rev?*%
%TF.SameCoordinates,Original*%
%TF.FileFunction,Paste,Bot*%
%TF.FilePolarity,Positive*%
%FSLAX46Y46*%
G04 Gerber Fmt 4.6, Leading zero omitted, Abs format (unit mm)*
G04 Created by KiCad (PCBNEW 5.1.10) date 2021-11-24 19:33:13*
%MOMM*%
%LPD*%
G01*
G04 APERTURE LIST*
%ADD10R,2.500000X5.100000*%
%ADD11C,17.800000*%
%ADD12R,1.200000X0.600000*%
G04 APERTURE END LIST*
D10*
%TO.C,BT1*%
X168700000Y-98750000D03*
D11*
X157250000Y-98750000D03*
D10*
X145800000Y-98750000D03*
%TD*%
D12*
%TO.C,Y1*%
X152350000Y-118550000D03*
X152350000Y-117350000D03*
%TD*%
%TO.C,U1*%
G36*
G01*
X159375000Y-119075000D02*
X159375000Y-118875000D01*
G75*
G02*
X159475000Y-118775000I100000J0D01*
G01*
X160750000Y-118775000D01*
G75*
G02*
X160850000Y-118875000I0J-100000D01*
G01*
X160850000Y-119075000D01*
G75*
G02*
X160750000Y-119175000I-100000J0D01*
G01*
X159475000Y-119175000D01*
G75*
G02*
X159375000Y-119075000I0J100000D01*
G01*
G37*
G36*
G01*
X159375000Y-118425000D02*
X159375000Y-118225000D01*
G75*
G02*
X159475000Y-118125000I100000J0D01*
G01*
X160750000Y-118125000D01*
G75*
G02*
X160850000Y-118225000I0J-100000D01*
G01*
X160850000Y-118425000D01*
G75*
G02*
X160750000Y-118525000I-100000J0D01*
G01*
X159475000Y-118525000D01*
G75*
G02*
X159375000Y-118425000I0J100000D01*
G01*
G37*
G36*
G01*
X159375000Y-117775000D02*
X159375000Y-117575000D01*
G75*
G02*
X159475000Y-117475000I100000J0D01*
G01*
X160750000Y-117475000D01*
G75*
G02*
X160850000Y-117575000I0J-100000D01*
G01*
X160850000Y-117775000D01*
G75*
G02*
X160750000Y-117875000I-100000J0D01*
G01*
X159475000Y-117875000D01*
G75*
G02*
X159375000Y-117775000I0J100000D01*
G01*
G37*
G36*
G01*
X159375000Y-117125000D02*
X159375000Y-116925000D01*
G75*
G02*
X159475000Y-116825000I100000J0D01*
G01*
X160750000Y-116825000D01*
G75*
G02*
X160850000Y-116925000I0J-100000D01*
G01*
X160850000Y-117125000D01*
G75*
G02*
X160750000Y-117225000I-100000J0D01*
G01*
X159475000Y-117225000D01*
G75*
G02*
X159375000Y-117125000I0J100000D01*
G01*
G37*
G36*
G01*
X159375000Y-116475000D02*
X159375000Y-116275000D01*
G75*
G02*
X159475000Y-116175000I100000J0D01*
G01*
X160750000Y-116175000D01*
G75*
G02*
X160850000Y-116275000I0J-100000D01*
G01*
X160850000Y-116475000D01*
G75*
G02*
X160750000Y-116575000I-100000J0D01*
G01*
X159475000Y-116575000D01*
G75*
G02*
X159375000Y-116475000I0J100000D01*
G01*
G37*
G36*
G01*
X159375000Y-115825000D02*
X159375000Y-115625000D01*
G75*
G02*
X159475000Y-115525000I100000J0D01*
G01*
X160750000Y-115525000D01*
G75*
G02*
X160850000Y-115625000I0J-100000D01*
G01*
X160850000Y-115825000D01*
G75*
G02*
X160750000Y-115925000I-100000J0D01*
G01*
X159475000Y-115925000D01*
G75*
G02*
X159375000Y-115825000I0J100000D01*
G01*
G37*
G36*
G01*
X159375000Y-115175000D02*
X159375000Y-114975000D01*
G75*
G02*
X159475000Y-114875000I100000J0D01*
G01*
X160750000Y-114875000D01*
G75*
G02*
X160850000Y-114975000I0J-100000D01*
G01*
X160850000Y-115175000D01*
G75*
G02*
X160750000Y-115275000I-100000J0D01*
G01*
X159475000Y-115275000D01*
G75*
G02*
X159375000Y-115175000I0J100000D01*
G01*
G37*
G36*
G01*
X159375000Y-114525000D02*
X159375000Y-114325000D01*
G75*
G02*
X159475000Y-114225000I100000J0D01*
G01*
X160750000Y-114225000D01*
G75*
G02*
X160850000Y-114325000I0J-100000D01*
G01*
X160850000Y-114525000D01*
G75*
G02*
X160750000Y-114625000I-100000J0D01*
G01*
X159475000Y-114625000D01*
G75*
G02*
X159375000Y-114525000I0J100000D01*
G01*
G37*
G36*
G01*
X159375000Y-113875000D02*
X159375000Y-113675000D01*
G75*
G02*
X159475000Y-113575000I100000J0D01*
G01*
X160750000Y-113575000D01*
G75*
G02*
X160850000Y-113675000I0J-100000D01*
G01*
X160850000Y-113875000D01*
G75*
G02*
X160750000Y-113975000I-100000J0D01*
G01*
X159475000Y-113975000D01*
G75*
G02*
X159375000Y-113875000I0J100000D01*
G01*
G37*
G36*
G01*
X159375000Y-113225000D02*
X159375000Y-113025000D01*
G75*
G02*
X159475000Y-112925000I100000J0D01*
G01*
X160750000Y-112925000D01*
G75*
G02*
X160850000Y-113025000I0J-100000D01*
G01*
X160850000Y-113225000D01*
G75*
G02*
X160750000Y-113325000I-100000J0D01*
G01*
X159475000Y-113325000D01*
G75*
G02*
X159375000Y-113225000I0J100000D01*
G01*
G37*
G36*
G01*
X153650000Y-113225000D02*
X153650000Y-113025000D01*
G75*
G02*
X153750000Y-112925000I100000J0D01*
G01*
X155025000Y-112925000D01*
G75*
G02*
X155125000Y-113025000I0J-100000D01*
G01*
X155125000Y-113225000D01*
G75*
G02*
X155025000Y-113325000I-100000J0D01*
G01*
X153750000Y-113325000D01*
G75*
G02*
X153650000Y-113225000I0J100000D01*
G01*
G37*
G36*
G01*
X153650000Y-113875000D02*
X153650000Y-113675000D01*
G75*
G02*
X153750000Y-113575000I100000J0D01*
G01*
X155025000Y-113575000D01*
G75*
G02*
X155125000Y-113675000I0J-100000D01*
G01*
X155125000Y-113875000D01*
G75*
G02*
X155025000Y-113975000I-100000J0D01*
G01*
X153750000Y-113975000D01*
G75*
G02*
X153650000Y-113875000I0J100000D01*
G01*
G37*
G36*
G01*
X153650000Y-114525000D02*
X153650000Y-114325000D01*
G75*
G02*
X153750000Y-114225000I100000J0D01*
G01*
X155025000Y-114225000D01*
G75*
G02*
X155125000Y-114325000I0J-100000D01*
G01*
X155125000Y-114525000D01*
G75*
G02*
X155025000Y-114625000I-100000J0D01*
G01*
X153750000Y-114625000D01*
G75*
G02*
X153650000Y-114525000I0J100000D01*
G01*
G37*
G36*
G01*
X153650000Y-115175000D02*
X153650000Y-114975000D01*
G75*
G02*
X153750000Y-114875000I100000J0D01*
G01*
X155025000Y-114875000D01*
G75*
G02*
X155125000Y-114975000I0J-100000D01*
G01*
X155125000Y-115175000D01*
G75*
G02*
X155025000Y-115275000I-100000J0D01*
G01*
X153750000Y-115275000D01*
G75*
G02*
X153650000Y-115175000I0J100000D01*
G01*
G37*
G36*
G01*
X153650000Y-115825000D02*
X153650000Y-115625000D01*
G75*
G02*
X153750000Y-115525000I100000J0D01*
G01*
X155025000Y-115525000D01*
G75*
G02*
X155125000Y-115625000I0J-100000D01*
G01*
X155125000Y-115825000D01*
G75*
G02*
X155025000Y-115925000I-100000J0D01*
G01*
X153750000Y-115925000D01*
G75*
G02*
X153650000Y-115825000I0J100000D01*
G01*
G37*
G36*
G01*
X153650000Y-116475000D02*
X153650000Y-116275000D01*
G75*
G02*
X153750000Y-116175000I100000J0D01*
G01*
X155025000Y-116175000D01*
G75*
G02*
X155125000Y-116275000I0J-100000D01*
G01*
X155125000Y-116475000D01*
G75*
G02*
X155025000Y-116575000I-100000J0D01*
G01*
X153750000Y-116575000D01*
G75*
G02*
X153650000Y-116475000I0J100000D01*
G01*
G37*
G36*
G01*
X153650000Y-117125000D02*
X153650000Y-116925000D01*
G75*
G02*
X153750000Y-116825000I100000J0D01*
G01*
X155025000Y-116825000D01*
G75*
G02*
X155125000Y-116925000I0J-100000D01*
G01*
X155125000Y-117125000D01*
G75*
G02*
X155025000Y-117225000I-100000J0D01*
G01*
X153750000Y-117225000D01*
G75*
G02*
X153650000Y-117125000I0J100000D01*
G01*
G37*
G36*
G01*
X153650000Y-117775000D02*
X153650000Y-117575000D01*
G75*
G02*
X153750000Y-117475000I100000J0D01*
G01*
X155025000Y-117475000D01*
G75*
G02*
X155125000Y-117575000I0J-100000D01*
G01*
X155125000Y-117775000D01*
G75*
G02*
X155025000Y-117875000I-100000J0D01*
G01*
X153750000Y-117875000D01*
G75*
G02*
X153650000Y-117775000I0J100000D01*
G01*
G37*
G36*
G01*
X153650000Y-118425000D02*
X153650000Y-118225000D01*
G75*
G02*
X153750000Y-118125000I100000J0D01*
G01*
X155025000Y-118125000D01*
G75*
G02*
X155125000Y-118225000I0J-100000D01*
G01*
X155125000Y-118425000D01*
G75*
G02*
X155025000Y-118525000I-100000J0D01*
G01*
X153750000Y-118525000D01*
G75*
G02*
X153650000Y-118425000I0J100000D01*
G01*
G37*
G36*
G01*
X153650000Y-119075000D02*
X153650000Y-118875000D01*
G75*
G02*
X153750000Y-118775000I100000J0D01*
G01*
X155025000Y-118775000D01*
G75*
G02*
X155125000Y-118875000I0J-100000D01*
G01*
X155125000Y-119075000D01*
G75*
G02*
X155025000Y-119175000I-100000J0D01*
G01*
X153750000Y-119175000D01*
G75*
G02*
X153650000Y-119075000I0J100000D01*
G01*
G37*
%TD*%
%TO.C,R51*%
G36*
G01*
X152215000Y-115740000D02*
X152585000Y-115740000D01*
G75*
G02*
X152720000Y-115875000I0J-135000D01*
G01*
X152720000Y-116145000D01*
G75*
G02*
X152585000Y-116280000I-135000J0D01*
G01*
X152215000Y-116280000D01*
G75*
G02*
X152080000Y-116145000I0J135000D01*
G01*
X152080000Y-115875000D01*
G75*
G02*
X152215000Y-115740000I135000J0D01*
G01*
G37*
G36*
G01*
X152215000Y-114720000D02*
X152585000Y-114720000D01*
G75*
G02*
X152720000Y-114855000I0J-135000D01*
G01*
X152720000Y-115125000D01*
G75*
G02*
X152585000Y-115260000I-135000J0D01*
G01*
X152215000Y-115260000D01*
G75*
G02*
X152080000Y-115125000I0J135000D01*
G01*
X152080000Y-114855000D01*
G75*
G02*
X152215000Y-114720000I135000J0D01*
G01*
G37*
%TD*%
%TO.C,R31*%
G36*
G01*
X167085000Y-109760000D02*
X166715000Y-109760000D01*
G75*
G02*
X166580000Y-109625000I0J135000D01*
G01*
X166580000Y-109355000D01*
G75*
G02*
X166715000Y-109220000I135000J0D01*
G01*
X167085000Y-109220000D01*
G75*
G02*
X167220000Y-109355000I0J-135000D01*
G01*
X167220000Y-109625000D01*
G75*
G02*
X167085000Y-109760000I-135000J0D01*
G01*
G37*
G36*
G01*
X167085000Y-110780000D02*
X166715000Y-110780000D01*
G75*
G02*
X166580000Y-110645000I0J135000D01*
G01*
X166580000Y-110375000D01*
G75*
G02*
X166715000Y-110240000I135000J0D01*
G01*
X167085000Y-110240000D01*
G75*
G02*
X167220000Y-110375000I0J-135000D01*
G01*
X167220000Y-110645000D01*
G75*
G02*
X167085000Y-110780000I-135000J0D01*
G01*
G37*
%TD*%
%TO.C,R28*%
G36*
G01*
X166715000Y-108240000D02*
X167085000Y-108240000D01*
G75*
G02*
X167220000Y-108375000I0J-135000D01*
G01*
X167220000Y-108645000D01*
G75*
G02*
X167085000Y-108780000I-135000J0D01*
G01*
X166715000Y-108780000D01*
G75*
G02*
X166580000Y-108645000I0J135000D01*
G01*
X166580000Y-108375000D01*
G75*
G02*
X166715000Y-108240000I135000J0D01*
G01*
G37*
G36*
G01*
X166715000Y-107220000D02*
X167085000Y-107220000D01*
G75*
G02*
X167220000Y-107355000I0J-135000D01*
G01*
X167220000Y-107625000D01*
G75*
G02*
X167085000Y-107760000I-135000J0D01*
G01*
X166715000Y-107760000D01*
G75*
G02*
X166580000Y-107625000I0J135000D01*
G01*
X166580000Y-107355000D01*
G75*
G02*
X166715000Y-107220000I135000J0D01*
G01*
G37*
%TD*%
%TO.C,R20*%
G36*
G01*
X162740000Y-113585000D02*
X162740000Y-113215000D01*
G75*
G02*
X162875000Y-113080000I135000J0D01*
G01*
X163145000Y-113080000D01*
G75*
G02*
X163280000Y-113215000I0J-135000D01*
G01*
X163280000Y-113585000D01*
G75*
G02*
X163145000Y-113720000I-135000J0D01*
G01*
X162875000Y-113720000D01*
G75*
G02*
X162740000Y-113585000I0J135000D01*
G01*
G37*
G36*
G01*
X161720000Y-113585000D02*
X161720000Y-113215000D01*
G75*
G02*
X161855000Y-113080000I135000J0D01*
G01*
X162125000Y-113080000D01*
G75*
G02*
X162260000Y-113215000I0J-135000D01*
G01*
X162260000Y-113585000D01*
G75*
G02*
X162125000Y-113720000I-135000J0D01*
G01*
X161855000Y-113720000D01*
G75*
G02*
X161720000Y-113585000I0J135000D01*
G01*
G37*
%TD*%
%TO.C,R4*%
G36*
G01*
X154215000Y-120840000D02*
X154585000Y-120840000D01*
G75*
G02*
X154720000Y-120975000I0J-135000D01*
G01*
X154720000Y-121245000D01*
G75*
G02*
X154585000Y-121380000I-135000J0D01*
G01*
X154215000Y-121380000D01*
G75*
G02*
X154080000Y-121245000I0J135000D01*
G01*
X154080000Y-120975000D01*
G75*
G02*
X154215000Y-120840000I135000J0D01*
G01*
G37*
G36*
G01*
X154215000Y-119820000D02*
X154585000Y-119820000D01*
G75*
G02*
X154720000Y-119955000I0J-135000D01*
G01*
X154720000Y-120225000D01*
G75*
G02*
X154585000Y-120360000I-135000J0D01*
G01*
X154215000Y-120360000D01*
G75*
G02*
X154080000Y-120225000I0J135000D01*
G01*
X154080000Y-119955000D01*
G75*
G02*
X154215000Y-119820000I135000J0D01*
G01*
G37*
%TD*%
%TO.C,R3*%
G36*
G01*
X145060000Y-109815000D02*
X145060000Y-110185000D01*
G75*
G02*
X144925000Y-110320000I-135000J0D01*
G01*
X144655000Y-110320000D01*
G75*
G02*
X144520000Y-110185000I0J135000D01*
G01*
X144520000Y-109815000D01*
G75*
G02*
X144655000Y-109680000I135000J0D01*
G01*
X144925000Y-109680000D01*
G75*
G02*
X145060000Y-109815000I0J-135000D01*
G01*
G37*
G36*
G01*
X146080000Y-109815000D02*
X146080000Y-110185000D01*
G75*
G02*
X145945000Y-110320000I-135000J0D01*
G01*
X145675000Y-110320000D01*
G75*
G02*
X145540000Y-110185000I0J135000D01*
G01*
X145540000Y-109815000D01*
G75*
G02*
X145675000Y-109680000I135000J0D01*
G01*
X145945000Y-109680000D01*
G75*
G02*
X146080000Y-109815000I0J-135000D01*
G01*
G37*
%TD*%
%TO.C,R2*%
G36*
G01*
X145060000Y-107815000D02*
X145060000Y-108185000D01*
G75*
G02*
X144925000Y-108320000I-135000J0D01*
G01*
X144655000Y-108320000D01*
G75*
G02*
X144520000Y-108185000I0J135000D01*
G01*
X144520000Y-107815000D01*
G75*
G02*
X144655000Y-107680000I135000J0D01*
G01*
X144925000Y-107680000D01*
G75*
G02*
X145060000Y-107815000I0J-135000D01*
G01*
G37*
G36*
G01*
X146080000Y-107815000D02*
X146080000Y-108185000D01*
G75*
G02*
X145945000Y-108320000I-135000J0D01*
G01*
X145675000Y-108320000D01*
G75*
G02*
X145540000Y-108185000I0J135000D01*
G01*
X145540000Y-107815000D01*
G75*
G02*
X145675000Y-107680000I135000J0D01*
G01*
X145945000Y-107680000D01*
G75*
G02*
X146080000Y-107815000I0J-135000D01*
G01*
G37*
%TD*%
%TO.C,R1*%
G36*
G01*
X145060000Y-105815000D02*
X145060000Y-106185000D01*
G75*
G02*
X144925000Y-106320000I-135000J0D01*
G01*
X144655000Y-106320000D01*
G75*
G02*
X144520000Y-106185000I0J135000D01*
G01*
X144520000Y-105815000D01*
G75*
G02*
X144655000Y-105680000I135000J0D01*
G01*
X144925000Y-105680000D01*
G75*
G02*
X145060000Y-105815000I0J-135000D01*
G01*
G37*
G36*
G01*
X146080000Y-105815000D02*
X146080000Y-106185000D01*
G75*
G02*
X145945000Y-106320000I-135000J0D01*
G01*
X145675000Y-106320000D01*
G75*
G02*
X145540000Y-106185000I0J135000D01*
G01*
X145540000Y-105815000D01*
G75*
G02*
X145675000Y-105680000I135000J0D01*
G01*
X145945000Y-105680000D01*
G75*
G02*
X146080000Y-105815000I0J-135000D01*
G01*
G37*
%TD*%
%TO.C,C9*%
G36*
G01*
X150250000Y-117180000D02*
X150250000Y-117520000D01*
G75*
G02*
X150110000Y-117660000I-140000J0D01*
G01*
X149830000Y-117660000D01*
G75*
G02*
X149690000Y-117520000I0J140000D01*
G01*
X149690000Y-117180000D01*
G75*
G02*
X149830000Y-117040000I140000J0D01*
G01*
X150110000Y-117040000D01*
G75*
G02*
X150250000Y-117180000I0J-140000D01*
G01*
G37*
G36*
G01*
X151210000Y-117180000D02*
X151210000Y-117520000D01*
G75*
G02*
X151070000Y-117660000I-140000J0D01*
G01*
X150790000Y-117660000D01*
G75*
G02*
X150650000Y-117520000I0J140000D01*
G01*
X150650000Y-117180000D01*
G75*
G02*
X150790000Y-117040000I140000J0D01*
G01*
X151070000Y-117040000D01*
G75*
G02*
X151210000Y-117180000I0J-140000D01*
G01*
G37*
%TD*%
%TO.C,C8*%
G36*
G01*
X150250000Y-118280000D02*
X150250000Y-118620000D01*
G75*
G02*
X150110000Y-118760000I-140000J0D01*
G01*
X149830000Y-118760000D01*
G75*
G02*
X149690000Y-118620000I0J140000D01*
G01*
X149690000Y-118280000D01*
G75*
G02*
X149830000Y-118140000I140000J0D01*
G01*
X150110000Y-118140000D01*
G75*
G02*
X150250000Y-118280000I0J-140000D01*
G01*
G37*
G36*
G01*
X151210000Y-118280000D02*
X151210000Y-118620000D01*
G75*
G02*
X151070000Y-118760000I-140000J0D01*
G01*
X150790000Y-118760000D01*
G75*
G02*
X150650000Y-118620000I0J140000D01*
G01*
X150650000Y-118280000D01*
G75*
G02*
X150790000Y-118140000I140000J0D01*
G01*
X151070000Y-118140000D01*
G75*
G02*
X151210000Y-118280000I0J-140000D01*
G01*
G37*
%TD*%
%TO.C,C7*%
G36*
G01*
X155770000Y-120400000D02*
X155430000Y-120400000D01*
G75*
G02*
X155290000Y-120260000I0J140000D01*
G01*
X155290000Y-119980000D01*
G75*
G02*
X155430000Y-119840000I140000J0D01*
G01*
X155770000Y-119840000D01*
G75*
G02*
X155910000Y-119980000I0J-140000D01*
G01*
X155910000Y-120260000D01*
G75*
G02*
X155770000Y-120400000I-140000J0D01*
G01*
G37*
G36*
G01*
X155770000Y-121360000D02*
X155430000Y-121360000D01*
G75*
G02*
X155290000Y-121220000I0J140000D01*
G01*
X155290000Y-120940000D01*
G75*
G02*
X155430000Y-120800000I140000J0D01*
G01*
X155770000Y-120800000D01*
G75*
G02*
X155910000Y-120940000I0J-140000D01*
G01*
X155910000Y-121220000D01*
G75*
G02*
X155770000Y-121360000I-140000J0D01*
G01*
G37*
%TD*%
%TO.C,C6*%
G36*
G01*
X161580000Y-116250000D02*
X161920000Y-116250000D01*
G75*
G02*
X162060000Y-116390000I0J-140000D01*
G01*
X162060000Y-116670000D01*
G75*
G02*
X161920000Y-116810000I-140000J0D01*
G01*
X161580000Y-116810000D01*
G75*
G02*
X161440000Y-116670000I0J140000D01*
G01*
X161440000Y-116390000D01*
G75*
G02*
X161580000Y-116250000I140000J0D01*
G01*
G37*
G36*
G01*
X161580000Y-115290000D02*
X161920000Y-115290000D01*
G75*
G02*
X162060000Y-115430000I0J-140000D01*
G01*
X162060000Y-115710000D01*
G75*
G02*
X161920000Y-115850000I-140000J0D01*
G01*
X161580000Y-115850000D01*
G75*
G02*
X161440000Y-115710000I0J140000D01*
G01*
X161440000Y-115430000D01*
G75*
G02*
X161580000Y-115290000I140000J0D01*
G01*
G37*
%TD*%
%TO.C,C5*%
G36*
G01*
X162830000Y-116250000D02*
X163170000Y-116250000D01*
G75*
G02*
X163310000Y-116390000I0J-140000D01*
G01*
X163310000Y-116670000D01*
G75*
G02*
X163170000Y-116810000I-140000J0D01*
G01*
X162830000Y-116810000D01*
G75*
G02*
X162690000Y-116670000I0J140000D01*
G01*
X162690000Y-116390000D01*
G75*
G02*
X162830000Y-116250000I140000J0D01*
G01*
G37*
G36*
G01*
X162830000Y-115290000D02*
X163170000Y-115290000D01*
G75*
G02*
X163310000Y-115430000I0J-140000D01*
G01*
X163310000Y-115710000D01*
G75*
G02*
X163170000Y-115850000I-140000J0D01*
G01*
X162830000Y-115850000D01*
G75*
G02*
X162690000Y-115710000I0J140000D01*
G01*
X162690000Y-115430000D01*
G75*
G02*
X162830000Y-115290000I140000J0D01*
G01*
G37*
%TD*%
%TO.C,C2*%
G36*
G01*
X162700000Y-114670000D02*
X162700000Y-114330000D01*
G75*
G02*
X162840000Y-114190000I140000J0D01*
G01*
X163120000Y-114190000D01*
G75*
G02*
X163260000Y-114330000I0J-140000D01*
G01*
X163260000Y-114670000D01*
G75*
G02*
X163120000Y-114810000I-140000J0D01*
G01*
X162840000Y-114810000D01*
G75*
G02*
X162700000Y-114670000I0J140000D01*
G01*
G37*
G36*
G01*
X161740000Y-114670000D02*
X161740000Y-114330000D01*
G75*
G02*
X161880000Y-114190000I140000J0D01*
G01*
X162160000Y-114190000D01*
G75*
G02*
X162300000Y-114330000I0J-140000D01*
G01*
X162300000Y-114670000D01*
G75*
G02*
X162160000Y-114810000I-140000J0D01*
G01*
X161880000Y-114810000D01*
G75*
G02*
X161740000Y-114670000I0J140000D01*
G01*
G37*
%TD*%
%TO.C,C1*%
G36*
G01*
X147070000Y-110300000D02*
X146730000Y-110300000D01*
G75*
G02*
X146590000Y-110160000I0J140000D01*
G01*
X146590000Y-109880000D01*
G75*
G02*
X146730000Y-109740000I140000J0D01*
G01*
X147070000Y-109740000D01*
G75*
G02*
X147210000Y-109880000I0J-140000D01*
G01*
X147210000Y-110160000D01*
G75*
G02*
X147070000Y-110300000I-140000J0D01*
G01*
G37*
G36*
G01*
X147070000Y-111260000D02*
X146730000Y-111260000D01*
G75*
G02*
X146590000Y-111120000I0J140000D01*
G01*
X146590000Y-110840000D01*
G75*
G02*
X146730000Y-110700000I140000J0D01*
G01*
X147070000Y-110700000D01*
G75*
G02*
X147210000Y-110840000I0J-140000D01*
G01*
X147210000Y-111120000D01*
G75*
G02*
X147070000Y-111260000I-140000J0D01*
G01*
G37*
%TD*%
M02*
