%TF.GenerationSoftware,KiCad,Pcbnew,(6.0.2)*%
%TF.CreationDate,2022-03-23T22:41:38+01:00*%
%TF.ProjectId,watch,77617463-682e-46b6-9963-61645f706362,rev?*%
%TF.SameCoordinates,Original*%
%TF.FileFunction,Legend,Bot*%
%TF.FilePolarity,Positive*%
%FSLAX46Y46*%
G04 Gerber Fmt 4.6, Leading zero omitted, Abs format (unit mm)*
G04 Created by KiCad (PCBNEW (6.0.2)) date 2022-03-23 22:41:38*
%MOMM*%
%LPD*%
G01*
G04 APERTURE LIST*
%ADD10C,0.125000*%
%ADD11C,0.100000*%
%ADD12C,0.120000*%
%ADD13C,0.200000*%
G04 APERTURE END LIST*
D10*
X92307142Y-113902380D02*
X92235714Y-113926190D01*
X92116666Y-113926190D01*
X92069047Y-113902380D01*
X92045238Y-113878571D01*
X92021428Y-113830952D01*
X92021428Y-113783333D01*
X92045238Y-113735714D01*
X92069047Y-113711904D01*
X92116666Y-113688095D01*
X92211904Y-113664285D01*
X92259523Y-113640476D01*
X92283333Y-113616666D01*
X92307142Y-113569047D01*
X92307142Y-113521428D01*
X92283333Y-113473809D01*
X92259523Y-113450000D01*
X92211904Y-113426190D01*
X92092857Y-113426190D01*
X92021428Y-113450000D01*
X91854761Y-113426190D02*
X91735714Y-113926190D01*
X91640476Y-113569047D01*
X91545238Y-113926190D01*
X91426190Y-113426190D01*
X90950000Y-113926190D02*
X91116666Y-113688095D01*
X91235714Y-113926190D02*
X91235714Y-113426190D01*
X91045238Y-113426190D01*
X90997619Y-113450000D01*
X90973809Y-113473809D01*
X90950000Y-113521428D01*
X90950000Y-113592857D01*
X90973809Y-113640476D01*
X90997619Y-113664285D01*
X91045238Y-113688095D01*
X91235714Y-113688095D01*
X90759523Y-113902380D02*
X90688095Y-113926190D01*
X90569047Y-113926190D01*
X90521428Y-113902380D01*
X90497619Y-113878571D01*
X90473809Y-113830952D01*
X90473809Y-113783333D01*
X90497619Y-113735714D01*
X90521428Y-113711904D01*
X90569047Y-113688095D01*
X90664285Y-113664285D01*
X90711904Y-113640476D01*
X90735714Y-113616666D01*
X90759523Y-113569047D01*
X90759523Y-113521428D01*
X90735714Y-113473809D01*
X90711904Y-113450000D01*
X90664285Y-113426190D01*
X90545238Y-113426190D01*
X90473809Y-113450000D01*
X90330952Y-113426190D02*
X90045238Y-113426190D01*
X90188095Y-113926190D02*
X90188095Y-113426190D01*
X101523809Y-82852380D02*
X101190476Y-83852380D01*
X100857142Y-82852380D01*
X100000000Y-83852380D02*
X100571428Y-83852380D01*
X100285714Y-83852380D02*
X100285714Y-82852380D01*
X100380952Y-82995238D01*
X100476190Y-83090476D01*
X100571428Y-83138095D01*
X99571428Y-83757142D02*
X99523809Y-83804761D01*
X99571428Y-83852380D01*
X99619047Y-83804761D01*
X99571428Y-83757142D01*
X99571428Y-83852380D01*
X99142857Y-82947619D02*
X99095238Y-82900000D01*
X99000000Y-82852380D01*
X98761904Y-82852380D01*
X98666666Y-82900000D01*
X98619047Y-82947619D01*
X98571428Y-83042857D01*
X98571428Y-83138095D01*
X98619047Y-83280952D01*
X99190476Y-83852380D01*
X98571428Y-83852380D01*
X86519047Y-101326190D02*
X86209523Y-101326190D01*
X86376190Y-101516666D01*
X86304761Y-101516666D01*
X86257142Y-101540476D01*
X86233333Y-101564285D01*
X86209523Y-101611904D01*
X86209523Y-101730952D01*
X86233333Y-101778571D01*
X86257142Y-101802380D01*
X86304761Y-101826190D01*
X86447619Y-101826190D01*
X86495238Y-101802380D01*
X86519047Y-101778571D01*
X86066666Y-101326190D02*
X85900000Y-101826190D01*
X85733333Y-101326190D01*
X85614285Y-101326190D02*
X85304761Y-101326190D01*
X85471428Y-101516666D01*
X85400000Y-101516666D01*
X85352380Y-101540476D01*
X85328571Y-101564285D01*
X85304761Y-101611904D01*
X85304761Y-101730952D01*
X85328571Y-101778571D01*
X85352380Y-101802380D01*
X85400000Y-101826190D01*
X85542857Y-101826190D01*
X85590476Y-101802380D01*
X85614285Y-101778571D01*
D11*
X99734523Y-109890476D02*
X100341666Y-109890476D01*
X100463095Y-109866666D01*
X100544047Y-109819047D01*
X100584523Y-109747619D01*
X100584523Y-109700000D01*
X100584523Y-110366666D02*
X100584523Y-110128571D01*
X99734523Y-110128571D01*
X100503571Y-110819047D02*
X100544047Y-110795238D01*
X100584523Y-110723809D01*
X100584523Y-110676190D01*
X100544047Y-110604761D01*
X100463095Y-110557142D01*
X100382142Y-110533333D01*
X100220238Y-110509523D01*
X100098809Y-110509523D01*
X99936904Y-110533333D01*
X99855952Y-110557142D01*
X99775000Y-110604761D01*
X99734523Y-110676190D01*
X99734523Y-110723809D01*
X99775000Y-110795238D01*
X99815476Y-110819047D01*
X99734523Y-111176190D02*
X100341666Y-111176190D01*
X100463095Y-111152380D01*
X100544047Y-111104761D01*
X100584523Y-111033333D01*
X100584523Y-110985714D01*
X100584523Y-111652380D02*
X100584523Y-111414285D01*
X99734523Y-111414285D01*
X100503571Y-112104761D02*
X100544047Y-112080952D01*
X100584523Y-112009523D01*
X100584523Y-111961904D01*
X100544047Y-111890476D01*
X100463095Y-111842857D01*
X100382142Y-111819047D01*
X100220238Y-111795238D01*
X100098809Y-111795238D01*
X99936904Y-111819047D01*
X99855952Y-111842857D01*
X99775000Y-111890476D01*
X99734523Y-111961904D01*
X99734523Y-112009523D01*
X99775000Y-112080952D01*
X99815476Y-112104761D01*
X99734523Y-112461904D02*
X100341666Y-112461904D01*
X100463095Y-112438095D01*
X100544047Y-112390476D01*
X100584523Y-112319047D01*
X100584523Y-112271428D01*
X100584523Y-112938095D02*
X100584523Y-112700000D01*
X99734523Y-112700000D01*
X100503571Y-113390476D02*
X100544047Y-113366666D01*
X100584523Y-113295238D01*
X100584523Y-113247619D01*
X100544047Y-113176190D01*
X100463095Y-113128571D01*
X100382142Y-113104761D01*
X100220238Y-113080952D01*
X100098809Y-113080952D01*
X99936904Y-113104761D01*
X99855952Y-113128571D01*
X99775000Y-113176190D01*
X99734523Y-113247619D01*
X99734523Y-113295238D01*
X99775000Y-113366666D01*
X99815476Y-113390476D01*
X99734523Y-113747619D02*
X100341666Y-113747619D01*
X100463095Y-113723809D01*
X100544047Y-113676190D01*
X100584523Y-113604761D01*
X100584523Y-113557142D01*
X100584523Y-114223809D02*
X100584523Y-113985714D01*
X99734523Y-113985714D01*
X100503571Y-114676190D02*
X100544047Y-114652380D01*
X100584523Y-114580952D01*
X100584523Y-114533333D01*
X100544047Y-114461904D01*
X100463095Y-114414285D01*
X100382142Y-114390476D01*
X100220238Y-114366666D01*
X100098809Y-114366666D01*
X99936904Y-114390476D01*
X99855952Y-114414285D01*
X99775000Y-114461904D01*
X99734523Y-114533333D01*
X99734523Y-114580952D01*
X99775000Y-114652380D01*
X99815476Y-114676190D01*
D10*
X95130952Y-116202380D02*
X95059523Y-116226190D01*
X94940476Y-116226190D01*
X94892857Y-116202380D01*
X94869047Y-116178571D01*
X94845238Y-116130952D01*
X94845238Y-116083333D01*
X94869047Y-116035714D01*
X94892857Y-116011904D01*
X94940476Y-115988095D01*
X95035714Y-115964285D01*
X95083333Y-115940476D01*
X95107142Y-115916666D01*
X95130952Y-115869047D01*
X95130952Y-115821428D01*
X95107142Y-115773809D01*
X95083333Y-115750000D01*
X95035714Y-115726190D01*
X94916666Y-115726190D01*
X94845238Y-115750000D01*
X94678571Y-115726190D02*
X94559523Y-116226190D01*
X94464285Y-115869047D01*
X94369047Y-116226190D01*
X94250000Y-115726190D01*
X93773809Y-116178571D02*
X93797619Y-116202380D01*
X93869047Y-116226190D01*
X93916666Y-116226190D01*
X93988095Y-116202380D01*
X94035714Y-116154761D01*
X94059523Y-116107142D01*
X94083333Y-116011904D01*
X94083333Y-115940476D01*
X94059523Y-115845238D01*
X94035714Y-115797619D01*
X93988095Y-115750000D01*
X93916666Y-115726190D01*
X93869047Y-115726190D01*
X93797619Y-115750000D01*
X93773809Y-115773809D01*
X93321428Y-116226190D02*
X93559523Y-116226190D01*
X93559523Y-115726190D01*
X93154761Y-116226190D02*
X93154761Y-115726190D01*
X92869047Y-116226190D02*
X93083333Y-115940476D01*
X92869047Y-115726190D02*
X93154761Y-116011904D01*
X86280952Y-98150000D02*
X86328571Y-98126190D01*
X86400000Y-98126190D01*
X86471428Y-98150000D01*
X86519047Y-98197619D01*
X86542857Y-98245238D01*
X86566666Y-98340476D01*
X86566666Y-98411904D01*
X86542857Y-98507142D01*
X86519047Y-98554761D01*
X86471428Y-98602380D01*
X86400000Y-98626190D01*
X86352380Y-98626190D01*
X86280952Y-98602380D01*
X86257142Y-98578571D01*
X86257142Y-98411904D01*
X86352380Y-98411904D01*
X86042857Y-98626190D02*
X86042857Y-98126190D01*
X85757142Y-98626190D01*
X85757142Y-98126190D01*
X85519047Y-98626190D02*
X85519047Y-98126190D01*
X85400000Y-98126190D01*
X85328571Y-98150000D01*
X85280952Y-98197619D01*
X85257142Y-98245238D01*
X85233333Y-98340476D01*
X85233333Y-98411904D01*
X85257142Y-98507142D01*
X85280952Y-98554761D01*
X85328571Y-98602380D01*
X85400000Y-98626190D01*
X85519047Y-98626190D01*
X88780952Y-103326190D02*
X88495238Y-103326190D01*
X88638095Y-103826190D02*
X88638095Y-103326190D01*
X88376190Y-103326190D02*
X88042857Y-103826190D01*
X88042857Y-103326190D02*
X88376190Y-103826190D01*
X88483333Y-106826190D02*
X88650000Y-106588095D01*
X88769047Y-106826190D02*
X88769047Y-106326190D01*
X88578571Y-106326190D01*
X88530952Y-106350000D01*
X88507142Y-106373809D01*
X88483333Y-106421428D01*
X88483333Y-106492857D01*
X88507142Y-106540476D01*
X88530952Y-106564285D01*
X88578571Y-106588095D01*
X88769047Y-106588095D01*
X88316666Y-106326190D02*
X87983333Y-106826190D01*
X87983333Y-106326190D02*
X88316666Y-106826190D01*
X89409523Y-111902380D02*
X89338095Y-111926190D01*
X89219047Y-111926190D01*
X89171428Y-111902380D01*
X89147619Y-111878571D01*
X89123809Y-111830952D01*
X89123809Y-111783333D01*
X89147619Y-111735714D01*
X89171428Y-111711904D01*
X89219047Y-111688095D01*
X89314285Y-111664285D01*
X89361904Y-111640476D01*
X89385714Y-111616666D01*
X89409523Y-111569047D01*
X89409523Y-111521428D01*
X89385714Y-111473809D01*
X89361904Y-111450000D01*
X89314285Y-111426190D01*
X89195238Y-111426190D01*
X89123809Y-111450000D01*
X88957142Y-111426190D02*
X88838095Y-111926190D01*
X88742857Y-111569047D01*
X88647619Y-111926190D01*
X88528571Y-111426190D01*
X88338095Y-111926190D02*
X88338095Y-111426190D01*
X88004761Y-111426190D02*
X87909523Y-111426190D01*
X87861904Y-111450000D01*
X87814285Y-111497619D01*
X87790476Y-111592857D01*
X87790476Y-111759523D01*
X87814285Y-111854761D01*
X87861904Y-111902380D01*
X87909523Y-111926190D01*
X88004761Y-111926190D01*
X88052380Y-111902380D01*
X88100000Y-111854761D01*
X88123809Y-111759523D01*
X88123809Y-111592857D01*
X88100000Y-111497619D01*
X88052380Y-111450000D01*
X88004761Y-111426190D01*
D12*
%TO.C,SW3*%
X117214290Y-108783975D02*
X116214290Y-110516025D01*
X115189419Y-106691154D02*
X115489419Y-106171539D01*
X115489419Y-106171539D02*
X116355444Y-106671539D01*
X113389419Y-109808846D02*
X113089419Y-110328461D01*
X113089419Y-110328461D02*
X113955444Y-110828461D01*
%TO.C,SW2*%
X113389419Y-90191154D02*
X113089419Y-89671539D01*
X113089419Y-89671539D02*
X113955444Y-89171539D01*
X116214290Y-89483975D02*
X117214290Y-91216025D01*
X115189419Y-93308846D02*
X115489419Y-93828461D01*
X115489419Y-93828461D02*
X116355444Y-93328461D01*
%TO.C,TP5*%
X92500000Y-111900000D02*
G75*
G03*
X92500000Y-111900000I-1200000J0D01*
G01*
%TO.C,TP4*%
X95200000Y-114100000D02*
G75*
G03*
X95200000Y-114100000I-1200000J0D01*
G01*
%TO.C,TP7*%
X87800000Y-106600000D02*
G75*
G03*
X87800000Y-106600000I-1200000J0D01*
G01*
D13*
%TO.C,IC2*%
X84200000Y-92650000D02*
X84200000Y-93850000D01*
D12*
%TO.C,TP1*%
X84900000Y-101500000D02*
G75*
G03*
X84900000Y-101500000I-1200000J0D01*
G01*
%TO.C,TP3*%
X89800000Y-109800000D02*
G75*
G03*
X89800000Y-109800000I-1200000J0D01*
G01*
D11*
%TO.C,BT1*%
X95000000Y-102750000D02*
X89450000Y-102750000D01*
X89450000Y-87250000D02*
X89450000Y-92000000D01*
X89450000Y-102750000D02*
X89450000Y-98000000D01*
X110550000Y-98000000D02*
X110550000Y-102750000D01*
X110550000Y-102750000D02*
X105500000Y-102750000D01*
X95000000Y-87250000D02*
X89450000Y-87250000D01*
X110550000Y-92000000D02*
X110550000Y-87250000D01*
X110550000Y-87250000D02*
X105000000Y-87250000D01*
D12*
%TO.C,SW1*%
X119300000Y-99000000D02*
X119300000Y-101000000D01*
X116500000Y-97600000D02*
X117500000Y-97600000D01*
X116500000Y-98200000D02*
X116500000Y-97600000D01*
X116500000Y-102400000D02*
X117500000Y-102400000D01*
X116500000Y-101800000D02*
X116500000Y-102400000D01*
%TO.C,TP2*%
X84900000Y-98200000D02*
G75*
G03*
X84900000Y-98200000I-1200000J0D01*
G01*
%TO.C,Y1*%
X105500000Y-111300000D02*
X105500000Y-111100000D01*
X106900000Y-111300000D02*
X106900000Y-111100000D01*
X106800000Y-112300000D02*
X105600000Y-112300000D01*
%TO.C,U1*%
X100000000Y-108615000D02*
X97800000Y-108615000D01*
X100000000Y-108615000D02*
X103600000Y-108615000D01*
X100000000Y-115385000D02*
X102200000Y-115385000D01*
X100000000Y-115385000D02*
X97800000Y-115385000D01*
%TO.C,TP6*%
X87800000Y-103600000D02*
G75*
G03*
X87800000Y-103600000I-1200000J0D01*
G01*
%TD*%
M02*
