%TF.GenerationSoftware,KiCad,Pcbnew,5.1.10*%
%TF.CreationDate,2021-11-24T19:33:13+01:00*%
%TF.ProjectId,watch,77617463-682e-46b6-9963-61645f706362,rev?*%
%TF.SameCoordinates,Original*%
%TF.FileFunction,Legend,Bot*%
%TF.FilePolarity,Positive*%
%FSLAX46Y46*%
G04 Gerber Fmt 4.6, Leading zero omitted, Abs format (unit mm)*
G04 Created by KiCad (PCBNEW 5.1.10) date 2021-11-24 19:33:13*
%MOMM*%
%LPD*%
G01*
G04 APERTURE LIST*
%ADD10C,0.200000*%
%ADD11C,0.160000*%
%ADD12C,0.120000*%
G04 APERTURE END LIST*
D10*
X170423809Y-102952380D02*
X170090476Y-103952380D01*
X169757142Y-102952380D01*
X168900000Y-103952380D02*
X169471428Y-103952380D01*
X169185714Y-103952380D02*
X169185714Y-102952380D01*
X169280952Y-103095238D01*
X169376190Y-103190476D01*
X169471428Y-103238095D01*
X168471428Y-103857142D02*
X168423809Y-103904761D01*
X168471428Y-103952380D01*
X168519047Y-103904761D01*
X168471428Y-103857142D01*
X168471428Y-103952380D01*
X167804761Y-102952380D02*
X167709523Y-102952380D01*
X167614285Y-103000000D01*
X167566666Y-103047619D01*
X167519047Y-103142857D01*
X167471428Y-103333333D01*
X167471428Y-103571428D01*
X167519047Y-103761904D01*
X167566666Y-103857142D01*
X167614285Y-103904761D01*
X167709523Y-103952380D01*
X167804761Y-103952380D01*
X167900000Y-103904761D01*
X167947619Y-103857142D01*
X167995238Y-103761904D01*
X168042857Y-103571428D01*
X168042857Y-103333333D01*
X167995238Y-103142857D01*
X167947619Y-103047619D01*
X167900000Y-103000000D01*
X167804761Y-102952380D01*
D11*
X172757142Y-105607142D02*
X172757142Y-106250000D01*
X172800000Y-106378571D01*
X172885714Y-106464285D01*
X173014285Y-106507142D01*
X173100000Y-106507142D01*
X171900000Y-106507142D02*
X172328571Y-106507142D01*
X172328571Y-105607142D01*
X171085714Y-106421428D02*
X171128571Y-106464285D01*
X171257142Y-106507142D01*
X171342857Y-106507142D01*
X171471428Y-106464285D01*
X171557142Y-106378571D01*
X171600000Y-106292857D01*
X171642857Y-106121428D01*
X171642857Y-105992857D01*
X171600000Y-105821428D01*
X171557142Y-105735714D01*
X171471428Y-105650000D01*
X171342857Y-105607142D01*
X171257142Y-105607142D01*
X171128571Y-105650000D01*
X171085714Y-105692857D01*
X170442857Y-105607142D02*
X170442857Y-106250000D01*
X170485714Y-106378571D01*
X170571428Y-106464285D01*
X170700000Y-106507142D01*
X170785714Y-106507142D01*
X169585714Y-106507142D02*
X170014285Y-106507142D01*
X170014285Y-105607142D01*
X168771428Y-106421428D02*
X168814285Y-106464285D01*
X168942857Y-106507142D01*
X169028571Y-106507142D01*
X169157142Y-106464285D01*
X169242857Y-106378571D01*
X169285714Y-106292857D01*
X169328571Y-106121428D01*
X169328571Y-105992857D01*
X169285714Y-105821428D01*
X169242857Y-105735714D01*
X169157142Y-105650000D01*
X169028571Y-105607142D01*
X168942857Y-105607142D01*
X168814285Y-105650000D01*
X168771428Y-105692857D01*
X168128571Y-105607142D02*
X168128571Y-106250000D01*
X168171428Y-106378571D01*
X168257142Y-106464285D01*
X168385714Y-106507142D01*
X168471428Y-106507142D01*
X167271428Y-106507142D02*
X167700000Y-106507142D01*
X167700000Y-105607142D01*
X166457142Y-106421428D02*
X166500000Y-106464285D01*
X166628571Y-106507142D01*
X166714285Y-106507142D01*
X166842857Y-106464285D01*
X166928571Y-106378571D01*
X166971428Y-106292857D01*
X167014285Y-106121428D01*
X167014285Y-105992857D01*
X166971428Y-105821428D01*
X166928571Y-105735714D01*
X166842857Y-105650000D01*
X166714285Y-105607142D01*
X166628571Y-105607142D01*
X166500000Y-105650000D01*
X166457142Y-105692857D01*
X165814285Y-105607142D02*
X165814285Y-106250000D01*
X165857142Y-106378571D01*
X165942857Y-106464285D01*
X166071428Y-106507142D01*
X166157142Y-106507142D01*
X164957142Y-106507142D02*
X165385714Y-106507142D01*
X165385714Y-105607142D01*
X164142857Y-106421428D02*
X164185714Y-106464285D01*
X164314285Y-106507142D01*
X164400000Y-106507142D01*
X164528571Y-106464285D01*
X164614285Y-106378571D01*
X164657142Y-106292857D01*
X164700000Y-106121428D01*
X164700000Y-105992857D01*
X164657142Y-105821428D01*
X164614285Y-105735714D01*
X164528571Y-105650000D01*
X164400000Y-105607142D01*
X164314285Y-105607142D01*
X164185714Y-105650000D01*
X164142857Y-105692857D01*
D12*
%TO.C,TP7*%
X151900000Y-108500000D02*
G75*
G03*
X151900000Y-108500000I-700000J0D01*
G01*
%TO.C,TP6*%
X149900000Y-108500000D02*
G75*
G03*
X149900000Y-108500000I-700000J0D01*
G01*
%TO.C,BT1*%
X144296000Y-95956000D02*
X144296000Y-101544000D01*
X147344000Y-95956000D02*
X144296000Y-95956000D01*
X147344000Y-101544000D02*
X147344000Y-95956000D01*
X144296000Y-101544000D02*
X147344000Y-101544000D01*
X170204000Y-101544000D02*
X167156000Y-101544000D01*
X170204000Y-95956000D02*
X170204000Y-101544000D01*
X167156000Y-95956000D02*
X170204000Y-95956000D01*
X167156000Y-101544000D02*
X167156000Y-95956000D01*
X166648000Y-98750000D02*
G75*
G03*
X166648000Y-98750000I-9398000J0D01*
G01*
%TO.C,Y1*%
X151750000Y-116850000D02*
X152950000Y-116850000D01*
X153050000Y-117850000D02*
X153050000Y-118050000D01*
X151650000Y-117850000D02*
X151650000Y-118050000D01*
%TO.C,U1*%
X157250000Y-119435000D02*
X153650000Y-119435000D01*
X157250000Y-119435000D02*
X159450000Y-119435000D01*
X157250000Y-112665000D02*
X155050000Y-112665000D01*
X157250000Y-112665000D02*
X159450000Y-112665000D01*
%TO.C,TP5*%
X143950000Y-109950000D02*
G75*
G03*
X143950000Y-109950000I-700000J0D01*
G01*
%TO.C,TP4*%
X143950000Y-107950000D02*
G75*
G03*
X143950000Y-107950000I-700000J0D01*
G01*
%TO.C,TP3*%
X143950000Y-105950000D02*
G75*
G03*
X143950000Y-105950000I-700000J0D01*
G01*
%TO.C,TP2*%
X143950000Y-103950000D02*
G75*
G03*
X143950000Y-103950000I-700000J0D01*
G01*
%TO.C,TP1*%
X143950000Y-101950000D02*
G75*
G03*
X143950000Y-101950000I-700000J0D01*
G01*
%TO.C,R51*%
X152780000Y-115346359D02*
X152780000Y-115653641D01*
X152020000Y-115346359D02*
X152020000Y-115653641D01*
%TO.C,R31*%
X166520000Y-110153641D02*
X166520000Y-109846359D01*
X167280000Y-110153641D02*
X167280000Y-109846359D01*
%TO.C,R28*%
X167280000Y-107846359D02*
X167280000Y-108153641D01*
X166520000Y-107846359D02*
X166520000Y-108153641D01*
%TO.C,R20*%
X162346359Y-113020000D02*
X162653641Y-113020000D01*
X162346359Y-113780000D02*
X162653641Y-113780000D01*
%TO.C,R4*%
X154780000Y-120446359D02*
X154780000Y-120753641D01*
X154020000Y-120446359D02*
X154020000Y-120753641D01*
%TO.C,R3*%
X145453641Y-110380000D02*
X145146359Y-110380000D01*
X145453641Y-109620000D02*
X145146359Y-109620000D01*
%TO.C,R2*%
X145453641Y-108380000D02*
X145146359Y-108380000D01*
X145453641Y-107620000D02*
X145146359Y-107620000D01*
%TO.C,R1*%
X145453641Y-106380000D02*
X145146359Y-106380000D01*
X145453641Y-105620000D02*
X145146359Y-105620000D01*
%TO.C,C9*%
X150557836Y-117710000D02*
X150342164Y-117710000D01*
X150557836Y-116990000D02*
X150342164Y-116990000D01*
%TO.C,C8*%
X150557836Y-118810000D02*
X150342164Y-118810000D01*
X150557836Y-118090000D02*
X150342164Y-118090000D01*
%TO.C,C7*%
X155240000Y-120707836D02*
X155240000Y-120492164D01*
X155960000Y-120707836D02*
X155960000Y-120492164D01*
%TO.C,C6*%
X162110000Y-115942164D02*
X162110000Y-116157836D01*
X161390000Y-115942164D02*
X161390000Y-116157836D01*
%TO.C,C5*%
X163360000Y-115942164D02*
X163360000Y-116157836D01*
X162640000Y-115942164D02*
X162640000Y-116157836D01*
%TO.C,C2*%
X162392164Y-114140000D02*
X162607836Y-114140000D01*
X162392164Y-114860000D02*
X162607836Y-114860000D01*
%TO.C,C1*%
X146540000Y-110607836D02*
X146540000Y-110392164D01*
X147260000Y-110607836D02*
X147260000Y-110392164D01*
%TD*%
M02*
