%TF.GenerationSoftware,KiCad,Pcbnew,5.1.10*%
%TF.CreationDate,2021-12-10T14:07:24+01:00*%
%TF.ProjectId,watch,77617463-682e-46b6-9963-61645f706362,rev?*%
%TF.SameCoordinates,Original*%
%TF.FileFunction,Legend,Bot*%
%TF.FilePolarity,Positive*%
%FSLAX46Y46*%
G04 Gerber Fmt 4.6, Leading zero omitted, Abs format (unit mm)*
G04 Created by KiCad (PCBNEW 5.1.10) date 2021-12-10 14:07:24*
%MOMM*%
%LPD*%
G01*
G04 APERTURE LIST*
%ADD10C,0.200000*%
%ADD11C,0.160000*%
%ADD12C,0.120000*%
%ADD13C,0.150000*%
G04 APERTURE END LIST*
D10*
X167523809Y-106052380D02*
X167190476Y-107052380D01*
X166857142Y-106052380D01*
X166000000Y-107052380D02*
X166571428Y-107052380D01*
X166285714Y-107052380D02*
X166285714Y-106052380D01*
X166380952Y-106195238D01*
X166476190Y-106290476D01*
X166571428Y-106338095D01*
X165571428Y-106957142D02*
X165523809Y-107004761D01*
X165571428Y-107052380D01*
X165619047Y-107004761D01*
X165571428Y-106957142D01*
X165571428Y-107052380D01*
X164571428Y-107052380D02*
X165142857Y-107052380D01*
X164857142Y-107052380D02*
X164857142Y-106052380D01*
X164952380Y-106195238D01*
X165047619Y-106290476D01*
X165142857Y-106338095D01*
D11*
X169257142Y-107707142D02*
X169257142Y-108350000D01*
X169300000Y-108478571D01*
X169385714Y-108564285D01*
X169514285Y-108607142D01*
X169600000Y-108607142D01*
X168400000Y-108607142D02*
X168828571Y-108607142D01*
X168828571Y-107707142D01*
X167585714Y-108521428D02*
X167628571Y-108564285D01*
X167757142Y-108607142D01*
X167842857Y-108607142D01*
X167971428Y-108564285D01*
X168057142Y-108478571D01*
X168100000Y-108392857D01*
X168142857Y-108221428D01*
X168142857Y-108092857D01*
X168100000Y-107921428D01*
X168057142Y-107835714D01*
X167971428Y-107750000D01*
X167842857Y-107707142D01*
X167757142Y-107707142D01*
X167628571Y-107750000D01*
X167585714Y-107792857D01*
X166942857Y-107707142D02*
X166942857Y-108350000D01*
X166985714Y-108478571D01*
X167071428Y-108564285D01*
X167200000Y-108607142D01*
X167285714Y-108607142D01*
X166085714Y-108607142D02*
X166514285Y-108607142D01*
X166514285Y-107707142D01*
X165271428Y-108521428D02*
X165314285Y-108564285D01*
X165442857Y-108607142D01*
X165528571Y-108607142D01*
X165657142Y-108564285D01*
X165742857Y-108478571D01*
X165785714Y-108392857D01*
X165828571Y-108221428D01*
X165828571Y-108092857D01*
X165785714Y-107921428D01*
X165742857Y-107835714D01*
X165657142Y-107750000D01*
X165528571Y-107707142D01*
X165442857Y-107707142D01*
X165314285Y-107750000D01*
X165271428Y-107792857D01*
X164628571Y-107707142D02*
X164628571Y-108350000D01*
X164671428Y-108478571D01*
X164757142Y-108564285D01*
X164885714Y-108607142D01*
X164971428Y-108607142D01*
X163771428Y-108607142D02*
X164200000Y-108607142D01*
X164200000Y-107707142D01*
X162957142Y-108521428D02*
X163000000Y-108564285D01*
X163128571Y-108607142D01*
X163214285Y-108607142D01*
X163342857Y-108564285D01*
X163428571Y-108478571D01*
X163471428Y-108392857D01*
X163514285Y-108221428D01*
X163514285Y-108092857D01*
X163471428Y-107921428D01*
X163428571Y-107835714D01*
X163342857Y-107750000D01*
X163214285Y-107707142D01*
X163128571Y-107707142D01*
X163000000Y-107750000D01*
X162957142Y-107792857D01*
X162314285Y-107707142D02*
X162314285Y-108350000D01*
X162357142Y-108478571D01*
X162442857Y-108564285D01*
X162571428Y-108607142D01*
X162657142Y-108607142D01*
X161457142Y-108607142D02*
X161885714Y-108607142D01*
X161885714Y-107707142D01*
X160642857Y-108521428D02*
X160685714Y-108564285D01*
X160814285Y-108607142D01*
X160900000Y-108607142D01*
X161028571Y-108564285D01*
X161114285Y-108478571D01*
X161157142Y-108392857D01*
X161200000Y-108221428D01*
X161200000Y-108092857D01*
X161157142Y-107921428D01*
X161114285Y-107835714D01*
X161028571Y-107750000D01*
X160900000Y-107707142D01*
X160814285Y-107707142D01*
X160685714Y-107750000D01*
X160642857Y-107792857D01*
D12*
%TO.C,RX*%
X169750000Y-115000000D02*
G75*
G03*
X169750000Y-115000000I-1750000J0D01*
G01*
%TO.C,TX*%
X171250000Y-111000000D02*
G75*
G03*
X171250000Y-111000000I-1750000J0D01*
G01*
%TO.C,RST*%
X149850000Y-108500000D02*
G75*
G03*
X149850000Y-108500000I-1750000J0D01*
G01*
%TO.C,CLK*%
X145750000Y-108500000D02*
G75*
G03*
X145750000Y-108500000I-1750000J0D01*
G01*
%TO.C,IO*%
X145750000Y-104400000D02*
G75*
G03*
X145750000Y-104400000I-1750000J0D01*
G01*
%TO.C,GND*%
X173150000Y-107300000D02*
G75*
G03*
X173150000Y-107300000I-1750000J0D01*
G01*
%TO.C,3V3*%
X173150000Y-103300000D02*
G75*
G03*
X173150000Y-103300000I-1750000J0D01*
G01*
%TO.C,BT1*%
X166648000Y-98750000D02*
G75*
G03*
X166648000Y-98750000I-9398000J0D01*
G01*
X167156000Y-101544000D02*
X167156000Y-95956000D01*
X167156000Y-95956000D02*
X170204000Y-95956000D01*
X170204000Y-95956000D02*
X170204000Y-101544000D01*
X170204000Y-101544000D02*
X167156000Y-101544000D01*
X144296000Y-101544000D02*
X147344000Y-101544000D01*
X147344000Y-101544000D02*
X147344000Y-95956000D01*
X147344000Y-95956000D02*
X144296000Y-95956000D01*
X144296000Y-95956000D02*
X144296000Y-101544000D01*
%TO.C,Y1*%
X151650000Y-117850000D02*
X151650000Y-118050000D01*
X153050000Y-117850000D02*
X153050000Y-118050000D01*
X151750000Y-116850000D02*
X152950000Y-116850000D01*
%TO.C,U1*%
X157250000Y-112665000D02*
X159450000Y-112665000D01*
X157250000Y-112665000D02*
X155050000Y-112665000D01*
X157250000Y-119435000D02*
X159450000Y-119435000D01*
X157250000Y-119435000D02*
X153650000Y-119435000D01*
%TO.C,R51*%
X152020000Y-115346359D02*
X152020000Y-115653641D01*
X152780000Y-115346359D02*
X152780000Y-115653641D01*
%TO.C,R31*%
X164480000Y-112253641D02*
X164480000Y-111946359D01*
X163720000Y-112253641D02*
X163720000Y-111946359D01*
%TO.C,R28*%
X163720000Y-109946359D02*
X163720000Y-110253641D01*
X164480000Y-109946359D02*
X164480000Y-110253641D01*
%TO.C,R20*%
X154580000Y-111053641D02*
X154580000Y-110746359D01*
X153820000Y-111053641D02*
X153820000Y-110746359D01*
%TO.C,R4*%
X154020000Y-120446359D02*
X154020000Y-120753641D01*
X154780000Y-120446359D02*
X154780000Y-120753641D01*
%TO.C,R3*%
X146480000Y-110953641D02*
X146480000Y-110646359D01*
X145720000Y-110953641D02*
X145720000Y-110646359D01*
%TO.C,R2*%
X151380000Y-109453641D02*
X151380000Y-109146359D01*
X150620000Y-109453641D02*
X150620000Y-109146359D01*
%TO.C,R1*%
X152680000Y-109453641D02*
X152680000Y-109146359D01*
X151920000Y-109453641D02*
X151920000Y-109146359D01*
%TO.C,C9*%
X150557836Y-116990000D02*
X150342164Y-116990000D01*
X150557836Y-117710000D02*
X150342164Y-117710000D01*
%TO.C,C8*%
X150557836Y-118090000D02*
X150342164Y-118090000D01*
X150557836Y-118810000D02*
X150342164Y-118810000D01*
%TO.C,C7*%
X155960000Y-120707836D02*
X155960000Y-120492164D01*
X155240000Y-120707836D02*
X155240000Y-120492164D01*
%TO.C,C6*%
X161390000Y-115942164D02*
X161390000Y-116157836D01*
X162110000Y-115942164D02*
X162110000Y-116157836D01*
%TO.C,C5*%
X162640000Y-115942164D02*
X162640000Y-116157836D01*
X163360000Y-115942164D02*
X163360000Y-116157836D01*
%TO.C,C2*%
X155760000Y-111007836D02*
X155760000Y-110792164D01*
X155040000Y-111007836D02*
X155040000Y-110792164D01*
%TO.C,C1*%
X147560000Y-111907836D02*
X147560000Y-111692164D01*
X146840000Y-111907836D02*
X146840000Y-111692164D01*
%TO.C,RX*%
D13*
X166533333Y-113061904D02*
X166800000Y-112680952D01*
X166990476Y-113061904D02*
X166990476Y-112261904D01*
X166685714Y-112261904D01*
X166609523Y-112300000D01*
X166571428Y-112338095D01*
X166533333Y-112414285D01*
X166533333Y-112528571D01*
X166571428Y-112604761D01*
X166609523Y-112642857D01*
X166685714Y-112680952D01*
X166990476Y-112680952D01*
X166266666Y-112261904D02*
X165733333Y-113061904D01*
X165733333Y-112261904D02*
X166266666Y-113061904D01*
%TO.C,TX*%
X167509523Y-109561904D02*
X167052380Y-109561904D01*
X167280952Y-110361904D02*
X167280952Y-109561904D01*
X166861904Y-109561904D02*
X166328571Y-110361904D01*
X166328571Y-109561904D02*
X166861904Y-110361904D01*
%TO.C,RST*%
X148538095Y-111461904D02*
X148804761Y-111080952D01*
X148995238Y-111461904D02*
X148995238Y-110661904D01*
X148690476Y-110661904D01*
X148614285Y-110700000D01*
X148576190Y-110738095D01*
X148538095Y-110814285D01*
X148538095Y-110928571D01*
X148576190Y-111004761D01*
X148614285Y-111042857D01*
X148690476Y-111080952D01*
X148995238Y-111080952D01*
X148233333Y-111423809D02*
X148119047Y-111461904D01*
X147928571Y-111461904D01*
X147852380Y-111423809D01*
X147814285Y-111385714D01*
X147776190Y-111309523D01*
X147776190Y-111233333D01*
X147814285Y-111157142D01*
X147852380Y-111119047D01*
X147928571Y-111080952D01*
X148080952Y-111042857D01*
X148157142Y-111004761D01*
X148195238Y-110966666D01*
X148233333Y-110890476D01*
X148233333Y-110814285D01*
X148195238Y-110738095D01*
X148157142Y-110700000D01*
X148080952Y-110661904D01*
X147890476Y-110661904D01*
X147776190Y-110700000D01*
X147547619Y-110661904D02*
X147090476Y-110661904D01*
X147319047Y-111461904D02*
X147319047Y-110661904D01*
%TO.C,CLK*%
X143976190Y-111385714D02*
X144014285Y-111423809D01*
X144128571Y-111461904D01*
X144204761Y-111461904D01*
X144319047Y-111423809D01*
X144395238Y-111347619D01*
X144433333Y-111271428D01*
X144471428Y-111119047D01*
X144471428Y-111004761D01*
X144433333Y-110852380D01*
X144395238Y-110776190D01*
X144319047Y-110700000D01*
X144204761Y-110661904D01*
X144128571Y-110661904D01*
X144014285Y-110700000D01*
X143976190Y-110738095D01*
X143252380Y-111461904D02*
X143633333Y-111461904D01*
X143633333Y-110661904D01*
X142985714Y-111461904D02*
X142985714Y-110661904D01*
X142528571Y-111461904D02*
X142871428Y-111004761D01*
X142528571Y-110661904D02*
X142985714Y-111119047D01*
%TO.C,IO*%
X147019047Y-103761904D02*
X147019047Y-102961904D01*
X146485714Y-102961904D02*
X146333333Y-102961904D01*
X146257142Y-103000000D01*
X146180952Y-103076190D01*
X146142857Y-103228571D01*
X146142857Y-103495238D01*
X146180952Y-103647619D01*
X146257142Y-103723809D01*
X146333333Y-103761904D01*
X146485714Y-103761904D01*
X146561904Y-103723809D01*
X146638095Y-103647619D01*
X146676190Y-103495238D01*
X146676190Y-103228571D01*
X146638095Y-103076190D01*
X146561904Y-103000000D01*
X146485714Y-102961904D01*
%TO.C,GND*%
X169209523Y-104900000D02*
X169285714Y-104861904D01*
X169400000Y-104861904D01*
X169514285Y-104900000D01*
X169590476Y-104976190D01*
X169628571Y-105052380D01*
X169666666Y-105204761D01*
X169666666Y-105319047D01*
X169628571Y-105471428D01*
X169590476Y-105547619D01*
X169514285Y-105623809D01*
X169400000Y-105661904D01*
X169323809Y-105661904D01*
X169209523Y-105623809D01*
X169171428Y-105585714D01*
X169171428Y-105319047D01*
X169323809Y-105319047D01*
X168828571Y-105661904D02*
X168828571Y-104861904D01*
X168371428Y-105661904D01*
X168371428Y-104861904D01*
X167990476Y-105661904D02*
X167990476Y-104861904D01*
X167800000Y-104861904D01*
X167685714Y-104900000D01*
X167609523Y-104976190D01*
X167571428Y-105052380D01*
X167533333Y-105204761D01*
X167533333Y-105319047D01*
X167571428Y-105471428D01*
X167609523Y-105547619D01*
X167685714Y-105623809D01*
X167800000Y-105661904D01*
X167990476Y-105661904D01*
%TO.C,3V3*%
X169390476Y-102161904D02*
X168895238Y-102161904D01*
X169161904Y-102466666D01*
X169047619Y-102466666D01*
X168971428Y-102504761D01*
X168933333Y-102542857D01*
X168895238Y-102619047D01*
X168895238Y-102809523D01*
X168933333Y-102885714D01*
X168971428Y-102923809D01*
X169047619Y-102961904D01*
X169276190Y-102961904D01*
X169352380Y-102923809D01*
X169390476Y-102885714D01*
X168666666Y-102161904D02*
X168400000Y-102961904D01*
X168133333Y-102161904D01*
X167942857Y-102161904D02*
X167447619Y-102161904D01*
X167714285Y-102466666D01*
X167600000Y-102466666D01*
X167523809Y-102504761D01*
X167485714Y-102542857D01*
X167447619Y-102619047D01*
X167447619Y-102809523D01*
X167485714Y-102885714D01*
X167523809Y-102923809D01*
X167600000Y-102961904D01*
X167828571Y-102961904D01*
X167904761Y-102923809D01*
X167942857Y-102885714D01*
%TD*%
M02*
