%TF.GenerationSoftware,KiCad,Pcbnew,5.1.10*%
%TF.CreationDate,2021-11-24T19:33:13+01:00*%
%TF.ProjectId,watch,77617463-682e-46b6-9963-61645f706362,rev?*%
%TF.SameCoordinates,Original*%
%TF.FileFunction,Legend,Top*%
%TF.FilePolarity,Positive*%
%FSLAX46Y46*%
G04 Gerber Fmt 4.6, Leading zero omitted, Abs format (unit mm)*
G04 Created by KiCad (PCBNEW 5.1.10) date 2021-11-24 19:33:13*
%MOMM*%
%LPD*%
G01*
G04 APERTURE LIST*
%ADD10C,0.250000*%
%ADD11C,0.120000*%
%ADD12C,0.100000*%
G04 APERTURE END LIST*
D10*
%TO.C,IC1*%
X158093420Y-108982892D02*
G75*
G03*
X158093420Y-108982892I-125000J0D01*
G01*
D11*
%TO.C,R44*%
X173634406Y-99950066D02*
X173529309Y-99661315D01*
X172920239Y-100210001D02*
X172815142Y-99921250D01*
%TO.C,R43*%
X172600744Y-100326288D02*
X172495647Y-100037537D01*
X171886577Y-100586223D02*
X171781480Y-100297472D01*
%TO.C,R42*%
X171567082Y-100702510D02*
X171461985Y-100413759D01*
X170852915Y-100962445D02*
X170747818Y-100673694D01*
%TO.C,R41*%
X174339278Y-108919312D02*
X174392637Y-108616698D01*
X173590825Y-108787340D02*
X173644184Y-108484726D01*
%TO.C,R40*%
X173255990Y-108728299D02*
X173309349Y-108425685D01*
X172507537Y-108596327D02*
X172560896Y-108293713D01*
%TO.C,R39*%
X172172701Y-108537286D02*
X172226060Y-108234672D01*
X171424248Y-108405314D02*
X171477607Y-108102700D01*
%TO.C,R38*%
X170465093Y-117039344D02*
X170662610Y-116803952D01*
X169882900Y-116550826D02*
X170080417Y-116315434D01*
%TO.C,R37*%
X169622444Y-116332277D02*
X169819961Y-116096885D01*
X169040251Y-115843759D02*
X169237768Y-115608367D01*
%TO.C,R36*%
X168779795Y-115625211D02*
X168977312Y-115389819D01*
X168197602Y-115136693D02*
X168395119Y-114901301D01*
%TO.C,R32*%
X163049934Y-122134406D02*
X163338685Y-122029309D01*
X162789999Y-121420239D02*
X163078750Y-121315142D01*
%TO.C,R30*%
X162673712Y-121100744D02*
X162962463Y-120995647D01*
X162413777Y-120386577D02*
X162702528Y-120281480D01*
%TO.C,R29*%
X162297490Y-120067082D02*
X162586241Y-119961985D01*
X162037555Y-119352915D02*
X162326306Y-119247818D01*
%TO.C,R27*%
X167125211Y-94220205D02*
X166889819Y-94022688D01*
X166636693Y-94802398D02*
X166401301Y-94604881D01*
%TO.C,R26*%
X167832277Y-93377556D02*
X167596885Y-93180039D01*
X167343759Y-93959749D02*
X167108367Y-93762232D01*
%TO.C,R25*%
X168539344Y-92534907D02*
X168303952Y-92337390D01*
X168050826Y-93117100D02*
X167815434Y-92919583D01*
%TO.C,R23*%
X160037286Y-90827299D02*
X159734672Y-90773940D01*
X159905314Y-91575752D02*
X159602700Y-91522393D01*
%TO.C,R22*%
X160228299Y-89744010D02*
X159925685Y-89690651D01*
X160096327Y-90492463D02*
X159793713Y-90439104D01*
%TO.C,R21*%
X160419312Y-88660722D02*
X160116698Y-88607363D01*
X160287340Y-89409175D02*
X159984726Y-89355816D01*
%TO.C,R19*%
X145720205Y-95874789D02*
X145522688Y-96110181D01*
X146302398Y-96363307D02*
X146104881Y-96598699D01*
%TO.C,R18*%
X144877556Y-95167723D02*
X144680039Y-95403115D01*
X145459749Y-95656241D02*
X145262232Y-95891633D01*
%TO.C,R17*%
X144034907Y-94460656D02*
X143837390Y-94696048D01*
X144617100Y-94949174D02*
X144419583Y-95184566D01*
%TO.C,R16*%
X154080688Y-122839278D02*
X154383302Y-122892637D01*
X154212660Y-122090825D02*
X154515274Y-122144184D01*
%TO.C,R15*%
X154271701Y-121755990D02*
X154574315Y-121809349D01*
X154403673Y-121007537D02*
X154706287Y-121060896D01*
%TO.C,R14*%
X154462714Y-120672701D02*
X154765328Y-120726060D01*
X154594686Y-119924248D02*
X154897300Y-119977607D01*
%TO.C,R13*%
X145960656Y-118965093D02*
X146196048Y-119162610D01*
X146449174Y-118382900D02*
X146684566Y-118580417D01*
%TO.C,R12*%
X146667723Y-118122444D02*
X146903115Y-118319961D01*
X147156241Y-117540251D02*
X147391633Y-117737768D01*
%TO.C,R11*%
X147374789Y-117279795D02*
X147610181Y-117477312D01*
X147863307Y-116697602D02*
X148098699Y-116895119D01*
%TO.C,R10*%
X140865594Y-111549934D02*
X140970691Y-111838685D01*
X141579761Y-111289999D02*
X141684858Y-111578750D01*
%TO.C,R9*%
X141899256Y-111173712D02*
X142004353Y-111462463D01*
X142613423Y-110913777D02*
X142718520Y-111202528D01*
%TO.C,R8*%
X142932918Y-110797490D02*
X143038015Y-111086241D01*
X143647085Y-110537555D02*
X143752182Y-110826306D01*
%TO.C,R7*%
X140160722Y-102580688D02*
X140107363Y-102883302D01*
X140909175Y-102712660D02*
X140855816Y-103015274D01*
%TO.C,R6*%
X141244010Y-102771701D02*
X141190651Y-103074315D01*
X141992463Y-102903673D02*
X141939104Y-103206287D01*
%TO.C,R5*%
X142327299Y-102962714D02*
X142273940Y-103265328D01*
X143075752Y-103094686D02*
X143022393Y-103397300D01*
D12*
%TO.C,D36*%
X172567432Y-98193968D02*
G75*
G03*
X172567432Y-98193968I-50001J0D01*
G01*
%TO.C,D35*%
X171614804Y-98743968D02*
G75*
G03*
X171614804Y-98743968I-50001J0D01*
G01*
%TO.C,D34*%
X170662176Y-99293968D02*
G75*
G03*
X170662176Y-99293968I-50001J0D01*
G01*
%TO.C,D33*%
X174300000Y-106840000D02*
G75*
G03*
X174300000Y-106840000I-50000J0D01*
G01*
%TO.C,D32*%
X173200000Y-106840000D02*
G75*
G03*
X173200000Y-106840000I-50000J0D01*
G01*
%TO.C,D31*%
X172100000Y-106840000D02*
G75*
G03*
X172100000Y-106840000I-50000J0D01*
G01*
%TO.C,D30*%
X171477432Y-115193967D02*
G75*
G03*
X171477432Y-115193967I-50001J0D01*
G01*
%TO.C,D29*%
X170524804Y-114643967D02*
G75*
G03*
X170524804Y-114643967I-50001J0D01*
G01*
%TO.C,D28*%
X169572176Y-114093967D02*
G75*
G03*
X169572176Y-114093967I-50001J0D01*
G01*
%TO.C,D24*%
X164856032Y-121017431D02*
G75*
G03*
X164856032Y-121017431I-50001J0D01*
G01*
%TO.C,D23*%
X164306032Y-120064803D02*
G75*
G03*
X164306032Y-120064803I-50001J0D01*
G01*
%TO.C,D22*%
X163756032Y-119112175D02*
G75*
G03*
X163756032Y-119112175I-50001J0D01*
G01*
%TO.C,D21*%
X165643969Y-93477825D02*
G75*
G03*
X165643969Y-93477825I-50001J0D01*
G01*
%TO.C,D20*%
X166193969Y-92525197D02*
G75*
G03*
X166193969Y-92525197I-50001J0D01*
G01*
%TO.C,D19*%
X166743969Y-91572569D02*
G75*
G03*
X166743969Y-91572569I-50001J0D01*
G01*
%TO.C,D18*%
X158390000Y-90950000D02*
G75*
G03*
X158390000Y-90950000I-50000J0D01*
G01*
%TO.C,D17*%
X158390000Y-89850000D02*
G75*
G03*
X158390000Y-89850000I-50000J0D01*
G01*
%TO.C,D16*%
X158390000Y-88750000D02*
G75*
G03*
X158390000Y-88750000I-50000J0D01*
G01*
%TO.C,D15*%
X145027826Y-97406032D02*
G75*
G03*
X145027826Y-97406032I-50001J0D01*
G01*
%TO.C,D14*%
X144075198Y-96856032D02*
G75*
G03*
X144075198Y-96856032I-50001J0D01*
G01*
%TO.C,D13*%
X143122570Y-96306032D02*
G75*
G03*
X143122570Y-96306032I-50001J0D01*
G01*
%TO.C,D12*%
X156210000Y-122750000D02*
G75*
G03*
X156210000Y-122750000I-50000J0D01*
G01*
%TO.C,D11*%
X156210000Y-121650000D02*
G75*
G03*
X156210000Y-121650000I-50000J0D01*
G01*
%TO.C,D10*%
X156210000Y-120550000D02*
G75*
G03*
X156210000Y-120550000I-50000J0D01*
G01*
%TO.C,D9*%
X147856034Y-119927431D02*
G75*
G03*
X147856034Y-119927431I-50001J0D01*
G01*
%TO.C,D8*%
X148406034Y-118974803D02*
G75*
G03*
X148406034Y-118974803I-50001J0D01*
G01*
%TO.C,D7*%
X148956034Y-118022175D02*
G75*
G03*
X148956034Y-118022175I-50001J0D01*
G01*
%TO.C,D6*%
X142032570Y-113306031D02*
G75*
G03*
X142032570Y-113306031I-50001J0D01*
G01*
%TO.C,D5*%
X142985198Y-112756031D02*
G75*
G03*
X142985198Y-112756031I-50001J0D01*
G01*
%TO.C,D4*%
X143937826Y-112206031D02*
G75*
G03*
X143937826Y-112206031I-50001J0D01*
G01*
%TO.C,D3*%
X140300000Y-104660000D02*
G75*
G03*
X140300000Y-104660000I-50000J0D01*
G01*
%TO.C,D2*%
X141400000Y-104660000D02*
G75*
G03*
X141400000Y-104660000I-50000J0D01*
G01*
%TO.C,D1*%
X142500000Y-104660000D02*
G75*
G03*
X142500000Y-104660000I-50000J0D01*
G01*
D11*
%TO.C,R35*%
X152202510Y-91432918D02*
X151913759Y-91538015D01*
X152462445Y-92147085D02*
X152173694Y-92252182D01*
%TO.C,R34*%
X151826288Y-90399256D02*
X151537537Y-90504353D01*
X152086223Y-91113423D02*
X151797472Y-91218520D01*
%TO.C,R33*%
X151450066Y-89365594D02*
X151161315Y-89470691D01*
X151710001Y-90079761D02*
X151421250Y-90184858D01*
D12*
%TO.C,D27*%
X150843969Y-92387825D02*
G75*
G03*
X150843969Y-92387825I-50001J0D01*
G01*
%TO.C,D26*%
X150293969Y-91435197D02*
G75*
G03*
X150293969Y-91435197I-50001J0D01*
G01*
%TO.C,D25*%
X149743969Y-90482569D02*
G75*
G03*
X149743969Y-90482569I-50001J0D01*
G01*
D11*
%TO.C,R24*%
X154477341Y-110639940D02*
X154260060Y-110422659D01*
X153939940Y-111177341D02*
X153722659Y-110960060D01*
%TO.C,C4*%
X153030810Y-109221693D02*
X152878307Y-109069190D01*
X152521693Y-109730810D02*
X152369190Y-109578307D01*
%TO.C,C3*%
X152230810Y-110021693D02*
X152078307Y-109869190D01*
X151721693Y-110530810D02*
X151569190Y-110378307D01*
%TD*%
M02*
