M48
; DRILL file {KiCad (6.0.2)} date Wed Mar 23 22:41:45 2022
; FORMAT={-:-/ absolute / metric / decimal}
; #@! TF.CreationDate,2022-03-23T22:41:45+01:00
; #@! TF.GenerationSoftware,Kicad,Pcbnew,(6.0.2)
; #@! TF.FileFunction,Plated,1,2,PTH
FMAT,2
METRIC
; #@! TA.AperFunction,Plated,PTH,ViaDrill
T1C0.200
; #@! TA.AperFunction,Plated,PTH,ViaDrill
T2C0.400
%
G90
G05
T1
X86.328Y-91.072
X87.228Y-91.728
X90.2Y-100.9
X93.6Y-103.0
X94.1Y-109.2
X94.2Y-102.8
X95.6Y-106.9
X95.8Y-108.0
X98.977Y-106.377
X99.075Y-111.675
X99.3Y-112.5
X99.9Y-107.1
X99.9Y-116.9
X99.9Y-117.5
X100.3Y-105.2
X100.5Y-110.9
X100.5Y-113.0
X101.4Y-108.5
X102.358Y-108.432
X103.262Y-116.345
X103.9Y-116.4
X105.6Y-103.8
X106.3Y-103.8
X108.155Y-116.574
X110.3Y-114.4
X110.5Y-103.8
X111.2Y-103.8
X113.5Y-89.6
X114.809Y-91.45
X116.8Y-97.7
X116.8Y-102.3
X118.7Y-100.0
T2
X98.0Y-100.0
X100.0Y-98.0
X100.0Y-100.0
X100.0Y-102.0
X102.0Y-100.0
T0
M30
