%TF.GenerationSoftware,KiCad,Pcbnew,5.1.10*%
%TF.CreationDate,2021-11-24T19:33:13+01:00*%
%TF.ProjectId,watch,77617463-682e-46b6-9963-61645f706362,rev?*%
%TF.SameCoordinates,Original*%
%TF.FileFunction,Copper,L1,Top*%
%TF.FilePolarity,Positive*%
%FSLAX46Y46*%
G04 Gerber Fmt 4.6, Leading zero omitted, Abs format (unit mm)*
G04 Created by KiCad (PCBNEW 5.1.10) date 2021-11-24 19:33:13*
%MOMM*%
%LPD*%
G01*
G04 APERTURE LIST*
%TA.AperFunction,SMDPad,CuDef*%
%ADD10R,1.700000X1.000000*%
%TD*%
%TA.AperFunction,SMDPad,CuDef*%
%ADD11C,0.100000*%
%TD*%
%TA.AperFunction,ViaPad*%
%ADD12C,0.800000*%
%TD*%
%TA.AperFunction,Conductor*%
%ADD13C,0.250000*%
%TD*%
G04 APERTURE END LIST*
D10*
%TO.P,SW1,2*%
%TO.N,+3V3*%
X160400000Y-117050000D03*
X154100000Y-117050000D03*
%TO.P,SW1,1*%
%TO.N,Net-(R51-Pad1)*%
X160400000Y-113250000D03*
X154100000Y-113250000D03*
%TD*%
%TA.AperFunction,SMDPad,CuDef*%
D11*
%TO.P,IC1,49*%
%TO.N,GND*%
G36*
X160226920Y-105750000D02*
G01*
X157250000Y-108726920D01*
X154273080Y-105750000D01*
X157250000Y-102773080D01*
X160226920Y-105750000D01*
G37*
%TD.AperFunction*%
%TA.AperFunction,SMDPad,CuDef*%
%TO.P,IC1,48*%
%TO.N,Net-(D12-Pad2)*%
G36*
X156825382Y-110275837D02*
G01*
X155782400Y-111318819D01*
X155570268Y-111106687D01*
X156613250Y-110063705D01*
X156825382Y-110275837D01*
G37*
%TD.AperFunction*%
%TA.AperFunction,SMDPad,CuDef*%
%TO.P,IC1,47*%
%TO.N,Net-(D11-Pad2)*%
G36*
X156471829Y-109922284D02*
G01*
X155428847Y-110965266D01*
X155216715Y-110753134D01*
X156259697Y-109710152D01*
X156471829Y-109922284D01*
G37*
%TD.AperFunction*%
%TA.AperFunction,SMDPad,CuDef*%
%TO.P,IC1,46*%
%TO.N,/LED_Driver/SCL*%
G36*
X156118275Y-109568730D02*
G01*
X155075293Y-110611712D01*
X154863161Y-110399580D01*
X155906143Y-109356598D01*
X156118275Y-109568730D01*
G37*
%TD.AperFunction*%
%TA.AperFunction,SMDPad,CuDef*%
%TO.P,IC1,45*%
%TO.N,/LED_Driver/SDA*%
G36*
X155764722Y-109215177D02*
G01*
X154721740Y-110258159D01*
X154509608Y-110046027D01*
X155552590Y-109003045D01*
X155764722Y-109215177D01*
G37*
%TD.AperFunction*%
%TA.AperFunction,SMDPad,CuDef*%
%TO.P,IC1,44*%
%TO.N,Net-(IC1-Pad44)*%
G36*
X155411169Y-108861624D02*
G01*
X154368187Y-109904606D01*
X154156055Y-109692474D01*
X155199037Y-108649492D01*
X155411169Y-108861624D01*
G37*
%TD.AperFunction*%
%TA.AperFunction,SMDPad,CuDef*%
%TO.P,IC1,43*%
%TO.N,GND*%
G36*
X155057615Y-108508070D02*
G01*
X154014633Y-109551052D01*
X153802501Y-109338920D01*
X154845483Y-108295938D01*
X155057615Y-108508070D01*
G37*
%TD.AperFunction*%
%TA.AperFunction,SMDPad,CuDef*%
%TO.P,IC1,42*%
G36*
X154704062Y-108154517D02*
G01*
X153661080Y-109197499D01*
X153448948Y-108985367D01*
X154491930Y-107942385D01*
X154704062Y-108154517D01*
G37*
%TD.AperFunction*%
%TA.AperFunction,SMDPad,CuDef*%
%TO.P,IC1,41*%
%TO.N,+3V3*%
G36*
X154350508Y-107800963D02*
G01*
X153307526Y-108843945D01*
X153095394Y-108631813D01*
X154138376Y-107588831D01*
X154350508Y-107800963D01*
G37*
%TD.AperFunction*%
%TA.AperFunction,SMDPad,CuDef*%
%TO.P,IC1,40*%
%TO.N,GND*%
G36*
X153996955Y-107447410D02*
G01*
X152953973Y-108490392D01*
X152741841Y-108278260D01*
X153784823Y-107235278D01*
X153996955Y-107447410D01*
G37*
%TD.AperFunction*%
%TA.AperFunction,SMDPad,CuDef*%
%TO.P,IC1,39*%
%TO.N,/LED_Driver/EN*%
G36*
X153643402Y-107093857D02*
G01*
X152600420Y-108136839D01*
X152388288Y-107924707D01*
X153431270Y-106881725D01*
X153643402Y-107093857D01*
G37*
%TD.AperFunction*%
%TA.AperFunction,SMDPad,CuDef*%
%TO.P,IC1,38*%
%TO.N,Net-(D10-Pad2)*%
G36*
X153289848Y-106740303D02*
G01*
X152246866Y-107783285D01*
X152034734Y-107571153D01*
X153077716Y-106528171D01*
X153289848Y-106740303D01*
G37*
%TD.AperFunction*%
%TA.AperFunction,SMDPad,CuDef*%
%TO.P,IC1,37*%
%TO.N,Net-(D9-Pad2)*%
G36*
X152936295Y-106386750D02*
G01*
X151893313Y-107429732D01*
X151681181Y-107217600D01*
X152724163Y-106174618D01*
X152936295Y-106386750D01*
G37*
%TD.AperFunction*%
%TA.AperFunction,SMDPad,CuDef*%
%TO.P,IC1,36*%
%TO.N,Net-(D8-Pad2)*%
G36*
X151893313Y-104070268D02*
G01*
X152936295Y-105113250D01*
X152724163Y-105325382D01*
X151681181Y-104282400D01*
X151893313Y-104070268D01*
G37*
%TD.AperFunction*%
%TA.AperFunction,SMDPad,CuDef*%
%TO.P,IC1,35*%
%TO.N,Net-(D7-Pad2)*%
G36*
X152246866Y-103716715D02*
G01*
X153289848Y-104759697D01*
X153077716Y-104971829D01*
X152034734Y-103928847D01*
X152246866Y-103716715D01*
G37*
%TD.AperFunction*%
%TA.AperFunction,SMDPad,CuDef*%
%TO.P,IC1,34*%
%TO.N,Net-(D6-Pad2)*%
G36*
X152600420Y-103363161D02*
G01*
X153643402Y-104406143D01*
X153431270Y-104618275D01*
X152388288Y-103575293D01*
X152600420Y-103363161D01*
G37*
%TD.AperFunction*%
%TA.AperFunction,SMDPad,CuDef*%
%TO.P,IC1,33*%
%TO.N,GND*%
G36*
X152953973Y-103009608D02*
G01*
X153996955Y-104052590D01*
X153784823Y-104264722D01*
X152741841Y-103221740D01*
X152953973Y-103009608D01*
G37*
%TD.AperFunction*%
%TA.AperFunction,SMDPad,CuDef*%
%TO.P,IC1,32*%
%TO.N,Net-(D5-Pad2)*%
G36*
X153307526Y-102656055D02*
G01*
X154350508Y-103699037D01*
X154138376Y-103911169D01*
X153095394Y-102868187D01*
X153307526Y-102656055D01*
G37*
%TD.AperFunction*%
%TA.AperFunction,SMDPad,CuDef*%
%TO.P,IC1,31*%
%TO.N,Net-(D4-Pad2)*%
G36*
X153661080Y-102302501D02*
G01*
X154704062Y-103345483D01*
X154491930Y-103557615D01*
X153448948Y-102514633D01*
X153661080Y-102302501D01*
G37*
%TD.AperFunction*%
%TA.AperFunction,SMDPad,CuDef*%
%TO.P,IC1,30*%
%TO.N,Net-(D3-Pad2)*%
G36*
X154014633Y-101948948D02*
G01*
X155057615Y-102991930D01*
X154845483Y-103204062D01*
X153802501Y-102161080D01*
X154014633Y-101948948D01*
G37*
%TD.AperFunction*%
%TA.AperFunction,SMDPad,CuDef*%
%TO.P,IC1,29*%
%TO.N,Net-(D2-Pad2)*%
G36*
X154368187Y-101595394D02*
G01*
X155411169Y-102638376D01*
X155199037Y-102850508D01*
X154156055Y-101807526D01*
X154368187Y-101595394D01*
G37*
%TD.AperFunction*%
%TA.AperFunction,SMDPad,CuDef*%
%TO.P,IC1,28*%
%TO.N,Net-(D1-Pad2)*%
G36*
X154721740Y-101241841D02*
G01*
X155764722Y-102284823D01*
X155552590Y-102496955D01*
X154509608Y-101453973D01*
X154721740Y-101241841D01*
G37*
%TD.AperFunction*%
%TA.AperFunction,SMDPad,CuDef*%
%TO.P,IC1,27*%
%TO.N,Net-(D13-Pad2)*%
G36*
X155075293Y-100888288D02*
G01*
X156118275Y-101931270D01*
X155906143Y-102143402D01*
X154863161Y-101100420D01*
X155075293Y-100888288D01*
G37*
%TD.AperFunction*%
%TA.AperFunction,SMDPad,CuDef*%
%TO.P,IC1,26*%
%TO.N,Net-(D14-Pad2)*%
G36*
X155428847Y-100534734D02*
G01*
X156471829Y-101577716D01*
X156259697Y-101789848D01*
X155216715Y-100746866D01*
X155428847Y-100534734D01*
G37*
%TD.AperFunction*%
%TA.AperFunction,SMDPad,CuDef*%
%TO.P,IC1,25*%
%TO.N,Net-(D15-Pad2)*%
G36*
X155782400Y-100181181D02*
G01*
X156825382Y-101224163D01*
X156613250Y-101436295D01*
X155570268Y-100393313D01*
X155782400Y-100181181D01*
G37*
%TD.AperFunction*%
%TA.AperFunction,SMDPad,CuDef*%
%TO.P,IC1,24*%
%TO.N,Net-(D25-Pad2)*%
G36*
X158929732Y-100393313D02*
G01*
X157886750Y-101436295D01*
X157674618Y-101224163D01*
X158717600Y-100181181D01*
X158929732Y-100393313D01*
G37*
%TD.AperFunction*%
%TA.AperFunction,SMDPad,CuDef*%
%TO.P,IC1,23*%
%TO.N,Net-(D26-Pad2)*%
G36*
X159283285Y-100746866D02*
G01*
X158240303Y-101789848D01*
X158028171Y-101577716D01*
X159071153Y-100534734D01*
X159283285Y-100746866D01*
G37*
%TD.AperFunction*%
%TA.AperFunction,SMDPad,CuDef*%
%TO.P,IC1,22*%
%TO.N,Net-(D27-Pad2)*%
G36*
X159636839Y-101100420D02*
G01*
X158593857Y-102143402D01*
X158381725Y-101931270D01*
X159424707Y-100888288D01*
X159636839Y-101100420D01*
G37*
%TD.AperFunction*%
%TA.AperFunction,SMDPad,CuDef*%
%TO.P,IC1,21*%
%TO.N,Net-(D16-Pad2)*%
G36*
X159990392Y-101453973D02*
G01*
X158947410Y-102496955D01*
X158735278Y-102284823D01*
X159778260Y-101241841D01*
X159990392Y-101453973D01*
G37*
%TD.AperFunction*%
%TA.AperFunction,SMDPad,CuDef*%
%TO.P,IC1,20*%
%TO.N,Net-(D17-Pad2)*%
G36*
X160343945Y-101807526D02*
G01*
X159300963Y-102850508D01*
X159088831Y-102638376D01*
X160131813Y-101595394D01*
X160343945Y-101807526D01*
G37*
%TD.AperFunction*%
%TA.AperFunction,SMDPad,CuDef*%
%TO.P,IC1,19*%
%TO.N,GND*%
G36*
X160697499Y-102161080D02*
G01*
X159654517Y-103204062D01*
X159442385Y-102991930D01*
X160485367Y-101948948D01*
X160697499Y-102161080D01*
G37*
%TD.AperFunction*%
%TA.AperFunction,SMDPad,CuDef*%
%TO.P,IC1,18*%
G36*
X161051052Y-102514633D02*
G01*
X160008070Y-103557615D01*
X159795938Y-103345483D01*
X160838920Y-102302501D01*
X161051052Y-102514633D01*
G37*
%TD.AperFunction*%
%TA.AperFunction,SMDPad,CuDef*%
%TO.P,IC1,17*%
%TO.N,Net-(D18-Pad2)*%
G36*
X161404606Y-102868187D02*
G01*
X160361624Y-103911169D01*
X160149492Y-103699037D01*
X161192474Y-102656055D01*
X161404606Y-102868187D01*
G37*
%TD.AperFunction*%
%TA.AperFunction,SMDPad,CuDef*%
%TO.P,IC1,16*%
%TO.N,Net-(D19-Pad2)*%
G36*
X161758159Y-103221740D02*
G01*
X160715177Y-104264722D01*
X160503045Y-104052590D01*
X161546027Y-103009608D01*
X161758159Y-103221740D01*
G37*
%TD.AperFunction*%
%TA.AperFunction,SMDPad,CuDef*%
%TO.P,IC1,15*%
%TO.N,Net-(D20-Pad2)*%
G36*
X162111712Y-103575293D02*
G01*
X161068730Y-104618275D01*
X160856598Y-104406143D01*
X161899580Y-103363161D01*
X162111712Y-103575293D01*
G37*
%TD.AperFunction*%
%TA.AperFunction,SMDPad,CuDef*%
%TO.P,IC1,14*%
%TO.N,Net-(D21-Pad2)*%
G36*
X162465266Y-103928847D02*
G01*
X161422284Y-104971829D01*
X161210152Y-104759697D01*
X162253134Y-103716715D01*
X162465266Y-103928847D01*
G37*
%TD.AperFunction*%
%TA.AperFunction,SMDPad,CuDef*%
%TO.P,IC1,13*%
%TO.N,Net-(D36-Pad2)*%
G36*
X162818819Y-104282400D02*
G01*
X161775837Y-105325382D01*
X161563705Y-105113250D01*
X162606687Y-104070268D01*
X162818819Y-104282400D01*
G37*
%TD.AperFunction*%
%TA.AperFunction,SMDPad,CuDef*%
%TO.P,IC1,12*%
%TO.N,Net-(D35-Pad2)*%
G36*
X161775837Y-106174618D02*
G01*
X162818819Y-107217600D01*
X162606687Y-107429732D01*
X161563705Y-106386750D01*
X161775837Y-106174618D01*
G37*
%TD.AperFunction*%
%TA.AperFunction,SMDPad,CuDef*%
%TO.P,IC1,11*%
%TO.N,Net-(D34-Pad2)*%
G36*
X161422284Y-106528171D02*
G01*
X162465266Y-107571153D01*
X162253134Y-107783285D01*
X161210152Y-106740303D01*
X161422284Y-106528171D01*
G37*
%TD.AperFunction*%
%TA.AperFunction,SMDPad,CuDef*%
%TO.P,IC1,10*%
%TO.N,Net-(D33-Pad2)*%
G36*
X161068730Y-106881725D02*
G01*
X162111712Y-107924707D01*
X161899580Y-108136839D01*
X160856598Y-107093857D01*
X161068730Y-106881725D01*
G37*
%TD.AperFunction*%
%TA.AperFunction,SMDPad,CuDef*%
%TO.P,IC1,9*%
%TO.N,Net-(D32-Pad2)*%
G36*
X160715177Y-107235278D02*
G01*
X161758159Y-108278260D01*
X161546027Y-108490392D01*
X160503045Y-107447410D01*
X160715177Y-107235278D01*
G37*
%TD.AperFunction*%
%TA.AperFunction,SMDPad,CuDef*%
%TO.P,IC1,8*%
%TO.N,Net-(D31-Pad2)*%
G36*
X160361624Y-107588831D02*
G01*
X161404606Y-108631813D01*
X161192474Y-108843945D01*
X160149492Y-107800963D01*
X160361624Y-107588831D01*
G37*
%TD.AperFunction*%
%TA.AperFunction,SMDPad,CuDef*%
%TO.P,IC1,7*%
%TO.N,Net-(D30-Pad2)*%
G36*
X160008070Y-107942385D02*
G01*
X161051052Y-108985367D01*
X160838920Y-109197499D01*
X159795938Y-108154517D01*
X160008070Y-107942385D01*
G37*
%TD.AperFunction*%
%TA.AperFunction,SMDPad,CuDef*%
%TO.P,IC1,6*%
%TO.N,Net-(D29-Pad2)*%
G36*
X159654517Y-108295938D02*
G01*
X160697499Y-109338920D01*
X160485367Y-109551052D01*
X159442385Y-108508070D01*
X159654517Y-108295938D01*
G37*
%TD.AperFunction*%
%TA.AperFunction,SMDPad,CuDef*%
%TO.P,IC1,5*%
%TO.N,Net-(D28-Pad2)*%
G36*
X159300963Y-108649492D02*
G01*
X160343945Y-109692474D01*
X160131813Y-109904606D01*
X159088831Y-108861624D01*
X159300963Y-108649492D01*
G37*
%TD.AperFunction*%
%TA.AperFunction,SMDPad,CuDef*%
%TO.P,IC1,4*%
%TO.N,GND*%
G36*
X158947410Y-109003045D02*
G01*
X159990392Y-110046027D01*
X159778260Y-110258159D01*
X158735278Y-109215177D01*
X158947410Y-109003045D01*
G37*
%TD.AperFunction*%
%TA.AperFunction,SMDPad,CuDef*%
%TO.P,IC1,3*%
%TO.N,Net-(D24-Pad2)*%
G36*
X158593857Y-109356598D02*
G01*
X159636839Y-110399580D01*
X159424707Y-110611712D01*
X158381725Y-109568730D01*
X158593857Y-109356598D01*
G37*
%TD.AperFunction*%
%TA.AperFunction,SMDPad,CuDef*%
%TO.P,IC1,2*%
%TO.N,Net-(D23-Pad2)*%
G36*
X158240303Y-109710152D02*
G01*
X159283285Y-110753134D01*
X159071153Y-110965266D01*
X158028171Y-109922284D01*
X158240303Y-109710152D01*
G37*
%TD.AperFunction*%
%TA.AperFunction,SMDPad,CuDef*%
%TO.P,IC1,1*%
%TO.N,Net-(D22-Pad2)*%
G36*
X157886750Y-110063705D02*
G01*
X158929732Y-111106687D01*
X158717600Y-111318819D01*
X157674618Y-110275837D01*
X157886750Y-110063705D01*
G37*
%TD.AperFunction*%
%TD*%
%TO.P,R44,2*%
%TO.N,Net-(D36-Pad1)*%
%TA.AperFunction,SMDPad,CuDef*%
G36*
G01*
X173316533Y-99646859D02*
X172968847Y-99773406D01*
G75*
G02*
X172795815Y-99692720I-46173J126859D01*
G01*
X172703469Y-99439003D01*
G75*
G02*
X172784155Y-99265971I126859J46173D01*
G01*
X173131841Y-99139424D01*
G75*
G02*
X173304873Y-99220110I46173J-126859D01*
G01*
X173397219Y-99473827D01*
G75*
G02*
X173316533Y-99646859I-126859J-46173D01*
G01*
G37*
%TD.AperFunction*%
%TO.P,R44,1*%
%TO.N,+3V3*%
%TA.AperFunction,SMDPad,CuDef*%
G36*
G01*
X173665393Y-100605345D02*
X173317707Y-100731892D01*
G75*
G02*
X173144675Y-100651206I-46173J126859D01*
G01*
X173052329Y-100397489D01*
G75*
G02*
X173133015Y-100224457I126859J46173D01*
G01*
X173480701Y-100097910D01*
G75*
G02*
X173653733Y-100178596I46173J-126859D01*
G01*
X173746079Y-100432313D01*
G75*
G02*
X173665393Y-100605345I-126859J-46173D01*
G01*
G37*
%TD.AperFunction*%
%TD*%
%TO.P,R43,2*%
%TO.N,Net-(D35-Pad1)*%
%TA.AperFunction,SMDPad,CuDef*%
G36*
G01*
X172282871Y-100023081D02*
X171935185Y-100149628D01*
G75*
G02*
X171762153Y-100068942I-46173J126859D01*
G01*
X171669807Y-99815225D01*
G75*
G02*
X171750493Y-99642193I126859J46173D01*
G01*
X172098179Y-99515646D01*
G75*
G02*
X172271211Y-99596332I46173J-126859D01*
G01*
X172363557Y-99850049D01*
G75*
G02*
X172282871Y-100023081I-126859J-46173D01*
G01*
G37*
%TD.AperFunction*%
%TO.P,R43,1*%
%TO.N,+3V3*%
%TA.AperFunction,SMDPad,CuDef*%
G36*
G01*
X172631731Y-100981567D02*
X172284045Y-101108114D01*
G75*
G02*
X172111013Y-101027428I-46173J126859D01*
G01*
X172018667Y-100773711D01*
G75*
G02*
X172099353Y-100600679I126859J46173D01*
G01*
X172447039Y-100474132D01*
G75*
G02*
X172620071Y-100554818I46173J-126859D01*
G01*
X172712417Y-100808535D01*
G75*
G02*
X172631731Y-100981567I-126859J-46173D01*
G01*
G37*
%TD.AperFunction*%
%TD*%
%TO.P,R42,2*%
%TO.N,Net-(D34-Pad1)*%
%TA.AperFunction,SMDPad,CuDef*%
G36*
G01*
X171249209Y-100399303D02*
X170901523Y-100525850D01*
G75*
G02*
X170728491Y-100445164I-46173J126859D01*
G01*
X170636145Y-100191447D01*
G75*
G02*
X170716831Y-100018415I126859J46173D01*
G01*
X171064517Y-99891868D01*
G75*
G02*
X171237549Y-99972554I46173J-126859D01*
G01*
X171329895Y-100226271D01*
G75*
G02*
X171249209Y-100399303I-126859J-46173D01*
G01*
G37*
%TD.AperFunction*%
%TO.P,R42,1*%
%TO.N,+3V3*%
%TA.AperFunction,SMDPad,CuDef*%
G36*
G01*
X171598069Y-101357789D02*
X171250383Y-101484336D01*
G75*
G02*
X171077351Y-101403650I-46173J126859D01*
G01*
X170985005Y-101149933D01*
G75*
G02*
X171065691Y-100976901I126859J46173D01*
G01*
X171413377Y-100850354D01*
G75*
G02*
X171586409Y-100931040I46173J-126859D01*
G01*
X171678755Y-101184757D01*
G75*
G02*
X171598069Y-101357789I-126859J-46173D01*
G01*
G37*
%TD.AperFunction*%
%TD*%
%TO.P,R41,2*%
%TO.N,Net-(D33-Pad1)*%
%TA.AperFunction,SMDPad,CuDef*%
G36*
G01*
X174215596Y-108497790D02*
X173851217Y-108433540D01*
G75*
G02*
X173741711Y-108277148I23443J132949D01*
G01*
X173788596Y-108011250D01*
G75*
G02*
X173944988Y-107901744I132949J-23443D01*
G01*
X174309367Y-107965994D01*
G75*
G02*
X174418873Y-108122386I-23443J-132949D01*
G01*
X174371988Y-108388284D01*
G75*
G02*
X174215596Y-108497790I-132949J23443D01*
G01*
G37*
%TD.AperFunction*%
%TO.P,R41,1*%
%TO.N,+3V3*%
%TA.AperFunction,SMDPad,CuDef*%
G36*
G01*
X174038474Y-109502294D02*
X173674095Y-109438044D01*
G75*
G02*
X173564589Y-109281652I23443J132949D01*
G01*
X173611474Y-109015754D01*
G75*
G02*
X173767866Y-108906248I132949J-23443D01*
G01*
X174132245Y-108970498D01*
G75*
G02*
X174241751Y-109126890I-23443J-132949D01*
G01*
X174194866Y-109392788D01*
G75*
G02*
X174038474Y-109502294I-132949J23443D01*
G01*
G37*
%TD.AperFunction*%
%TD*%
%TO.P,R40,2*%
%TO.N,Net-(D32-Pad1)*%
%TA.AperFunction,SMDPad,CuDef*%
G36*
G01*
X173132308Y-108306777D02*
X172767929Y-108242527D01*
G75*
G02*
X172658423Y-108086135I23443J132949D01*
G01*
X172705308Y-107820237D01*
G75*
G02*
X172861700Y-107710731I132949J-23443D01*
G01*
X173226079Y-107774981D01*
G75*
G02*
X173335585Y-107931373I-23443J-132949D01*
G01*
X173288700Y-108197271D01*
G75*
G02*
X173132308Y-108306777I-132949J23443D01*
G01*
G37*
%TD.AperFunction*%
%TO.P,R40,1*%
%TO.N,+3V3*%
%TA.AperFunction,SMDPad,CuDef*%
G36*
G01*
X172955186Y-109311281D02*
X172590807Y-109247031D01*
G75*
G02*
X172481301Y-109090639I23443J132949D01*
G01*
X172528186Y-108824741D01*
G75*
G02*
X172684578Y-108715235I132949J-23443D01*
G01*
X173048957Y-108779485D01*
G75*
G02*
X173158463Y-108935877I-23443J-132949D01*
G01*
X173111578Y-109201775D01*
G75*
G02*
X172955186Y-109311281I-132949J23443D01*
G01*
G37*
%TD.AperFunction*%
%TD*%
%TO.P,R39,2*%
%TO.N,Net-(D31-Pad1)*%
%TA.AperFunction,SMDPad,CuDef*%
G36*
G01*
X172049019Y-108115764D02*
X171684640Y-108051514D01*
G75*
G02*
X171575134Y-107895122I23443J132949D01*
G01*
X171622019Y-107629224D01*
G75*
G02*
X171778411Y-107519718I132949J-23443D01*
G01*
X172142790Y-107583968D01*
G75*
G02*
X172252296Y-107740360I-23443J-132949D01*
G01*
X172205411Y-108006258D01*
G75*
G02*
X172049019Y-108115764I-132949J23443D01*
G01*
G37*
%TD.AperFunction*%
%TO.P,R39,1*%
%TO.N,+3V3*%
%TA.AperFunction,SMDPad,CuDef*%
G36*
G01*
X171871897Y-109120268D02*
X171507518Y-109056018D01*
G75*
G02*
X171398012Y-108899626I23443J132949D01*
G01*
X171444897Y-108633728D01*
G75*
G02*
X171601289Y-108524222I132949J-23443D01*
G01*
X171965668Y-108588472D01*
G75*
G02*
X172075174Y-108744864I-23443J-132949D01*
G01*
X172028289Y-109010762D01*
G75*
G02*
X171871897Y-109120268I-132949J23443D01*
G01*
G37*
%TD.AperFunction*%
%TD*%
%TO.P,R38,2*%
%TO.N,Net-(D30-Pad1)*%
%TA.AperFunction,SMDPad,CuDef*%
G36*
G01*
X170568743Y-116612454D02*
X170285306Y-116374622D01*
G75*
G02*
X170268666Y-116184430I86776J103416D01*
G01*
X170442219Y-115977598D01*
G75*
G02*
X170632411Y-115960958I103416J-86776D01*
G01*
X170915848Y-116198790D01*
G75*
G02*
X170932488Y-116388982I-86776J-103416D01*
G01*
X170758935Y-116595814D01*
G75*
G02*
X170568743Y-116612454I-103416J86776D01*
G01*
G37*
%TD.AperFunction*%
%TO.P,R38,1*%
%TO.N,+3V3*%
%TA.AperFunction,SMDPad,CuDef*%
G36*
G01*
X169913099Y-117393820D02*
X169629662Y-117155988D01*
G75*
G02*
X169613022Y-116965796I86776J103416D01*
G01*
X169786575Y-116758964D01*
G75*
G02*
X169976767Y-116742324I103416J-86776D01*
G01*
X170260204Y-116980156D01*
G75*
G02*
X170276844Y-117170348I-86776J-103416D01*
G01*
X170103291Y-117377180D01*
G75*
G02*
X169913099Y-117393820I-103416J86776D01*
G01*
G37*
%TD.AperFunction*%
%TD*%
%TO.P,R37,2*%
%TO.N,Net-(D29-Pad1)*%
%TA.AperFunction,SMDPad,CuDef*%
G36*
G01*
X169726094Y-115905387D02*
X169442657Y-115667555D01*
G75*
G02*
X169426017Y-115477363I86776J103416D01*
G01*
X169599570Y-115270531D01*
G75*
G02*
X169789762Y-115253891I103416J-86776D01*
G01*
X170073199Y-115491723D01*
G75*
G02*
X170089839Y-115681915I-86776J-103416D01*
G01*
X169916286Y-115888747D01*
G75*
G02*
X169726094Y-115905387I-103416J86776D01*
G01*
G37*
%TD.AperFunction*%
%TO.P,R37,1*%
%TO.N,+3V3*%
%TA.AperFunction,SMDPad,CuDef*%
G36*
G01*
X169070450Y-116686753D02*
X168787013Y-116448921D01*
G75*
G02*
X168770373Y-116258729I86776J103416D01*
G01*
X168943926Y-116051897D01*
G75*
G02*
X169134118Y-116035257I103416J-86776D01*
G01*
X169417555Y-116273089D01*
G75*
G02*
X169434195Y-116463281I-86776J-103416D01*
G01*
X169260642Y-116670113D01*
G75*
G02*
X169070450Y-116686753I-103416J86776D01*
G01*
G37*
%TD.AperFunction*%
%TD*%
%TO.P,R36,2*%
%TO.N,Net-(D28-Pad1)*%
%TA.AperFunction,SMDPad,CuDef*%
G36*
G01*
X168883445Y-115198321D02*
X168600008Y-114960489D01*
G75*
G02*
X168583368Y-114770297I86776J103416D01*
G01*
X168756921Y-114563465D01*
G75*
G02*
X168947113Y-114546825I103416J-86776D01*
G01*
X169230550Y-114784657D01*
G75*
G02*
X169247190Y-114974849I-86776J-103416D01*
G01*
X169073637Y-115181681D01*
G75*
G02*
X168883445Y-115198321I-103416J86776D01*
G01*
G37*
%TD.AperFunction*%
%TO.P,R36,1*%
%TO.N,+3V3*%
%TA.AperFunction,SMDPad,CuDef*%
G36*
G01*
X168227801Y-115979687D02*
X167944364Y-115741855D01*
G75*
G02*
X167927724Y-115551663I86776J103416D01*
G01*
X168101277Y-115344831D01*
G75*
G02*
X168291469Y-115328191I103416J-86776D01*
G01*
X168574906Y-115566023D01*
G75*
G02*
X168591546Y-115756215I-86776J-103416D01*
G01*
X168417993Y-115963047D01*
G75*
G02*
X168227801Y-115979687I-103416J86776D01*
G01*
G37*
%TD.AperFunction*%
%TD*%
%TO.P,R32,2*%
%TO.N,Net-(D24-Pad1)*%
%TA.AperFunction,SMDPad,CuDef*%
G36*
G01*
X163353141Y-121816533D02*
X163226594Y-121468847D01*
G75*
G02*
X163307280Y-121295815I126859J46173D01*
G01*
X163560997Y-121203469D01*
G75*
G02*
X163734029Y-121284155I46173J-126859D01*
G01*
X163860576Y-121631841D01*
G75*
G02*
X163779890Y-121804873I-126859J-46173D01*
G01*
X163526173Y-121897219D01*
G75*
G02*
X163353141Y-121816533I-46173J126859D01*
G01*
G37*
%TD.AperFunction*%
%TO.P,R32,1*%
%TO.N,+3V3*%
%TA.AperFunction,SMDPad,CuDef*%
G36*
G01*
X162394655Y-122165393D02*
X162268108Y-121817707D01*
G75*
G02*
X162348794Y-121644675I126859J46173D01*
G01*
X162602511Y-121552329D01*
G75*
G02*
X162775543Y-121633015I46173J-126859D01*
G01*
X162902090Y-121980701D01*
G75*
G02*
X162821404Y-122153733I-126859J-46173D01*
G01*
X162567687Y-122246079D01*
G75*
G02*
X162394655Y-122165393I-46173J126859D01*
G01*
G37*
%TD.AperFunction*%
%TD*%
%TO.P,R30,2*%
%TO.N,Net-(D23-Pad1)*%
%TA.AperFunction,SMDPad,CuDef*%
G36*
G01*
X162976919Y-120782871D02*
X162850372Y-120435185D01*
G75*
G02*
X162931058Y-120262153I126859J46173D01*
G01*
X163184775Y-120169807D01*
G75*
G02*
X163357807Y-120250493I46173J-126859D01*
G01*
X163484354Y-120598179D01*
G75*
G02*
X163403668Y-120771211I-126859J-46173D01*
G01*
X163149951Y-120863557D01*
G75*
G02*
X162976919Y-120782871I-46173J126859D01*
G01*
G37*
%TD.AperFunction*%
%TO.P,R30,1*%
%TO.N,+3V3*%
%TA.AperFunction,SMDPad,CuDef*%
G36*
G01*
X162018433Y-121131731D02*
X161891886Y-120784045D01*
G75*
G02*
X161972572Y-120611013I126859J46173D01*
G01*
X162226289Y-120518667D01*
G75*
G02*
X162399321Y-120599353I46173J-126859D01*
G01*
X162525868Y-120947039D01*
G75*
G02*
X162445182Y-121120071I-126859J-46173D01*
G01*
X162191465Y-121212417D01*
G75*
G02*
X162018433Y-121131731I-46173J126859D01*
G01*
G37*
%TD.AperFunction*%
%TD*%
%TO.P,R29,2*%
%TO.N,Net-(D22-Pad1)*%
%TA.AperFunction,SMDPad,CuDef*%
G36*
G01*
X162600697Y-119749209D02*
X162474150Y-119401523D01*
G75*
G02*
X162554836Y-119228491I126859J46173D01*
G01*
X162808553Y-119136145D01*
G75*
G02*
X162981585Y-119216831I46173J-126859D01*
G01*
X163108132Y-119564517D01*
G75*
G02*
X163027446Y-119737549I-126859J-46173D01*
G01*
X162773729Y-119829895D01*
G75*
G02*
X162600697Y-119749209I-46173J126859D01*
G01*
G37*
%TD.AperFunction*%
%TO.P,R29,1*%
%TO.N,+3V3*%
%TA.AperFunction,SMDPad,CuDef*%
G36*
G01*
X161642211Y-120098069D02*
X161515664Y-119750383D01*
G75*
G02*
X161596350Y-119577351I126859J46173D01*
G01*
X161850067Y-119485005D01*
G75*
G02*
X162023099Y-119565691I46173J-126859D01*
G01*
X162149646Y-119913377D01*
G75*
G02*
X162068960Y-120086409I-126859J-46173D01*
G01*
X161815243Y-120178755D01*
G75*
G02*
X161642211Y-120098069I-46173J126859D01*
G01*
G37*
%TD.AperFunction*%
%TD*%
%TO.P,R27,2*%
%TO.N,Net-(D21-Pad1)*%
%TA.AperFunction,SMDPad,CuDef*%
G36*
G01*
X166698321Y-94116555D02*
X166460489Y-94399992D01*
G75*
G02*
X166270297Y-94416632I-103416J86776D01*
G01*
X166063465Y-94243079D01*
G75*
G02*
X166046825Y-94052887I86776J103416D01*
G01*
X166284657Y-93769450D01*
G75*
G02*
X166474849Y-93752810I103416J-86776D01*
G01*
X166681681Y-93926363D01*
G75*
G02*
X166698321Y-94116555I-86776J-103416D01*
G01*
G37*
%TD.AperFunction*%
%TO.P,R27,1*%
%TO.N,+3V3*%
%TA.AperFunction,SMDPad,CuDef*%
G36*
G01*
X167479687Y-94772199D02*
X167241855Y-95055636D01*
G75*
G02*
X167051663Y-95072276I-103416J86776D01*
G01*
X166844831Y-94898723D01*
G75*
G02*
X166828191Y-94708531I86776J103416D01*
G01*
X167066023Y-94425094D01*
G75*
G02*
X167256215Y-94408454I103416J-86776D01*
G01*
X167463047Y-94582007D01*
G75*
G02*
X167479687Y-94772199I-86776J-103416D01*
G01*
G37*
%TD.AperFunction*%
%TD*%
%TO.P,R26,2*%
%TO.N,Net-(D20-Pad1)*%
%TA.AperFunction,SMDPad,CuDef*%
G36*
G01*
X167405387Y-93273906D02*
X167167555Y-93557343D01*
G75*
G02*
X166977363Y-93573983I-103416J86776D01*
G01*
X166770531Y-93400430D01*
G75*
G02*
X166753891Y-93210238I86776J103416D01*
G01*
X166991723Y-92926801D01*
G75*
G02*
X167181915Y-92910161I103416J-86776D01*
G01*
X167388747Y-93083714D01*
G75*
G02*
X167405387Y-93273906I-86776J-103416D01*
G01*
G37*
%TD.AperFunction*%
%TO.P,R26,1*%
%TO.N,+3V3*%
%TA.AperFunction,SMDPad,CuDef*%
G36*
G01*
X168186753Y-93929550D02*
X167948921Y-94212987D01*
G75*
G02*
X167758729Y-94229627I-103416J86776D01*
G01*
X167551897Y-94056074D01*
G75*
G02*
X167535257Y-93865882I86776J103416D01*
G01*
X167773089Y-93582445D01*
G75*
G02*
X167963281Y-93565805I103416J-86776D01*
G01*
X168170113Y-93739358D01*
G75*
G02*
X168186753Y-93929550I-86776J-103416D01*
G01*
G37*
%TD.AperFunction*%
%TD*%
%TO.P,R25,2*%
%TO.N,Net-(D19-Pad1)*%
%TA.AperFunction,SMDPad,CuDef*%
G36*
G01*
X168112454Y-92431257D02*
X167874622Y-92714694D01*
G75*
G02*
X167684430Y-92731334I-103416J86776D01*
G01*
X167477598Y-92557781D01*
G75*
G02*
X167460958Y-92367589I86776J103416D01*
G01*
X167698790Y-92084152D01*
G75*
G02*
X167888982Y-92067512I103416J-86776D01*
G01*
X168095814Y-92241065D01*
G75*
G02*
X168112454Y-92431257I-86776J-103416D01*
G01*
G37*
%TD.AperFunction*%
%TO.P,R25,1*%
%TO.N,+3V3*%
%TA.AperFunction,SMDPad,CuDef*%
G36*
G01*
X168893820Y-93086901D02*
X168655988Y-93370338D01*
G75*
G02*
X168465796Y-93386978I-103416J86776D01*
G01*
X168258964Y-93213425D01*
G75*
G02*
X168242324Y-93023233I86776J103416D01*
G01*
X168480156Y-92739796D01*
G75*
G02*
X168670348Y-92723156I103416J-86776D01*
G01*
X168877180Y-92896709D01*
G75*
G02*
X168893820Y-93086901I-86776J-103416D01*
G01*
G37*
%TD.AperFunction*%
%TD*%
%TO.P,R23,2*%
%TO.N,Net-(D18-Pad1)*%
%TA.AperFunction,SMDPad,CuDef*%
G36*
G01*
X159615764Y-90950981D02*
X159551514Y-91315360D01*
G75*
G02*
X159395122Y-91424866I-132949J23443D01*
G01*
X159129224Y-91377981D01*
G75*
G02*
X159019718Y-91221589I23443J132949D01*
G01*
X159083968Y-90857210D01*
G75*
G02*
X159240360Y-90747704I132949J-23443D01*
G01*
X159506258Y-90794589D01*
G75*
G02*
X159615764Y-90950981I-23443J-132949D01*
G01*
G37*
%TD.AperFunction*%
%TO.P,R23,1*%
%TO.N,+3V3*%
%TA.AperFunction,SMDPad,CuDef*%
G36*
G01*
X160620268Y-91128103D02*
X160556018Y-91492482D01*
G75*
G02*
X160399626Y-91601988I-132949J23443D01*
G01*
X160133728Y-91555103D01*
G75*
G02*
X160024222Y-91398711I23443J132949D01*
G01*
X160088472Y-91034332D01*
G75*
G02*
X160244864Y-90924826I132949J-23443D01*
G01*
X160510762Y-90971711D01*
G75*
G02*
X160620268Y-91128103I-23443J-132949D01*
G01*
G37*
%TD.AperFunction*%
%TD*%
%TO.P,R22,2*%
%TO.N,Net-(D17-Pad1)*%
%TA.AperFunction,SMDPad,CuDef*%
G36*
G01*
X159806777Y-89867692D02*
X159742527Y-90232071D01*
G75*
G02*
X159586135Y-90341577I-132949J23443D01*
G01*
X159320237Y-90294692D01*
G75*
G02*
X159210731Y-90138300I23443J132949D01*
G01*
X159274981Y-89773921D01*
G75*
G02*
X159431373Y-89664415I132949J-23443D01*
G01*
X159697271Y-89711300D01*
G75*
G02*
X159806777Y-89867692I-23443J-132949D01*
G01*
G37*
%TD.AperFunction*%
%TO.P,R22,1*%
%TO.N,+3V3*%
%TA.AperFunction,SMDPad,CuDef*%
G36*
G01*
X160811281Y-90044814D02*
X160747031Y-90409193D01*
G75*
G02*
X160590639Y-90518699I-132949J23443D01*
G01*
X160324741Y-90471814D01*
G75*
G02*
X160215235Y-90315422I23443J132949D01*
G01*
X160279485Y-89951043D01*
G75*
G02*
X160435877Y-89841537I132949J-23443D01*
G01*
X160701775Y-89888422D01*
G75*
G02*
X160811281Y-90044814I-23443J-132949D01*
G01*
G37*
%TD.AperFunction*%
%TD*%
%TO.P,R21,2*%
%TO.N,Net-(D16-Pad1)*%
%TA.AperFunction,SMDPad,CuDef*%
G36*
G01*
X159997790Y-88784404D02*
X159933540Y-89148783D01*
G75*
G02*
X159777148Y-89258289I-132949J23443D01*
G01*
X159511250Y-89211404D01*
G75*
G02*
X159401744Y-89055012I23443J132949D01*
G01*
X159465994Y-88690633D01*
G75*
G02*
X159622386Y-88581127I132949J-23443D01*
G01*
X159888284Y-88628012D01*
G75*
G02*
X159997790Y-88784404I-23443J-132949D01*
G01*
G37*
%TD.AperFunction*%
%TO.P,R21,1*%
%TO.N,+3V3*%
%TA.AperFunction,SMDPad,CuDef*%
G36*
G01*
X161002294Y-88961526D02*
X160938044Y-89325905D01*
G75*
G02*
X160781652Y-89435411I-132949J23443D01*
G01*
X160515754Y-89388526D01*
G75*
G02*
X160406248Y-89232134I23443J132949D01*
G01*
X160470498Y-88867755D01*
G75*
G02*
X160626890Y-88758249I132949J-23443D01*
G01*
X160892788Y-88805134D01*
G75*
G02*
X161002294Y-88961526I-23443J-132949D01*
G01*
G37*
%TD.AperFunction*%
%TD*%
%TO.P,R19,2*%
%TO.N,Net-(D15-Pad1)*%
%TA.AperFunction,SMDPad,CuDef*%
G36*
G01*
X145616555Y-96301679D02*
X145899992Y-96539511D01*
G75*
G02*
X145916632Y-96729703I-86776J-103416D01*
G01*
X145743079Y-96936535D01*
G75*
G02*
X145552887Y-96953175I-103416J86776D01*
G01*
X145269450Y-96715343D01*
G75*
G02*
X145252810Y-96525151I86776J103416D01*
G01*
X145426363Y-96318319D01*
G75*
G02*
X145616555Y-96301679I103416J-86776D01*
G01*
G37*
%TD.AperFunction*%
%TO.P,R19,1*%
%TO.N,+3V3*%
%TA.AperFunction,SMDPad,CuDef*%
G36*
G01*
X146272199Y-95520313D02*
X146555636Y-95758145D01*
G75*
G02*
X146572276Y-95948337I-86776J-103416D01*
G01*
X146398723Y-96155169D01*
G75*
G02*
X146208531Y-96171809I-103416J86776D01*
G01*
X145925094Y-95933977D01*
G75*
G02*
X145908454Y-95743785I86776J103416D01*
G01*
X146082007Y-95536953D01*
G75*
G02*
X146272199Y-95520313I103416J-86776D01*
G01*
G37*
%TD.AperFunction*%
%TD*%
%TO.P,R18,2*%
%TO.N,Net-(D14-Pad1)*%
%TA.AperFunction,SMDPad,CuDef*%
G36*
G01*
X144773906Y-95594613D02*
X145057343Y-95832445D01*
G75*
G02*
X145073983Y-96022637I-86776J-103416D01*
G01*
X144900430Y-96229469D01*
G75*
G02*
X144710238Y-96246109I-103416J86776D01*
G01*
X144426801Y-96008277D01*
G75*
G02*
X144410161Y-95818085I86776J103416D01*
G01*
X144583714Y-95611253D01*
G75*
G02*
X144773906Y-95594613I103416J-86776D01*
G01*
G37*
%TD.AperFunction*%
%TO.P,R18,1*%
%TO.N,+3V3*%
%TA.AperFunction,SMDPad,CuDef*%
G36*
G01*
X145429550Y-94813247D02*
X145712987Y-95051079D01*
G75*
G02*
X145729627Y-95241271I-86776J-103416D01*
G01*
X145556074Y-95448103D01*
G75*
G02*
X145365882Y-95464743I-103416J86776D01*
G01*
X145082445Y-95226911D01*
G75*
G02*
X145065805Y-95036719I86776J103416D01*
G01*
X145239358Y-94829887D01*
G75*
G02*
X145429550Y-94813247I103416J-86776D01*
G01*
G37*
%TD.AperFunction*%
%TD*%
%TO.P,R17,2*%
%TO.N,Net-(D13-Pad1)*%
%TA.AperFunction,SMDPad,CuDef*%
G36*
G01*
X143931257Y-94887546D02*
X144214694Y-95125378D01*
G75*
G02*
X144231334Y-95315570I-86776J-103416D01*
G01*
X144057781Y-95522402D01*
G75*
G02*
X143867589Y-95539042I-103416J86776D01*
G01*
X143584152Y-95301210D01*
G75*
G02*
X143567512Y-95111018I86776J103416D01*
G01*
X143741065Y-94904186D01*
G75*
G02*
X143931257Y-94887546I103416J-86776D01*
G01*
G37*
%TD.AperFunction*%
%TO.P,R17,1*%
%TO.N,+3V3*%
%TA.AperFunction,SMDPad,CuDef*%
G36*
G01*
X144586901Y-94106180D02*
X144870338Y-94344012D01*
G75*
G02*
X144886978Y-94534204I-86776J-103416D01*
G01*
X144713425Y-94741036D01*
G75*
G02*
X144523233Y-94757676I-103416J86776D01*
G01*
X144239796Y-94519844D01*
G75*
G02*
X144223156Y-94329652I86776J103416D01*
G01*
X144396709Y-94122820D01*
G75*
G02*
X144586901Y-94106180I103416J-86776D01*
G01*
G37*
%TD.AperFunction*%
%TD*%
%TO.P,R16,2*%
%TO.N,Net-(D12-Pad1)*%
%TA.AperFunction,SMDPad,CuDef*%
G36*
G01*
X154502210Y-122715596D02*
X154566460Y-122351217D01*
G75*
G02*
X154722852Y-122241711I132949J-23443D01*
G01*
X154988750Y-122288596D01*
G75*
G02*
X155098256Y-122444988I-23443J-132949D01*
G01*
X155034006Y-122809367D01*
G75*
G02*
X154877614Y-122918873I-132949J23443D01*
G01*
X154611716Y-122871988D01*
G75*
G02*
X154502210Y-122715596I23443J132949D01*
G01*
G37*
%TD.AperFunction*%
%TO.P,R16,1*%
%TO.N,+3V3*%
%TA.AperFunction,SMDPad,CuDef*%
G36*
G01*
X153497706Y-122538474D02*
X153561956Y-122174095D01*
G75*
G02*
X153718348Y-122064589I132949J-23443D01*
G01*
X153984246Y-122111474D01*
G75*
G02*
X154093752Y-122267866I-23443J-132949D01*
G01*
X154029502Y-122632245D01*
G75*
G02*
X153873110Y-122741751I-132949J23443D01*
G01*
X153607212Y-122694866D01*
G75*
G02*
X153497706Y-122538474I23443J132949D01*
G01*
G37*
%TD.AperFunction*%
%TD*%
%TO.P,R15,2*%
%TO.N,Net-(D11-Pad1)*%
%TA.AperFunction,SMDPad,CuDef*%
G36*
G01*
X154693223Y-121632308D02*
X154757473Y-121267929D01*
G75*
G02*
X154913865Y-121158423I132949J-23443D01*
G01*
X155179763Y-121205308D01*
G75*
G02*
X155289269Y-121361700I-23443J-132949D01*
G01*
X155225019Y-121726079D01*
G75*
G02*
X155068627Y-121835585I-132949J23443D01*
G01*
X154802729Y-121788700D01*
G75*
G02*
X154693223Y-121632308I23443J132949D01*
G01*
G37*
%TD.AperFunction*%
%TO.P,R15,1*%
%TO.N,+3V3*%
%TA.AperFunction,SMDPad,CuDef*%
G36*
G01*
X153688719Y-121455186D02*
X153752969Y-121090807D01*
G75*
G02*
X153909361Y-120981301I132949J-23443D01*
G01*
X154175259Y-121028186D01*
G75*
G02*
X154284765Y-121184578I-23443J-132949D01*
G01*
X154220515Y-121548957D01*
G75*
G02*
X154064123Y-121658463I-132949J23443D01*
G01*
X153798225Y-121611578D01*
G75*
G02*
X153688719Y-121455186I23443J132949D01*
G01*
G37*
%TD.AperFunction*%
%TD*%
%TO.P,R14,2*%
%TO.N,Net-(D10-Pad1)*%
%TA.AperFunction,SMDPad,CuDef*%
G36*
G01*
X154884236Y-120549019D02*
X154948486Y-120184640D01*
G75*
G02*
X155104878Y-120075134I132949J-23443D01*
G01*
X155370776Y-120122019D01*
G75*
G02*
X155480282Y-120278411I-23443J-132949D01*
G01*
X155416032Y-120642790D01*
G75*
G02*
X155259640Y-120752296I-132949J23443D01*
G01*
X154993742Y-120705411D01*
G75*
G02*
X154884236Y-120549019I23443J132949D01*
G01*
G37*
%TD.AperFunction*%
%TO.P,R14,1*%
%TO.N,+3V3*%
%TA.AperFunction,SMDPad,CuDef*%
G36*
G01*
X153879732Y-120371897D02*
X153943982Y-120007518D01*
G75*
G02*
X154100374Y-119898012I132949J-23443D01*
G01*
X154366272Y-119944897D01*
G75*
G02*
X154475778Y-120101289I-23443J-132949D01*
G01*
X154411528Y-120465668D01*
G75*
G02*
X154255136Y-120575174I-132949J23443D01*
G01*
X153989238Y-120528289D01*
G75*
G02*
X153879732Y-120371897I23443J132949D01*
G01*
G37*
%TD.AperFunction*%
%TD*%
%TO.P,R13,2*%
%TO.N,Net-(D9-Pad1)*%
%TA.AperFunction,SMDPad,CuDef*%
G36*
G01*
X146387546Y-119068743D02*
X146625378Y-118785306D01*
G75*
G02*
X146815570Y-118768666I103416J-86776D01*
G01*
X147022402Y-118942219D01*
G75*
G02*
X147039042Y-119132411I-86776J-103416D01*
G01*
X146801210Y-119415848D01*
G75*
G02*
X146611018Y-119432488I-103416J86776D01*
G01*
X146404186Y-119258935D01*
G75*
G02*
X146387546Y-119068743I86776J103416D01*
G01*
G37*
%TD.AperFunction*%
%TO.P,R13,1*%
%TO.N,+3V3*%
%TA.AperFunction,SMDPad,CuDef*%
G36*
G01*
X145606180Y-118413099D02*
X145844012Y-118129662D01*
G75*
G02*
X146034204Y-118113022I103416J-86776D01*
G01*
X146241036Y-118286575D01*
G75*
G02*
X146257676Y-118476767I-86776J-103416D01*
G01*
X146019844Y-118760204D01*
G75*
G02*
X145829652Y-118776844I-103416J86776D01*
G01*
X145622820Y-118603291D01*
G75*
G02*
X145606180Y-118413099I86776J103416D01*
G01*
G37*
%TD.AperFunction*%
%TD*%
%TO.P,R12,2*%
%TO.N,Net-(D8-Pad1)*%
%TA.AperFunction,SMDPad,CuDef*%
G36*
G01*
X147094613Y-118226094D02*
X147332445Y-117942657D01*
G75*
G02*
X147522637Y-117926017I103416J-86776D01*
G01*
X147729469Y-118099570D01*
G75*
G02*
X147746109Y-118289762I-86776J-103416D01*
G01*
X147508277Y-118573199D01*
G75*
G02*
X147318085Y-118589839I-103416J86776D01*
G01*
X147111253Y-118416286D01*
G75*
G02*
X147094613Y-118226094I86776J103416D01*
G01*
G37*
%TD.AperFunction*%
%TO.P,R12,1*%
%TO.N,+3V3*%
%TA.AperFunction,SMDPad,CuDef*%
G36*
G01*
X146313247Y-117570450D02*
X146551079Y-117287013D01*
G75*
G02*
X146741271Y-117270373I103416J-86776D01*
G01*
X146948103Y-117443926D01*
G75*
G02*
X146964743Y-117634118I-86776J-103416D01*
G01*
X146726911Y-117917555D01*
G75*
G02*
X146536719Y-117934195I-103416J86776D01*
G01*
X146329887Y-117760642D01*
G75*
G02*
X146313247Y-117570450I86776J103416D01*
G01*
G37*
%TD.AperFunction*%
%TD*%
%TO.P,R11,2*%
%TO.N,Net-(D7-Pad1)*%
%TA.AperFunction,SMDPad,CuDef*%
G36*
G01*
X147801679Y-117383445D02*
X148039511Y-117100008D01*
G75*
G02*
X148229703Y-117083368I103416J-86776D01*
G01*
X148436535Y-117256921D01*
G75*
G02*
X148453175Y-117447113I-86776J-103416D01*
G01*
X148215343Y-117730550D01*
G75*
G02*
X148025151Y-117747190I-103416J86776D01*
G01*
X147818319Y-117573637D01*
G75*
G02*
X147801679Y-117383445I86776J103416D01*
G01*
G37*
%TD.AperFunction*%
%TO.P,R11,1*%
%TO.N,+3V3*%
%TA.AperFunction,SMDPad,CuDef*%
G36*
G01*
X147020313Y-116727801D02*
X147258145Y-116444364D01*
G75*
G02*
X147448337Y-116427724I103416J-86776D01*
G01*
X147655169Y-116601277D01*
G75*
G02*
X147671809Y-116791469I-86776J-103416D01*
G01*
X147433977Y-117074906D01*
G75*
G02*
X147243785Y-117091546I-103416J86776D01*
G01*
X147036953Y-116917993D01*
G75*
G02*
X147020313Y-116727801I86776J103416D01*
G01*
G37*
%TD.AperFunction*%
%TD*%
%TO.P,R10,2*%
%TO.N,Net-(D6-Pad1)*%
%TA.AperFunction,SMDPad,CuDef*%
G36*
G01*
X141183467Y-111853141D02*
X141531153Y-111726594D01*
G75*
G02*
X141704185Y-111807280I46173J-126859D01*
G01*
X141796531Y-112060997D01*
G75*
G02*
X141715845Y-112234029I-126859J-46173D01*
G01*
X141368159Y-112360576D01*
G75*
G02*
X141195127Y-112279890I-46173J126859D01*
G01*
X141102781Y-112026173D01*
G75*
G02*
X141183467Y-111853141I126859J46173D01*
G01*
G37*
%TD.AperFunction*%
%TO.P,R10,1*%
%TO.N,+3V3*%
%TA.AperFunction,SMDPad,CuDef*%
G36*
G01*
X140834607Y-110894655D02*
X141182293Y-110768108D01*
G75*
G02*
X141355325Y-110848794I46173J-126859D01*
G01*
X141447671Y-111102511D01*
G75*
G02*
X141366985Y-111275543I-126859J-46173D01*
G01*
X141019299Y-111402090D01*
G75*
G02*
X140846267Y-111321404I-46173J126859D01*
G01*
X140753921Y-111067687D01*
G75*
G02*
X140834607Y-110894655I126859J46173D01*
G01*
G37*
%TD.AperFunction*%
%TD*%
%TO.P,R9,2*%
%TO.N,Net-(D5-Pad1)*%
%TA.AperFunction,SMDPad,CuDef*%
G36*
G01*
X142217129Y-111476919D02*
X142564815Y-111350372D01*
G75*
G02*
X142737847Y-111431058I46173J-126859D01*
G01*
X142830193Y-111684775D01*
G75*
G02*
X142749507Y-111857807I-126859J-46173D01*
G01*
X142401821Y-111984354D01*
G75*
G02*
X142228789Y-111903668I-46173J126859D01*
G01*
X142136443Y-111649951D01*
G75*
G02*
X142217129Y-111476919I126859J46173D01*
G01*
G37*
%TD.AperFunction*%
%TO.P,R9,1*%
%TO.N,+3V3*%
%TA.AperFunction,SMDPad,CuDef*%
G36*
G01*
X141868269Y-110518433D02*
X142215955Y-110391886D01*
G75*
G02*
X142388987Y-110472572I46173J-126859D01*
G01*
X142481333Y-110726289D01*
G75*
G02*
X142400647Y-110899321I-126859J-46173D01*
G01*
X142052961Y-111025868D01*
G75*
G02*
X141879929Y-110945182I-46173J126859D01*
G01*
X141787583Y-110691465D01*
G75*
G02*
X141868269Y-110518433I126859J46173D01*
G01*
G37*
%TD.AperFunction*%
%TD*%
%TO.P,R8,2*%
%TO.N,Net-(D4-Pad1)*%
%TA.AperFunction,SMDPad,CuDef*%
G36*
G01*
X143250791Y-111100697D02*
X143598477Y-110974150D01*
G75*
G02*
X143771509Y-111054836I46173J-126859D01*
G01*
X143863855Y-111308553D01*
G75*
G02*
X143783169Y-111481585I-126859J-46173D01*
G01*
X143435483Y-111608132D01*
G75*
G02*
X143262451Y-111527446I-46173J126859D01*
G01*
X143170105Y-111273729D01*
G75*
G02*
X143250791Y-111100697I126859J46173D01*
G01*
G37*
%TD.AperFunction*%
%TO.P,R8,1*%
%TO.N,+3V3*%
%TA.AperFunction,SMDPad,CuDef*%
G36*
G01*
X142901931Y-110142211D02*
X143249617Y-110015664D01*
G75*
G02*
X143422649Y-110096350I46173J-126859D01*
G01*
X143514995Y-110350067D01*
G75*
G02*
X143434309Y-110523099I-126859J-46173D01*
G01*
X143086623Y-110649646D01*
G75*
G02*
X142913591Y-110568960I-46173J126859D01*
G01*
X142821245Y-110315243D01*
G75*
G02*
X142901931Y-110142211I126859J46173D01*
G01*
G37*
%TD.AperFunction*%
%TD*%
%TO.P,R7,2*%
%TO.N,Net-(D3-Pad1)*%
%TA.AperFunction,SMDPad,CuDef*%
G36*
G01*
X140284404Y-103002210D02*
X140648783Y-103066460D01*
G75*
G02*
X140758289Y-103222852I-23443J-132949D01*
G01*
X140711404Y-103488750D01*
G75*
G02*
X140555012Y-103598256I-132949J23443D01*
G01*
X140190633Y-103534006D01*
G75*
G02*
X140081127Y-103377614I23443J132949D01*
G01*
X140128012Y-103111716D01*
G75*
G02*
X140284404Y-103002210I132949J-23443D01*
G01*
G37*
%TD.AperFunction*%
%TO.P,R7,1*%
%TO.N,+3V3*%
%TA.AperFunction,SMDPad,CuDef*%
G36*
G01*
X140461526Y-101997706D02*
X140825905Y-102061956D01*
G75*
G02*
X140935411Y-102218348I-23443J-132949D01*
G01*
X140888526Y-102484246D01*
G75*
G02*
X140732134Y-102593752I-132949J23443D01*
G01*
X140367755Y-102529502D01*
G75*
G02*
X140258249Y-102373110I23443J132949D01*
G01*
X140305134Y-102107212D01*
G75*
G02*
X140461526Y-101997706I132949J-23443D01*
G01*
G37*
%TD.AperFunction*%
%TD*%
%TO.P,R6,2*%
%TO.N,Net-(D2-Pad1)*%
%TA.AperFunction,SMDPad,CuDef*%
G36*
G01*
X141367692Y-103193223D02*
X141732071Y-103257473D01*
G75*
G02*
X141841577Y-103413865I-23443J-132949D01*
G01*
X141794692Y-103679763D01*
G75*
G02*
X141638300Y-103789269I-132949J23443D01*
G01*
X141273921Y-103725019D01*
G75*
G02*
X141164415Y-103568627I23443J132949D01*
G01*
X141211300Y-103302729D01*
G75*
G02*
X141367692Y-103193223I132949J-23443D01*
G01*
G37*
%TD.AperFunction*%
%TO.P,R6,1*%
%TO.N,+3V3*%
%TA.AperFunction,SMDPad,CuDef*%
G36*
G01*
X141544814Y-102188719D02*
X141909193Y-102252969D01*
G75*
G02*
X142018699Y-102409361I-23443J-132949D01*
G01*
X141971814Y-102675259D01*
G75*
G02*
X141815422Y-102784765I-132949J23443D01*
G01*
X141451043Y-102720515D01*
G75*
G02*
X141341537Y-102564123I23443J132949D01*
G01*
X141388422Y-102298225D01*
G75*
G02*
X141544814Y-102188719I132949J-23443D01*
G01*
G37*
%TD.AperFunction*%
%TD*%
%TO.P,R5,2*%
%TO.N,Net-(D1-Pad1)*%
%TA.AperFunction,SMDPad,CuDef*%
G36*
G01*
X142450981Y-103384236D02*
X142815360Y-103448486D01*
G75*
G02*
X142924866Y-103604878I-23443J-132949D01*
G01*
X142877981Y-103870776D01*
G75*
G02*
X142721589Y-103980282I-132949J23443D01*
G01*
X142357210Y-103916032D01*
G75*
G02*
X142247704Y-103759640I23443J132949D01*
G01*
X142294589Y-103493742D01*
G75*
G02*
X142450981Y-103384236I132949J-23443D01*
G01*
G37*
%TD.AperFunction*%
%TO.P,R5,1*%
%TO.N,+3V3*%
%TA.AperFunction,SMDPad,CuDef*%
G36*
G01*
X142628103Y-102379732D02*
X142992482Y-102443982D01*
G75*
G02*
X143101988Y-102600374I-23443J-132949D01*
G01*
X143055103Y-102866272D01*
G75*
G02*
X142898711Y-102975778I-132949J23443D01*
G01*
X142534332Y-102911528D01*
G75*
G02*
X142424826Y-102755136I23443J132949D01*
G01*
X142471711Y-102489238D01*
G75*
G02*
X142628103Y-102379732I132949J-23443D01*
G01*
G37*
%TD.AperFunction*%
%TD*%
%TO.P,D36,2*%
%TO.N,Net-(D36-Pad2)*%
%TA.AperFunction,SMDPad,CuDef*%
G36*
G01*
X172026820Y-96999206D02*
X171728042Y-97171706D01*
G75*
G02*
X171526553Y-97117717I-73750J127739D01*
G01*
X171379053Y-96862239D01*
G75*
G02*
X171433042Y-96660750I127739J73750D01*
G01*
X171731820Y-96488250D01*
G75*
G02*
X171933309Y-96542239I73750J-127739D01*
G01*
X172080809Y-96797717D01*
G75*
G02*
X172026820Y-96999206I-127739J-73750D01*
G01*
G37*
%TD.AperFunction*%
%TO.P,D36,1*%
%TO.N,Net-(D36-Pad1)*%
%TA.AperFunction,SMDPad,CuDef*%
G36*
G01*
X172511820Y-97839250D02*
X172213042Y-98011750D01*
G75*
G02*
X172011553Y-97957761I-73750J127739D01*
G01*
X171864053Y-97702283D01*
G75*
G02*
X171918042Y-97500794I127739J73750D01*
G01*
X172216820Y-97328294D01*
G75*
G02*
X172418309Y-97382283I73750J-127739D01*
G01*
X172565809Y-97637761D01*
G75*
G02*
X172511820Y-97839250I-127739J-73750D01*
G01*
G37*
%TD.AperFunction*%
%TD*%
%TO.P,D35,2*%
%TO.N,Net-(D35-Pad2)*%
%TA.AperFunction,SMDPad,CuDef*%
G36*
G01*
X171074192Y-97549206D02*
X170775414Y-97721706D01*
G75*
G02*
X170573925Y-97667717I-73750J127739D01*
G01*
X170426425Y-97412239D01*
G75*
G02*
X170480414Y-97210750I127739J73750D01*
G01*
X170779192Y-97038250D01*
G75*
G02*
X170980681Y-97092239I73750J-127739D01*
G01*
X171128181Y-97347717D01*
G75*
G02*
X171074192Y-97549206I-127739J-73750D01*
G01*
G37*
%TD.AperFunction*%
%TO.P,D35,1*%
%TO.N,Net-(D35-Pad1)*%
%TA.AperFunction,SMDPad,CuDef*%
G36*
G01*
X171559192Y-98389250D02*
X171260414Y-98561750D01*
G75*
G02*
X171058925Y-98507761I-73750J127739D01*
G01*
X170911425Y-98252283D01*
G75*
G02*
X170965414Y-98050794I127739J73750D01*
G01*
X171264192Y-97878294D01*
G75*
G02*
X171465681Y-97932283I73750J-127739D01*
G01*
X171613181Y-98187761D01*
G75*
G02*
X171559192Y-98389250I-127739J-73750D01*
G01*
G37*
%TD.AperFunction*%
%TD*%
%TO.P,D34,2*%
%TO.N,Net-(D34-Pad2)*%
%TA.AperFunction,SMDPad,CuDef*%
G36*
G01*
X170121564Y-98099206D02*
X169822786Y-98271706D01*
G75*
G02*
X169621297Y-98217717I-73750J127739D01*
G01*
X169473797Y-97962239D01*
G75*
G02*
X169527786Y-97760750I127739J73750D01*
G01*
X169826564Y-97588250D01*
G75*
G02*
X170028053Y-97642239I73750J-127739D01*
G01*
X170175553Y-97897717D01*
G75*
G02*
X170121564Y-98099206I-127739J-73750D01*
G01*
G37*
%TD.AperFunction*%
%TO.P,D34,1*%
%TO.N,Net-(D34-Pad1)*%
%TA.AperFunction,SMDPad,CuDef*%
G36*
G01*
X170606564Y-98939250D02*
X170307786Y-99111750D01*
G75*
G02*
X170106297Y-99057761I-73750J127739D01*
G01*
X169958797Y-98802283D01*
G75*
G02*
X170012786Y-98600794I127739J73750D01*
G01*
X170311564Y-98428294D01*
G75*
G02*
X170513053Y-98482283I73750J-127739D01*
G01*
X170660553Y-98737761D01*
G75*
G02*
X170606564Y-98939250I-127739J-73750D01*
G01*
G37*
%TD.AperFunction*%
%TD*%
%TO.P,D33,2*%
%TO.N,Net-(D33-Pad2)*%
%TA.AperFunction,SMDPad,CuDef*%
G36*
G01*
X174422500Y-105560000D02*
X174077500Y-105560000D01*
G75*
G02*
X173930000Y-105412500I0J147500D01*
G01*
X173930000Y-105117500D01*
G75*
G02*
X174077500Y-104970000I147500J0D01*
G01*
X174422500Y-104970000D01*
G75*
G02*
X174570000Y-105117500I0J-147500D01*
G01*
X174570000Y-105412500D01*
G75*
G02*
X174422500Y-105560000I-147500J0D01*
G01*
G37*
%TD.AperFunction*%
%TO.P,D33,1*%
%TO.N,Net-(D33-Pad1)*%
%TA.AperFunction,SMDPad,CuDef*%
G36*
G01*
X174422500Y-106530000D02*
X174077500Y-106530000D01*
G75*
G02*
X173930000Y-106382500I0J147500D01*
G01*
X173930000Y-106087500D01*
G75*
G02*
X174077500Y-105940000I147500J0D01*
G01*
X174422500Y-105940000D01*
G75*
G02*
X174570000Y-106087500I0J-147500D01*
G01*
X174570000Y-106382500D01*
G75*
G02*
X174422500Y-106530000I-147500J0D01*
G01*
G37*
%TD.AperFunction*%
%TD*%
%TO.P,D32,2*%
%TO.N,Net-(D32-Pad2)*%
%TA.AperFunction,SMDPad,CuDef*%
G36*
G01*
X173322500Y-105560000D02*
X172977500Y-105560000D01*
G75*
G02*
X172830000Y-105412500I0J147500D01*
G01*
X172830000Y-105117500D01*
G75*
G02*
X172977500Y-104970000I147500J0D01*
G01*
X173322500Y-104970000D01*
G75*
G02*
X173470000Y-105117500I0J-147500D01*
G01*
X173470000Y-105412500D01*
G75*
G02*
X173322500Y-105560000I-147500J0D01*
G01*
G37*
%TD.AperFunction*%
%TO.P,D32,1*%
%TO.N,Net-(D32-Pad1)*%
%TA.AperFunction,SMDPad,CuDef*%
G36*
G01*
X173322500Y-106530000D02*
X172977500Y-106530000D01*
G75*
G02*
X172830000Y-106382500I0J147500D01*
G01*
X172830000Y-106087500D01*
G75*
G02*
X172977500Y-105940000I147500J0D01*
G01*
X173322500Y-105940000D01*
G75*
G02*
X173470000Y-106087500I0J-147500D01*
G01*
X173470000Y-106382500D01*
G75*
G02*
X173322500Y-106530000I-147500J0D01*
G01*
G37*
%TD.AperFunction*%
%TD*%
%TO.P,D31,2*%
%TO.N,Net-(D31-Pad2)*%
%TA.AperFunction,SMDPad,CuDef*%
G36*
G01*
X172222500Y-105560000D02*
X171877500Y-105560000D01*
G75*
G02*
X171730000Y-105412500I0J147500D01*
G01*
X171730000Y-105117500D01*
G75*
G02*
X171877500Y-104970000I147500J0D01*
G01*
X172222500Y-104970000D01*
G75*
G02*
X172370000Y-105117500I0J-147500D01*
G01*
X172370000Y-105412500D01*
G75*
G02*
X172222500Y-105560000I-147500J0D01*
G01*
G37*
%TD.AperFunction*%
%TO.P,D31,1*%
%TO.N,Net-(D31-Pad1)*%
%TA.AperFunction,SMDPad,CuDef*%
G36*
G01*
X172222500Y-106530000D02*
X171877500Y-106530000D01*
G75*
G02*
X171730000Y-106382500I0J147500D01*
G01*
X171730000Y-106087500D01*
G75*
G02*
X171877500Y-105940000I147500J0D01*
G01*
X172222500Y-105940000D01*
G75*
G02*
X172370000Y-106087500I0J-147500D01*
G01*
X172370000Y-106382500D01*
G75*
G02*
X172222500Y-106530000I-147500J0D01*
G01*
G37*
%TD.AperFunction*%
%TD*%
%TO.P,D30,2*%
%TO.N,Net-(D30-Pad2)*%
%TA.AperFunction,SMDPad,CuDef*%
G36*
G01*
X172216820Y-114171705D02*
X171918042Y-113999205D01*
G75*
G02*
X171864053Y-113797716I73750J127739D01*
G01*
X172011553Y-113542238D01*
G75*
G02*
X172213042Y-113488249I127739J-73750D01*
G01*
X172511820Y-113660749D01*
G75*
G02*
X172565809Y-113862238I-73750J-127739D01*
G01*
X172418309Y-114117716D01*
G75*
G02*
X172216820Y-114171705I-127739J73750D01*
G01*
G37*
%TD.AperFunction*%
%TO.P,D30,1*%
%TO.N,Net-(D30-Pad1)*%
%TA.AperFunction,SMDPad,CuDef*%
G36*
G01*
X171731820Y-115011749D02*
X171433042Y-114839249D01*
G75*
G02*
X171379053Y-114637760I73750J127739D01*
G01*
X171526553Y-114382282D01*
G75*
G02*
X171728042Y-114328293I127739J-73750D01*
G01*
X172026820Y-114500793D01*
G75*
G02*
X172080809Y-114702282I-73750J-127739D01*
G01*
X171933309Y-114957760D01*
G75*
G02*
X171731820Y-115011749I-127739J73750D01*
G01*
G37*
%TD.AperFunction*%
%TD*%
%TO.P,D29,2*%
%TO.N,Net-(D29-Pad2)*%
%TA.AperFunction,SMDPad,CuDef*%
G36*
G01*
X171264192Y-113621705D02*
X170965414Y-113449205D01*
G75*
G02*
X170911425Y-113247716I73750J127739D01*
G01*
X171058925Y-112992238D01*
G75*
G02*
X171260414Y-112938249I127739J-73750D01*
G01*
X171559192Y-113110749D01*
G75*
G02*
X171613181Y-113312238I-73750J-127739D01*
G01*
X171465681Y-113567716D01*
G75*
G02*
X171264192Y-113621705I-127739J73750D01*
G01*
G37*
%TD.AperFunction*%
%TO.P,D29,1*%
%TO.N,Net-(D29-Pad1)*%
%TA.AperFunction,SMDPad,CuDef*%
G36*
G01*
X170779192Y-114461749D02*
X170480414Y-114289249D01*
G75*
G02*
X170426425Y-114087760I73750J127739D01*
G01*
X170573925Y-113832282D01*
G75*
G02*
X170775414Y-113778293I127739J-73750D01*
G01*
X171074192Y-113950793D01*
G75*
G02*
X171128181Y-114152282I-73750J-127739D01*
G01*
X170980681Y-114407760D01*
G75*
G02*
X170779192Y-114461749I-127739J73750D01*
G01*
G37*
%TD.AperFunction*%
%TD*%
%TO.P,D28,2*%
%TO.N,Net-(D28-Pad2)*%
%TA.AperFunction,SMDPad,CuDef*%
G36*
G01*
X170311564Y-113071705D02*
X170012786Y-112899205D01*
G75*
G02*
X169958797Y-112697716I73750J127739D01*
G01*
X170106297Y-112442238D01*
G75*
G02*
X170307786Y-112388249I127739J-73750D01*
G01*
X170606564Y-112560749D01*
G75*
G02*
X170660553Y-112762238I-73750J-127739D01*
G01*
X170513053Y-113017716D01*
G75*
G02*
X170311564Y-113071705I-127739J73750D01*
G01*
G37*
%TD.AperFunction*%
%TO.P,D28,1*%
%TO.N,Net-(D28-Pad1)*%
%TA.AperFunction,SMDPad,CuDef*%
G36*
G01*
X169826564Y-113911749D02*
X169527786Y-113739249D01*
G75*
G02*
X169473797Y-113537760I73750J127739D01*
G01*
X169621297Y-113282282D01*
G75*
G02*
X169822786Y-113228293I127739J-73750D01*
G01*
X170121564Y-113400793D01*
G75*
G02*
X170175553Y-113602282I-73750J-127739D01*
G01*
X170028053Y-113857760D01*
G75*
G02*
X169826564Y-113911749I-127739J73750D01*
G01*
G37*
%TD.AperFunction*%
%TD*%
%TO.P,D24,2*%
%TO.N,Net-(D24-Pad2)*%
%TA.AperFunction,SMDPad,CuDef*%
G36*
G01*
X166000793Y-120526820D02*
X165828293Y-120228042D01*
G75*
G02*
X165882282Y-120026553I127739J73750D01*
G01*
X166137760Y-119879053D01*
G75*
G02*
X166339249Y-119933042I73750J-127739D01*
G01*
X166511749Y-120231820D01*
G75*
G02*
X166457760Y-120433309I-127739J-73750D01*
G01*
X166202282Y-120580809D01*
G75*
G02*
X166000793Y-120526820I-73750J127739D01*
G01*
G37*
%TD.AperFunction*%
%TO.P,D24,1*%
%TO.N,Net-(D24-Pad1)*%
%TA.AperFunction,SMDPad,CuDef*%
G36*
G01*
X165160749Y-121011820D02*
X164988249Y-120713042D01*
G75*
G02*
X165042238Y-120511553I127739J73750D01*
G01*
X165297716Y-120364053D01*
G75*
G02*
X165499205Y-120418042I73750J-127739D01*
G01*
X165671705Y-120716820D01*
G75*
G02*
X165617716Y-120918309I-127739J-73750D01*
G01*
X165362238Y-121065809D01*
G75*
G02*
X165160749Y-121011820I-73750J127739D01*
G01*
G37*
%TD.AperFunction*%
%TD*%
%TO.P,D23,2*%
%TO.N,Net-(D23-Pad2)*%
%TA.AperFunction,SMDPad,CuDef*%
G36*
G01*
X165450793Y-119574192D02*
X165278293Y-119275414D01*
G75*
G02*
X165332282Y-119073925I127739J73750D01*
G01*
X165587760Y-118926425D01*
G75*
G02*
X165789249Y-118980414I73750J-127739D01*
G01*
X165961749Y-119279192D01*
G75*
G02*
X165907760Y-119480681I-127739J-73750D01*
G01*
X165652282Y-119628181D01*
G75*
G02*
X165450793Y-119574192I-73750J127739D01*
G01*
G37*
%TD.AperFunction*%
%TO.P,D23,1*%
%TO.N,Net-(D23-Pad1)*%
%TA.AperFunction,SMDPad,CuDef*%
G36*
G01*
X164610749Y-120059192D02*
X164438249Y-119760414D01*
G75*
G02*
X164492238Y-119558925I127739J73750D01*
G01*
X164747716Y-119411425D01*
G75*
G02*
X164949205Y-119465414I73750J-127739D01*
G01*
X165121705Y-119764192D01*
G75*
G02*
X165067716Y-119965681I-127739J-73750D01*
G01*
X164812238Y-120113181D01*
G75*
G02*
X164610749Y-120059192I-73750J127739D01*
G01*
G37*
%TD.AperFunction*%
%TD*%
%TO.P,D22,2*%
%TO.N,Net-(D22-Pad2)*%
%TA.AperFunction,SMDPad,CuDef*%
G36*
G01*
X164900793Y-118621564D02*
X164728293Y-118322786D01*
G75*
G02*
X164782282Y-118121297I127739J73750D01*
G01*
X165037760Y-117973797D01*
G75*
G02*
X165239249Y-118027786I73750J-127739D01*
G01*
X165411749Y-118326564D01*
G75*
G02*
X165357760Y-118528053I-127739J-73750D01*
G01*
X165102282Y-118675553D01*
G75*
G02*
X164900793Y-118621564I-73750J127739D01*
G01*
G37*
%TD.AperFunction*%
%TO.P,D22,1*%
%TO.N,Net-(D22-Pad1)*%
%TA.AperFunction,SMDPad,CuDef*%
G36*
G01*
X164060749Y-119106564D02*
X163888249Y-118807786D01*
G75*
G02*
X163942238Y-118606297I127739J73750D01*
G01*
X164197716Y-118458797D01*
G75*
G02*
X164399205Y-118512786I73750J-127739D01*
G01*
X164571705Y-118811564D01*
G75*
G02*
X164517716Y-119013053I-127739J-73750D01*
G01*
X164262238Y-119160553D01*
G75*
G02*
X164060749Y-119106564I-73750J127739D01*
G01*
G37*
%TD.AperFunction*%
%TD*%
%TO.P,D21,2*%
%TO.N,Net-(D21-Pad2)*%
%TA.AperFunction,SMDPad,CuDef*%
G36*
G01*
X164571706Y-92688436D02*
X164399206Y-92987214D01*
G75*
G02*
X164197717Y-93041203I-127739J73750D01*
G01*
X163942239Y-92893703D01*
G75*
G02*
X163888250Y-92692214I73750J127739D01*
G01*
X164060750Y-92393436D01*
G75*
G02*
X164262239Y-92339447I127739J-73750D01*
G01*
X164517717Y-92486947D01*
G75*
G02*
X164571706Y-92688436I-73750J-127739D01*
G01*
G37*
%TD.AperFunction*%
%TO.P,D21,1*%
%TO.N,Net-(D21-Pad1)*%
%TA.AperFunction,SMDPad,CuDef*%
G36*
G01*
X165411750Y-93173436D02*
X165239250Y-93472214D01*
G75*
G02*
X165037761Y-93526203I-127739J73750D01*
G01*
X164782283Y-93378703D01*
G75*
G02*
X164728294Y-93177214I73750J127739D01*
G01*
X164900794Y-92878436D01*
G75*
G02*
X165102283Y-92824447I127739J-73750D01*
G01*
X165357761Y-92971947D01*
G75*
G02*
X165411750Y-93173436I-73750J-127739D01*
G01*
G37*
%TD.AperFunction*%
%TD*%
%TO.P,D20,2*%
%TO.N,Net-(D20-Pad2)*%
%TA.AperFunction,SMDPad,CuDef*%
G36*
G01*
X165121706Y-91735808D02*
X164949206Y-92034586D01*
G75*
G02*
X164747717Y-92088575I-127739J73750D01*
G01*
X164492239Y-91941075D01*
G75*
G02*
X164438250Y-91739586I73750J127739D01*
G01*
X164610750Y-91440808D01*
G75*
G02*
X164812239Y-91386819I127739J-73750D01*
G01*
X165067717Y-91534319D01*
G75*
G02*
X165121706Y-91735808I-73750J-127739D01*
G01*
G37*
%TD.AperFunction*%
%TO.P,D20,1*%
%TO.N,Net-(D20-Pad1)*%
%TA.AperFunction,SMDPad,CuDef*%
G36*
G01*
X165961750Y-92220808D02*
X165789250Y-92519586D01*
G75*
G02*
X165587761Y-92573575I-127739J73750D01*
G01*
X165332283Y-92426075D01*
G75*
G02*
X165278294Y-92224586I73750J127739D01*
G01*
X165450794Y-91925808D01*
G75*
G02*
X165652283Y-91871819I127739J-73750D01*
G01*
X165907761Y-92019319D01*
G75*
G02*
X165961750Y-92220808I-73750J-127739D01*
G01*
G37*
%TD.AperFunction*%
%TD*%
%TO.P,D19,2*%
%TO.N,Net-(D19-Pad2)*%
%TA.AperFunction,SMDPad,CuDef*%
G36*
G01*
X165671706Y-90783180D02*
X165499206Y-91081958D01*
G75*
G02*
X165297717Y-91135947I-127739J73750D01*
G01*
X165042239Y-90988447D01*
G75*
G02*
X164988250Y-90786958I73750J127739D01*
G01*
X165160750Y-90488180D01*
G75*
G02*
X165362239Y-90434191I127739J-73750D01*
G01*
X165617717Y-90581691D01*
G75*
G02*
X165671706Y-90783180I-73750J-127739D01*
G01*
G37*
%TD.AperFunction*%
%TO.P,D19,1*%
%TO.N,Net-(D19-Pad1)*%
%TA.AperFunction,SMDPad,CuDef*%
G36*
G01*
X166511750Y-91268180D02*
X166339250Y-91566958D01*
G75*
G02*
X166137761Y-91620947I-127739J73750D01*
G01*
X165882283Y-91473447D01*
G75*
G02*
X165828294Y-91271958I73750J127739D01*
G01*
X166000794Y-90973180D01*
G75*
G02*
X166202283Y-90919191I127739J-73750D01*
G01*
X166457761Y-91066691D01*
G75*
G02*
X166511750Y-91268180I-73750J-127739D01*
G01*
G37*
%TD.AperFunction*%
%TD*%
%TO.P,D18,2*%
%TO.N,Net-(D18-Pad2)*%
%TA.AperFunction,SMDPad,CuDef*%
G36*
G01*
X157060000Y-90777500D02*
X157060000Y-91122500D01*
G75*
G02*
X156912500Y-91270000I-147500J0D01*
G01*
X156617500Y-91270000D01*
G75*
G02*
X156470000Y-91122500I0J147500D01*
G01*
X156470000Y-90777500D01*
G75*
G02*
X156617500Y-90630000I147500J0D01*
G01*
X156912500Y-90630000D01*
G75*
G02*
X157060000Y-90777500I0J-147500D01*
G01*
G37*
%TD.AperFunction*%
%TO.P,D18,1*%
%TO.N,Net-(D18-Pad1)*%
%TA.AperFunction,SMDPad,CuDef*%
G36*
G01*
X158030000Y-90777500D02*
X158030000Y-91122500D01*
G75*
G02*
X157882500Y-91270000I-147500J0D01*
G01*
X157587500Y-91270000D01*
G75*
G02*
X157440000Y-91122500I0J147500D01*
G01*
X157440000Y-90777500D01*
G75*
G02*
X157587500Y-90630000I147500J0D01*
G01*
X157882500Y-90630000D01*
G75*
G02*
X158030000Y-90777500I0J-147500D01*
G01*
G37*
%TD.AperFunction*%
%TD*%
%TO.P,D17,2*%
%TO.N,Net-(D17-Pad2)*%
%TA.AperFunction,SMDPad,CuDef*%
G36*
G01*
X157060000Y-89677500D02*
X157060000Y-90022500D01*
G75*
G02*
X156912500Y-90170000I-147500J0D01*
G01*
X156617500Y-90170000D01*
G75*
G02*
X156470000Y-90022500I0J147500D01*
G01*
X156470000Y-89677500D01*
G75*
G02*
X156617500Y-89530000I147500J0D01*
G01*
X156912500Y-89530000D01*
G75*
G02*
X157060000Y-89677500I0J-147500D01*
G01*
G37*
%TD.AperFunction*%
%TO.P,D17,1*%
%TO.N,Net-(D17-Pad1)*%
%TA.AperFunction,SMDPad,CuDef*%
G36*
G01*
X158030000Y-89677500D02*
X158030000Y-90022500D01*
G75*
G02*
X157882500Y-90170000I-147500J0D01*
G01*
X157587500Y-90170000D01*
G75*
G02*
X157440000Y-90022500I0J147500D01*
G01*
X157440000Y-89677500D01*
G75*
G02*
X157587500Y-89530000I147500J0D01*
G01*
X157882500Y-89530000D01*
G75*
G02*
X158030000Y-89677500I0J-147500D01*
G01*
G37*
%TD.AperFunction*%
%TD*%
%TO.P,D16,2*%
%TO.N,Net-(D16-Pad2)*%
%TA.AperFunction,SMDPad,CuDef*%
G36*
G01*
X157060000Y-88577500D02*
X157060000Y-88922500D01*
G75*
G02*
X156912500Y-89070000I-147500J0D01*
G01*
X156617500Y-89070000D01*
G75*
G02*
X156470000Y-88922500I0J147500D01*
G01*
X156470000Y-88577500D01*
G75*
G02*
X156617500Y-88430000I147500J0D01*
G01*
X156912500Y-88430000D01*
G75*
G02*
X157060000Y-88577500I0J-147500D01*
G01*
G37*
%TD.AperFunction*%
%TO.P,D16,1*%
%TO.N,Net-(D16-Pad1)*%
%TA.AperFunction,SMDPad,CuDef*%
G36*
G01*
X158030000Y-88577500D02*
X158030000Y-88922500D01*
G75*
G02*
X157882500Y-89070000I-147500J0D01*
G01*
X157587500Y-89070000D01*
G75*
G02*
X157440000Y-88922500I0J147500D01*
G01*
X157440000Y-88577500D01*
G75*
G02*
X157587500Y-88430000I147500J0D01*
G01*
X157882500Y-88430000D01*
G75*
G02*
X158030000Y-88577500I0J-147500D01*
G01*
G37*
%TD.AperFunction*%
%TD*%
%TO.P,D15,2*%
%TO.N,Net-(D15-Pad2)*%
%TA.AperFunction,SMDPad,CuDef*%
G36*
G01*
X144188436Y-98428294D02*
X144487214Y-98600794D01*
G75*
G02*
X144541203Y-98802283I-73750J-127739D01*
G01*
X144393703Y-99057761D01*
G75*
G02*
X144192214Y-99111750I-127739J73750D01*
G01*
X143893436Y-98939250D01*
G75*
G02*
X143839447Y-98737761I73750J127739D01*
G01*
X143986947Y-98482283D01*
G75*
G02*
X144188436Y-98428294I127739J-73750D01*
G01*
G37*
%TD.AperFunction*%
%TO.P,D15,1*%
%TO.N,Net-(D15-Pad1)*%
%TA.AperFunction,SMDPad,CuDef*%
G36*
G01*
X144673436Y-97588250D02*
X144972214Y-97760750D01*
G75*
G02*
X145026203Y-97962239I-73750J-127739D01*
G01*
X144878703Y-98217717D01*
G75*
G02*
X144677214Y-98271706I-127739J73750D01*
G01*
X144378436Y-98099206D01*
G75*
G02*
X144324447Y-97897717I73750J127739D01*
G01*
X144471947Y-97642239D01*
G75*
G02*
X144673436Y-97588250I127739J-73750D01*
G01*
G37*
%TD.AperFunction*%
%TD*%
%TO.P,D14,2*%
%TO.N,Net-(D14-Pad2)*%
%TA.AperFunction,SMDPad,CuDef*%
G36*
G01*
X143235808Y-97878294D02*
X143534586Y-98050794D01*
G75*
G02*
X143588575Y-98252283I-73750J-127739D01*
G01*
X143441075Y-98507761D01*
G75*
G02*
X143239586Y-98561750I-127739J73750D01*
G01*
X142940808Y-98389250D01*
G75*
G02*
X142886819Y-98187761I73750J127739D01*
G01*
X143034319Y-97932283D01*
G75*
G02*
X143235808Y-97878294I127739J-73750D01*
G01*
G37*
%TD.AperFunction*%
%TO.P,D14,1*%
%TO.N,Net-(D14-Pad1)*%
%TA.AperFunction,SMDPad,CuDef*%
G36*
G01*
X143720808Y-97038250D02*
X144019586Y-97210750D01*
G75*
G02*
X144073575Y-97412239I-73750J-127739D01*
G01*
X143926075Y-97667717D01*
G75*
G02*
X143724586Y-97721706I-127739J73750D01*
G01*
X143425808Y-97549206D01*
G75*
G02*
X143371819Y-97347717I73750J127739D01*
G01*
X143519319Y-97092239D01*
G75*
G02*
X143720808Y-97038250I127739J-73750D01*
G01*
G37*
%TD.AperFunction*%
%TD*%
%TO.P,D13,2*%
%TO.N,Net-(D13-Pad2)*%
%TA.AperFunction,SMDPad,CuDef*%
G36*
G01*
X142283180Y-97328294D02*
X142581958Y-97500794D01*
G75*
G02*
X142635947Y-97702283I-73750J-127739D01*
G01*
X142488447Y-97957761D01*
G75*
G02*
X142286958Y-98011750I-127739J73750D01*
G01*
X141988180Y-97839250D01*
G75*
G02*
X141934191Y-97637761I73750J127739D01*
G01*
X142081691Y-97382283D01*
G75*
G02*
X142283180Y-97328294I127739J-73750D01*
G01*
G37*
%TD.AperFunction*%
%TO.P,D13,1*%
%TO.N,Net-(D13-Pad1)*%
%TA.AperFunction,SMDPad,CuDef*%
G36*
G01*
X142768180Y-96488250D02*
X143066958Y-96660750D01*
G75*
G02*
X143120947Y-96862239I-73750J-127739D01*
G01*
X142973447Y-97117717D01*
G75*
G02*
X142771958Y-97171706I-127739J73750D01*
G01*
X142473180Y-96999206D01*
G75*
G02*
X142419191Y-96797717I73750J127739D01*
G01*
X142566691Y-96542239D01*
G75*
G02*
X142768180Y-96488250I127739J-73750D01*
G01*
G37*
%TD.AperFunction*%
%TD*%
%TO.P,D12,2*%
%TO.N,Net-(D12-Pad2)*%
%TA.AperFunction,SMDPad,CuDef*%
G36*
G01*
X157440000Y-122922500D02*
X157440000Y-122577500D01*
G75*
G02*
X157587500Y-122430000I147500J0D01*
G01*
X157882500Y-122430000D01*
G75*
G02*
X158030000Y-122577500I0J-147500D01*
G01*
X158030000Y-122922500D01*
G75*
G02*
X157882500Y-123070000I-147500J0D01*
G01*
X157587500Y-123070000D01*
G75*
G02*
X157440000Y-122922500I0J147500D01*
G01*
G37*
%TD.AperFunction*%
%TO.P,D12,1*%
%TO.N,Net-(D12-Pad1)*%
%TA.AperFunction,SMDPad,CuDef*%
G36*
G01*
X156470000Y-122922500D02*
X156470000Y-122577500D01*
G75*
G02*
X156617500Y-122430000I147500J0D01*
G01*
X156912500Y-122430000D01*
G75*
G02*
X157060000Y-122577500I0J-147500D01*
G01*
X157060000Y-122922500D01*
G75*
G02*
X156912500Y-123070000I-147500J0D01*
G01*
X156617500Y-123070000D01*
G75*
G02*
X156470000Y-122922500I0J147500D01*
G01*
G37*
%TD.AperFunction*%
%TD*%
%TO.P,D11,2*%
%TO.N,Net-(D11-Pad2)*%
%TA.AperFunction,SMDPad,CuDef*%
G36*
G01*
X157440000Y-121822500D02*
X157440000Y-121477500D01*
G75*
G02*
X157587500Y-121330000I147500J0D01*
G01*
X157882500Y-121330000D01*
G75*
G02*
X158030000Y-121477500I0J-147500D01*
G01*
X158030000Y-121822500D01*
G75*
G02*
X157882500Y-121970000I-147500J0D01*
G01*
X157587500Y-121970000D01*
G75*
G02*
X157440000Y-121822500I0J147500D01*
G01*
G37*
%TD.AperFunction*%
%TO.P,D11,1*%
%TO.N,Net-(D11-Pad1)*%
%TA.AperFunction,SMDPad,CuDef*%
G36*
G01*
X156470000Y-121822500D02*
X156470000Y-121477500D01*
G75*
G02*
X156617500Y-121330000I147500J0D01*
G01*
X156912500Y-121330000D01*
G75*
G02*
X157060000Y-121477500I0J-147500D01*
G01*
X157060000Y-121822500D01*
G75*
G02*
X156912500Y-121970000I-147500J0D01*
G01*
X156617500Y-121970000D01*
G75*
G02*
X156470000Y-121822500I0J147500D01*
G01*
G37*
%TD.AperFunction*%
%TD*%
%TO.P,D10,2*%
%TO.N,Net-(D10-Pad2)*%
%TA.AperFunction,SMDPad,CuDef*%
G36*
G01*
X157440000Y-120722500D02*
X157440000Y-120377500D01*
G75*
G02*
X157587500Y-120230000I147500J0D01*
G01*
X157882500Y-120230000D01*
G75*
G02*
X158030000Y-120377500I0J-147500D01*
G01*
X158030000Y-120722500D01*
G75*
G02*
X157882500Y-120870000I-147500J0D01*
G01*
X157587500Y-120870000D01*
G75*
G02*
X157440000Y-120722500I0J147500D01*
G01*
G37*
%TD.AperFunction*%
%TO.P,D10,1*%
%TO.N,Net-(D10-Pad1)*%
%TA.AperFunction,SMDPad,CuDef*%
G36*
G01*
X156470000Y-120722500D02*
X156470000Y-120377500D01*
G75*
G02*
X156617500Y-120230000I147500J0D01*
G01*
X156912500Y-120230000D01*
G75*
G02*
X157060000Y-120377500I0J-147500D01*
G01*
X157060000Y-120722500D01*
G75*
G02*
X156912500Y-120870000I-147500J0D01*
G01*
X156617500Y-120870000D01*
G75*
G02*
X156470000Y-120722500I0J147500D01*
G01*
G37*
%TD.AperFunction*%
%TD*%
%TO.P,D9,2*%
%TO.N,Net-(D9-Pad2)*%
%TA.AperFunction,SMDPad,CuDef*%
G36*
G01*
X148828295Y-120716820D02*
X149000795Y-120418042D01*
G75*
G02*
X149202284Y-120364053I127739J-73750D01*
G01*
X149457762Y-120511553D01*
G75*
G02*
X149511751Y-120713042I-73750J-127739D01*
G01*
X149339251Y-121011820D01*
G75*
G02*
X149137762Y-121065809I-127739J73750D01*
G01*
X148882284Y-120918309D01*
G75*
G02*
X148828295Y-120716820I73750J127739D01*
G01*
G37*
%TD.AperFunction*%
%TO.P,D9,1*%
%TO.N,Net-(D9-Pad1)*%
%TA.AperFunction,SMDPad,CuDef*%
G36*
G01*
X147988251Y-120231820D02*
X148160751Y-119933042D01*
G75*
G02*
X148362240Y-119879053I127739J-73750D01*
G01*
X148617718Y-120026553D01*
G75*
G02*
X148671707Y-120228042I-73750J-127739D01*
G01*
X148499207Y-120526820D01*
G75*
G02*
X148297718Y-120580809I-127739J73750D01*
G01*
X148042240Y-120433309D01*
G75*
G02*
X147988251Y-120231820I73750J127739D01*
G01*
G37*
%TD.AperFunction*%
%TD*%
%TO.P,D8,2*%
%TO.N,Net-(D8-Pad2)*%
%TA.AperFunction,SMDPad,CuDef*%
G36*
G01*
X149378295Y-119764192D02*
X149550795Y-119465414D01*
G75*
G02*
X149752284Y-119411425I127739J-73750D01*
G01*
X150007762Y-119558925D01*
G75*
G02*
X150061751Y-119760414I-73750J-127739D01*
G01*
X149889251Y-120059192D01*
G75*
G02*
X149687762Y-120113181I-127739J73750D01*
G01*
X149432284Y-119965681D01*
G75*
G02*
X149378295Y-119764192I73750J127739D01*
G01*
G37*
%TD.AperFunction*%
%TO.P,D8,1*%
%TO.N,Net-(D8-Pad1)*%
%TA.AperFunction,SMDPad,CuDef*%
G36*
G01*
X148538251Y-119279192D02*
X148710751Y-118980414D01*
G75*
G02*
X148912240Y-118926425I127739J-73750D01*
G01*
X149167718Y-119073925D01*
G75*
G02*
X149221707Y-119275414I-73750J-127739D01*
G01*
X149049207Y-119574192D01*
G75*
G02*
X148847718Y-119628181I-127739J73750D01*
G01*
X148592240Y-119480681D01*
G75*
G02*
X148538251Y-119279192I73750J127739D01*
G01*
G37*
%TD.AperFunction*%
%TD*%
%TO.P,D7,2*%
%TO.N,Net-(D7-Pad2)*%
%TA.AperFunction,SMDPad,CuDef*%
G36*
G01*
X149928295Y-118811564D02*
X150100795Y-118512786D01*
G75*
G02*
X150302284Y-118458797I127739J-73750D01*
G01*
X150557762Y-118606297D01*
G75*
G02*
X150611751Y-118807786I-73750J-127739D01*
G01*
X150439251Y-119106564D01*
G75*
G02*
X150237762Y-119160553I-127739J73750D01*
G01*
X149982284Y-119013053D01*
G75*
G02*
X149928295Y-118811564I73750J127739D01*
G01*
G37*
%TD.AperFunction*%
%TO.P,D7,1*%
%TO.N,Net-(D7-Pad1)*%
%TA.AperFunction,SMDPad,CuDef*%
G36*
G01*
X149088251Y-118326564D02*
X149260751Y-118027786D01*
G75*
G02*
X149462240Y-117973797I127739J-73750D01*
G01*
X149717718Y-118121297D01*
G75*
G02*
X149771707Y-118322786I-73750J-127739D01*
G01*
X149599207Y-118621564D01*
G75*
G02*
X149397718Y-118675553I-127739J73750D01*
G01*
X149142240Y-118528053D01*
G75*
G02*
X149088251Y-118326564I73750J127739D01*
G01*
G37*
%TD.AperFunction*%
%TD*%
%TO.P,D6,2*%
%TO.N,Net-(D6-Pad2)*%
%TA.AperFunction,SMDPad,CuDef*%
G36*
G01*
X142473180Y-114500793D02*
X142771958Y-114328293D01*
G75*
G02*
X142973447Y-114382282I73750J-127739D01*
G01*
X143120947Y-114637760D01*
G75*
G02*
X143066958Y-114839249I-127739J-73750D01*
G01*
X142768180Y-115011749D01*
G75*
G02*
X142566691Y-114957760I-73750J127739D01*
G01*
X142419191Y-114702282D01*
G75*
G02*
X142473180Y-114500793I127739J73750D01*
G01*
G37*
%TD.AperFunction*%
%TO.P,D6,1*%
%TO.N,Net-(D6-Pad1)*%
%TA.AperFunction,SMDPad,CuDef*%
G36*
G01*
X141988180Y-113660749D02*
X142286958Y-113488249D01*
G75*
G02*
X142488447Y-113542238I73750J-127739D01*
G01*
X142635947Y-113797716D01*
G75*
G02*
X142581958Y-113999205I-127739J-73750D01*
G01*
X142283180Y-114171705D01*
G75*
G02*
X142081691Y-114117716I-73750J127739D01*
G01*
X141934191Y-113862238D01*
G75*
G02*
X141988180Y-113660749I127739J73750D01*
G01*
G37*
%TD.AperFunction*%
%TD*%
%TO.P,D5,2*%
%TO.N,Net-(D5-Pad2)*%
%TA.AperFunction,SMDPad,CuDef*%
G36*
G01*
X143425808Y-113950793D02*
X143724586Y-113778293D01*
G75*
G02*
X143926075Y-113832282I73750J-127739D01*
G01*
X144073575Y-114087760D01*
G75*
G02*
X144019586Y-114289249I-127739J-73750D01*
G01*
X143720808Y-114461749D01*
G75*
G02*
X143519319Y-114407760I-73750J127739D01*
G01*
X143371819Y-114152282D01*
G75*
G02*
X143425808Y-113950793I127739J73750D01*
G01*
G37*
%TD.AperFunction*%
%TO.P,D5,1*%
%TO.N,Net-(D5-Pad1)*%
%TA.AperFunction,SMDPad,CuDef*%
G36*
G01*
X142940808Y-113110749D02*
X143239586Y-112938249D01*
G75*
G02*
X143441075Y-112992238I73750J-127739D01*
G01*
X143588575Y-113247716D01*
G75*
G02*
X143534586Y-113449205I-127739J-73750D01*
G01*
X143235808Y-113621705D01*
G75*
G02*
X143034319Y-113567716I-73750J127739D01*
G01*
X142886819Y-113312238D01*
G75*
G02*
X142940808Y-113110749I127739J73750D01*
G01*
G37*
%TD.AperFunction*%
%TD*%
%TO.P,D4,2*%
%TO.N,Net-(D4-Pad2)*%
%TA.AperFunction,SMDPad,CuDef*%
G36*
G01*
X144378436Y-113400793D02*
X144677214Y-113228293D01*
G75*
G02*
X144878703Y-113282282I73750J-127739D01*
G01*
X145026203Y-113537760D01*
G75*
G02*
X144972214Y-113739249I-127739J-73750D01*
G01*
X144673436Y-113911749D01*
G75*
G02*
X144471947Y-113857760I-73750J127739D01*
G01*
X144324447Y-113602282D01*
G75*
G02*
X144378436Y-113400793I127739J73750D01*
G01*
G37*
%TD.AperFunction*%
%TO.P,D4,1*%
%TO.N,Net-(D4-Pad1)*%
%TA.AperFunction,SMDPad,CuDef*%
G36*
G01*
X143893436Y-112560749D02*
X144192214Y-112388249D01*
G75*
G02*
X144393703Y-112442238I73750J-127739D01*
G01*
X144541203Y-112697716D01*
G75*
G02*
X144487214Y-112899205I-127739J-73750D01*
G01*
X144188436Y-113071705D01*
G75*
G02*
X143986947Y-113017716I-73750J127739D01*
G01*
X143839447Y-112762238D01*
G75*
G02*
X143893436Y-112560749I127739J73750D01*
G01*
G37*
%TD.AperFunction*%
%TD*%
%TO.P,D3,2*%
%TO.N,Net-(D3-Pad2)*%
%TA.AperFunction,SMDPad,CuDef*%
G36*
G01*
X140077500Y-105940000D02*
X140422500Y-105940000D01*
G75*
G02*
X140570000Y-106087500I0J-147500D01*
G01*
X140570000Y-106382500D01*
G75*
G02*
X140422500Y-106530000I-147500J0D01*
G01*
X140077500Y-106530000D01*
G75*
G02*
X139930000Y-106382500I0J147500D01*
G01*
X139930000Y-106087500D01*
G75*
G02*
X140077500Y-105940000I147500J0D01*
G01*
G37*
%TD.AperFunction*%
%TO.P,D3,1*%
%TO.N,Net-(D3-Pad1)*%
%TA.AperFunction,SMDPad,CuDef*%
G36*
G01*
X140077500Y-104970000D02*
X140422500Y-104970000D01*
G75*
G02*
X140570000Y-105117500I0J-147500D01*
G01*
X140570000Y-105412500D01*
G75*
G02*
X140422500Y-105560000I-147500J0D01*
G01*
X140077500Y-105560000D01*
G75*
G02*
X139930000Y-105412500I0J147500D01*
G01*
X139930000Y-105117500D01*
G75*
G02*
X140077500Y-104970000I147500J0D01*
G01*
G37*
%TD.AperFunction*%
%TD*%
%TO.P,D2,2*%
%TO.N,Net-(D2-Pad2)*%
%TA.AperFunction,SMDPad,CuDef*%
G36*
G01*
X141177500Y-105940000D02*
X141522500Y-105940000D01*
G75*
G02*
X141670000Y-106087500I0J-147500D01*
G01*
X141670000Y-106382500D01*
G75*
G02*
X141522500Y-106530000I-147500J0D01*
G01*
X141177500Y-106530000D01*
G75*
G02*
X141030000Y-106382500I0J147500D01*
G01*
X141030000Y-106087500D01*
G75*
G02*
X141177500Y-105940000I147500J0D01*
G01*
G37*
%TD.AperFunction*%
%TO.P,D2,1*%
%TO.N,Net-(D2-Pad1)*%
%TA.AperFunction,SMDPad,CuDef*%
G36*
G01*
X141177500Y-104970000D02*
X141522500Y-104970000D01*
G75*
G02*
X141670000Y-105117500I0J-147500D01*
G01*
X141670000Y-105412500D01*
G75*
G02*
X141522500Y-105560000I-147500J0D01*
G01*
X141177500Y-105560000D01*
G75*
G02*
X141030000Y-105412500I0J147500D01*
G01*
X141030000Y-105117500D01*
G75*
G02*
X141177500Y-104970000I147500J0D01*
G01*
G37*
%TD.AperFunction*%
%TD*%
%TO.P,D1,2*%
%TO.N,Net-(D1-Pad2)*%
%TA.AperFunction,SMDPad,CuDef*%
G36*
G01*
X142277500Y-105940000D02*
X142622500Y-105940000D01*
G75*
G02*
X142770000Y-106087500I0J-147500D01*
G01*
X142770000Y-106382500D01*
G75*
G02*
X142622500Y-106530000I-147500J0D01*
G01*
X142277500Y-106530000D01*
G75*
G02*
X142130000Y-106382500I0J147500D01*
G01*
X142130000Y-106087500D01*
G75*
G02*
X142277500Y-105940000I147500J0D01*
G01*
G37*
%TD.AperFunction*%
%TO.P,D1,1*%
%TO.N,Net-(D1-Pad1)*%
%TA.AperFunction,SMDPad,CuDef*%
G36*
G01*
X142277500Y-104970000D02*
X142622500Y-104970000D01*
G75*
G02*
X142770000Y-105117500I0J-147500D01*
G01*
X142770000Y-105412500D01*
G75*
G02*
X142622500Y-105560000I-147500J0D01*
G01*
X142277500Y-105560000D01*
G75*
G02*
X142130000Y-105412500I0J147500D01*
G01*
X142130000Y-105117500D01*
G75*
G02*
X142277500Y-104970000I147500J0D01*
G01*
G37*
%TD.AperFunction*%
%TD*%
%TO.P,R35,2*%
%TO.N,Net-(D27-Pad1)*%
%TA.AperFunction,SMDPad,CuDef*%
G36*
G01*
X151899303Y-91750791D02*
X152025850Y-92098477D01*
G75*
G02*
X151945164Y-92271509I-126859J-46173D01*
G01*
X151691447Y-92363855D01*
G75*
G02*
X151518415Y-92283169I-46173J126859D01*
G01*
X151391868Y-91935483D01*
G75*
G02*
X151472554Y-91762451I126859J46173D01*
G01*
X151726271Y-91670105D01*
G75*
G02*
X151899303Y-91750791I46173J-126859D01*
G01*
G37*
%TD.AperFunction*%
%TO.P,R35,1*%
%TO.N,+3V3*%
%TA.AperFunction,SMDPad,CuDef*%
G36*
G01*
X152857789Y-91401931D02*
X152984336Y-91749617D01*
G75*
G02*
X152903650Y-91922649I-126859J-46173D01*
G01*
X152649933Y-92014995D01*
G75*
G02*
X152476901Y-91934309I-46173J126859D01*
G01*
X152350354Y-91586623D01*
G75*
G02*
X152431040Y-91413591I126859J46173D01*
G01*
X152684757Y-91321245D01*
G75*
G02*
X152857789Y-91401931I46173J-126859D01*
G01*
G37*
%TD.AperFunction*%
%TD*%
%TO.P,R34,2*%
%TO.N,Net-(D26-Pad1)*%
%TA.AperFunction,SMDPad,CuDef*%
G36*
G01*
X151523081Y-90717129D02*
X151649628Y-91064815D01*
G75*
G02*
X151568942Y-91237847I-126859J-46173D01*
G01*
X151315225Y-91330193D01*
G75*
G02*
X151142193Y-91249507I-46173J126859D01*
G01*
X151015646Y-90901821D01*
G75*
G02*
X151096332Y-90728789I126859J46173D01*
G01*
X151350049Y-90636443D01*
G75*
G02*
X151523081Y-90717129I46173J-126859D01*
G01*
G37*
%TD.AperFunction*%
%TO.P,R34,1*%
%TO.N,+3V3*%
%TA.AperFunction,SMDPad,CuDef*%
G36*
G01*
X152481567Y-90368269D02*
X152608114Y-90715955D01*
G75*
G02*
X152527428Y-90888987I-126859J-46173D01*
G01*
X152273711Y-90981333D01*
G75*
G02*
X152100679Y-90900647I-46173J126859D01*
G01*
X151974132Y-90552961D01*
G75*
G02*
X152054818Y-90379929I126859J46173D01*
G01*
X152308535Y-90287583D01*
G75*
G02*
X152481567Y-90368269I46173J-126859D01*
G01*
G37*
%TD.AperFunction*%
%TD*%
%TO.P,R33,2*%
%TO.N,Net-(D25-Pad1)*%
%TA.AperFunction,SMDPad,CuDef*%
G36*
G01*
X151146859Y-89683467D02*
X151273406Y-90031153D01*
G75*
G02*
X151192720Y-90204185I-126859J-46173D01*
G01*
X150939003Y-90296531D01*
G75*
G02*
X150765971Y-90215845I-46173J126859D01*
G01*
X150639424Y-89868159D01*
G75*
G02*
X150720110Y-89695127I126859J46173D01*
G01*
X150973827Y-89602781D01*
G75*
G02*
X151146859Y-89683467I46173J-126859D01*
G01*
G37*
%TD.AperFunction*%
%TO.P,R33,1*%
%TO.N,+3V3*%
%TA.AperFunction,SMDPad,CuDef*%
G36*
G01*
X152105345Y-89334607D02*
X152231892Y-89682293D01*
G75*
G02*
X152151206Y-89855325I-126859J-46173D01*
G01*
X151897489Y-89947671D01*
G75*
G02*
X151724457Y-89866985I-46173J126859D01*
G01*
X151597910Y-89519299D01*
G75*
G02*
X151678596Y-89346267I126859J46173D01*
G01*
X151932313Y-89253921D01*
G75*
G02*
X152105345Y-89334607I46173J-126859D01*
G01*
G37*
%TD.AperFunction*%
%TD*%
%TO.P,D27,2*%
%TO.N,Net-(D27-Pad2)*%
%TA.AperFunction,SMDPad,CuDef*%
G36*
G01*
X149599206Y-92878436D02*
X149771706Y-93177214D01*
G75*
G02*
X149717717Y-93378703I-127739J-73750D01*
G01*
X149462239Y-93526203D01*
G75*
G02*
X149260750Y-93472214I-73750J127739D01*
G01*
X149088250Y-93173436D01*
G75*
G02*
X149142239Y-92971947I127739J73750D01*
G01*
X149397717Y-92824447D01*
G75*
G02*
X149599206Y-92878436I73750J-127739D01*
G01*
G37*
%TD.AperFunction*%
%TO.P,D27,1*%
%TO.N,Net-(D27-Pad1)*%
%TA.AperFunction,SMDPad,CuDef*%
G36*
G01*
X150439250Y-92393436D02*
X150611750Y-92692214D01*
G75*
G02*
X150557761Y-92893703I-127739J-73750D01*
G01*
X150302283Y-93041203D01*
G75*
G02*
X150100794Y-92987214I-73750J127739D01*
G01*
X149928294Y-92688436D01*
G75*
G02*
X149982283Y-92486947I127739J73750D01*
G01*
X150237761Y-92339447D01*
G75*
G02*
X150439250Y-92393436I73750J-127739D01*
G01*
G37*
%TD.AperFunction*%
%TD*%
%TO.P,D26,2*%
%TO.N,Net-(D26-Pad2)*%
%TA.AperFunction,SMDPad,CuDef*%
G36*
G01*
X149049206Y-91925808D02*
X149221706Y-92224586D01*
G75*
G02*
X149167717Y-92426075I-127739J-73750D01*
G01*
X148912239Y-92573575D01*
G75*
G02*
X148710750Y-92519586I-73750J127739D01*
G01*
X148538250Y-92220808D01*
G75*
G02*
X148592239Y-92019319I127739J73750D01*
G01*
X148847717Y-91871819D01*
G75*
G02*
X149049206Y-91925808I73750J-127739D01*
G01*
G37*
%TD.AperFunction*%
%TO.P,D26,1*%
%TO.N,Net-(D26-Pad1)*%
%TA.AperFunction,SMDPad,CuDef*%
G36*
G01*
X149889250Y-91440808D02*
X150061750Y-91739586D01*
G75*
G02*
X150007761Y-91941075I-127739J-73750D01*
G01*
X149752283Y-92088575D01*
G75*
G02*
X149550794Y-92034586I-73750J127739D01*
G01*
X149378294Y-91735808D01*
G75*
G02*
X149432283Y-91534319I127739J73750D01*
G01*
X149687761Y-91386819D01*
G75*
G02*
X149889250Y-91440808I73750J-127739D01*
G01*
G37*
%TD.AperFunction*%
%TD*%
%TO.P,D25,2*%
%TO.N,Net-(D25-Pad2)*%
%TA.AperFunction,SMDPad,CuDef*%
G36*
G01*
X148499206Y-90973180D02*
X148671706Y-91271958D01*
G75*
G02*
X148617717Y-91473447I-127739J-73750D01*
G01*
X148362239Y-91620947D01*
G75*
G02*
X148160750Y-91566958I-73750J127739D01*
G01*
X147988250Y-91268180D01*
G75*
G02*
X148042239Y-91066691I127739J73750D01*
G01*
X148297717Y-90919191D01*
G75*
G02*
X148499206Y-90973180I73750J-127739D01*
G01*
G37*
%TD.AperFunction*%
%TO.P,D25,1*%
%TO.N,Net-(D25-Pad1)*%
%TA.AperFunction,SMDPad,CuDef*%
G36*
G01*
X149339250Y-90488180D02*
X149511750Y-90786958D01*
G75*
G02*
X149457761Y-90988447I-127739J-73750D01*
G01*
X149202283Y-91135947D01*
G75*
G02*
X149000794Y-91081958I-73750J127739D01*
G01*
X148828294Y-90783180D01*
G75*
G02*
X148882283Y-90581691I127739J73750D01*
G01*
X149137761Y-90434191D01*
G75*
G02*
X149339250Y-90488180I73750J-127739D01*
G01*
G37*
%TD.AperFunction*%
%TD*%
%TO.P,R24,2*%
%TO.N,Net-(IC1-Pad44)*%
%TA.AperFunction,SMDPad,CuDef*%
G36*
G01*
X154061109Y-110499480D02*
X153799480Y-110761109D01*
G75*
G02*
X153608562Y-110761109I-95459J95459D01*
G01*
X153417643Y-110570190D01*
G75*
G02*
X153417643Y-110379272I95459J95459D01*
G01*
X153679272Y-110117643D01*
G75*
G02*
X153870190Y-110117643I95459J-95459D01*
G01*
X154061109Y-110308562D01*
G75*
G02*
X154061109Y-110499480I-95459J-95459D01*
G01*
G37*
%TD.AperFunction*%
%TO.P,R24,1*%
%TO.N,GND*%
%TA.AperFunction,SMDPad,CuDef*%
G36*
G01*
X154782357Y-111220728D02*
X154520728Y-111482357D01*
G75*
G02*
X154329810Y-111482357I-95459J95459D01*
G01*
X154138891Y-111291438D01*
G75*
G02*
X154138891Y-111100520I95459J95459D01*
G01*
X154400520Y-110838891D01*
G75*
G02*
X154591438Y-110838891I95459J-95459D01*
G01*
X154782357Y-111029810D01*
G75*
G02*
X154782357Y-111220728I-95459J-95459D01*
G01*
G37*
%TD.AperFunction*%
%TD*%
%TO.P,C4,2*%
%TO.N,+3V3*%
%TA.AperFunction,SMDPad,CuDef*%
G36*
G01*
X152678787Y-109138371D02*
X152438371Y-109378787D01*
G75*
G02*
X152240381Y-109378787I-98995J98995D01*
G01*
X152042391Y-109180797D01*
G75*
G02*
X152042391Y-108982807I98995J98995D01*
G01*
X152282807Y-108742391D01*
G75*
G02*
X152480797Y-108742391I98995J-98995D01*
G01*
X152678787Y-108940381D01*
G75*
G02*
X152678787Y-109138371I-98995J-98995D01*
G01*
G37*
%TD.AperFunction*%
%TO.P,C4,1*%
%TO.N,GND*%
%TA.AperFunction,SMDPad,CuDef*%
G36*
G01*
X153357609Y-109817193D02*
X153117193Y-110057609D01*
G75*
G02*
X152919203Y-110057609I-98995J98995D01*
G01*
X152721213Y-109859619D01*
G75*
G02*
X152721213Y-109661629I98995J98995D01*
G01*
X152961629Y-109421213D01*
G75*
G02*
X153159619Y-109421213I98995J-98995D01*
G01*
X153357609Y-109619203D01*
G75*
G02*
X153357609Y-109817193I-98995J-98995D01*
G01*
G37*
%TD.AperFunction*%
%TD*%
%TO.P,C3,2*%
%TO.N,+3V3*%
%TA.AperFunction,SMDPad,CuDef*%
G36*
G01*
X151878787Y-109938371D02*
X151638371Y-110178787D01*
G75*
G02*
X151440381Y-110178787I-98995J98995D01*
G01*
X151242391Y-109980797D01*
G75*
G02*
X151242391Y-109782807I98995J98995D01*
G01*
X151482807Y-109542391D01*
G75*
G02*
X151680797Y-109542391I98995J-98995D01*
G01*
X151878787Y-109740381D01*
G75*
G02*
X151878787Y-109938371I-98995J-98995D01*
G01*
G37*
%TD.AperFunction*%
%TO.P,C3,1*%
%TO.N,GND*%
%TA.AperFunction,SMDPad,CuDef*%
G36*
G01*
X152557609Y-110617193D02*
X152317193Y-110857609D01*
G75*
G02*
X152119203Y-110857609I-98995J98995D01*
G01*
X151921213Y-110659619D01*
G75*
G02*
X151921213Y-110461629I98995J98995D01*
G01*
X152161629Y-110221213D01*
G75*
G02*
X152359619Y-110221213I98995J-98995D01*
G01*
X152557609Y-110419203D01*
G75*
G02*
X152557609Y-110617193I-98995J-98995D01*
G01*
G37*
%TD.AperFunction*%
%TD*%
D12*
%TO.N,GND*%
X144900000Y-111500000D03*
X146025153Y-112600153D03*
X157250000Y-100150000D03*
X160950000Y-105750000D03*
X153650000Y-105750000D03*
%TO.N,+3V3*%
X173250000Y-110750000D03*
X169050000Y-118050000D03*
X151850000Y-121650000D03*
X161150000Y-121950000D03*
X145150000Y-117450000D03*
X140850000Y-109750000D03*
X141350000Y-100450000D03*
X145850000Y-93450000D03*
X169550000Y-94350000D03*
X173750000Y-101750000D03*
X162450000Y-89650000D03*
X153550000Y-89150000D03*
X151200000Y-110900000D03*
X165900000Y-113700000D03*
X144600000Y-104700000D03*
X144600000Y-103100000D03*
%TO.N,/LED_Driver/EN*%
X152700000Y-111424980D03*
%TO.N,/LED_Driver/SCL*%
X157300000Y-109500000D03*
%TO.N,/LED_Driver/SDA*%
X156100000Y-108600000D03*
%TO.N,SWDIO*%
X157500000Y-118675000D03*
X151200000Y-113600000D03*
%TO.N,SWDCLK*%
X156700000Y-119400000D03*
X150224991Y-112900000D03*
%TO.N,Net-(R51-Pad1)*%
X152300001Y-113288647D03*
%TD*%
D13*
%TO.N,GND*%
X153369398Y-103637165D02*
X155482233Y-105750000D01*
X153369398Y-107862835D02*
X155482233Y-105750000D01*
X155482233Y-105750000D02*
X156050000Y-105750000D01*
X154076505Y-108569942D02*
X154430058Y-108569942D01*
X152239411Y-110539411D02*
X152927229Y-110539411D01*
X152927229Y-110539411D02*
X153548442Y-111160624D01*
X153548442Y-111160624D02*
X154460624Y-111160624D01*
X153039411Y-109739411D02*
X153614142Y-109739411D01*
X153614142Y-109739411D02*
X154430058Y-108923495D01*
X153039411Y-109739411D02*
X153039411Y-109607036D01*
X153039411Y-109607036D02*
X154076505Y-108569942D01*
X153039411Y-109739411D02*
X152239411Y-110539411D01*
X156150000Y-106850000D02*
X157250000Y-105750000D01*
X158350000Y-104650000D02*
X157250000Y-105750000D01*
X156150000Y-105750000D02*
X157250000Y-105750000D01*
X157250000Y-106850000D02*
X157250000Y-105750000D01*
X157250000Y-105750000D02*
X157250000Y-105750000D01*
X157250000Y-106950000D02*
X157250000Y-106850000D01*
X156050000Y-105750000D02*
X156150000Y-105750000D01*
X157250000Y-105750000D02*
X157250000Y-105750000D01*
X160069942Y-102576505D02*
X160069942Y-102930058D01*
X160069942Y-102930058D02*
X158350000Y-104650000D01*
X159362835Y-109630602D02*
X159362835Y-109595262D01*
X159362835Y-109595262D02*
X157250000Y-107482427D01*
X157250000Y-107482427D02*
X157250000Y-106950000D01*
X160423495Y-102930058D02*
X160211363Y-102930058D01*
X160211363Y-102930058D02*
X157391421Y-105750000D01*
X157391421Y-105750000D02*
X157250000Y-105750000D01*
X154430058Y-108923495D02*
X154430058Y-108569942D01*
X154430058Y-108569942D02*
X156150000Y-106850000D01*
X146025153Y-112600153D02*
X146000153Y-112600153D01*
X146000153Y-112600153D02*
X144900000Y-111500000D01*
X157250000Y-100150000D02*
X157250000Y-105750000D01*
X157250000Y-105750000D02*
X160950000Y-105750000D01*
X157250000Y-105750000D02*
X153650000Y-105750000D01*
%TO.N,+3V3*%
X153795729Y-121510895D02*
X153986742Y-121319882D01*
X153795729Y-122403170D02*
X153795729Y-121510895D01*
X153986742Y-120427606D02*
X154177755Y-120236593D01*
X153986742Y-121319882D02*
X153986742Y-120427606D01*
X161832655Y-120489320D02*
X162208877Y-120865542D01*
X161832655Y-119831880D02*
X161832655Y-120489320D01*
X162208877Y-121522982D02*
X162585099Y-121899204D01*
X162208877Y-120865542D02*
X162208877Y-121522982D01*
X168966701Y-116361005D02*
X168259635Y-115653939D01*
X169102284Y-116361005D02*
X168966701Y-116361005D01*
X169809351Y-117068072D02*
X169102284Y-116361005D01*
X169944933Y-117068072D02*
X169809351Y-117068072D01*
X173010895Y-109204271D02*
X172819882Y-109013258D01*
X173903170Y-109204271D02*
X173010895Y-109204271D01*
X171927606Y-109013258D02*
X171736593Y-108822245D01*
X172819882Y-109013258D02*
X171927606Y-109013258D01*
X171989320Y-101167345D02*
X172365542Y-100791123D01*
X171331880Y-101167345D02*
X171989320Y-101167345D01*
X173022982Y-100791123D02*
X173399204Y-100414901D01*
X172365542Y-100791123D02*
X173022982Y-100791123D01*
X168568072Y-93190649D02*
X167861005Y-93897716D01*
X168568072Y-93055067D02*
X168568072Y-93190649D01*
X167861005Y-94033299D02*
X167153939Y-94740365D01*
X167861005Y-93897716D02*
X167861005Y-94033299D01*
X160704271Y-89989105D02*
X160513258Y-90180118D01*
X160704271Y-89096830D02*
X160704271Y-89989105D01*
X160513258Y-91072394D02*
X160322245Y-91263407D01*
X160513258Y-90180118D02*
X160513258Y-91072394D01*
X152291123Y-89977018D02*
X151914901Y-89600796D01*
X152291123Y-90634458D02*
X152291123Y-89977018D01*
X152667345Y-91010680D02*
X152291123Y-90634458D01*
X152667345Y-91668120D02*
X152667345Y-91010680D01*
X145533299Y-95138995D02*
X146240365Y-95846061D01*
X145397716Y-95138995D02*
X145533299Y-95138995D01*
X144690649Y-94431928D02*
X145397716Y-95138995D01*
X144555067Y-94431928D02*
X144690649Y-94431928D01*
X141489105Y-102295729D02*
X141680118Y-102486742D01*
X140596830Y-102295729D02*
X141489105Y-102295729D01*
X142572394Y-102486742D02*
X142763407Y-102677755D01*
X141680118Y-102486742D02*
X142572394Y-102486742D01*
X142510680Y-110332655D02*
X142134458Y-110708877D01*
X143168120Y-110332655D02*
X142510680Y-110332655D01*
X141477018Y-110708877D02*
X141100796Y-111085099D01*
X142134458Y-110708877D02*
X141477018Y-110708877D01*
X145931928Y-118309351D02*
X146638995Y-117602284D01*
X145931928Y-118444933D02*
X145931928Y-118309351D01*
X146638995Y-117466701D02*
X147346061Y-116759635D01*
X146638995Y-117602284D02*
X146638995Y-117466701D01*
X168259635Y-115653939D02*
X168253939Y-115653939D01*
X173903170Y-110096830D02*
X173250000Y-110750000D01*
X173903170Y-109204271D02*
X173903170Y-110096830D01*
X169944933Y-117155067D02*
X169050000Y-118050000D01*
X169944933Y-117068072D02*
X169944933Y-117155067D01*
X152603170Y-122403170D02*
X151850000Y-121650000D01*
X153795729Y-122403170D02*
X152603170Y-122403170D01*
X161200796Y-121899204D02*
X161150000Y-121950000D01*
X162585099Y-121899204D02*
X161200796Y-121899204D01*
X145931928Y-118231928D02*
X145150000Y-117450000D01*
X145931928Y-118444933D02*
X145931928Y-118231928D01*
X141100796Y-110000796D02*
X140850000Y-109750000D01*
X141100796Y-111085099D02*
X141100796Y-110000796D01*
X140596830Y-101203170D02*
X141350000Y-100450000D01*
X140596830Y-102295729D02*
X140596830Y-101203170D01*
X144868072Y-94431928D02*
X145850000Y-93450000D01*
X144555067Y-94431928D02*
X144868072Y-94431928D01*
X168568072Y-93368072D02*
X169550000Y-94350000D01*
X168568072Y-93055067D02*
X168568072Y-93368072D01*
X173399204Y-101399204D02*
X173750000Y-101750000D01*
X173399204Y-100414901D02*
X173399204Y-101399204D01*
X161896830Y-89096830D02*
X162450000Y-89650000D01*
X160704271Y-89096830D02*
X161896830Y-89096830D01*
X153099204Y-89600796D02*
X153550000Y-89150000D01*
X151914901Y-89600796D02*
X153099204Y-89600796D01*
X159600010Y-121300010D02*
X160250000Y-121950000D01*
X159600010Y-117799990D02*
X159600010Y-121300010D01*
X160250000Y-121950000D02*
X161150000Y-121950000D01*
X160350000Y-117050000D02*
X159600010Y-117799990D01*
X160400000Y-117050000D02*
X160350000Y-117050000D01*
X152878750Y-109060589D02*
X153722951Y-108216388D01*
X152360589Y-109060589D02*
X152878750Y-109060589D01*
X151560589Y-109860589D02*
X152360589Y-109060589D01*
X151200000Y-110221178D02*
X151200000Y-110900000D01*
X151560589Y-109860589D02*
X151200000Y-110221178D01*
X167853939Y-115653939D02*
X168259635Y-115653939D01*
X165900000Y-113700000D02*
X167853939Y-115653939D01*
X154100000Y-120158838D02*
X154177755Y-120236593D01*
X144600000Y-104700000D02*
X144600000Y-103100000D01*
%TO.N,/LED_Driver/EN*%
X153015845Y-107544622D02*
X150400010Y-110160457D01*
X153015845Y-107509282D02*
X153015845Y-107544622D01*
X150400010Y-111173012D02*
X150851999Y-111625001D01*
X150400010Y-110160457D02*
X150400010Y-111173012D01*
X150851999Y-111625001D02*
X151113499Y-111886501D01*
X152238479Y-111886501D02*
X152700000Y-111424980D01*
X151113499Y-111886501D02*
X152238479Y-111886501D01*
%TO.N,Net-(D1-Pad2)*%
X155101825Y-101869398D02*
X155137165Y-101869398D01*
X150800923Y-100884562D02*
X154116988Y-100884561D01*
X142800000Y-106900000D02*
X144785485Y-106900000D01*
X144785485Y-106900000D02*
X150800923Y-100884562D01*
X142450000Y-106550000D02*
X142800000Y-106900000D01*
X154116988Y-100884561D02*
X155101825Y-101869398D01*
X142450000Y-106235000D02*
X142450000Y-106550000D01*
%TO.N,Net-(D1-Pad1)*%
X142586285Y-105128715D02*
X142450000Y-105265000D01*
X142586285Y-103682259D02*
X142586285Y-105128715D01*
%TO.N,Net-(D2-Pad2)*%
X142465010Y-107350010D02*
X141350000Y-106235000D01*
X144971885Y-107350010D02*
X142465010Y-107350010D01*
X150987324Y-101334571D02*
X144971885Y-107350010D01*
X153895232Y-101334571D02*
X150987324Y-101334571D01*
X154783612Y-102222951D02*
X153895232Y-101334571D01*
%TO.N,Net-(D2-Pad1)*%
X141502996Y-105112004D02*
X141350000Y-105265000D01*
X141502996Y-103491246D02*
X141502996Y-105112004D01*
%TO.N,Net-(D3-Pad2)*%
X145158286Y-107800019D02*
X141815019Y-107800019D01*
X141815019Y-107800019D02*
X140250000Y-106235000D01*
X151173725Y-101784580D02*
X145158286Y-107800019D01*
X153602792Y-101784579D02*
X151173725Y-101784580D01*
X154394718Y-102576505D02*
X153602792Y-101784579D01*
X154430058Y-102576505D02*
X154394718Y-102576505D01*
%TO.N,Net-(D3-Pad1)*%
X140419708Y-105095292D02*
X140250000Y-105265000D01*
X140419708Y-103300233D02*
X140419708Y-105095292D01*
%TO.N,Net-(D4-Pad2)*%
X145700000Y-114200000D02*
X145305304Y-114200000D01*
X147249943Y-112650057D02*
X145700000Y-114200000D01*
X145305304Y-114200000D02*
X144675325Y-113570021D01*
X147249943Y-106344772D02*
X147249943Y-112650057D01*
X151360126Y-102234589D02*
X147249943Y-106344772D01*
X153345694Y-102234589D02*
X151360126Y-102234589D01*
X154041163Y-102930058D02*
X153345694Y-102234589D01*
X154076505Y-102930058D02*
X154041163Y-102930058D01*
%TO.N,Net-(D4-Pad1)*%
X143516980Y-112056632D02*
X144190325Y-112729977D01*
X143516980Y-111291141D02*
X143516980Y-112056632D01*
%TO.N,Net-(D5-Pad2)*%
X145886400Y-114650010D02*
X144252686Y-114650010D01*
X147699952Y-112836458D02*
X145886400Y-114650010D01*
X147699953Y-106531172D02*
X147699952Y-112836458D01*
X151546527Y-102684598D02*
X147699953Y-106531172D01*
X153123937Y-102684598D02*
X151546527Y-102684598D01*
X144252686Y-114650010D02*
X143722697Y-114120021D01*
X153722951Y-103283612D02*
X153123937Y-102684598D01*
%TO.N,Net-(D5-Pad1)*%
X142483318Y-112525598D02*
X143237697Y-113279977D01*
X142483318Y-111667363D02*
X142483318Y-112525598D01*
%TO.N,Net-(D6-Pad2)*%
X143200068Y-115100020D02*
X142770069Y-114670021D01*
X146072800Y-115100020D02*
X143200068Y-115100020D01*
X148149963Y-106717572D02*
X148149961Y-113022859D01*
X151572286Y-103295249D02*
X148149963Y-106717572D01*
X152285033Y-103295248D02*
X151572286Y-103295249D01*
X148149961Y-113022859D02*
X146072800Y-115100020D01*
X152980503Y-103990718D02*
X152285033Y-103295248D01*
X153015845Y-103990718D02*
X152980503Y-103990718D01*
%TO.N,Net-(D6-Pad1)*%
X141449656Y-112994564D02*
X142285069Y-113829977D01*
X141449656Y-112043585D02*
X141449656Y-112994564D01*
%TO.N,Net-(D7-Pad2)*%
X150899990Y-116550017D02*
X150899990Y-118179708D01*
X148599972Y-109202768D02*
X148599973Y-114250000D01*
X151356171Y-104147774D02*
X151356171Y-106446569D01*
X151758687Y-103745258D02*
X151356171Y-104147774D01*
X150899990Y-118179708D02*
X150270023Y-118809675D01*
X151356171Y-106446569D02*
X148599972Y-109202768D01*
X152027937Y-103745258D02*
X151758687Y-103745258D01*
X148599973Y-114250000D02*
X150899990Y-116550017D01*
X152626951Y-104344272D02*
X152027937Y-103745258D01*
X152662291Y-104344272D02*
X152626951Y-104344272D01*
%TO.N,Net-(D7-Pad1)*%
X148520583Y-117415279D02*
X149429979Y-118324675D01*
X148127427Y-117415279D02*
X148520583Y-117415279D01*
%TO.N,Net-(D8-Pad2)*%
X151806181Y-106632969D02*
X151806181Y-105200382D01*
X151806181Y-105200382D02*
X152308738Y-104697825D01*
X149049981Y-109389167D02*
X151806181Y-106632969D01*
X149049982Y-114063599D02*
X149049981Y-109389167D01*
X151350000Y-116363617D02*
X149049982Y-114063599D01*
X151350000Y-119350000D02*
X151350000Y-116363617D01*
X150937697Y-119762303D02*
X151350000Y-119350000D01*
X149720023Y-119762303D02*
X150937697Y-119762303D01*
%TO.N,Net-(D8-Pad1)*%
X147860604Y-118257928D02*
X148879979Y-119277303D01*
X147420361Y-118257928D02*
X147860604Y-118257928D01*
%TO.N,Net-(D9-Pad2)*%
X149499991Y-113877198D02*
X149499990Y-109610923D01*
X151800010Y-116177217D02*
X149499991Y-113877198D01*
X151800009Y-119536401D02*
X151800010Y-116177217D01*
X150621479Y-120714931D02*
X151800009Y-119536401D01*
X149499990Y-109610923D02*
X152308738Y-106802175D01*
X149170023Y-120714931D02*
X150621479Y-120714931D01*
%TO.N,Net-(D9-Pad1)*%
X147200625Y-119100577D02*
X148329979Y-120229931D01*
X146713294Y-119100577D02*
X147200625Y-119100577D01*
%TO.N,Net-(D10-Pad2)*%
X155652179Y-112424999D02*
X151015587Y-112424999D01*
X149950000Y-109868019D02*
X152662291Y-107155728D01*
X158249980Y-115022800D02*
X155652179Y-112424999D01*
X158249980Y-119400000D02*
X158249980Y-115022800D01*
X151015587Y-112424999D02*
X149950000Y-111359412D01*
X157735000Y-119914980D02*
X158249980Y-119400000D01*
X149950000Y-111359412D02*
X149950000Y-109868019D01*
X157735000Y-120550000D02*
X157735000Y-119914980D01*
%TO.N,Net-(D10-Pad1)*%
X156628715Y-120413715D02*
X156765000Y-120550000D01*
X155182259Y-120413715D02*
X156628715Y-120413715D01*
%TO.N,Net-(D11-Pad2)*%
X155245258Y-110972063D02*
X155245258Y-111381668D01*
X155844272Y-110373049D02*
X155245258Y-110972063D01*
X155844272Y-110337709D02*
X155844272Y-110373049D01*
X158699990Y-120685010D02*
X157735000Y-121650000D01*
X158699990Y-114836400D02*
X158699990Y-120685010D01*
X155245258Y-111381668D02*
X158699990Y-114836400D01*
%TO.N,Net-(D11-Pad1)*%
X156612004Y-121497004D02*
X156765000Y-121650000D01*
X154991246Y-121497004D02*
X156612004Y-121497004D01*
%TO.N,Net-(D12-Pad2)*%
X156197825Y-110691262D02*
X156197825Y-111697825D01*
X156197825Y-111697825D02*
X159150000Y-114650000D01*
X159150000Y-121335000D02*
X157735000Y-122750000D01*
X159150000Y-114650000D02*
X159150000Y-121335000D01*
%TO.N,Net-(D12-Pad1)*%
X156595292Y-122580292D02*
X156765000Y-122750000D01*
X154800233Y-122580292D02*
X156595292Y-122580292D01*
%TO.N,Net-(D13-Pad2)*%
X154374086Y-100434553D02*
X143034553Y-100434553D01*
X143034553Y-100434553D02*
X142285069Y-99685069D01*
X155455378Y-101515845D02*
X154374086Y-100434553D01*
X142285069Y-99685069D02*
X142285069Y-97670022D01*
X155490718Y-101515845D02*
X155455378Y-101515845D01*
%TO.N,Net-(D13-Pad1)*%
X143899423Y-95700624D02*
X142770069Y-96829978D01*
X143899423Y-95213294D02*
X143899423Y-95700624D01*
%TO.N,Net-(D14-Pad2)*%
X143237697Y-99437697D02*
X143237697Y-98220022D01*
X143784543Y-99984543D02*
X143237697Y-99437697D01*
X154631182Y-99984543D02*
X143784543Y-99984543D01*
X155808930Y-101162291D02*
X154631182Y-99984543D01*
X155844272Y-101162291D02*
X155808930Y-101162291D01*
%TO.N,Net-(D14-Pad1)*%
X144742072Y-96360603D02*
X143722697Y-97379978D01*
X144742072Y-95920361D02*
X144742072Y-96360603D01*
%TO.N,Net-(D15-Pad2)*%
X156197825Y-100808738D02*
X156162485Y-100808738D01*
X144954837Y-99534534D02*
X144190325Y-98770022D01*
X154923620Y-99534533D02*
X144954837Y-99534534D01*
X156197825Y-100808738D02*
X154923620Y-99534533D01*
%TO.N,Net-(D15-Pad1)*%
X145584721Y-97020582D02*
X144675325Y-97929978D01*
X145584721Y-96627427D02*
X145584721Y-97020582D01*
%TO.N,Net-(D16-Pad2)*%
X154999981Y-90515019D02*
X156765000Y-88750000D01*
X154999981Y-93172799D02*
X154999981Y-90515019D01*
X160499980Y-98672800D02*
X154999981Y-93172799D01*
X160499980Y-100696913D02*
X160499980Y-98672800D01*
X159362835Y-101834058D02*
X160499980Y-100696913D01*
X159362835Y-101869398D02*
X159362835Y-101834058D01*
%TO.N,Net-(D16-Pad1)*%
X157904708Y-88919708D02*
X157735000Y-88750000D01*
X159699767Y-88919708D02*
X157904708Y-88919708D01*
%TO.N,Net-(D17-Pad2)*%
X155449991Y-91165009D02*
X156765000Y-89850000D01*
X155449990Y-92986400D02*
X155449991Y-91165009D01*
X160949990Y-98486400D02*
X155449990Y-92986400D01*
X160949990Y-101024691D02*
X160949990Y-98486400D01*
X159751730Y-102222951D02*
X160949990Y-101024691D01*
X159716388Y-102222951D02*
X159751730Y-102222951D01*
%TO.N,Net-(D17-Pad1)*%
X157887996Y-90002996D02*
X157735000Y-89850000D01*
X159508754Y-90002996D02*
X157887996Y-90002996D01*
%TO.N,Net-(D18-Pad2)*%
X161376062Y-102684599D02*
X160777049Y-103283612D01*
X156765000Y-90950000D02*
X155900000Y-91815000D01*
X161376062Y-102623938D02*
X161399990Y-102600010D01*
X161376062Y-102684599D02*
X161376062Y-102623938D01*
X161399990Y-102600010D02*
X161399990Y-99099990D01*
X161399990Y-99099990D02*
X161400000Y-99099980D01*
X161400000Y-99099980D02*
X161400000Y-98300000D01*
X155900000Y-92800000D02*
X155900000Y-91815000D01*
X161400000Y-98300000D02*
X155900000Y-92800000D01*
%TO.N,Net-(D18-Pad1)*%
X157871285Y-91086285D02*
X157735000Y-90950000D01*
X159317741Y-91086285D02*
X157871285Y-91086285D01*
%TO.N,Net-(D19-Pad2)*%
X161130602Y-103601825D02*
X161850000Y-102882427D01*
X161130602Y-103637165D02*
X161130602Y-103601825D01*
X161850000Y-102882427D02*
X161850000Y-92250000D01*
X163314931Y-90785069D02*
X165329978Y-90785069D01*
X161850000Y-92250000D02*
X163314931Y-90785069D01*
%TO.N,Net-(D19-Pad1)*%
X167299376Y-92399423D02*
X166170022Y-91270069D01*
X167786706Y-92399423D02*
X167299376Y-92399423D01*
%TO.N,Net-(D20-Pad2)*%
X162998713Y-91737697D02*
X164779978Y-91737697D01*
X162300010Y-92436400D02*
X162998713Y-91737697D01*
X162300010Y-103174863D02*
X162300010Y-92436400D01*
X161484155Y-103990718D02*
X162300010Y-103174863D01*
%TO.N,Net-(D20-Pad1)*%
X166639397Y-93242072D02*
X165620022Y-92222697D01*
X167079639Y-93242072D02*
X166639397Y-93242072D01*
%TO.N,Net-(D21-Pad2)*%
X161837709Y-104308930D02*
X162750020Y-103396619D01*
X161837709Y-104344272D02*
X161837709Y-104308930D01*
X162750020Y-103396619D02*
X162750020Y-93149980D01*
X163209675Y-92690325D02*
X164229978Y-92690325D01*
X162750020Y-93149980D02*
X163209675Y-92690325D01*
%TO.N,Net-(D21-Pad1)*%
X165979418Y-94084721D02*
X165070022Y-93175325D01*
X166372573Y-94084721D02*
X165979418Y-94084721D01*
%TO.N,Net-(D22-Pad2)*%
X165800000Y-117594696D02*
X165070021Y-118324675D01*
X161604828Y-111804828D02*
X165800000Y-116000000D01*
X159415741Y-111804828D02*
X161604828Y-111804828D01*
X165800000Y-116000000D02*
X165800000Y-117594696D01*
X158302175Y-110691262D02*
X159415741Y-111804828D01*
%TO.N,Net-(D22-Pad1)*%
X163556632Y-119483020D02*
X164229977Y-118809675D01*
X162791141Y-119483020D02*
X163556632Y-119483020D01*
%TO.N,Net-(D23-Pad2)*%
X166250010Y-118647314D02*
X165620021Y-119277303D01*
X166250010Y-115813600D02*
X166250010Y-118647314D01*
X161791229Y-111354819D02*
X166250010Y-115813600D01*
X159672837Y-111354818D02*
X161791229Y-111354819D01*
X158655728Y-110337709D02*
X159672837Y-111354818D01*
%TO.N,Net-(D23-Pad1)*%
X164025598Y-120516682D02*
X164779977Y-119762303D01*
X163167363Y-120516682D02*
X164025598Y-120516682D01*
%TO.N,Net-(D24-Pad2)*%
X159009282Y-109984155D02*
X159929935Y-110904808D01*
X159929935Y-110904808D02*
X161804808Y-110904808D01*
X161977630Y-110904810D02*
X166700020Y-115627200D01*
X161804808Y-110904808D02*
X161977630Y-110904810D01*
X166700020Y-119699932D02*
X166170021Y-120229931D01*
X166700020Y-115627200D02*
X166700020Y-119699932D01*
%TO.N,Net-(D24-Pad1)*%
X164494564Y-121550344D02*
X165329977Y-120714931D01*
X163543585Y-121550344D02*
X164494564Y-121550344D01*
%TO.N,Net-(D25-Pad2)*%
X147500000Y-94000000D02*
X147500000Y-92100047D01*
X147500000Y-92100047D02*
X148329978Y-91270069D01*
X152584524Y-99084524D02*
X147500000Y-94000000D01*
X159149950Y-99349950D02*
X158884524Y-99084524D01*
X158884524Y-99084524D02*
X152584524Y-99084524D01*
X159149950Y-99950050D02*
X159149950Y-99349950D01*
X158302175Y-100797825D02*
X159149950Y-99950050D01*
X158302175Y-100808738D02*
X158302175Y-100797825D01*
%TO.N,Net-(D25-Pad1)*%
X150005435Y-89949656D02*
X149170022Y-90785069D01*
X150956415Y-89949656D02*
X150005435Y-89949656D01*
%TO.N,Net-(D26-Pad2)*%
X147968205Y-93134470D02*
X148879978Y-92222697D01*
X152770924Y-98634514D02*
X147968205Y-93831795D01*
X147968205Y-93831795D02*
X147968205Y-93134470D01*
X158470924Y-98634514D02*
X157434514Y-98634514D01*
X157434514Y-98634514D02*
X152770924Y-98634514D01*
X157630569Y-98634514D02*
X157434514Y-98634514D01*
X158655728Y-101126951D02*
X159599960Y-100182719D01*
X158655728Y-101162291D02*
X158655728Y-101126951D01*
X159134514Y-98634514D02*
X158470924Y-98634514D01*
X159599960Y-99099960D02*
X159134514Y-98634514D01*
X159599960Y-100182719D02*
X159599960Y-99099960D01*
%TO.N,Net-(D26-Pad1)*%
X150474401Y-90983318D02*
X149720022Y-91737697D01*
X151332637Y-90983318D02*
X150474401Y-90983318D01*
%TO.N,Net-(D27-Pad2)*%
X148900000Y-94127180D02*
X148900000Y-93705303D01*
X159375274Y-98184504D02*
X152957324Y-98184504D01*
X148900000Y-93705303D02*
X149429978Y-93175325D01*
X160049970Y-98859200D02*
X159375274Y-98184504D01*
X160049970Y-100439815D02*
X160049970Y-98859200D01*
X159009282Y-101480503D02*
X160049970Y-100439815D01*
X152957324Y-98184504D02*
X148900000Y-94127180D01*
X159009282Y-101515845D02*
X159009282Y-101480503D01*
%TO.N,Net-(D27-Pad1)*%
X150943367Y-92016980D02*
X150270022Y-92690325D01*
X151708859Y-92016980D02*
X150943367Y-92016980D01*
%TO.N,Net-(D28-Pad2)*%
X159716388Y-109277049D02*
X159751730Y-109277049D01*
X159751730Y-109277049D02*
X160929479Y-110454798D01*
X160929479Y-110454798D02*
X169254798Y-110454798D01*
X170309675Y-111509675D02*
X170309675Y-112729977D01*
X169254798Y-110454798D02*
X170309675Y-111509675D01*
%TO.N,Net-(D28-Pad1)*%
X168915279Y-114479417D02*
X169824675Y-113570021D01*
X168915279Y-114872573D02*
X168915279Y-114479417D01*
%TO.N,Net-(D29-Pad2)*%
X160069942Y-108923495D02*
X161151235Y-110004788D01*
X161151235Y-110004788D02*
X169441199Y-110004789D01*
X171262303Y-111825893D02*
X171262303Y-113279977D01*
X169441199Y-110004789D02*
X171262303Y-111825893D01*
%TO.N,Net-(D29-Pad1)*%
X169757928Y-115139396D02*
X170777303Y-114120021D01*
X169757928Y-115579639D02*
X169757928Y-115139396D01*
%TO.N,Net-(D30-Pad2)*%
X160423495Y-108569942D02*
X161408331Y-109554778D01*
X161408331Y-109554778D02*
X169627600Y-109554780D01*
X172214931Y-112142111D02*
X172214931Y-113829977D01*
X169627600Y-109554780D02*
X172214931Y-112142111D01*
%TO.N,Net-(D30-Pad1)*%
X170600577Y-115799375D02*
X171729931Y-114670021D01*
X170600577Y-116286706D02*
X170600577Y-115799375D01*
%TO.N,Net-(D31-Pad2)*%
X160777049Y-108216388D02*
X161665431Y-109104770D01*
X161665431Y-109104770D02*
X163300516Y-109104769D01*
X163300516Y-109104769D02*
X168105265Y-104300020D01*
X171085020Y-104300020D02*
X172050000Y-105265000D01*
X168105265Y-104300020D02*
X171085020Y-104300020D01*
%TO.N,Net-(D31-Pad1)*%
X171913715Y-106371285D02*
X172050000Y-106235000D01*
X171913715Y-107817741D02*
X171913715Y-106371285D01*
%TO.N,Net-(D32-Pad2)*%
X161130602Y-107862835D02*
X161922527Y-108654760D01*
X161922527Y-108654760D02*
X163114115Y-108654760D01*
X163114115Y-108654760D02*
X167918865Y-103850010D01*
X171735010Y-103850010D02*
X173150000Y-105265000D01*
X167918865Y-103850010D02*
X171735010Y-103850010D01*
%TO.N,Net-(D32-Pad1)*%
X172997004Y-106387996D02*
X173150000Y-106235000D01*
X172997004Y-108008754D02*
X172997004Y-106387996D01*
%TO.N,Net-(D33-Pad2)*%
X161484155Y-107509282D02*
X162179624Y-108204751D01*
X162927714Y-108204751D02*
X167732465Y-103400000D01*
X162179624Y-108204751D02*
X162927714Y-108204751D01*
X172385000Y-103400000D02*
X174250000Y-105265000D01*
X167732465Y-103400000D02*
X172385000Y-103400000D01*
%TO.N,Net-(D33-Pad1)*%
X174080292Y-106404708D02*
X174250000Y-106235000D01*
X174080292Y-108199767D02*
X174080292Y-106404708D01*
%TO.N,Net-(D34-Pad2)*%
X169094697Y-97200000D02*
X169824675Y-97929978D01*
X164100050Y-101299950D02*
X168200000Y-97200000D01*
X164100050Y-106396005D02*
X164100050Y-101299950D01*
X162741313Y-107754742D02*
X164100050Y-106396005D01*
X162472063Y-107754742D02*
X162741313Y-107754742D01*
X161873049Y-107155728D02*
X162472063Y-107754742D01*
X168200000Y-97200000D02*
X169094697Y-97200000D01*
X161837709Y-107155728D02*
X161873049Y-107155728D01*
%TO.N,Net-(D34-Pad1)*%
X170983020Y-99443367D02*
X170309675Y-98770022D01*
X170983020Y-100208859D02*
X170983020Y-99443367D01*
%TO.N,Net-(D35-Pad2)*%
X170147315Y-96749990D02*
X170777303Y-97379978D01*
X168013600Y-96749990D02*
X170147315Y-96749990D01*
X163650041Y-101113549D02*
X168013600Y-96749990D01*
X163650040Y-106209605D02*
X163650041Y-101113549D01*
X163057470Y-106802175D02*
X163650040Y-106209605D01*
X162191262Y-106802175D02*
X163057470Y-106802175D01*
%TO.N,Net-(D35-Pad1)*%
X172016682Y-98974401D02*
X171262303Y-98220022D01*
X172016682Y-99832637D02*
X172016682Y-98974401D01*
%TO.N,Net-(D36-Pad2)*%
X162191262Y-104697825D02*
X163200030Y-103689057D01*
X167827200Y-96299980D02*
X171199933Y-96299980D01*
X171199933Y-96299980D02*
X171729931Y-96829978D01*
X163200032Y-100927148D02*
X167827200Y-96299980D01*
X163200030Y-103689057D02*
X163200032Y-100927148D01*
%TO.N,Net-(D36-Pad1)*%
X173050344Y-98505435D02*
X172214931Y-97670022D01*
X173050344Y-99456415D02*
X173050344Y-98505435D01*
%TO.N,/LED_Driver/SCL*%
X157185142Y-109385142D02*
X157300000Y-109500000D01*
X156089731Y-109385142D02*
X157185142Y-109385142D01*
X155490718Y-109984155D02*
X156089731Y-109385142D01*
%TO.N,/LED_Driver/SDA*%
X156100000Y-108667767D02*
X156100000Y-108600000D01*
X155137165Y-109630602D02*
X156100000Y-108667767D01*
%TO.N,Net-(IC1-Pad44)*%
X153739376Y-110321285D02*
X154783612Y-109277049D01*
X153739376Y-110439376D02*
X153739376Y-110321285D01*
%TO.N,SWDIO*%
X156700000Y-118675000D02*
X157500000Y-118675000D01*
X153211410Y-118675000D02*
X156700000Y-118675000D01*
X152700029Y-118163619D02*
X153211410Y-118675000D01*
X152700029Y-115804418D02*
X152700029Y-118163619D01*
X151200000Y-114304388D02*
X152700029Y-115804418D01*
X151200000Y-113600000D02*
X151200000Y-114304388D01*
%TO.N,SWDCLK*%
X155900000Y-119400000D02*
X156700000Y-119400000D01*
X153300000Y-119400000D02*
X155900000Y-119400000D01*
X152250019Y-118350019D02*
X153300000Y-119400000D01*
X152250019Y-115990818D02*
X152250019Y-118350019D01*
X150224991Y-113965788D02*
X152250019Y-115990818D01*
X150224991Y-112900000D02*
X150224991Y-113965788D01*
%TO.N,Net-(R51-Pad1)*%
X153992254Y-113357746D02*
X154100000Y-113250000D01*
X154025010Y-113324990D02*
X154100000Y-113250000D01*
X154061353Y-113288647D02*
X154100000Y-113250000D01*
X152300001Y-113288647D02*
X154061353Y-113288647D01*
%TD*%
M02*
