M48
; DRILL file {KiCad 5.1.10} date Wed Nov 24 19:33:22 2021
; FORMAT={-:-/ absolute / inch / decimal}
; #@! TF.CreationDate,2021-11-24T19:33:22+01:00
; #@! TF.GenerationSoftware,Kicad,Pcbnew,5.1.10
FMAT,2
INCH
T1C0.0157
%
G90
G05
T1
X5.5453Y-4.3209
X5.565Y-3.9547
X5.6929Y-4.0591
X5.6929Y-4.122
X5.7047Y-4.3898
X5.7146Y-4.624
X5.7421Y-3.6791
X5.749Y-4.4331
X5.9144Y-4.4449
X5.9528Y-4.3661
X5.9528Y-4.4724
X5.9783Y-4.7894
X5.9961Y-4.4602
X6.0118Y-4.3868
X6.0453Y-3.5098
X6.0492Y-4.1634
X6.1457Y-4.2756
X6.1693Y-4.7008
X6.1909Y-3.9429
X6.1929Y-4.311
X6.2008Y-4.6722
X6.3366Y-4.1634
X6.3445Y-4.8012
X6.3957Y-3.5295
X6.5315Y-4.4764
X6.6555Y-4.6476
X6.6752Y-3.7146
X6.8209Y-4.3602
X6.8406Y-4.0059
T0
M30
