G04 #@! TF.GenerationSoftware,KiCad,Pcbnew,(6.0.5)*
G04 #@! TF.CreationDate,2022-05-15T17:49:43+02:00*
G04 #@! TF.ProjectId,watch,77617463-682e-46b6-9963-61645f706362,rev?*
G04 #@! TF.SameCoordinates,Original*
G04 #@! TF.FileFunction,Copper,L1,Top*
G04 #@! TF.FilePolarity,Positive*
%FSLAX46Y46*%
G04 Gerber Fmt 4.6, Leading zero omitted, Abs format (unit mm)*
G04 Created by KiCad (PCBNEW (6.0.5)) date 2022-05-15 17:49:43*
%MOMM*%
%LPD*%
G01*
G04 APERTURE LIST*
G04 Aperture macros list*
%AMRoundRect*
0 Rectangle with rounded corners*
0 $1 Rounding radius*
0 $2 $3 $4 $5 $6 $7 $8 $9 X,Y pos of 4 corners*
0 Add a 4 corners polygon primitive as box body*
4,1,4,$2,$3,$4,$5,$6,$7,$8,$9,$2,$3,0*
0 Add four circle primitives for the rounded corners*
1,1,$1+$1,$2,$3*
1,1,$1+$1,$4,$5*
1,1,$1+$1,$6,$7*
1,1,$1+$1,$8,$9*
0 Add four rect primitives between the rounded corners*
20,1,$1+$1,$2,$3,$4,$5,0*
20,1,$1+$1,$4,$5,$6,$7,0*
20,1,$1+$1,$6,$7,$8,$9,0*
20,1,$1+$1,$8,$9,$2,$3,0*%
%AMRotRect*
0 Rectangle, with rotation*
0 The origin of the aperture is its center*
0 $1 length*
0 $2 width*
0 $3 Rotation angle, in degrees counterclockwise*
0 Add horizontal line*
21,1,$1,$2,0,0,$3*%
G04 Aperture macros list end*
G04 #@! TA.AperFunction,NonConductor*
%ADD10C,0.200000*%
G04 #@! TD*
G04 #@! TA.AperFunction,SMDPad,CuDef*
%ADD11RoundRect,0.218750X-0.044059X0.334028X-0.336803X0.008902X0.044059X-0.334028X0.336803X-0.008902X0*%
G04 #@! TD*
G04 #@! TA.AperFunction,SMDPad,CuDef*
%ADD12RoundRect,0.218750X0.336803X0.008902X0.044059X0.334028X-0.336803X-0.008902X-0.044059X-0.334028X0*%
G04 #@! TD*
G04 #@! TA.AperFunction,SMDPad,CuDef*
%ADD13RoundRect,0.218750X-0.078733X0.327592X-0.335889X-0.026352X0.078733X-0.327592X0.335889X0.026352X0*%
G04 #@! TD*
G04 #@! TA.AperFunction,SMDPad,CuDef*
%ADD14RoundRect,0.218750X0.287229X0.176111X-0.128858X0.311306X-0.287229X-0.176111X0.128858X-0.311306X0*%
G04 #@! TD*
G04 #@! TA.AperFunction,SMDPad,CuDef*
%ADD15RoundRect,0.218750X-0.145122X0.304064X-0.323070X-0.095612X0.145122X-0.304064X0.323070X0.095612X0*%
G04 #@! TD*
G04 #@! TA.AperFunction,SMDPad,CuDef*
%ADD16RoundRect,0.218750X0.335889X-0.026352X0.078733X0.327592X-0.335889X0.026352X-0.078733X-0.327592X0*%
G04 #@! TD*
G04 #@! TA.AperFunction,SMDPad,CuDef*
%ADD17RoundRect,0.218750X-0.304064X-0.145122X0.095612X-0.323070X0.304064X0.145122X-0.095612X0.323070X0*%
G04 #@! TD*
G04 #@! TA.AperFunction,SMDPad,CuDef*
%ADD18RotRect,0.300000X1.475000X315.000000*%
G04 #@! TD*
G04 #@! TA.AperFunction,SMDPad,CuDef*
%ADD19RotRect,0.300000X1.475000X225.000000*%
G04 #@! TD*
G04 #@! TA.AperFunction,SMDPad,CuDef*
%ADD20RotRect,4.210000X4.210000X225.000000*%
G04 #@! TD*
G04 #@! TA.AperFunction,SMDPad,CuDef*
%ADD21RoundRect,0.218750X-0.335889X0.026352X-0.078733X-0.327592X0.335889X-0.026352X0.078733X0.327592X0*%
G04 #@! TD*
G04 #@! TA.AperFunction,SMDPad,CuDef*
%ADD22RoundRect,0.218750X-0.008902X0.336803X-0.334028X0.044059X0.008902X-0.336803X0.334028X-0.044059X0*%
G04 #@! TD*
G04 #@! TA.AperFunction,SMDPad,CuDef*
%ADD23RoundRect,0.218750X0.026352X0.335889X-0.327592X0.078733X-0.026352X-0.335889X0.327592X-0.078733X0*%
G04 #@! TD*
G04 #@! TA.AperFunction,SMDPad,CuDef*
%ADD24RoundRect,0.218750X0.323070X-0.095612X0.145122X0.304064X-0.323070X0.095612X-0.145122X-0.304064X0*%
G04 #@! TD*
G04 #@! TA.AperFunction,SMDPad,CuDef*
%ADD25RoundRect,0.218750X0.218750X0.256250X-0.218750X0.256250X-0.218750X-0.256250X0.218750X-0.256250X0*%
G04 #@! TD*
G04 #@! TA.AperFunction,SMDPad,CuDef*
%ADD26RoundRect,0.218750X-0.277712X0.190766X-0.231981X-0.244337X0.277712X-0.190766X0.231981X0.244337X0*%
G04 #@! TD*
G04 #@! TA.AperFunction,SMDPad,CuDef*
%ADD27RoundRect,0.218750X0.304064X0.145122X-0.095612X0.323070X-0.304064X-0.145122X0.095612X-0.323070X0*%
G04 #@! TD*
G04 #@! TA.AperFunction,SMDPad,CuDef*
%ADD28RoundRect,0.218750X-0.176111X0.287229X-0.311306X-0.128858X0.176111X-0.287229X0.311306X0.128858X0*%
G04 #@! TD*
G04 #@! TA.AperFunction,SMDPad,CuDef*
%ADD29RoundRect,0.218750X-0.267247X-0.205170X0.160692X-0.296131X0.267247X0.205170X-0.160692X0.296131X0*%
G04 #@! TD*
G04 #@! TA.AperFunction,SMDPad,CuDef*
%ADD30RoundRect,0.218750X-0.331294X0.061318X-0.112544X-0.317568X0.331294X-0.061318X0.112544X0.317568X0*%
G04 #@! TD*
G04 #@! TA.AperFunction,SMDPad,CuDef*
%ADD31RoundRect,0.218750X0.317568X0.112544X-0.061318X0.331294X-0.317568X-0.112544X0.061318X-0.331294X0*%
G04 #@! TD*
G04 #@! TA.AperFunction,SMDPad,CuDef*
%ADD32RoundRect,0.218750X0.044059X-0.334028X0.336803X-0.008902X-0.044059X0.334028X-0.336803X0.008902X0*%
G04 #@! TD*
G04 #@! TA.AperFunction,SMDPad,CuDef*
%ADD33RoundRect,0.218750X-0.061318X-0.331294X0.317568X-0.112544X0.061318X0.331294X-0.317568X0.112544X0*%
G04 #@! TD*
G04 #@! TA.AperFunction,SMDPad,CuDef*
%ADD34RoundRect,0.218750X-0.128858X-0.311306X0.287229X-0.176111X0.128858X0.311306X-0.287229X0.176111X0*%
G04 #@! TD*
G04 #@! TA.AperFunction,SMDPad,CuDef*
%ADD35RoundRect,0.225000X0.335876X0.017678X0.017678X0.335876X-0.335876X-0.017678X-0.017678X-0.335876X0*%
G04 #@! TD*
G04 #@! TA.AperFunction,SMDPad,CuDef*
%ADD36RoundRect,0.200000X0.335876X0.053033X0.053033X0.335876X-0.335876X-0.053033X-0.053033X-0.335876X0*%
G04 #@! TD*
G04 #@! TA.AperFunction,SMDPad,CuDef*
%ADD37RoundRect,0.218750X-0.336803X-0.008902X-0.044059X-0.334028X0.336803X0.008902X0.044059X0.334028X0*%
G04 #@! TD*
G04 #@! TA.AperFunction,SMDPad,CuDef*
%ADD38RoundRect,0.218750X-0.296131X0.160692X-0.205170X-0.267247X0.296131X-0.160692X0.205170X0.267247X0*%
G04 #@! TD*
G04 #@! TA.AperFunction,SMDPad,CuDef*
%ADD39RoundRect,0.218750X0.128858X0.311306X-0.287229X0.176111X-0.128858X-0.311306X0.287229X-0.176111X0*%
G04 #@! TD*
G04 #@! TA.AperFunction,SMDPad,CuDef*
%ADD40RoundRect,0.200000X-0.335876X-0.053033X-0.053033X-0.335876X0.335876X0.053033X0.053033X0.335876X0*%
G04 #@! TD*
G04 #@! TA.AperFunction,SMDPad,CuDef*
%ADD41RoundRect,0.218750X-0.190766X-0.277712X0.244337X-0.231981X0.190766X0.277712X-0.244337X0.231981X0*%
G04 #@! TD*
G04 #@! TA.AperFunction,SMDPad,CuDef*
%ADD42RoundRect,0.218750X0.331294X-0.061318X0.112544X0.317568X-0.331294X0.061318X-0.112544X-0.317568X0*%
G04 #@! TD*
G04 #@! TA.AperFunction,SMDPad,CuDef*
%ADD43RoundRect,0.218750X-0.256250X0.218750X-0.256250X-0.218750X0.256250X-0.218750X0.256250X0.218750X0*%
G04 #@! TD*
G04 #@! TA.AperFunction,SMDPad,CuDef*
%ADD44RoundRect,0.218750X0.231981X-0.244337X0.277712X0.190766X-0.231981X0.244337X-0.277712X-0.190766X0*%
G04 #@! TD*
G04 #@! TA.AperFunction,SMDPad,CuDef*
%ADD45RoundRect,0.218750X0.244337X0.231981X-0.190766X0.277712X-0.244337X-0.231981X0.190766X-0.277712X0*%
G04 #@! TD*
G04 #@! TA.AperFunction,SMDPad,CuDef*
%ADD46RoundRect,0.218750X-0.287229X-0.176111X0.128858X-0.311306X0.287229X0.176111X-0.128858X0.311306X0*%
G04 #@! TD*
G04 #@! TA.AperFunction,SMDPad,CuDef*
%ADD47RoundRect,0.218750X-0.160692X-0.296131X0.267247X-0.205170X0.160692X0.296131X-0.267247X0.205170X0*%
G04 #@! TD*
G04 #@! TA.AperFunction,SMDPad,CuDef*
%ADD48RoundRect,0.218750X0.112544X-0.317568X0.331294X0.061318X-0.112544X0.317568X-0.331294X-0.061318X0*%
G04 #@! TD*
G04 #@! TA.AperFunction,SMDPad,CuDef*
%ADD49RoundRect,0.218750X0.205170X-0.267247X0.296131X0.160692X-0.205170X0.267247X-0.296131X-0.160692X0*%
G04 #@! TD*
G04 #@! TA.AperFunction,SMDPad,CuDef*
%ADD50RoundRect,0.218750X-0.244337X-0.231981X0.190766X-0.277712X0.244337X0.231981X-0.190766X0.277712X0*%
G04 #@! TD*
G04 #@! TA.AperFunction,SMDPad,CuDef*
%ADD51RoundRect,0.218750X-0.218750X-0.256250X0.218750X-0.256250X0.218750X0.256250X-0.218750X0.256250X0*%
G04 #@! TD*
G04 #@! TA.AperFunction,SMDPad,CuDef*
%ADD52RoundRect,0.218750X0.190766X0.277712X-0.244337X0.231981X-0.190766X-0.277712X0.244337X-0.231981X0*%
G04 #@! TD*
G04 #@! TA.AperFunction,SMDPad,CuDef*
%ADD53RoundRect,0.218750X0.327592X0.078733X-0.026352X0.335889X-0.327592X-0.078733X0.026352X-0.335889X0*%
G04 #@! TD*
G04 #@! TA.AperFunction,SMDPad,CuDef*
%ADD54RoundRect,0.218750X0.061318X0.331294X-0.317568X0.112544X-0.061318X-0.331294X0.317568X-0.112544X0*%
G04 #@! TD*
G04 #@! TA.AperFunction,SMDPad,CuDef*
%ADD55RoundRect,0.218750X-0.323070X0.095612X-0.145122X-0.304064X0.323070X-0.095612X0.145122X0.304064X0*%
G04 #@! TD*
G04 #@! TA.AperFunction,SMDPad,CuDef*
%ADD56RoundRect,0.218750X-0.334028X-0.044059X-0.008902X-0.336803X0.334028X0.044059X0.008902X0.336803X0*%
G04 #@! TD*
G04 #@! TA.AperFunction,SMDPad,CuDef*
%ADD57RoundRect,0.218750X0.256250X-0.218750X0.256250X0.218750X-0.256250X0.218750X-0.256250X-0.218750X0*%
G04 #@! TD*
G04 #@! TA.AperFunction,SMDPad,CuDef*
%ADD58RoundRect,0.218750X0.008902X-0.336803X0.334028X-0.044059X-0.008902X0.336803X-0.334028X0.044059X0*%
G04 #@! TD*
G04 #@! TA.AperFunction,SMDPad,CuDef*
%ADD59RoundRect,0.218750X-0.026352X-0.335889X0.327592X-0.078733X0.026352X0.335889X-0.327592X0.078733X0*%
G04 #@! TD*
G04 #@! TA.AperFunction,SMDPad,CuDef*
%ADD60RoundRect,0.218750X0.095612X0.323070X-0.304064X0.145122X-0.095612X-0.323070X0.304064X-0.145122X0*%
G04 #@! TD*
G04 #@! TA.AperFunction,SMDPad,CuDef*
%ADD61RoundRect,0.218750X0.078733X-0.327592X0.335889X0.026352X-0.078733X0.327592X-0.335889X-0.026352X0*%
G04 #@! TD*
G04 #@! TA.AperFunction,SMDPad,CuDef*
%ADD62RoundRect,0.218750X0.334028X0.044059X0.008902X0.336803X-0.334028X-0.044059X-0.008902X-0.336803X0*%
G04 #@! TD*
G04 #@! TA.AperFunction,SMDPad,CuDef*
%ADD63RoundRect,0.218750X0.277712X-0.190766X0.231981X0.244337X-0.277712X0.190766X-0.231981X-0.244337X0*%
G04 #@! TD*
G04 #@! TA.AperFunction,SMDPad,CuDef*
%ADD64RoundRect,0.218750X-0.095612X-0.323070X0.304064X-0.145122X0.095612X0.323070X-0.304064X0.145122X0*%
G04 #@! TD*
G04 #@! TA.AperFunction,SMDPad,CuDef*
%ADD65RoundRect,0.218750X-0.205170X0.267247X-0.296131X-0.160692X0.205170X-0.267247X0.296131X0.160692X0*%
G04 #@! TD*
G04 #@! TA.AperFunction,SMDPad,CuDef*
%ADD66RoundRect,0.218750X-0.231981X0.244337X-0.277712X-0.190766X0.231981X-0.244337X0.277712X0.190766X0*%
G04 #@! TD*
G04 #@! TA.AperFunction,SMDPad,CuDef*
%ADD67RoundRect,0.218750X0.160692X0.296131X-0.267247X0.205170X-0.160692X-0.296131X0.267247X-0.205170X0*%
G04 #@! TD*
G04 #@! TA.AperFunction,SMDPad,CuDef*
%ADD68RoundRect,0.218750X0.267247X0.205170X-0.160692X0.296131X-0.267247X-0.205170X0.160692X-0.296131X0*%
G04 #@! TD*
G04 #@! TA.AperFunction,SMDPad,CuDef*
%ADD69RoundRect,0.218750X0.176111X-0.287229X0.311306X0.128858X-0.176111X0.287229X-0.311306X-0.128858X0*%
G04 #@! TD*
G04 #@! TA.AperFunction,SMDPad,CuDef*
%ADD70RoundRect,0.218750X0.296131X-0.160692X0.205170X0.267247X-0.296131X0.160692X-0.205170X-0.267247X0*%
G04 #@! TD*
G04 #@! TA.AperFunction,SMDPad,CuDef*
%ADD71RoundRect,0.218750X-0.327592X-0.078733X0.026352X-0.335889X0.327592X0.078733X-0.026352X0.335889X0*%
G04 #@! TD*
G04 #@! TA.AperFunction,SMDPad,CuDef*
%ADD72RoundRect,0.218750X-0.112544X0.317568X-0.331294X-0.061318X0.112544X-0.317568X0.331294X0.061318X0*%
G04 #@! TD*
G04 #@! TA.AperFunction,SMDPad,CuDef*
%ADD73RoundRect,0.218750X0.145122X-0.304064X0.323070X0.095612X-0.145122X0.304064X-0.323070X-0.095612X0*%
G04 #@! TD*
G04 #@! TA.AperFunction,SMDPad,CuDef*
%ADD74RoundRect,0.218750X-0.311306X0.128858X-0.176111X-0.287229X0.311306X-0.128858X0.176111X0.287229X0*%
G04 #@! TD*
G04 #@! TA.AperFunction,SMDPad,CuDef*
%ADD75RoundRect,0.218750X-0.317568X-0.112544X0.061318X-0.331294X0.317568X0.112544X-0.061318X0.331294X0*%
G04 #@! TD*
G04 #@! TA.AperFunction,SMDPad,CuDef*
%ADD76RoundRect,0.218750X0.311306X-0.128858X0.176111X0.287229X-0.311306X0.128858X-0.176111X-0.287229X0*%
G04 #@! TD*
G04 #@! TA.AperFunction,ViaPad*
%ADD77C,0.400000*%
G04 #@! TD*
G04 #@! TA.AperFunction,Conductor*
%ADD78C,0.250000*%
G04 #@! TD*
G04 #@! TA.AperFunction,Conductor*
%ADD79C,0.127000*%
G04 #@! TD*
G04 APERTURE END LIST*
D10*
G36*
X88991670Y-106933012D02*
G01*
X88491670Y-106066987D01*
X89607695Y-106000000D01*
X88991670Y-106933012D01*
G37*
X88991670Y-106933012D02*
X88491670Y-106066987D01*
X89607695Y-106000000D01*
X88991670Y-106933012D01*
G36*
X100500000Y-113000000D02*
G01*
X99500000Y-113000000D01*
X100000000Y-112000000D01*
X100500000Y-113000000D01*
G37*
X100500000Y-113000000D02*
X99500000Y-113000000D01*
X100000000Y-112000000D01*
X100500000Y-113000000D01*
G36*
X111508330Y-106066988D02*
G01*
X111008330Y-106933013D01*
X110392305Y-106000000D01*
X111508330Y-106066988D01*
G37*
X111508330Y-106066988D02*
X111008330Y-106933013D01*
X110392305Y-106000000D01*
X111508330Y-106066988D01*
G36*
X93933012Y-111508330D02*
G01*
X93066987Y-111008330D01*
X94000000Y-110392305D01*
X93933012Y-111508330D01*
G37*
X93933012Y-111508330D02*
X93066987Y-111008330D01*
X94000000Y-110392305D01*
X93933012Y-111508330D01*
G36*
X111508330Y-93933013D02*
G01*
X110392305Y-94000000D01*
X111008330Y-93066988D01*
X111508330Y-93933013D01*
G37*
X111508330Y-93933013D02*
X110392305Y-94000000D01*
X111008330Y-93066988D01*
X111508330Y-93933013D01*
G36*
X113000000Y-100500000D02*
G01*
X112000000Y-100000000D01*
X113000000Y-99500000D01*
X113000000Y-100500000D01*
G37*
X113000000Y-100500000D02*
X112000000Y-100000000D01*
X113000000Y-99500000D01*
X113000000Y-100500000D01*
G36*
X100000000Y-88000000D02*
G01*
X99500000Y-87000000D01*
X100500000Y-87000000D01*
X100000000Y-88000000D01*
G37*
X100000000Y-88000000D02*
X99500000Y-87000000D01*
X100500000Y-87000000D01*
X100000000Y-88000000D01*
G36*
X89607695Y-94000000D02*
G01*
X88491670Y-93933012D01*
X88991670Y-93066987D01*
X89607695Y-94000000D01*
G37*
X89607695Y-94000000D02*
X88491670Y-93933012D01*
X88991670Y-93066987D01*
X89607695Y-94000000D01*
G36*
X94000000Y-89607695D02*
G01*
X93066988Y-88991670D01*
X93933013Y-88491670D01*
X94000000Y-89607695D01*
G37*
X94000000Y-89607695D02*
X93066988Y-88991670D01*
X93933013Y-88491670D01*
X94000000Y-89607695D01*
G36*
X88000000Y-100000000D02*
G01*
X87000000Y-100500000D01*
X87000000Y-99500000D01*
X88000000Y-100000000D01*
G37*
X88000000Y-100000000D02*
X87000000Y-100500000D01*
X87000000Y-99500000D01*
X88000000Y-100000000D01*
G36*
X106933012Y-111008330D02*
G01*
X106066987Y-111508330D01*
X106000000Y-110392305D01*
X106933012Y-111008330D01*
G37*
X106933012Y-111008330D02*
X106066987Y-111508330D01*
X106000000Y-110392305D01*
X106933012Y-111008330D01*
G36*
X106933013Y-88991670D02*
G01*
X106000000Y-89607695D01*
X106066988Y-88491670D01*
X106933013Y-88991670D01*
G37*
X106933013Y-88991670D02*
X106000000Y-89607695D01*
X106066988Y-88491670D01*
X106933013Y-88991670D01*
D11*
X90489981Y-110561945D03*
X89436101Y-111732399D03*
D12*
X90489981Y-89438055D03*
X89436101Y-88267601D03*
D13*
X91646102Y-111498154D03*
X90720340Y-112772356D03*
D14*
X86483109Y-95608096D03*
X84985195Y-95121394D03*
D15*
X94219255Y-112983764D03*
X93578645Y-114422598D03*
D16*
X91646102Y-88501846D03*
X90720340Y-87227644D03*
D17*
X112983764Y-105780745D03*
X114422598Y-106421355D03*
D18*
X104941262Y-98947825D03*
X104587709Y-98594272D03*
X104234155Y-98240718D03*
X103880602Y-97887165D03*
X103527049Y-97533612D03*
X103173495Y-97180058D03*
X102819942Y-96826505D03*
X102466388Y-96472951D03*
X102112835Y-96119398D03*
X101759282Y-95765845D03*
X101405728Y-95412291D03*
X101052175Y-95058738D03*
D19*
X98947825Y-95058738D03*
X98594272Y-95412291D03*
X98240718Y-95765845D03*
X97887165Y-96119398D03*
X97533612Y-96472951D03*
X97180058Y-96826505D03*
X96826505Y-97180058D03*
X96472951Y-97533612D03*
X96119398Y-97887165D03*
X95765845Y-98240718D03*
X95412291Y-98594272D03*
X95058738Y-98947825D03*
D18*
X95058738Y-101052175D03*
X95412291Y-101405728D03*
X95765845Y-101759282D03*
X96119398Y-102112835D03*
X96472951Y-102466388D03*
X96826505Y-102819942D03*
X97180058Y-103173495D03*
X97533612Y-103527049D03*
X97887165Y-103880602D03*
X98240718Y-104234155D03*
X98594272Y-104587709D03*
X98947825Y-104941262D03*
D19*
X101052175Y-104941262D03*
X101405728Y-104587709D03*
X101759282Y-104234155D03*
X102112835Y-103880602D03*
X102466388Y-103527049D03*
X102819942Y-103173495D03*
X103173495Y-102819942D03*
X103527049Y-102466388D03*
X103880602Y-102112835D03*
X104234155Y-101759282D03*
X104587709Y-101405728D03*
X104941262Y-101052175D03*
D20*
X100000000Y-100000000D03*
D21*
X108353898Y-111498154D03*
X109279660Y-112772356D03*
D22*
X89438055Y-109510019D03*
X88267601Y-110563899D03*
D23*
X88501846Y-108353898D03*
X87227644Y-109279660D03*
D24*
X94219255Y-87016236D03*
X93578645Y-85577402D03*
D25*
X85787500Y-100000000D03*
X84212500Y-100000000D03*
D26*
X101485611Y-114134643D03*
X101650243Y-115701015D03*
D27*
X87016236Y-94219255D03*
X85577402Y-93578645D03*
D28*
X95608096Y-113516891D03*
X95121394Y-115014805D03*
D29*
X113901923Y-102954945D03*
X115442505Y-103282405D03*
D30*
X107106250Y-112308386D03*
X107893750Y-113672376D03*
D31*
X87691614Y-92893750D03*
X86327624Y-92106250D03*
D32*
X109510019Y-89438055D03*
X110563899Y-88267601D03*
D33*
X112308386Y-92893750D03*
X113672376Y-92106250D03*
D34*
X113516891Y-95608096D03*
X115014805Y-95121394D03*
D35*
X104848008Y-106048008D03*
X103751992Y-104951992D03*
D36*
X105983363Y-104983363D03*
X104816637Y-103816637D03*
D37*
X109510019Y-110561945D03*
X110563899Y-111732399D03*
D38*
X102954945Y-113901923D03*
X103282405Y-115442505D03*
D39*
X86483109Y-104391904D03*
X84985195Y-104878606D03*
D40*
X101516637Y-107116637D03*
X102683363Y-108283363D03*
D41*
X114134643Y-98514389D03*
X115701015Y-98349757D03*
D42*
X92893750Y-87691614D03*
X92106250Y-86327624D03*
D43*
X100000000Y-114212500D03*
X100000000Y-115787500D03*
D44*
X101485611Y-85865358D03*
X101650243Y-84298986D03*
D45*
X85865358Y-98514389D03*
X84298986Y-98349757D03*
D46*
X113516891Y-104391904D03*
X115014805Y-104878606D03*
D47*
X113901923Y-97045055D03*
X115442505Y-96717595D03*
D48*
X107106250Y-87691614D03*
X107893750Y-86327624D03*
D49*
X102954945Y-86098077D03*
X103282405Y-84557495D03*
D50*
X114134642Y-101485611D03*
X115701014Y-101650243D03*
D51*
X114212500Y-100000000D03*
X115787500Y-100000000D03*
D52*
X85865357Y-101485611D03*
X84298985Y-101650243D03*
D53*
X88501846Y-91646102D03*
X87227644Y-90720340D03*
D54*
X87691614Y-107106250D03*
X86327624Y-107893750D03*
D55*
X105780745Y-112983764D03*
X106421355Y-114422598D03*
D56*
X110561945Y-109510019D03*
X111732399Y-110563899D03*
D57*
X100000000Y-85787500D03*
X100000000Y-84212500D03*
D58*
X110561945Y-90489981D03*
X111732399Y-89436101D03*
D59*
X111498154Y-91646102D03*
X112772356Y-90720340D03*
D60*
X87016236Y-105780745D03*
X85577402Y-106421355D03*
D61*
X108353898Y-88501846D03*
X109279660Y-87227644D03*
D62*
X89438055Y-90489981D03*
X88267601Y-89436101D03*
D63*
X98514389Y-85865357D03*
X98349757Y-84298985D03*
D35*
X103748008Y-107148008D03*
X102651992Y-106051992D03*
D64*
X112983764Y-94219255D03*
X114422598Y-93578645D03*
D65*
X97045055Y-113901923D03*
X96717595Y-115442505D03*
D66*
X98514389Y-114134642D03*
X98349757Y-115701014D03*
D67*
X86098077Y-102954945D03*
X84557495Y-103282405D03*
D68*
X86098077Y-97045055D03*
X84557495Y-96717595D03*
D69*
X104391904Y-86483109D03*
X104878606Y-84985195D03*
D70*
X97045055Y-86098077D03*
X96717595Y-84557495D03*
D71*
X111498154Y-108353898D03*
X112772356Y-109279660D03*
D72*
X92893750Y-112308386D03*
X92106250Y-113672376D03*
D73*
X105780745Y-87016236D03*
X106421355Y-85577402D03*
D74*
X104391904Y-113516891D03*
X104878606Y-115014805D03*
D75*
X112308386Y-107106250D03*
X113672376Y-107893750D03*
D76*
X95608096Y-86483109D03*
X95121394Y-84985195D03*
D77*
X100100000Y-103500000D03*
X91500000Y-100100000D03*
X103400000Y-95400000D03*
X96300000Y-95900000D03*
X100800000Y-96800000D03*
X82800000Y-102700000D03*
X93000000Y-99100000D03*
X94400000Y-104700000D03*
X97500000Y-106900000D03*
X108400000Y-97000000D03*
X91200000Y-108300000D03*
X95200000Y-111900000D03*
X95900000Y-111900000D03*
X96500000Y-112300000D03*
X97100000Y-112800000D03*
X105400000Y-100100000D03*
X94300000Y-100900000D03*
X106300000Y-101000000D03*
X91700000Y-104500000D03*
X114100000Y-109600000D03*
X116100000Y-106400000D03*
X117767021Y-100032979D03*
X97200000Y-111200000D03*
X91400000Y-114900000D03*
X114442426Y-90193252D03*
X93500000Y-115500000D03*
X95700000Y-104100000D03*
X91889443Y-98678885D03*
X116000000Y-93500000D03*
X95700000Y-110300000D03*
X99400000Y-103400000D03*
X88900000Y-103500000D03*
X93234980Y-101480000D03*
X84700000Y-106100000D03*
X88260715Y-109639285D03*
X88100000Y-105500000D03*
X97500000Y-101500000D03*
X94300000Y-100200000D03*
X103400000Y-100900000D03*
X102655884Y-101096080D03*
X94400000Y-108900000D03*
X95100000Y-108900000D03*
X102100000Y-111800000D03*
X103200000Y-111500000D03*
X97153633Y-111950590D03*
X95000000Y-104100000D03*
D78*
X100100000Y-107537430D02*
X101347550Y-108784980D01*
X101347550Y-108784980D02*
X102181746Y-108784980D01*
X100100000Y-103500000D02*
X100100000Y-107537430D01*
X102181746Y-108784980D02*
X102683363Y-108283363D01*
X101516637Y-107116637D02*
X101516637Y-106083363D01*
X101516637Y-106083363D02*
X102284805Y-105315195D01*
X102284805Y-105315195D02*
X102284805Y-104759678D01*
X102284805Y-104759678D02*
X101759282Y-104234155D01*
D79*
X96472951Y-97533612D02*
X96008927Y-97069588D01*
X96008927Y-97069588D02*
X89169588Y-97069588D01*
X89169588Y-97069588D02*
X87900000Y-95800000D01*
X87900000Y-95800000D02*
X87900000Y-93102136D01*
X87900000Y-93102136D02*
X87691614Y-92893750D01*
X96119398Y-97887165D02*
X95555341Y-97323108D01*
X95555341Y-97323108D02*
X88198121Y-97323108D01*
X88198121Y-97323108D02*
X86483109Y-95608096D01*
X100000000Y-85787500D02*
X96701664Y-89085836D01*
X96701664Y-89085836D02*
X96701664Y-93161151D01*
X96701664Y-93161151D02*
X97970256Y-94429743D01*
X97970256Y-94429743D02*
X98318830Y-94429743D01*
X98318830Y-94429743D02*
X98947825Y-95058738D01*
X97533612Y-96472951D02*
X97028939Y-95968278D01*
X97028939Y-95968278D02*
X97028939Y-94922554D01*
X97028939Y-94922554D02*
X91544441Y-89438055D01*
X91544441Y-89438055D02*
X90489981Y-89438055D01*
X96232459Y-93767541D02*
X91646102Y-89181184D01*
X91646102Y-89181184D02*
X91646102Y-88501846D01*
X96232459Y-93767541D02*
X97282459Y-94817542D01*
X97282459Y-94817542D02*
X97282459Y-95514692D01*
X97282459Y-95514692D02*
X97887165Y-96119398D01*
X98240718Y-95765845D02*
X97561724Y-95086851D01*
X97561724Y-95086851D02*
X97561724Y-94738275D01*
X97561724Y-94738275D02*
X96194624Y-93371174D01*
X96194624Y-93371174D02*
X96194624Y-87069637D01*
X96194624Y-87069637D02*
X95608096Y-86483109D01*
X97045055Y-86098077D02*
X96448144Y-86694989D01*
X96448144Y-86694989D02*
X96448144Y-93266163D01*
X96448144Y-93266163D02*
X98594272Y-95412291D01*
D78*
X91500000Y-100100000D02*
X91500000Y-99068328D01*
X91500000Y-99068328D02*
X91889443Y-98678885D01*
D79*
X104234155Y-98240718D02*
X104795607Y-97679266D01*
X104795607Y-97679266D02*
X106720734Y-97679266D01*
X106720734Y-97679266D02*
X113433372Y-104391904D01*
X113433372Y-104391904D02*
X113516891Y-104391904D01*
X106099899Y-96699899D02*
X112400000Y-103000000D01*
X104360762Y-96699899D02*
X106099899Y-96699899D01*
X112400000Y-103000000D02*
X113856868Y-103000000D01*
X113856868Y-103000000D02*
X113901923Y-102954945D01*
X113756868Y-103100000D02*
X113901923Y-102954945D01*
X86483109Y-95841641D02*
X86483109Y-95608096D01*
X91423372Y-97576628D02*
X90300000Y-98700000D01*
X95101755Y-97576628D02*
X91423372Y-97576628D01*
X90300000Y-98700000D02*
X86050969Y-98700000D01*
X86050969Y-98700000D02*
X85865358Y-98514389D01*
X86098077Y-102954945D02*
X86803586Y-102954945D01*
X91674864Y-98083668D02*
X94194581Y-98083668D01*
X86803586Y-102954945D02*
X91674864Y-98083668D01*
X94194581Y-98083668D02*
X95058738Y-98947825D01*
X95412291Y-98594272D02*
X94648167Y-97830148D01*
X94648167Y-97830148D02*
X91569852Y-97830148D01*
X91569852Y-97830148D02*
X87914389Y-101485611D01*
X87914389Y-101485611D02*
X85865357Y-101485611D01*
X96472951Y-102466388D02*
X96008928Y-102930411D01*
X96008928Y-102930411D02*
X96008928Y-103699933D01*
X98260869Y-111377931D02*
X98260869Y-112686109D01*
X96008928Y-103699933D02*
X96208995Y-103900000D01*
X96208995Y-103900000D02*
X96208995Y-109326057D01*
X96208995Y-109326057D02*
X98260869Y-111377931D01*
X98260869Y-112686109D02*
X97045055Y-113901923D01*
X96826505Y-102819942D02*
X96362481Y-103283966D01*
X96362481Y-103283966D02*
X96362481Y-103667628D01*
X96362481Y-103667628D02*
X96462515Y-103767662D01*
X96462515Y-103767662D02*
X96462515Y-109221046D01*
X96462515Y-109221046D02*
X98514389Y-111272920D01*
X98514389Y-111272920D02*
X98514389Y-114134642D01*
X90997021Y-108502979D02*
X91200000Y-108300000D01*
X90997021Y-109438490D02*
X90997021Y-108502979D01*
X91225000Y-109666469D02*
X90997021Y-109438490D01*
X97100000Y-112800000D02*
X95400000Y-112800000D01*
X95400000Y-112800000D02*
X94746480Y-112146480D01*
X94746480Y-112146480D02*
X93705011Y-112146480D01*
X93705011Y-112146480D02*
X91225000Y-109666469D01*
X95000000Y-111700000D02*
X95200000Y-111900000D01*
X95000000Y-109725136D02*
X95000000Y-111700000D01*
X95700000Y-111700000D02*
X95900000Y-111900000D01*
X96400000Y-112200000D02*
X96500000Y-112300000D01*
X96400000Y-111800000D02*
X96400000Y-112200000D01*
X95253520Y-111253520D02*
X95700000Y-111700000D01*
X95253520Y-109620125D02*
X95253520Y-111253520D01*
X96400000Y-111000000D02*
X96400000Y-111800000D01*
X95700000Y-110300000D02*
X96350000Y-110950000D01*
X96350000Y-110950000D02*
X96400000Y-111000000D01*
D78*
X91862558Y-104500000D02*
X91700000Y-104500000D01*
X94300000Y-100900000D02*
X94100000Y-101100000D01*
X94100000Y-101100000D02*
X94100000Y-102262558D01*
X94100000Y-102262558D02*
X92581279Y-103781279D01*
X92581279Y-103781279D02*
X91862558Y-104500000D01*
X105400000Y-100100000D02*
X106300000Y-101000000D01*
X97060983Y-110623552D02*
X97060984Y-110623552D01*
D79*
X117767021Y-104732979D02*
X117767021Y-100032979D01*
X116100000Y-108506498D02*
X116100000Y-106400000D01*
D78*
X92000000Y-115500000D02*
X91400000Y-114900000D01*
X97268716Y-111131284D02*
X97200000Y-111200000D01*
X95893975Y-109456542D02*
X97060983Y-110623552D01*
D79*
X116000000Y-91393502D02*
X114799750Y-90193252D01*
X114799750Y-90193252D02*
X114442426Y-90193252D01*
D78*
X95893975Y-104293975D02*
X95893975Y-109456542D01*
X97268716Y-110831284D02*
X97268716Y-111131284D01*
D79*
X114983670Y-109622828D02*
X116100000Y-108506498D01*
D78*
X93500000Y-115500000D02*
X92000000Y-115500000D01*
D79*
X114100000Y-109600000D02*
X114122828Y-109622828D01*
X117767021Y-100032979D02*
X117767021Y-95267021D01*
X114122828Y-109622828D02*
X114983670Y-109622828D01*
D78*
X97060984Y-110623552D02*
X97268716Y-110831284D01*
D79*
X114157314Y-109600000D02*
X114100000Y-109600000D01*
X116100000Y-106400000D02*
X117767021Y-104732979D01*
X116000000Y-93500000D02*
X116000000Y-91393502D01*
D78*
X95700000Y-104100000D02*
X95893975Y-104293975D01*
D79*
X117767021Y-95267021D02*
X116000000Y-93500000D01*
D78*
X103173495Y-102819942D02*
X102819942Y-102819942D01*
X104848008Y-106048008D02*
X103748008Y-107148008D01*
X105983363Y-104983363D02*
X105983363Y-101526442D01*
X101767767Y-100000000D02*
X100000000Y-100000000D01*
X93234980Y-102236566D02*
X91786566Y-103684980D01*
X102819942Y-103173495D02*
X102819942Y-102819942D01*
X105912653Y-104983363D02*
X104848008Y-106048008D01*
X102112835Y-103880602D02*
X100000000Y-101767767D01*
X99400000Y-103400000D02*
X100000000Y-102800000D01*
X105983363Y-101526442D02*
X104456921Y-100000000D01*
X104456921Y-100000000D02*
X100000000Y-100000000D01*
X98883883Y-102883883D02*
X100000000Y-101767767D01*
X102819942Y-102819942D02*
X100000000Y-100000000D01*
X104796016Y-106100000D02*
X104848008Y-106048008D01*
X96826505Y-97180058D02*
X97180058Y-97180058D01*
X100000000Y-101767767D02*
X100000000Y-100000000D01*
X97887165Y-103880602D02*
X98883883Y-102883883D01*
X100000000Y-102800000D02*
X100000000Y-100000000D01*
X103880602Y-97887165D02*
X101767767Y-100000000D01*
X93234980Y-101480000D02*
X93234980Y-102236566D01*
X97180058Y-97180058D02*
X100000000Y-100000000D01*
X105983363Y-104983363D02*
X105912653Y-104983363D01*
X91786566Y-103684980D02*
X89084980Y-103684980D01*
X89084980Y-103684980D02*
X88900000Y-103500000D01*
X97180058Y-96826505D02*
X97180058Y-97180058D01*
D79*
X100605011Y-110946480D02*
X102758531Y-113100000D01*
X97533612Y-103527049D02*
X96969555Y-104091106D01*
X102758531Y-113100000D02*
X103975013Y-113100000D01*
X103975013Y-113100000D02*
X104391904Y-113516891D01*
X104391904Y-113516891D02*
X105247618Y-113516891D01*
X96969555Y-109011023D02*
X98905012Y-110946480D01*
X98905012Y-110946480D02*
X100605011Y-110946480D01*
X105247618Y-113516891D02*
X105780745Y-112983764D01*
X96969555Y-104091106D02*
X96969555Y-109011023D01*
X107543666Y-112308386D02*
X108353898Y-111498154D01*
X106897864Y-112100000D02*
X107106250Y-112308386D01*
X107106250Y-112308386D02*
X107543666Y-112308386D01*
X106800000Y-109607040D02*
X108353898Y-111160938D01*
X97776695Y-106376695D02*
X101007042Y-109607040D01*
X108353898Y-111160938D02*
X108353898Y-111498154D01*
X101007042Y-109607040D02*
X106800000Y-109607040D01*
X98240718Y-104234155D02*
X97776695Y-104698178D01*
X97776695Y-104698178D02*
X97776695Y-106376695D01*
X110561945Y-109510019D02*
X109510019Y-110561945D01*
X110405446Y-109353520D02*
X110561945Y-109510019D01*
X101112053Y-109353520D02*
X110405446Y-109353520D01*
X98030215Y-105151766D02*
X98030215Y-106271683D01*
X98030215Y-106271683D02*
X101112053Y-109353520D01*
X109448074Y-110500000D02*
X109510019Y-110561945D01*
X98594272Y-104587709D02*
X98030215Y-105151766D01*
X101485611Y-85865358D02*
X100077858Y-85865358D01*
X100077858Y-85865358D02*
X100000000Y-85787500D01*
X89472356Y-87227644D02*
X88267601Y-88432399D01*
X106100000Y-85256047D02*
X106421355Y-85577402D01*
X115701015Y-98349757D02*
X116200000Y-97850772D01*
X87463899Y-110563899D02*
X88267601Y-110563899D01*
X83800000Y-97850771D02*
X84298986Y-98349757D01*
X91622598Y-85577402D02*
X90720340Y-86479660D01*
X94800000Y-84100000D02*
X93578645Y-85321355D01*
X83800000Y-102149228D02*
X83800000Y-103693411D01*
X88267601Y-110563899D02*
X88267601Y-111567601D01*
X106421355Y-114422598D02*
X108177402Y-114422598D01*
X88267601Y-88432399D02*
X88267601Y-89436101D01*
X96360100Y-115800000D02*
X96717595Y-115442505D01*
X96557495Y-84557495D02*
X96100000Y-84100000D01*
X90720340Y-112772356D02*
X90720340Y-113320340D01*
X88267601Y-111567601D02*
X89472356Y-112772356D01*
X109279660Y-113320340D02*
X109279660Y-112772356D01*
X109279660Y-86279660D02*
X108577402Y-85577402D01*
X115300000Y-93300000D02*
X114106250Y-92106250D01*
X116600000Y-99248742D02*
X115701015Y-98349757D01*
X115300000Y-106600000D02*
X115300000Y-105163801D01*
X91822598Y-114422598D02*
X93578645Y-114422598D01*
X109279660Y-87227644D02*
X109279660Y-86279660D01*
X84298985Y-101650243D02*
X83800000Y-102149228D01*
X108577402Y-85577402D02*
X106421355Y-85577402D01*
X115701014Y-101650243D02*
X115701014Y-101298986D01*
X84700000Y-105163801D02*
X84700000Y-106100000D01*
X114106250Y-92106250D02*
X113672376Y-92106250D01*
X103282405Y-84557495D02*
X102124910Y-83400000D01*
X108177402Y-114422598D02*
X109279660Y-113320340D01*
X84985195Y-95121394D02*
X84978606Y-95121394D01*
X89472356Y-112772356D02*
X90720340Y-112772356D01*
X115121394Y-104878606D02*
X116200000Y-103800000D01*
X103642505Y-84557495D02*
X104100000Y-84100000D01*
X112436101Y-89436101D02*
X111732399Y-89436101D01*
X84298986Y-98349757D02*
X83400000Y-99248743D01*
X115014805Y-95121394D02*
X115300000Y-94836199D01*
X90720340Y-86479660D02*
X90720340Y-87227644D01*
X111732399Y-88332399D02*
X110627644Y-87227644D01*
X112436101Y-110563899D02*
X113672376Y-109327624D01*
X100000000Y-84212500D02*
X99200000Y-83412500D01*
X106421355Y-114878645D02*
X106421355Y-114422598D01*
X96717595Y-84557495D02*
X96557495Y-84557495D01*
X111732399Y-89436101D02*
X111732399Y-88332399D01*
X86327624Y-109327624D02*
X86327624Y-109427624D01*
X85993750Y-107893750D02*
X86327624Y-107893750D01*
X87563899Y-89436101D02*
X86327624Y-90672376D01*
X90720340Y-113320340D02*
X91822598Y-114422598D01*
X111732399Y-110563899D02*
X112436101Y-110563899D01*
X83800000Y-103693411D02*
X84985195Y-104878606D01*
X99387500Y-116400000D02*
X100000000Y-115787500D01*
X113672376Y-107893750D02*
X114006250Y-107893750D01*
X88267601Y-89436101D02*
X87563899Y-89436101D01*
X96717595Y-115442505D02*
X97675090Y-116400000D01*
X86327624Y-109427624D02*
X87463899Y-110563899D01*
X113672376Y-109327624D02*
X113672376Y-107893750D01*
X114006250Y-107893750D02*
X115300000Y-106600000D01*
X84978606Y-95121394D02*
X83800000Y-96300000D01*
X93578645Y-114578645D02*
X94800000Y-115800000D01*
X84600000Y-93500000D02*
X84600000Y-94736199D01*
X86327624Y-108827624D02*
X86327624Y-109327624D01*
X102124910Y-83400000D02*
X100812500Y-83400000D01*
X83800000Y-96300000D02*
X83800000Y-97850771D01*
X111732399Y-111567601D02*
X111732399Y-110563899D01*
X93578645Y-114422598D02*
X93578645Y-114578645D01*
X84600000Y-94736199D02*
X84985195Y-95121394D01*
X103282405Y-84557495D02*
X103642505Y-84557495D01*
X116600000Y-100400000D02*
X116600000Y-99248742D01*
X115701014Y-101298986D02*
X116600000Y-100400000D01*
X100612500Y-116400000D02*
X102324910Y-116400000D01*
X106100000Y-84900000D02*
X106100000Y-85256047D01*
X115014805Y-104878606D02*
X115121394Y-104878606D01*
X84985195Y-104878606D02*
X84700000Y-105163801D01*
X97862590Y-83412500D02*
X96717595Y-84557495D01*
X85993750Y-92106250D02*
X84600000Y-93500000D01*
X86327624Y-92106250D02*
X85993750Y-92106250D01*
X99200000Y-83412500D02*
X97862590Y-83412500D01*
X94800000Y-115800000D02*
X96360100Y-115800000D01*
X103282405Y-115442505D02*
X103583019Y-115743119D01*
X113672376Y-92106250D02*
X113672376Y-90672376D01*
X103583019Y-115743119D02*
X105556881Y-115743119D01*
X83400000Y-99248743D02*
X83400000Y-100751258D01*
X116200000Y-102149229D02*
X115701014Y-101650243D01*
X86327624Y-90672376D02*
X86327624Y-92106250D01*
X84700000Y-106100000D02*
X84700000Y-106600000D01*
X102324910Y-116400000D02*
X103282405Y-115442505D01*
X93578645Y-85321355D02*
X93578645Y-85577402D01*
X115300000Y-105163801D02*
X115014805Y-104878606D01*
X96100000Y-84100000D02*
X94800000Y-84100000D01*
X109279660Y-112772356D02*
X110527644Y-112772356D01*
X105300000Y-84100000D02*
X106100000Y-84900000D01*
X113672376Y-90672376D02*
X112436101Y-89436101D01*
X110527644Y-112772356D02*
X111732399Y-111567601D01*
X93578645Y-85577402D02*
X91622598Y-85577402D01*
X110627644Y-87227644D02*
X109279660Y-87227644D01*
X100812500Y-83400000D02*
X100000000Y-84212500D01*
X116200000Y-103800000D02*
X116200000Y-102149229D01*
X84700000Y-106600000D02*
X85993750Y-107893750D01*
X90720340Y-87227644D02*
X89472356Y-87227644D01*
X105556881Y-115743119D02*
X106421355Y-114878645D01*
X116200000Y-96306589D02*
X115014805Y-95121394D01*
X83400000Y-100751258D02*
X84298985Y-101650243D01*
X97675090Y-116400000D02*
X99387500Y-116400000D01*
X115300000Y-94836199D02*
X115300000Y-93300000D01*
X116200000Y-97850772D02*
X116200000Y-96306589D01*
X104100000Y-84100000D02*
X105300000Y-84100000D01*
X100000000Y-115787500D02*
X100612500Y-116400000D01*
X86327624Y-107893750D02*
X86327624Y-108827624D01*
X114134642Y-102722226D02*
X113901923Y-102954945D01*
X114134642Y-101485611D02*
X114134642Y-102722226D01*
X103527049Y-97533612D02*
X104360762Y-96699899D01*
X98514389Y-85865357D02*
X97277775Y-85865357D01*
X97277775Y-85865357D02*
X97045055Y-86098077D01*
X114134643Y-98514389D02*
X114212500Y-98592246D01*
X112066633Y-96446379D02*
X114134643Y-98514389D01*
X103907174Y-96446379D02*
X112066633Y-96446379D01*
X103173495Y-97180058D02*
X103907174Y-96446379D01*
X114212500Y-98592246D02*
X114212500Y-100000000D01*
X113901923Y-95993128D02*
X113901923Y-97045055D01*
X103453588Y-96192859D02*
X112932128Y-96192859D01*
X102819942Y-96826505D02*
X103453588Y-96192859D01*
X113516891Y-95608096D02*
X113901923Y-95993128D01*
X112932128Y-96192859D02*
X113516891Y-95608096D01*
X111639339Y-95939339D02*
X112983764Y-94594914D01*
X102466388Y-96472951D02*
X102527049Y-96472951D01*
X112308386Y-92893750D02*
X112983764Y-93569128D01*
X103000000Y-95939339D02*
X111639339Y-95939339D01*
X102466388Y-96472951D02*
X103000000Y-95939339D01*
X112983764Y-93569128D02*
X112983764Y-94219255D01*
X112983764Y-94594914D02*
X112983764Y-94219255D01*
X94752382Y-86483109D02*
X94219255Y-87016236D01*
X95608096Y-86483109D02*
X94752382Y-86483109D01*
X102753520Y-95478713D02*
X102753520Y-94781563D01*
X110451926Y-90600000D02*
X110561945Y-90489981D01*
X108700000Y-89800000D02*
X109500000Y-90600000D01*
X110561945Y-90709893D02*
X111498154Y-91646102D01*
X107735083Y-89800000D02*
X108700000Y-89800000D01*
X109500000Y-90600000D02*
X110451926Y-90600000D01*
X110561945Y-90489981D02*
X110561945Y-90709893D01*
X102112835Y-96119398D02*
X102753520Y-95478713D01*
X102753520Y-94781563D02*
X107735083Y-89800000D01*
X108573810Y-88501846D02*
X109510019Y-89438055D01*
X108353898Y-88822653D02*
X102500000Y-94676551D01*
X108353898Y-88501846D02*
X108353898Y-88822653D01*
X101834155Y-95765845D02*
X101759282Y-95765845D01*
X102500000Y-94676551D02*
X102500000Y-95100000D01*
X108353898Y-88501846D02*
X108573810Y-88501846D01*
X102500000Y-95100000D02*
X101834155Y-95765845D01*
X115032448Y-97127652D02*
X115442505Y-96717595D01*
X107893750Y-86327624D02*
X106127391Y-86327624D01*
X112772356Y-90720340D02*
X112098909Y-90720340D01*
X85713509Y-104438419D02*
X85713509Y-105486491D01*
X114422598Y-93578645D02*
X114131794Y-93578645D01*
X112098909Y-109279660D02*
X112772356Y-109279660D01*
X115032447Y-100755053D02*
X115787500Y-100000000D01*
X89436101Y-89185330D02*
X87901091Y-90720340D01*
X95121394Y-114570684D02*
X95121394Y-115014805D01*
X87227644Y-108227644D02*
X87227644Y-109279660D01*
X84212500Y-100000000D02*
X84967552Y-100755052D01*
X114286491Y-104438419D02*
X115442505Y-103282405D01*
X87227644Y-92442330D02*
X86091329Y-93578645D01*
X115787500Y-100000000D02*
X115032448Y-99244948D01*
X85713509Y-106285248D02*
X85577402Y-106421355D01*
X114286491Y-106285248D02*
X114286491Y-104438419D01*
X112772356Y-107780793D02*
X114131794Y-106421355D01*
X104878606Y-85078839D02*
X104878606Y-84985195D01*
X106127391Y-113672376D02*
X107893750Y-113672376D01*
X101650243Y-115701015D02*
X102611040Y-114740218D01*
X95121394Y-115014805D02*
X95395981Y-114740218D01*
X92106250Y-86327624D02*
X92106250Y-86812404D01*
X87227644Y-107780793D02*
X87227644Y-108227644D01*
X107893750Y-113187596D02*
X109348947Y-111732399D01*
X115032447Y-102872347D02*
X115032447Y-100755053D01*
X85577402Y-106421355D02*
X85868206Y-106421355D01*
X114131794Y-93578645D02*
X112772356Y-92219207D01*
X90651053Y-88267601D02*
X89436101Y-88267601D01*
X92106250Y-113672376D02*
X94223086Y-113672376D01*
X104878606Y-114921161D02*
X106127391Y-113672376D01*
X115442505Y-96717595D02*
X114286491Y-95561581D01*
X112098909Y-90720340D02*
X110563899Y-89185330D01*
X87901091Y-109279660D02*
X88260715Y-109639285D01*
X95121394Y-84985195D02*
X95121394Y-85078839D01*
X84967553Y-97127653D02*
X84967553Y-99244947D01*
X98349757Y-84298985D02*
X97388960Y-85259782D01*
X85713509Y-95561581D02*
X84557495Y-96717595D01*
X114422598Y-106421355D02*
X114286491Y-106285248D01*
X85713509Y-105486491D02*
X85713509Y-106285248D01*
X86091329Y-93578645D02*
X85577402Y-93578645D01*
X89436101Y-110814670D02*
X89436101Y-111732399D01*
X110563899Y-89185330D02*
X110563899Y-88267601D01*
X110563899Y-88267601D02*
X109167601Y-88267601D01*
X110563899Y-111732399D02*
X110563899Y-110814670D01*
X90651053Y-111732399D02*
X92106250Y-113187596D01*
X114131794Y-106421355D02*
X114422598Y-106421355D01*
X84967552Y-102872348D02*
X84557495Y-103282405D01*
X114286491Y-93714752D02*
X114422598Y-93578645D01*
X85868206Y-106421355D02*
X87227644Y-107780793D01*
X104604019Y-85259782D02*
X102611039Y-85259782D01*
X101109208Y-115159980D02*
X101650243Y-115701015D01*
X84557495Y-103282405D02*
X85713509Y-104438419D01*
X92106250Y-113187596D02*
X92106250Y-113672376D01*
X101109209Y-84840020D02*
X98890792Y-84840020D01*
X106127391Y-86327624D02*
X104878606Y-85078839D01*
X110563899Y-110814670D02*
X112098909Y-109279660D01*
X107893750Y-113672376D02*
X107893750Y-113187596D01*
X92106250Y-86812404D02*
X90651053Y-88267601D01*
X87901091Y-90720340D02*
X87227644Y-90720340D01*
X84967553Y-99244947D02*
X84212500Y-100000000D01*
X95121394Y-85078839D02*
X93872609Y-86327624D01*
X84557495Y-96717595D02*
X84967553Y-97127653D01*
X93872609Y-86327624D02*
X92106250Y-86327624D01*
X95395981Y-85259782D02*
X95121394Y-84985195D01*
X94223086Y-113672376D02*
X95121394Y-114570684D01*
X102611040Y-114740218D02*
X104604019Y-114740218D01*
X101650243Y-84298986D02*
X101109209Y-84840020D01*
X112772356Y-109279660D02*
X112772356Y-107780793D01*
X112772356Y-92219207D02*
X112772356Y-90720340D01*
X109167601Y-88267601D02*
X107893750Y-86993750D01*
X98890791Y-115159980D02*
X101109208Y-115159980D01*
X115442505Y-103282405D02*
X115032447Y-102872347D01*
X98349757Y-115701014D02*
X98890791Y-115159980D01*
X89436101Y-88267601D02*
X89436101Y-89185330D01*
X104604019Y-114740218D02*
X104878606Y-115014805D01*
X109348947Y-111732399D02*
X110563899Y-111732399D01*
X115032448Y-99244948D02*
X115032448Y-97127652D01*
X95395981Y-114740218D02*
X97388961Y-114740218D01*
X104878606Y-115014805D02*
X104878606Y-114921161D01*
X87227644Y-90720340D02*
X87227644Y-92442330D01*
X85713509Y-93714752D02*
X85713509Y-95561581D01*
X114286491Y-95561581D02*
X114286491Y-93714752D01*
X98890792Y-84840020D02*
X98349757Y-84298985D01*
X85577402Y-93578645D02*
X85713509Y-93714752D01*
X97388961Y-114740218D02*
X98349757Y-115701014D01*
X84967552Y-100755052D02*
X84967552Y-102872348D01*
X102611039Y-85259782D02*
X101650243Y-84298986D01*
X89436101Y-111732399D02*
X90651053Y-111732399D01*
X97388960Y-85259782D02*
X95395981Y-85259782D01*
X87227644Y-109279660D02*
X87901091Y-109279660D01*
X88260715Y-109639285D02*
X89436101Y-110814670D01*
X107893750Y-86993750D02*
X107893750Y-86327624D01*
X104878606Y-84985195D02*
X104604019Y-85259782D01*
X93784980Y-102132072D02*
X91917052Y-104000000D01*
D78*
X103751992Y-104951992D02*
X103751992Y-104812653D01*
X97500000Y-101500000D02*
X96250000Y-100250000D01*
X102605465Y-106005465D02*
X102651992Y-106051992D01*
X96173098Y-100173098D02*
X96250000Y-100250000D01*
D79*
X89600000Y-104000000D02*
X88100000Y-105500000D01*
D78*
X102651992Y-106051992D02*
X103751992Y-104951992D01*
X102683363Y-108283363D02*
X102683363Y-106083363D01*
D79*
X94300000Y-100200000D02*
X93784980Y-100715020D01*
D78*
X94326902Y-100173098D02*
X96173098Y-100173098D01*
X94300000Y-100200000D02*
X94326902Y-100173098D01*
X102683363Y-106083363D02*
X102651992Y-106051992D01*
X103751992Y-104812653D02*
X102466388Y-103527049D01*
X102466388Y-103527049D02*
X102427049Y-103527049D01*
D79*
X93784980Y-100715020D02*
X93784980Y-102132072D01*
X91917052Y-104000000D02*
X89600000Y-104000000D01*
X92083518Y-88501846D02*
X92893750Y-87691614D01*
X92893750Y-87691614D02*
X92893750Y-87693750D01*
X91646102Y-88501846D02*
X92083518Y-88501846D01*
X101485611Y-114134643D02*
X102722225Y-114134643D01*
X96716035Y-109116035D02*
X96716035Y-103637518D01*
X96716035Y-109116035D02*
X98800000Y-111200000D01*
X101485611Y-114134643D02*
X101485611Y-113885611D01*
X102722225Y-114134643D02*
X102954945Y-113901923D01*
X102954945Y-113654945D02*
X102954945Y-113901923D01*
X98800000Y-111200000D02*
X100500000Y-111200000D01*
X100500000Y-111200000D02*
X102954945Y-113654945D01*
X96716035Y-103637518D02*
X97180058Y-103173495D01*
X89438055Y-90489981D02*
X90489981Y-89438055D01*
X88501846Y-92083518D02*
X88501846Y-91646102D01*
X87691614Y-92893750D02*
X88501846Y-92083518D01*
X86483109Y-95608096D02*
X86483109Y-94752382D01*
X96119398Y-97887165D02*
X96119398Y-97819398D01*
X86483109Y-94752382D02*
X87016236Y-94219255D01*
X85865358Y-97277774D02*
X86098077Y-97045055D01*
X95765845Y-98240718D02*
X95101755Y-97576628D01*
X85865358Y-98514389D02*
X85865358Y-97277774D01*
X85787500Y-101407754D02*
X85865357Y-101485611D01*
X85924720Y-100000000D02*
X85787500Y-100000000D01*
X85787500Y-100000000D02*
X85787500Y-101407754D01*
X86098077Y-102954945D02*
X86098077Y-104006872D01*
X86098077Y-104006872D02*
X86483109Y-104391904D01*
X89701814Y-107106250D02*
X89693750Y-107106250D01*
X94479778Y-102328286D02*
X94479778Y-101631135D01*
X89701814Y-107106250D02*
X94479778Y-102328286D01*
X87016236Y-106430872D02*
X87691614Y-107106250D01*
X89693750Y-107106250D02*
X89300000Y-107500000D01*
X88085364Y-107500000D02*
X87691614Y-107106250D01*
X89300000Y-107500000D02*
X88085364Y-107500000D01*
X94479778Y-101631135D02*
X95058738Y-101052175D01*
X87016236Y-105780745D02*
X87016236Y-106430872D01*
X89438055Y-109290107D02*
X88501846Y-108353898D01*
X89438055Y-109510019D02*
X89438055Y-109290107D01*
X94733298Y-102084721D02*
X95412291Y-101405728D01*
X94733298Y-102433298D02*
X94733298Y-102084721D01*
X88812698Y-108353898D02*
X94733298Y-102433298D01*
X88501846Y-108353898D02*
X88812698Y-108353898D01*
X91646102Y-111498154D02*
X91426190Y-111498154D01*
X90489981Y-110561945D02*
X90489981Y-107035146D01*
X90489981Y-107035146D02*
X95765845Y-101759282D01*
X91426190Y-111498154D02*
X90489981Y-110561945D01*
X95432233Y-102800000D02*
X96119398Y-102112835D01*
X90743501Y-109543501D02*
X90743501Y-107140158D01*
X92893750Y-112308386D02*
X92893750Y-111693750D01*
X93569128Y-112983764D02*
X92893750Y-112308386D01*
X92893750Y-111693750D02*
X90743501Y-109543501D01*
X90743501Y-107140158D02*
X95083659Y-102800000D01*
X95083659Y-102800000D02*
X95432233Y-102800000D01*
X94219255Y-112983764D02*
X93569128Y-112983764D01*
X96472951Y-102466388D02*
X96433612Y-102466388D01*
X97045055Y-113901923D02*
X95993128Y-113901923D01*
X95993128Y-113901923D02*
X95608096Y-113516891D01*
X98592247Y-114212500D02*
X98514389Y-114134642D01*
X100000000Y-114212500D02*
X98592247Y-114212500D01*
X113516891Y-105247618D02*
X112983764Y-105780745D01*
X113516891Y-104391904D02*
X113233372Y-104391904D01*
X113516891Y-104391904D02*
X113516891Y-105247618D01*
X104359282Y-101759282D02*
X104234155Y-101759282D01*
X103400000Y-100925127D02*
X104234155Y-101759282D01*
X104234155Y-101734155D02*
X104234155Y-101759282D01*
X103400000Y-100900000D02*
X103400000Y-100925127D01*
X102655884Y-101096080D02*
X102863847Y-101096080D01*
X102863847Y-101096080D02*
X103880602Y-102112835D01*
D78*
X104816637Y-103755976D02*
X103527049Y-102466388D01*
X104816637Y-103816637D02*
X104816637Y-103755976D01*
D79*
X94400000Y-108900000D02*
X94400000Y-109125136D01*
X94400000Y-109125136D02*
X95000000Y-109725136D01*
X95100000Y-109466604D02*
X95253520Y-109620125D01*
X95100000Y-108900000D02*
X95100000Y-109466604D01*
X102900000Y-111800000D02*
X103200000Y-111500000D01*
X102100000Y-111800000D02*
X102900000Y-111800000D01*
X106430872Y-87016236D02*
X107106250Y-87691614D01*
X107559009Y-88144373D02*
X107106250Y-87691614D01*
X101405728Y-95412291D02*
X107559009Y-89259009D01*
X107559009Y-89259009D02*
X107559009Y-88144373D01*
X105780745Y-87016236D02*
X106430872Y-87016236D01*
X112308386Y-107106250D02*
X112308386Y-107543666D01*
X98947825Y-104941262D02*
X98283735Y-105605352D01*
X101217064Y-109100000D02*
X109800000Y-109100000D01*
X109800000Y-109100000D02*
X110546102Y-108353898D01*
X110546102Y-108353898D02*
X111498154Y-108353898D01*
X98283735Y-106166671D02*
X101217064Y-109100000D01*
X98283735Y-105605352D02*
X98283735Y-106166671D01*
X112308386Y-107543666D02*
X111498154Y-108353898D01*
X102129744Y-94329743D02*
X105500000Y-90959487D01*
X104391904Y-87191904D02*
X104391904Y-86483109D01*
X101052175Y-95058738D02*
X101781170Y-94329743D01*
X102954945Y-86098077D02*
X104006872Y-86098077D01*
X104006872Y-86098077D02*
X104391904Y-86483109D01*
X105500000Y-88300000D02*
X104391904Y-87191904D01*
X101781170Y-94329743D02*
X102129744Y-94329743D01*
X105500000Y-90959487D02*
X105500000Y-88300000D01*
X95578955Y-109587027D02*
X95578955Y-104678955D01*
X97153633Y-111950590D02*
X96745963Y-111542920D01*
X95578955Y-104678955D02*
X95000000Y-104100000D01*
X96745963Y-111542920D02*
X96745963Y-110754037D01*
X96745963Y-110754037D02*
X95578955Y-109587027D01*
G04 #@! TA.AperFunction,Conductor*
G36*
X100419014Y-81259246D02*
G01*
X101245044Y-81295955D01*
X101250603Y-81296326D01*
X102074167Y-81369668D01*
X102079724Y-81370288D01*
X102899206Y-81480119D01*
X102904734Y-81480985D01*
X103219928Y-81537572D01*
X103718570Y-81627094D01*
X103724013Y-81628197D01*
X104530562Y-81810293D01*
X104535955Y-81811638D01*
X105333568Y-82029345D01*
X105333594Y-82029352D01*
X105338958Y-82030944D01*
X106126180Y-82283868D01*
X106131467Y-82285698D01*
X106906634Y-82573302D01*
X106911808Y-82575352D01*
X107433864Y-82795882D01*
X107673484Y-82897104D01*
X107678588Y-82899395D01*
X108425208Y-83254634D01*
X108430206Y-83257150D01*
X109160311Y-83645181D01*
X109165192Y-83647916D01*
X109877355Y-84067980D01*
X109882068Y-84070902D01*
X110574654Y-84522020D01*
X110574932Y-84522201D01*
X110579521Y-84525338D01*
X111251597Y-85006903D01*
X111251622Y-85006921D01*
X111256096Y-85010280D01*
X111560388Y-85249453D01*
X111906166Y-85521235D01*
X111910451Y-85524759D01*
X112284439Y-85846574D01*
X112323028Y-85906168D01*
X112323273Y-85977164D01*
X112312732Y-86002668D01*
X112283274Y-86056377D01*
X112281523Y-86061489D01*
X112281520Y-86061495D01*
X112253531Y-86143194D01*
X112213335Y-86260525D01*
X112212482Y-86265865D01*
X112212481Y-86265868D01*
X112180802Y-86464130D01*
X112179286Y-86473618D01*
X112179357Y-86479026D01*
X112179357Y-86479028D01*
X112180460Y-86562837D01*
X112182125Y-86689396D01*
X112183118Y-86694707D01*
X112183118Y-86694711D01*
X112218470Y-86883857D01*
X112221771Y-86901519D01*
X112223658Y-86906588D01*
X112290267Y-87085513D01*
X112297058Y-87103756D01*
X112299781Y-87108426D01*
X112299783Y-87108429D01*
X112368493Y-87226241D01*
X112405775Y-87290166D01*
X112544728Y-87455272D01*
X112548857Y-87458747D01*
X112663355Y-87555108D01*
X112709834Y-87594225D01*
X112714503Y-87596948D01*
X112891571Y-87700217D01*
X112891574Y-87700219D01*
X112896244Y-87702942D01*
X112901313Y-87704829D01*
X112901315Y-87704830D01*
X113081472Y-87771897D01*
X113098481Y-87778229D01*
X113103798Y-87779223D01*
X113103799Y-87779223D01*
X113305289Y-87816882D01*
X113305293Y-87816882D01*
X113310604Y-87817875D01*
X113395512Y-87818992D01*
X113520972Y-87820643D01*
X113520974Y-87820643D01*
X113526382Y-87820714D01*
X113531719Y-87819861D01*
X113531722Y-87819861D01*
X113734132Y-87787519D01*
X113734135Y-87787518D01*
X113739475Y-87786665D01*
X113943623Y-87716726D01*
X113965313Y-87704830D01*
X113997327Y-87687271D01*
X114066673Y-87672050D01*
X114133239Y-87696737D01*
X114153427Y-87715562D01*
X114475226Y-88089531D01*
X114478780Y-88093852D01*
X114989721Y-88743905D01*
X114993080Y-88748378D01*
X115474664Y-89420481D01*
X115477795Y-89425061D01*
X115929091Y-90117919D01*
X115932023Y-90122648D01*
X116189439Y-90559062D01*
X116352088Y-90834812D01*
X116354823Y-90839693D01*
X116460399Y-91038340D01*
X116505736Y-91123645D01*
X116506220Y-91125998D01*
X116509525Y-91130775D01*
X116742854Y-91569799D01*
X116745370Y-91574797D01*
X117100613Y-92321426D01*
X117102903Y-92326530D01*
X117414986Y-93065316D01*
X117424643Y-93088178D01*
X117426700Y-93093366D01*
X117611848Y-93592390D01*
X117714306Y-93868541D01*
X117716136Y-93873828D01*
X117824848Y-94212194D01*
X117962920Y-94641942D01*
X117969059Y-94661051D01*
X117970641Y-94666381D01*
X117978759Y-94696120D01*
X117977399Y-94767101D01*
X117937879Y-94826082D01*
X117872746Y-94854333D01*
X117802678Y-94842886D01*
X117768110Y-94818390D01*
X116490436Y-93540716D01*
X116456410Y-93478404D01*
X116454804Y-93469483D01*
X116444581Y-93398101D01*
X116440718Y-93371125D01*
X116413775Y-93311867D01*
X116390548Y-93260782D01*
X116390547Y-93260780D01*
X116386832Y-93252610D01*
X116348546Y-93208176D01*
X116319233Y-93143516D01*
X116318000Y-93125931D01*
X116318000Y-91412897D01*
X116318479Y-91401916D01*
X116320717Y-91376336D01*
X116320717Y-91376334D01*
X116321677Y-91365359D01*
X116318825Y-91354714D01*
X116312182Y-91329921D01*
X116309804Y-91319192D01*
X116305348Y-91293923D01*
X116305346Y-91293918D01*
X116303432Y-91283062D01*
X116297919Y-91273513D01*
X116296840Y-91270550D01*
X116295506Y-91267690D01*
X116292652Y-91257036D01*
X116286328Y-91248004D01*
X116271609Y-91226983D01*
X116265703Y-91217712D01*
X116252874Y-91195491D01*
X116252871Y-91195487D01*
X116247360Y-91185942D01*
X116236400Y-91176745D01*
X116219255Y-91162359D01*
X116211151Y-91154933D01*
X115038319Y-89982101D01*
X115030893Y-89973997D01*
X115014398Y-89954339D01*
X115007310Y-89945892D01*
X114997765Y-89940381D01*
X114997761Y-89940378D01*
X114975540Y-89927549D01*
X114966270Y-89921644D01*
X114945246Y-89906923D01*
X114936216Y-89900600D01*
X114925564Y-89897746D01*
X114922703Y-89896412D01*
X114919737Y-89895333D01*
X114910190Y-89889820D01*
X114899334Y-89887906D01*
X114899329Y-89887904D01*
X114874060Y-89883448D01*
X114863331Y-89881070D01*
X114838538Y-89874427D01*
X114838536Y-89874427D01*
X114827893Y-89871575D01*
X114816918Y-89872535D01*
X114807167Y-89871682D01*
X114744355Y-89847112D01*
X114744276Y-89847235D01*
X114743678Y-89846847D01*
X114743676Y-89846846D01*
X114635027Y-89776424D01*
X114510296Y-89739122D01*
X114501320Y-89739067D01*
X114501319Y-89739067D01*
X114448104Y-89738742D01*
X114380109Y-89738326D01*
X114254931Y-89774102D01*
X114247344Y-89778889D01*
X114247342Y-89778890D01*
X114225043Y-89792960D01*
X114144826Y-89843573D01*
X114138884Y-89850301D01*
X114138883Y-89850302D01*
X114085647Y-89910581D01*
X114058645Y-89941155D01*
X114054830Y-89949280D01*
X114054829Y-89949282D01*
X114007131Y-90050877D01*
X114003316Y-90059003D01*
X114001935Y-90067872D01*
X113986407Y-90167600D01*
X113983286Y-90187642D01*
X113987267Y-90218082D01*
X113976267Y-90288221D01*
X113929094Y-90341280D01*
X113860723Y-90360411D01*
X113792863Y-90339541D01*
X113773236Y-90323516D01*
X112674670Y-89224950D01*
X112667244Y-89216846D01*
X112650749Y-89197188D01*
X112643661Y-89188741D01*
X112634116Y-89183230D01*
X112634112Y-89183227D01*
X112611891Y-89170398D01*
X112602621Y-89164493D01*
X112581597Y-89149772D01*
X112572567Y-89143449D01*
X112561915Y-89140595D01*
X112559054Y-89139261D01*
X112556088Y-89138182D01*
X112546541Y-89132669D01*
X112535685Y-89130755D01*
X112535680Y-89130753D01*
X112510411Y-89126297D01*
X112499682Y-89123919D01*
X112474895Y-89117278D01*
X112464244Y-89114424D01*
X112453265Y-89115385D01*
X112453258Y-89115384D01*
X112443116Y-89116272D01*
X112373511Y-89102285D01*
X112338496Y-89075063D01*
X112331427Y-89067212D01*
X112082763Y-88791043D01*
X112052046Y-88727036D01*
X112050399Y-88706733D01*
X112050399Y-88351795D01*
X112050878Y-88340814D01*
X112053116Y-88315234D01*
X112053116Y-88315232D01*
X112054076Y-88304257D01*
X112046727Y-88276830D01*
X112044581Y-88268819D01*
X112042202Y-88258090D01*
X112037745Y-88232813D01*
X112037745Y-88232812D01*
X112035831Y-88221959D01*
X112030319Y-88212412D01*
X112029240Y-88209447D01*
X112027905Y-88206583D01*
X112025051Y-88195933D01*
X112004007Y-88165879D01*
X111998102Y-88156609D01*
X111985273Y-88134388D01*
X111985270Y-88134384D01*
X111979759Y-88124839D01*
X111951654Y-88101256D01*
X111943550Y-88093830D01*
X110866213Y-87016493D01*
X110858787Y-87008389D01*
X110842292Y-86988731D01*
X110835204Y-86980284D01*
X110803427Y-86961938D01*
X110794174Y-86956043D01*
X110764110Y-86934992D01*
X110753457Y-86932138D01*
X110750592Y-86930802D01*
X110747631Y-86929724D01*
X110738084Y-86924212D01*
X110727228Y-86922298D01*
X110727223Y-86922296D01*
X110701954Y-86917840D01*
X110691225Y-86915462D01*
X110666438Y-86908821D01*
X110655787Y-86905967D01*
X110623166Y-86908821D01*
X110619234Y-86909165D01*
X110608252Y-86909644D01*
X110050142Y-86909644D01*
X109982021Y-86889642D01*
X109965506Y-86876986D01*
X109932491Y-86847050D01*
X109932488Y-86847047D01*
X109929964Y-86844759D01*
X109649599Y-86641062D01*
X109606245Y-86584840D01*
X109597660Y-86539126D01*
X109597660Y-86299054D01*
X109598139Y-86288073D01*
X109600377Y-86262493D01*
X109600377Y-86262492D01*
X109601337Y-86251517D01*
X109598421Y-86240633D01*
X109591842Y-86216079D01*
X109589464Y-86205350D01*
X109585008Y-86180081D01*
X109585006Y-86180076D01*
X109583092Y-86169220D01*
X109577579Y-86159673D01*
X109576500Y-86156707D01*
X109575166Y-86153846D01*
X109572312Y-86143194D01*
X109551268Y-86113140D01*
X109545363Y-86103870D01*
X109532534Y-86081649D01*
X109532531Y-86081645D01*
X109527020Y-86072100D01*
X109498915Y-86048517D01*
X109490811Y-86041091D01*
X108815971Y-85366251D01*
X108808545Y-85358147D01*
X108792050Y-85338489D01*
X108784962Y-85330042D01*
X108775417Y-85324531D01*
X108775413Y-85324528D01*
X108753192Y-85311699D01*
X108743922Y-85305794D01*
X108722898Y-85291073D01*
X108713868Y-85284750D01*
X108703216Y-85281896D01*
X108700355Y-85280562D01*
X108697389Y-85279483D01*
X108687842Y-85273970D01*
X108676986Y-85272056D01*
X108676981Y-85272054D01*
X108651712Y-85267598D01*
X108640983Y-85265220D01*
X108616196Y-85258579D01*
X108605545Y-85255725D01*
X108572947Y-85258577D01*
X108568992Y-85258923D01*
X108558010Y-85259402D01*
X107236313Y-85259402D01*
X107168192Y-85239400D01*
X107136447Y-85205608D01*
X107134568Y-85207039D01*
X107129125Y-85199895D01*
X107124754Y-85192057D01*
X107118358Y-85185761D01*
X107118356Y-85185758D01*
X107033782Y-85102502D01*
X107033781Y-85102501D01*
X107028149Y-85096957D01*
X106977842Y-85067678D01*
X106794846Y-84986203D01*
X106458681Y-84836533D01*
X106404585Y-84790553D01*
X106395735Y-84774675D01*
X106395505Y-84774181D01*
X106392652Y-84763534D01*
X106371608Y-84733480D01*
X106365703Y-84724210D01*
X106352874Y-84701989D01*
X106352871Y-84701985D01*
X106347360Y-84692440D01*
X106319255Y-84668857D01*
X106311151Y-84661431D01*
X105538569Y-83888849D01*
X105531143Y-83880745D01*
X105514648Y-83861087D01*
X105507560Y-83852640D01*
X105498015Y-83847129D01*
X105498011Y-83847126D01*
X105475790Y-83834297D01*
X105466520Y-83828392D01*
X105451220Y-83817679D01*
X105436466Y-83807348D01*
X105425814Y-83804494D01*
X105422953Y-83803160D01*
X105419987Y-83802081D01*
X105410440Y-83796568D01*
X105399584Y-83794654D01*
X105399579Y-83794652D01*
X105374310Y-83790196D01*
X105363581Y-83787818D01*
X105338794Y-83781177D01*
X105328143Y-83778323D01*
X105295545Y-83781175D01*
X105291590Y-83781521D01*
X105280608Y-83782000D01*
X104119394Y-83782000D01*
X104108416Y-83781521D01*
X104097668Y-83780581D01*
X104082833Y-83779283D01*
X104082832Y-83779283D01*
X104071857Y-83778323D01*
X104061214Y-83781175D01*
X104061212Y-83781175D01*
X104036419Y-83787818D01*
X104025690Y-83790196D01*
X104000421Y-83794652D01*
X104000416Y-83794654D01*
X103989560Y-83796568D01*
X103980013Y-83802081D01*
X103977047Y-83803160D01*
X103974186Y-83804494D01*
X103963534Y-83807348D01*
X103948780Y-83817679D01*
X103933480Y-83828392D01*
X103924210Y-83834297D01*
X103901989Y-83847126D01*
X103901985Y-83847129D01*
X103892440Y-83852640D01*
X103885352Y-83861087D01*
X103868857Y-83880745D01*
X103861431Y-83888849D01*
X103840123Y-83910157D01*
X103777811Y-83944183D01*
X103720846Y-83942777D01*
X103720754Y-83943209D01*
X103465007Y-83888849D01*
X103135138Y-83818734D01*
X103135134Y-83818733D01*
X103131806Y-83818026D01*
X103073897Y-83812142D01*
X103066089Y-83813316D01*
X103066085Y-83813316D01*
X103062616Y-83813838D01*
X103061034Y-83814076D01*
X102990697Y-83804427D01*
X102953202Y-83778572D01*
X102363479Y-83188849D01*
X102356053Y-83180745D01*
X102339558Y-83161087D01*
X102332470Y-83152640D01*
X102322925Y-83147129D01*
X102322921Y-83147126D01*
X102300700Y-83134297D01*
X102291430Y-83128392D01*
X102270406Y-83113671D01*
X102261376Y-83107348D01*
X102250724Y-83104494D01*
X102247863Y-83103160D01*
X102244897Y-83102081D01*
X102235350Y-83096568D01*
X102224494Y-83094654D01*
X102224489Y-83094652D01*
X102199220Y-83090196D01*
X102188491Y-83087818D01*
X102163704Y-83081177D01*
X102153053Y-83078323D01*
X102120455Y-83081175D01*
X102116500Y-83081521D01*
X102105518Y-83082000D01*
X100831894Y-83082000D01*
X100820916Y-83081521D01*
X100810168Y-83080581D01*
X100795333Y-83079283D01*
X100795332Y-83079283D01*
X100784357Y-83078323D01*
X100773714Y-83081175D01*
X100773712Y-83081175D01*
X100748919Y-83087818D01*
X100738190Y-83090196D01*
X100712921Y-83094652D01*
X100712916Y-83094654D01*
X100702060Y-83096568D01*
X100692513Y-83102081D01*
X100689547Y-83103160D01*
X100686686Y-83104494D01*
X100676034Y-83107348D01*
X100667004Y-83113671D01*
X100645980Y-83128392D01*
X100636710Y-83134297D01*
X100614489Y-83147126D01*
X100614485Y-83147129D01*
X100604940Y-83152640D01*
X100597852Y-83161087D01*
X100581357Y-83180745D01*
X100573931Y-83188849D01*
X100279185Y-83483595D01*
X100216873Y-83517621D01*
X100190090Y-83520500D01*
X100000001Y-83520501D01*
X99809911Y-83520501D01*
X99741791Y-83500499D01*
X99720816Y-83483596D01*
X99438569Y-83201349D01*
X99431143Y-83193245D01*
X99414648Y-83173587D01*
X99407560Y-83165140D01*
X99398015Y-83159629D01*
X99398011Y-83159626D01*
X99375790Y-83146797D01*
X99366520Y-83140892D01*
X99345496Y-83126171D01*
X99336466Y-83119848D01*
X99325814Y-83116994D01*
X99322953Y-83115660D01*
X99319987Y-83114581D01*
X99310440Y-83109068D01*
X99299584Y-83107154D01*
X99299579Y-83107152D01*
X99274310Y-83102696D01*
X99263581Y-83100318D01*
X99238794Y-83093677D01*
X99228143Y-83090823D01*
X99195522Y-83093677D01*
X99191590Y-83094021D01*
X99180608Y-83094500D01*
X97881982Y-83094500D01*
X97871000Y-83094021D01*
X97867068Y-83093677D01*
X97834447Y-83090823D01*
X97823796Y-83093677D01*
X97823795Y-83093677D01*
X97799012Y-83100317D01*
X97788284Y-83102695D01*
X97763007Y-83107152D01*
X97762999Y-83107155D01*
X97752150Y-83109068D01*
X97742607Y-83114577D01*
X97739641Y-83115657D01*
X97736769Y-83116996D01*
X97726124Y-83119849D01*
X97717095Y-83126171D01*
X97717091Y-83126173D01*
X97696071Y-83140891D01*
X97686806Y-83146794D01*
X97655030Y-83165140D01*
X97647942Y-83173587D01*
X97631447Y-83193245D01*
X97624021Y-83201350D01*
X97046798Y-83778572D01*
X96984486Y-83812597D01*
X96938975Y-83814076D01*
X96933923Y-83813317D01*
X96933917Y-83813317D01*
X96926103Y-83812142D01*
X96918246Y-83812940D01*
X96918242Y-83812940D01*
X96887747Y-83816038D01*
X96868194Y-83818024D01*
X96864862Y-83818732D01*
X96864838Y-83818736D01*
X96441822Y-83908653D01*
X96371032Y-83903252D01*
X96319106Y-83866400D01*
X96307560Y-83852640D01*
X96298015Y-83847129D01*
X96298011Y-83847126D01*
X96275790Y-83834297D01*
X96266520Y-83828392D01*
X96251220Y-83817679D01*
X96236466Y-83807348D01*
X96225814Y-83804494D01*
X96222953Y-83803160D01*
X96219987Y-83802081D01*
X96210440Y-83796568D01*
X96199584Y-83794654D01*
X96199579Y-83794652D01*
X96174310Y-83790196D01*
X96163581Y-83787818D01*
X96138794Y-83781177D01*
X96128143Y-83778323D01*
X96095545Y-83781175D01*
X96091590Y-83781521D01*
X96080608Y-83782000D01*
X94819394Y-83782000D01*
X94808416Y-83781521D01*
X94797668Y-83780581D01*
X94782833Y-83779283D01*
X94782832Y-83779283D01*
X94771857Y-83778323D01*
X94761214Y-83781175D01*
X94761212Y-83781175D01*
X94736419Y-83787818D01*
X94725690Y-83790196D01*
X94700421Y-83794652D01*
X94700416Y-83794654D01*
X94689560Y-83796568D01*
X94680013Y-83802081D01*
X94677047Y-83803160D01*
X94674186Y-83804494D01*
X94663534Y-83807348D01*
X94648780Y-83817679D01*
X94633480Y-83828392D01*
X94624210Y-83834297D01*
X94601989Y-83847126D01*
X94601985Y-83847129D01*
X94592440Y-83852640D01*
X94585352Y-83861087D01*
X94568857Y-83880745D01*
X94561431Y-83888849D01*
X93675204Y-84775076D01*
X93624626Y-84805949D01*
X93575458Y-84821735D01*
X93575443Y-84821741D01*
X93572209Y-84822779D01*
X93569115Y-84824157D01*
X93569106Y-84824160D01*
X93132580Y-85018515D01*
X93022159Y-85067678D01*
X92971851Y-85096957D01*
X92966224Y-85102496D01*
X92966223Y-85102497D01*
X92881644Y-85185758D01*
X92881642Y-85185761D01*
X92875246Y-85192057D01*
X92870875Y-85199895D01*
X92865432Y-85207039D01*
X92863074Y-85205242D01*
X92823080Y-85244526D01*
X92763687Y-85259402D01*
X91641994Y-85259402D01*
X91631013Y-85258923D01*
X91605433Y-85256685D01*
X91605431Y-85256685D01*
X91594456Y-85255725D01*
X91583813Y-85258577D01*
X91583811Y-85258577D01*
X91559018Y-85265220D01*
X91548289Y-85267599D01*
X91523012Y-85272056D01*
X91523011Y-85272056D01*
X91512158Y-85273970D01*
X91502611Y-85279482D01*
X91499646Y-85280561D01*
X91496782Y-85281896D01*
X91486132Y-85284750D01*
X91477102Y-85291073D01*
X91456078Y-85305794D01*
X91446808Y-85311699D01*
X91424587Y-85324528D01*
X91424583Y-85324531D01*
X91415038Y-85330042D01*
X91407950Y-85338489D01*
X91391455Y-85358147D01*
X91384029Y-85366251D01*
X90509189Y-86241091D01*
X90501085Y-86248517D01*
X90472980Y-86272100D01*
X90467469Y-86281645D01*
X90467466Y-86281649D01*
X90454637Y-86303870D01*
X90448732Y-86313140D01*
X90427688Y-86343194D01*
X90424834Y-86353846D01*
X90423500Y-86356707D01*
X90422421Y-86359673D01*
X90416908Y-86369220D01*
X90414994Y-86380076D01*
X90414992Y-86380081D01*
X90410536Y-86405350D01*
X90408158Y-86416079D01*
X90404495Y-86429752D01*
X90398663Y-86451517D01*
X90400561Y-86473214D01*
X90401861Y-86488070D01*
X90402340Y-86499052D01*
X90402340Y-86539126D01*
X90382338Y-86607247D01*
X90350401Y-86641062D01*
X90172824Y-86770080D01*
X90070037Y-86844759D01*
X90067511Y-86847050D01*
X90067509Y-86847051D01*
X90034493Y-86876987D01*
X89970592Y-86907926D01*
X89949858Y-86909644D01*
X89491748Y-86909644D01*
X89480766Y-86909165D01*
X89476834Y-86908821D01*
X89444213Y-86905967D01*
X89433562Y-86908821D01*
X89408775Y-86915462D01*
X89398046Y-86917840D01*
X89372777Y-86922296D01*
X89372772Y-86922298D01*
X89361916Y-86924212D01*
X89352369Y-86929724D01*
X89349408Y-86930802D01*
X89346543Y-86932138D01*
X89335890Y-86934992D01*
X89305826Y-86956043D01*
X89296573Y-86961938D01*
X89264796Y-86980284D01*
X89257708Y-86988731D01*
X89241213Y-87008389D01*
X89233787Y-87016493D01*
X88056450Y-88193830D01*
X88048346Y-88201256D01*
X88020241Y-88224839D01*
X88014730Y-88234384D01*
X88014727Y-88234388D01*
X88001898Y-88256609D01*
X87995993Y-88265879D01*
X87992136Y-88271388D01*
X87974949Y-88295933D01*
X87972095Y-88306585D01*
X87970761Y-88309446D01*
X87969682Y-88312412D01*
X87964169Y-88321959D01*
X87962255Y-88332815D01*
X87962253Y-88332820D01*
X87957797Y-88358089D01*
X87955419Y-88368818D01*
X87952139Y-88381060D01*
X87945924Y-88404256D01*
X87946885Y-88415238D01*
X87949122Y-88440809D01*
X87949601Y-88451791D01*
X87949601Y-88706733D01*
X87929599Y-88774854D01*
X87917237Y-88791042D01*
X87661505Y-89075063D01*
X87601060Y-89112302D01*
X87556887Y-89116272D01*
X87546743Y-89115384D01*
X87546736Y-89115385D01*
X87535756Y-89114424D01*
X87525105Y-89117278D01*
X87500318Y-89123919D01*
X87489589Y-89126297D01*
X87464320Y-89130753D01*
X87464315Y-89130755D01*
X87453459Y-89132669D01*
X87443912Y-89138182D01*
X87440946Y-89139261D01*
X87438085Y-89140595D01*
X87427433Y-89143449D01*
X87418403Y-89149772D01*
X87397379Y-89164493D01*
X87388109Y-89170398D01*
X87365888Y-89183227D01*
X87365884Y-89183230D01*
X87356339Y-89188741D01*
X87349251Y-89197188D01*
X87332756Y-89216846D01*
X87325330Y-89224950D01*
X86116473Y-90433807D01*
X86108369Y-90441233D01*
X86080264Y-90464816D01*
X86074753Y-90474361D01*
X86074750Y-90474365D01*
X86061921Y-90496586D01*
X86056016Y-90505856D01*
X86034972Y-90535910D01*
X86032118Y-90546562D01*
X86030784Y-90549423D01*
X86029705Y-90552389D01*
X86024192Y-90561936D01*
X86022278Y-90572792D01*
X86022276Y-90572797D01*
X86017820Y-90598066D01*
X86015442Y-90608795D01*
X86009321Y-90631642D01*
X86005947Y-90644233D01*
X86006908Y-90655215D01*
X86009145Y-90680786D01*
X86009624Y-90691768D01*
X86009624Y-91313754D01*
X85989622Y-91381875D01*
X85963686Y-91411048D01*
X85913238Y-91452560D01*
X85908573Y-91458934D01*
X85908572Y-91458935D01*
X85880871Y-91496783D01*
X85880867Y-91496789D01*
X85878861Y-91499530D01*
X85577809Y-92020969D01*
X85554319Y-92074226D01*
X85554036Y-92075929D01*
X85524010Y-92126270D01*
X84388849Y-93261431D01*
X84380745Y-93268857D01*
X84352640Y-93292440D01*
X84347129Y-93301985D01*
X84347126Y-93301989D01*
X84334297Y-93324210D01*
X84328392Y-93333480D01*
X84307348Y-93363534D01*
X84304494Y-93374186D01*
X84303160Y-93377047D01*
X84302081Y-93380013D01*
X84296568Y-93389560D01*
X84294654Y-93400416D01*
X84294652Y-93400421D01*
X84290196Y-93425690D01*
X84287818Y-93436419D01*
X84281852Y-93458688D01*
X84278323Y-93471857D01*
X84279284Y-93482839D01*
X84281521Y-93508410D01*
X84282000Y-93519392D01*
X84282000Y-94716807D01*
X84281521Y-94727789D01*
X84278323Y-94764342D01*
X84281177Y-94774993D01*
X84287818Y-94799780D01*
X84290196Y-94810509D01*
X84294652Y-94835778D01*
X84294654Y-94835783D01*
X84296568Y-94846639D01*
X84302081Y-94856186D01*
X84303160Y-94859152D01*
X84304494Y-94862014D01*
X84306124Y-94868097D01*
X84306225Y-94868762D01*
X84306737Y-94870386D01*
X84307348Y-94872665D01*
X84307349Y-94872668D01*
X84306839Y-94872805D01*
X84316201Y-94934453D01*
X84311179Y-94956444D01*
X84298695Y-94994867D01*
X84234035Y-95193872D01*
X84222130Y-95250849D01*
X84227221Y-95365139D01*
X84210270Y-95434080D01*
X84190441Y-95459839D01*
X83588849Y-96061431D01*
X83580745Y-96068857D01*
X83563017Y-96083733D01*
X83552640Y-96092440D01*
X83547129Y-96101985D01*
X83547126Y-96101989D01*
X83534297Y-96124210D01*
X83528392Y-96133480D01*
X83507348Y-96163534D01*
X83504494Y-96174186D01*
X83503160Y-96177047D01*
X83502081Y-96180013D01*
X83496568Y-96189560D01*
X83494654Y-96200416D01*
X83494652Y-96200421D01*
X83490196Y-96225690D01*
X83487818Y-96236419D01*
X83481697Y-96259266D01*
X83478323Y-96271857D01*
X83480044Y-96291532D01*
X83481521Y-96308410D01*
X83482000Y-96319392D01*
X83482000Y-97831379D01*
X83481521Y-97842361D01*
X83478323Y-97878914D01*
X83481177Y-97889565D01*
X83487818Y-97914352D01*
X83490196Y-97925081D01*
X83494652Y-97950350D01*
X83494654Y-97950355D01*
X83496568Y-97961211D01*
X83502081Y-97970758D01*
X83503160Y-97973724D01*
X83504494Y-97976585D01*
X83507348Y-97987237D01*
X83513671Y-97996267D01*
X83528392Y-98017291D01*
X83534297Y-98026561D01*
X83547126Y-98048782D01*
X83547129Y-98048786D01*
X83552640Y-98058331D01*
X83575906Y-98077854D01*
X83615231Y-98136962D01*
X83620223Y-98187543D01*
X83580723Y-98563370D01*
X83579309Y-98576826D01*
X83578497Y-98576741D01*
X83556236Y-98640412D01*
X83542924Y-98656099D01*
X83188849Y-99010174D01*
X83180745Y-99017600D01*
X83168766Y-99027652D01*
X83152640Y-99041183D01*
X83147129Y-99050728D01*
X83147126Y-99050732D01*
X83134297Y-99072953D01*
X83128393Y-99082222D01*
X83107348Y-99112277D01*
X83104494Y-99122929D01*
X83103160Y-99125790D01*
X83102081Y-99128756D01*
X83096568Y-99138303D01*
X83094654Y-99149159D01*
X83094652Y-99149164D01*
X83090196Y-99174433D01*
X83087818Y-99185162D01*
X83083831Y-99200044D01*
X83078323Y-99220600D01*
X83079284Y-99231580D01*
X83079283Y-99231587D01*
X83081520Y-99257147D01*
X83082000Y-99268130D01*
X83082000Y-100731866D01*
X83081521Y-100742848D01*
X83078323Y-100779401D01*
X83081177Y-100790052D01*
X83087818Y-100814839D01*
X83090196Y-100825568D01*
X83094652Y-100850837D01*
X83094654Y-100850842D01*
X83096568Y-100861698D01*
X83102081Y-100871245D01*
X83103160Y-100874211D01*
X83104494Y-100877072D01*
X83107348Y-100887724D01*
X83113671Y-100896754D01*
X83128392Y-100917778D01*
X83134297Y-100927048D01*
X83147126Y-100949269D01*
X83147129Y-100949273D01*
X83152640Y-100958818D01*
X83161087Y-100965906D01*
X83180745Y-100982401D01*
X83188849Y-100989827D01*
X83542922Y-101343900D01*
X83576948Y-101406212D01*
X83579209Y-101423183D01*
X83579307Y-101423173D01*
X83615062Y-101763349D01*
X83620223Y-101812455D01*
X83607451Y-101882294D01*
X83575907Y-101922145D01*
X83552640Y-101941668D01*
X83547129Y-101951213D01*
X83547126Y-101951217D01*
X83534297Y-101973438D01*
X83528392Y-101982708D01*
X83507348Y-102012762D01*
X83504494Y-102023414D01*
X83503160Y-102026275D01*
X83502081Y-102029241D01*
X83496568Y-102038788D01*
X83494654Y-102049644D01*
X83494652Y-102049649D01*
X83490196Y-102074918D01*
X83487818Y-102085647D01*
X83484067Y-102099647D01*
X83478323Y-102121085D01*
X83479284Y-102132067D01*
X83481521Y-102157638D01*
X83482000Y-102168620D01*
X83482000Y-103674019D01*
X83481521Y-103685001D01*
X83478323Y-103721554D01*
X83481177Y-103732205D01*
X83487818Y-103756992D01*
X83490196Y-103767721D01*
X83494652Y-103792990D01*
X83494654Y-103792995D01*
X83496568Y-103803851D01*
X83502081Y-103813398D01*
X83503160Y-103816364D01*
X83504494Y-103819225D01*
X83507348Y-103829877D01*
X83513671Y-103838907D01*
X83528392Y-103859931D01*
X83534297Y-103869201D01*
X83547126Y-103891422D01*
X83547129Y-103891426D01*
X83552640Y-103900971D01*
X83561087Y-103908059D01*
X83580745Y-103924554D01*
X83588849Y-103931980D01*
X84190721Y-104533852D01*
X84224747Y-104596164D01*
X84227501Y-104628553D01*
X84225259Y-104678899D01*
X84222130Y-104749151D01*
X84223746Y-104756885D01*
X84223746Y-104756888D01*
X84231169Y-104792418D01*
X84234033Y-104806127D01*
X84368641Y-105220404D01*
X84375833Y-105242539D01*
X84382000Y-105281475D01*
X84382000Y-105725746D01*
X84361998Y-105793867D01*
X84350442Y-105809153D01*
X84316219Y-105847903D01*
X84312404Y-105856029D01*
X84265168Y-105956640D01*
X84260890Y-105965751D01*
X84259509Y-105974620D01*
X84243194Y-106079401D01*
X84240860Y-106094390D01*
X84242024Y-106103292D01*
X84242024Y-106103295D01*
X84256105Y-106210974D01*
X84257741Y-106223481D01*
X84310174Y-106342645D01*
X84315949Y-106349515D01*
X84315952Y-106349520D01*
X84352450Y-106392939D01*
X84380972Y-106457955D01*
X84382000Y-106474015D01*
X84382000Y-106580608D01*
X84381521Y-106591590D01*
X84378323Y-106628143D01*
X84381177Y-106638794D01*
X84387818Y-106663581D01*
X84390196Y-106674310D01*
X84394652Y-106699579D01*
X84394654Y-106699584D01*
X84396568Y-106710440D01*
X84402081Y-106719987D01*
X84403160Y-106722953D01*
X84404494Y-106725814D01*
X84407348Y-106736466D01*
X84417394Y-106750813D01*
X84428392Y-106766520D01*
X84434297Y-106775790D01*
X84447126Y-106798011D01*
X84447129Y-106798015D01*
X84452640Y-106807560D01*
X84461087Y-106814648D01*
X84480745Y-106831143D01*
X84488849Y-106838569D01*
X85524010Y-107873730D01*
X85554036Y-107924073D01*
X85554319Y-107925774D01*
X85577808Y-107979030D01*
X85677272Y-108151307D01*
X85877155Y-108497514D01*
X85877159Y-108497521D01*
X85878861Y-108500468D01*
X85913238Y-108547440D01*
X85919336Y-108552458D01*
X85919337Y-108552459D01*
X85932666Y-108563427D01*
X85960386Y-108586236D01*
X85963685Y-108588951D01*
X86003577Y-108647680D01*
X86009624Y-108686246D01*
X86009624Y-109408232D01*
X86009145Y-109419214D01*
X86005947Y-109455767D01*
X86008801Y-109466418D01*
X86015442Y-109491205D01*
X86017820Y-109501934D01*
X86022276Y-109527203D01*
X86022278Y-109527208D01*
X86024192Y-109538064D01*
X86029705Y-109547611D01*
X86030784Y-109550577D01*
X86032118Y-109553438D01*
X86034972Y-109564090D01*
X86041295Y-109573120D01*
X86056016Y-109594144D01*
X86061921Y-109603414D01*
X86074750Y-109625635D01*
X86074753Y-109625639D01*
X86080264Y-109635184D01*
X86088711Y-109642272D01*
X86108369Y-109658767D01*
X86116473Y-109666193D01*
X87225330Y-110775050D01*
X87232756Y-110783154D01*
X87256339Y-110811259D01*
X87265884Y-110816770D01*
X87265888Y-110816773D01*
X87288109Y-110829602D01*
X87297379Y-110835507D01*
X87327433Y-110856551D01*
X87338085Y-110859405D01*
X87340946Y-110860739D01*
X87343912Y-110861818D01*
X87353459Y-110867331D01*
X87364315Y-110869245D01*
X87364320Y-110869247D01*
X87389589Y-110873703D01*
X87400318Y-110876081D01*
X87425111Y-110882724D01*
X87425113Y-110882724D01*
X87435756Y-110885576D01*
X87446731Y-110884616D01*
X87446732Y-110884616D01*
X87461567Y-110883318D01*
X87472315Y-110882378D01*
X87483293Y-110881899D01*
X87566653Y-110881899D01*
X87634774Y-110901901D01*
X87660289Y-110923588D01*
X87680820Y-110946390D01*
X87871991Y-111158705D01*
X87917237Y-111208956D01*
X87947954Y-111272964D01*
X87949601Y-111293267D01*
X87949601Y-111548209D01*
X87949122Y-111559191D01*
X87945924Y-111595744D01*
X87948778Y-111606395D01*
X87955419Y-111631182D01*
X87957797Y-111641911D01*
X87962253Y-111667180D01*
X87962255Y-111667185D01*
X87964169Y-111678041D01*
X87969682Y-111687588D01*
X87970761Y-111690554D01*
X87972095Y-111693415D01*
X87974949Y-111704067D01*
X87981272Y-111713097D01*
X87995993Y-111734121D01*
X88001898Y-111743391D01*
X88014727Y-111765612D01*
X88014730Y-111765616D01*
X88020241Y-111775161D01*
X88028688Y-111782249D01*
X88048346Y-111798744D01*
X88056450Y-111806170D01*
X89233787Y-112983507D01*
X89241213Y-112991611D01*
X89264796Y-113019716D01*
X89274341Y-113025227D01*
X89274345Y-113025230D01*
X89296566Y-113038059D01*
X89305836Y-113043964D01*
X89312748Y-113048804D01*
X89335890Y-113065008D01*
X89346542Y-113067862D01*
X89349403Y-113069196D01*
X89352369Y-113070275D01*
X89361916Y-113075788D01*
X89372772Y-113077702D01*
X89372777Y-113077704D01*
X89398046Y-113082160D01*
X89408775Y-113084538D01*
X89430490Y-113090356D01*
X89444213Y-113094033D01*
X89480766Y-113090835D01*
X89491748Y-113090356D01*
X89949858Y-113090356D01*
X90017979Y-113110358D01*
X90034494Y-113123014D01*
X90056245Y-113142736D01*
X90070036Y-113155241D01*
X90347626Y-113356922D01*
X90376873Y-113378171D01*
X90416635Y-113430934D01*
X90416906Y-113430778D01*
X90418092Y-113432832D01*
X90418152Y-113432948D01*
X90418185Y-113432992D01*
X90422420Y-113440327D01*
X90423500Y-113443293D01*
X90424834Y-113446154D01*
X90427688Y-113456806D01*
X90434011Y-113465836D01*
X90448732Y-113486860D01*
X90454637Y-113496130D01*
X90467466Y-113518351D01*
X90467469Y-113518355D01*
X90472980Y-113527900D01*
X90481427Y-113534988D01*
X90501085Y-113551483D01*
X90509189Y-113558909D01*
X91235131Y-114284851D01*
X91269157Y-114347163D01*
X91264092Y-114417978D01*
X91221545Y-114474814D01*
X91212172Y-114480322D01*
X91212505Y-114480850D01*
X91102400Y-114550321D01*
X91016219Y-114647903D01*
X91012404Y-114656028D01*
X91012403Y-114656030D01*
X90979539Y-114726030D01*
X90960890Y-114765751D01*
X90959509Y-114774620D01*
X90945074Y-114867328D01*
X90940860Y-114894390D01*
X90942024Y-114903292D01*
X90942024Y-114903295D01*
X90956577Y-115014582D01*
X90957741Y-115023481D01*
X91010174Y-115142645D01*
X91093946Y-115242303D01*
X91101414Y-115247274D01*
X91101415Y-115247275D01*
X91194850Y-115309472D01*
X91194853Y-115309473D01*
X91202320Y-115314444D01*
X91272544Y-115336383D01*
X91282428Y-115339471D01*
X91333949Y-115370643D01*
X91693522Y-115730216D01*
X91708664Y-115748964D01*
X91709779Y-115750189D01*
X91715429Y-115758940D01*
X91723607Y-115765387D01*
X91723609Y-115765389D01*
X91741800Y-115779729D01*
X91746244Y-115783678D01*
X91746306Y-115783604D01*
X91750263Y-115786957D01*
X91753944Y-115790638D01*
X91769654Y-115801865D01*
X91774380Y-115805413D01*
X91814647Y-115837156D01*
X91823284Y-115840189D01*
X91830734Y-115845513D01*
X91840710Y-115848497D01*
X91840711Y-115848497D01*
X91856046Y-115853083D01*
X91879849Y-115860202D01*
X91885486Y-115862034D01*
X91917622Y-115873319D01*
X91933851Y-115879018D01*
X91939416Y-115879500D01*
X91942124Y-115879500D01*
X91944758Y-115879614D01*
X91944856Y-115879643D01*
X91944849Y-115879807D01*
X91945553Y-115879851D01*
X91951778Y-115881713D01*
X92005635Y-115879597D01*
X92010582Y-115879500D01*
X93211723Y-115879500D01*
X93281542Y-115900613D01*
X93302320Y-115914444D01*
X93426587Y-115953267D01*
X93435560Y-115953431D01*
X93435563Y-115953432D01*
X93492790Y-115954481D01*
X93556755Y-115955653D01*
X93643359Y-115932042D01*
X93673701Y-115923770D01*
X93673703Y-115923769D01*
X93682360Y-115921409D01*
X93780663Y-115861051D01*
X93785658Y-115857984D01*
X93785659Y-115857984D01*
X93793306Y-115853288D01*
X93803102Y-115842466D01*
X93874644Y-115763427D01*
X93874645Y-115763426D01*
X93880672Y-115756767D01*
X93914629Y-115686681D01*
X93933523Y-115647683D01*
X93933523Y-115647682D01*
X93936614Y-115641304D01*
X93936616Y-115641300D01*
X93937437Y-115639604D01*
X93937682Y-115639723D01*
X93974381Y-115585441D01*
X94039631Y-115557461D01*
X94109650Y-115569199D01*
X94143747Y-115593467D01*
X94561431Y-116011151D01*
X94568857Y-116019255D01*
X94592440Y-116047360D01*
X94601985Y-116052871D01*
X94601989Y-116052874D01*
X94624210Y-116065703D01*
X94633480Y-116071608D01*
X94663534Y-116092652D01*
X94674186Y-116095506D01*
X94677047Y-116096840D01*
X94680013Y-116097919D01*
X94689560Y-116103432D01*
X94700416Y-116105346D01*
X94700421Y-116105348D01*
X94725690Y-116109804D01*
X94736419Y-116112182D01*
X94761212Y-116118825D01*
X94761214Y-116118825D01*
X94771857Y-116121677D01*
X94782832Y-116120717D01*
X94782833Y-116120717D01*
X94797668Y-116119419D01*
X94808416Y-116118479D01*
X94819394Y-116118000D01*
X96340708Y-116118000D01*
X96351690Y-116118479D01*
X96388243Y-116121677D01*
X96401966Y-116118000D01*
X96423681Y-116112182D01*
X96434408Y-116109804D01*
X96461796Y-116104974D01*
X96509873Y-116105812D01*
X96750417Y-116156940D01*
X96864876Y-116181269D01*
X96864880Y-116181270D01*
X96868194Y-116181974D01*
X96926103Y-116187858D01*
X96933917Y-116186683D01*
X96933923Y-116186683D01*
X96938975Y-116185924D01*
X97009312Y-116195578D01*
X97046798Y-116221428D01*
X97436521Y-116611150D01*
X97443947Y-116619255D01*
X97467530Y-116647360D01*
X97477081Y-116652874D01*
X97499303Y-116665704D01*
X97508571Y-116671609D01*
X97529591Y-116686327D01*
X97529595Y-116686329D01*
X97538624Y-116692651D01*
X97549269Y-116695504D01*
X97552141Y-116696843D01*
X97555107Y-116697923D01*
X97564650Y-116703432D01*
X97575499Y-116705345D01*
X97575507Y-116705348D01*
X97600784Y-116709805D01*
X97611512Y-116712183D01*
X97636295Y-116718823D01*
X97636296Y-116718823D01*
X97646947Y-116721677D01*
X97683500Y-116718479D01*
X97694482Y-116718000D01*
X99368108Y-116718000D01*
X99379090Y-116718479D01*
X99415643Y-116721677D01*
X99429366Y-116718000D01*
X99451081Y-116712182D01*
X99461810Y-116709804D01*
X99487079Y-116705348D01*
X99487084Y-116705346D01*
X99497940Y-116703432D01*
X99507487Y-116697919D01*
X99510453Y-116696840D01*
X99513314Y-116695506D01*
X99523966Y-116692652D01*
X99541091Y-116680661D01*
X99554020Y-116671608D01*
X99563290Y-116665703D01*
X99585511Y-116652874D01*
X99585515Y-116652871D01*
X99595060Y-116647360D01*
X99618643Y-116619255D01*
X99626069Y-116611151D01*
X99720815Y-116516405D01*
X99783127Y-116482379D01*
X99809910Y-116479500D01*
X100000000Y-116479500D01*
X100190089Y-116479499D01*
X100258209Y-116499501D01*
X100279184Y-116516404D01*
X100373931Y-116611151D01*
X100381357Y-116619255D01*
X100404940Y-116647360D01*
X100414485Y-116652871D01*
X100414489Y-116652874D01*
X100436710Y-116665703D01*
X100445980Y-116671608D01*
X100458909Y-116680661D01*
X100476034Y-116692652D01*
X100486686Y-116695506D01*
X100489547Y-116696840D01*
X100492513Y-116697919D01*
X100502060Y-116703432D01*
X100512916Y-116705346D01*
X100512921Y-116705348D01*
X100538190Y-116709804D01*
X100548919Y-116712182D01*
X100573712Y-116718825D01*
X100573714Y-116718825D01*
X100584357Y-116721677D01*
X100595332Y-116720717D01*
X100595333Y-116720717D01*
X100610168Y-116719419D01*
X100620916Y-116718479D01*
X100631894Y-116718000D01*
X102305518Y-116718000D01*
X102316500Y-116718479D01*
X102353053Y-116721677D01*
X102366776Y-116718000D01*
X102388491Y-116712182D01*
X102399220Y-116709804D01*
X102424489Y-116705348D01*
X102424494Y-116705346D01*
X102435350Y-116703432D01*
X102444897Y-116697919D01*
X102447863Y-116696840D01*
X102450724Y-116695506D01*
X102461376Y-116692652D01*
X102478501Y-116680661D01*
X102491430Y-116671608D01*
X102500700Y-116665703D01*
X102522921Y-116652874D01*
X102522925Y-116652871D01*
X102532470Y-116647360D01*
X102556053Y-116619255D01*
X102563479Y-116611151D01*
X102953202Y-116221428D01*
X103015514Y-116187402D01*
X103061034Y-116185924D01*
X103063015Y-116186222D01*
X103066086Y-116186684D01*
X103066089Y-116186684D01*
X103073897Y-116187858D01*
X103081754Y-116187060D01*
X103081758Y-116187060D01*
X103112253Y-116183962D01*
X103131806Y-116181976D01*
X103687436Y-116063872D01*
X103713632Y-116061119D01*
X105537489Y-116061119D01*
X105548471Y-116061598D01*
X105585024Y-116064796D01*
X105598747Y-116061119D01*
X105620462Y-116055301D01*
X105631191Y-116052923D01*
X105656460Y-116048467D01*
X105656465Y-116048465D01*
X105667321Y-116046551D01*
X105676868Y-116041038D01*
X105679834Y-116039959D01*
X105682695Y-116038625D01*
X105693347Y-116035771D01*
X105716934Y-116019255D01*
X105723401Y-116014727D01*
X105732671Y-116008822D01*
X105754892Y-115995993D01*
X105754896Y-115995990D01*
X105764441Y-115990479D01*
X105788024Y-115962374D01*
X105795450Y-115954270D01*
X106632506Y-115117214D01*
X106640610Y-115109788D01*
X106660269Y-115093292D01*
X106668715Y-115086205D01*
X106671347Y-115081646D01*
X106713068Y-115050207D01*
X106848924Y-114989720D01*
X106977841Y-114932322D01*
X107028149Y-114903043D01*
X107037964Y-114893381D01*
X107118356Y-114814242D01*
X107118358Y-114814239D01*
X107124754Y-114807943D01*
X107129125Y-114800105D01*
X107134568Y-114792961D01*
X107136926Y-114794758D01*
X107176920Y-114755474D01*
X107236313Y-114740598D01*
X108158010Y-114740598D01*
X108168992Y-114741077D01*
X108205545Y-114744275D01*
X108219268Y-114740598D01*
X108240983Y-114734780D01*
X108251712Y-114732402D01*
X108276981Y-114727946D01*
X108276986Y-114727944D01*
X108287842Y-114726030D01*
X108297389Y-114720517D01*
X108300355Y-114719438D01*
X108303216Y-114718104D01*
X108313868Y-114715250D01*
X108343922Y-114694206D01*
X108353192Y-114688301D01*
X108375413Y-114675472D01*
X108375417Y-114675469D01*
X108384962Y-114669958D01*
X108408545Y-114641853D01*
X108415971Y-114633749D01*
X109490811Y-113558909D01*
X109498915Y-113551483D01*
X109518573Y-113534988D01*
X109527020Y-113527900D01*
X109532531Y-113518355D01*
X109532534Y-113518351D01*
X109545363Y-113496130D01*
X109551268Y-113486860D01*
X109565989Y-113465836D01*
X109572312Y-113456806D01*
X109575166Y-113446154D01*
X109576500Y-113443293D01*
X109577580Y-113440327D01*
X109581815Y-113432992D01*
X109581848Y-113432948D01*
X109581908Y-113432832D01*
X109583094Y-113430778D01*
X109583365Y-113430934D01*
X109623127Y-113378171D01*
X109927202Y-113157247D01*
X109927203Y-113157246D01*
X109929963Y-113155241D01*
X109965507Y-113123013D01*
X110029408Y-113092074D01*
X110050142Y-113090356D01*
X110508252Y-113090356D01*
X110519234Y-113090835D01*
X110555787Y-113094033D01*
X110569510Y-113090356D01*
X110591225Y-113084538D01*
X110601954Y-113082160D01*
X110627223Y-113077704D01*
X110627228Y-113077702D01*
X110638084Y-113075788D01*
X110647631Y-113070275D01*
X110650597Y-113069196D01*
X110653458Y-113067862D01*
X110664110Y-113065008D01*
X110687252Y-113048804D01*
X110694164Y-113043964D01*
X110703434Y-113038059D01*
X110725655Y-113025230D01*
X110725659Y-113025227D01*
X110735204Y-113019716D01*
X110758787Y-112991611D01*
X110766213Y-112983507D01*
X111943550Y-111806170D01*
X111951654Y-111798744D01*
X111971312Y-111782249D01*
X111979759Y-111775161D01*
X111985270Y-111765616D01*
X111985273Y-111765612D01*
X111998102Y-111743391D01*
X112004007Y-111734121D01*
X112018728Y-111713097D01*
X112025051Y-111704067D01*
X112027905Y-111693415D01*
X112029239Y-111690554D01*
X112030318Y-111687588D01*
X112035831Y-111678041D01*
X112037745Y-111667185D01*
X112037747Y-111667180D01*
X112042203Y-111641911D01*
X112044581Y-111631182D01*
X112051222Y-111606395D01*
X112054076Y-111595744D01*
X112050878Y-111559191D01*
X112050399Y-111548209D01*
X112050399Y-111293267D01*
X112070401Y-111225146D01*
X112082763Y-111208957D01*
X112128010Y-111158705D01*
X112338495Y-110924937D01*
X112398940Y-110887698D01*
X112443113Y-110883728D01*
X112453257Y-110884616D01*
X112453264Y-110884615D01*
X112464244Y-110885576D01*
X112477967Y-110881899D01*
X112499682Y-110876081D01*
X112510411Y-110873703D01*
X112535680Y-110869247D01*
X112535685Y-110869245D01*
X112546541Y-110867331D01*
X112556088Y-110861818D01*
X112559054Y-110860739D01*
X112561915Y-110859405D01*
X112572567Y-110856551D01*
X112602621Y-110835507D01*
X112611891Y-110829602D01*
X112634112Y-110816773D01*
X112634116Y-110816770D01*
X112643661Y-110811259D01*
X112667244Y-110783154D01*
X112674670Y-110775050D01*
X113565944Y-109883776D01*
X113628256Y-109849750D01*
X113699071Y-109854815D01*
X113751490Y-109891796D01*
X113788169Y-109935432D01*
X113788174Y-109935437D01*
X113793946Y-109942303D01*
X113801414Y-109947274D01*
X113801415Y-109947275D01*
X113894850Y-110009472D01*
X113894853Y-110009473D01*
X113902320Y-110014444D01*
X113910887Y-110017120D01*
X113910888Y-110017121D01*
X113932171Y-110023770D01*
X114026587Y-110053267D01*
X114035560Y-110053431D01*
X114035563Y-110053432D01*
X114092790Y-110054481D01*
X114156755Y-110055653D01*
X114216135Y-110039464D01*
X114273701Y-110023770D01*
X114273703Y-110023769D01*
X114282360Y-110021409D01*
X114383266Y-109959453D01*
X114449194Y-109940828D01*
X114964278Y-109940828D01*
X114975260Y-109941307D01*
X115011813Y-109944505D01*
X115025536Y-109940828D01*
X115047251Y-109935010D01*
X115057980Y-109932632D01*
X115083249Y-109928176D01*
X115083254Y-109928174D01*
X115094110Y-109926260D01*
X115103657Y-109920747D01*
X115106623Y-109919668D01*
X115109484Y-109918334D01*
X115120136Y-109915480D01*
X115137432Y-109903369D01*
X115150190Y-109894436D01*
X115159460Y-109888531D01*
X115181681Y-109875702D01*
X115181685Y-109875699D01*
X115191230Y-109870188D01*
X115214813Y-109842083D01*
X115222239Y-109833979D01*
X116279615Y-108776603D01*
X116341927Y-108742577D01*
X116412742Y-108747642D01*
X116469578Y-108790189D01*
X116494389Y-108856709D01*
X116479972Y-108924831D01*
X116354823Y-109160307D01*
X116352088Y-109165188D01*
X115932023Y-109877352D01*
X115929101Y-109882065D01*
X115477801Y-110574930D01*
X115474670Y-110579511D01*
X115052807Y-111168266D01*
X114993080Y-111251621D01*
X114989721Y-111256095D01*
X114478780Y-111906148D01*
X114475226Y-111910469D01*
X114153427Y-112284438D01*
X114093833Y-112323027D01*
X114022837Y-112323272D01*
X113997327Y-112312729D01*
X113948360Y-112285872D01*
X113948359Y-112285872D01*
X113943623Y-112283274D01*
X113739475Y-112213335D01*
X113734135Y-112212482D01*
X113734132Y-112212481D01*
X113531722Y-112180139D01*
X113531719Y-112180139D01*
X113526382Y-112179286D01*
X113520974Y-112179357D01*
X113520972Y-112179357D01*
X113395512Y-112181008D01*
X113310604Y-112182125D01*
X113305293Y-112183118D01*
X113305289Y-112183118D01*
X113139968Y-112214017D01*
X113098481Y-112221771D01*
X113093412Y-112223658D01*
X112901315Y-112295170D01*
X112901313Y-112295171D01*
X112896244Y-112297058D01*
X112891574Y-112299781D01*
X112891571Y-112299783D01*
X112747796Y-112383635D01*
X112709834Y-112405775D01*
X112705701Y-112409253D01*
X112705700Y-112409254D01*
X112593931Y-112503319D01*
X112544728Y-112544728D01*
X112541253Y-112548857D01*
X112538095Y-112552610D01*
X112405775Y-112709834D01*
X112398229Y-112722772D01*
X112301234Y-112889084D01*
X112297058Y-112896244D01*
X112295171Y-112901313D01*
X112295170Y-112901315D01*
X112253215Y-113014016D01*
X112221771Y-113098481D01*
X112220777Y-113103798D01*
X112220777Y-113103799D01*
X112184245Y-113299262D01*
X112182125Y-113310604D01*
X112181544Y-113354744D01*
X112179387Y-113518739D01*
X112179286Y-113526382D01*
X112180139Y-113531719D01*
X112180139Y-113531722D01*
X112211334Y-113726950D01*
X112213335Y-113739475D01*
X112283274Y-113943623D01*
X112285872Y-113948359D01*
X112285872Y-113948360D01*
X112312729Y-113997327D01*
X112327950Y-114066673D01*
X112303263Y-114133239D01*
X112284438Y-114153427D01*
X112189576Y-114235056D01*
X111910452Y-114475240D01*
X111906167Y-114478765D01*
X111655904Y-114675472D01*
X111256097Y-114989720D01*
X111251624Y-114993079D01*
X110579521Y-115474663D01*
X110574932Y-115477799D01*
X109882090Y-115929085D01*
X109877356Y-115932021D01*
X109386704Y-116221428D01*
X109165192Y-116352085D01*
X109160311Y-116354820D01*
X108430206Y-116742851D01*
X108425208Y-116745367D01*
X107678588Y-117100606D01*
X107673484Y-117102897D01*
X106911809Y-117424649D01*
X106906635Y-117426699D01*
X106518953Y-117570538D01*
X106131468Y-117714303D01*
X106126181Y-117716133D01*
X105543480Y-117903347D01*
X105338958Y-117969057D01*
X105333599Y-117970647D01*
X104535955Y-118188363D01*
X104530562Y-118189708D01*
X103724013Y-118371804D01*
X103718570Y-118372907D01*
X103311642Y-118445964D01*
X102904734Y-118519016D01*
X102899206Y-118519882D01*
X102079724Y-118629713D01*
X102074167Y-118630333D01*
X101250603Y-118703675D01*
X101245044Y-118704046D01*
X100454096Y-118739196D01*
X100419013Y-118740755D01*
X100413419Y-118740879D01*
X99586614Y-118740879D01*
X99581020Y-118740755D01*
X99545034Y-118739156D01*
X98754979Y-118704048D01*
X98749439Y-118703678D01*
X97925871Y-118630336D01*
X97920310Y-118629716D01*
X97100826Y-118519887D01*
X97095298Y-118519021D01*
X96281504Y-118372920D01*
X96276020Y-118371810D01*
X95671951Y-118235430D01*
X95469460Y-118189713D01*
X95464044Y-118188363D01*
X94666428Y-117970656D01*
X94661067Y-117969064D01*
X93873857Y-117716146D01*
X93868569Y-117714316D01*
X93463133Y-117563891D01*
X93093379Y-117426705D01*
X93088213Y-117424657D01*
X92326537Y-117102906D01*
X92321467Y-117100631D01*
X91574821Y-116745382D01*
X91569823Y-116742866D01*
X90839735Y-116354845D01*
X90834854Y-116352111D01*
X90158702Y-115953291D01*
X90122664Y-115932034D01*
X90117922Y-115929093D01*
X90099545Y-115917123D01*
X89425093Y-115477817D01*
X89420507Y-115474682D01*
X88748387Y-114993088D01*
X88743914Y-114989729D01*
X88733426Y-114981485D01*
X88596469Y-114873837D01*
X88093877Y-114478800D01*
X88089556Y-114475246D01*
X87715562Y-114153427D01*
X87676973Y-114093833D01*
X87676728Y-114022837D01*
X87687271Y-113997327D01*
X87714128Y-113948360D01*
X87714128Y-113948359D01*
X87716726Y-113943623D01*
X87786665Y-113739475D01*
X87788667Y-113726950D01*
X87819861Y-113531722D01*
X87819861Y-113531719D01*
X87820714Y-113526382D01*
X87820614Y-113518739D01*
X87818456Y-113354744D01*
X87817875Y-113310604D01*
X87815756Y-113299262D01*
X87779223Y-113103799D01*
X87779223Y-113103798D01*
X87778229Y-113098481D01*
X87746785Y-113014016D01*
X87704830Y-112901315D01*
X87704829Y-112901313D01*
X87702942Y-112896244D01*
X87698767Y-112889084D01*
X87601771Y-112722772D01*
X87594225Y-112709834D01*
X87461906Y-112552610D01*
X87458747Y-112548857D01*
X87455272Y-112544728D01*
X87406069Y-112503319D01*
X87294300Y-112409254D01*
X87294299Y-112409253D01*
X87290166Y-112405775D01*
X87252204Y-112383635D01*
X87108429Y-112299783D01*
X87108426Y-112299781D01*
X87103756Y-112297058D01*
X87098687Y-112295171D01*
X87098685Y-112295170D01*
X86906588Y-112223658D01*
X86901519Y-112221771D01*
X86860032Y-112214017D01*
X86694711Y-112183118D01*
X86694707Y-112183118D01*
X86689396Y-112182125D01*
X86604488Y-112181008D01*
X86479028Y-112179357D01*
X86479026Y-112179357D01*
X86473618Y-112179286D01*
X86468281Y-112180139D01*
X86468278Y-112180139D01*
X86265868Y-112212481D01*
X86265865Y-112212482D01*
X86260525Y-112213335D01*
X86056377Y-112283274D01*
X86051641Y-112285872D01*
X86051640Y-112285872D01*
X86002673Y-112312729D01*
X85933327Y-112327950D01*
X85866761Y-112303263D01*
X85846573Y-112284438D01*
X85524755Y-111910445D01*
X85521201Y-111906124D01*
X85010273Y-111256087D01*
X85006914Y-111251612D01*
X84525332Y-110579511D01*
X84522185Y-110574908D01*
X84070909Y-109882079D01*
X84067961Y-109877326D01*
X83970506Y-109712102D01*
X83900929Y-109594144D01*
X83647892Y-109165150D01*
X83645158Y-109160269D01*
X83257138Y-108430182D01*
X83254622Y-108425184D01*
X83131987Y-108167437D01*
X82899372Y-107678539D01*
X82897089Y-107673452D01*
X82883968Y-107642389D01*
X82575347Y-106911794D01*
X82573290Y-106906605D01*
X82572843Y-106905398D01*
X82416549Y-106484144D01*
X82285688Y-106131439D01*
X82283858Y-106126151D01*
X82030940Y-105338942D01*
X82029348Y-105333579D01*
X81997513Y-105216947D01*
X81811640Y-104535967D01*
X81810288Y-104530544D01*
X81809663Y-104527773D01*
X81742817Y-104231696D01*
X81628193Y-103723991D01*
X81627083Y-103718507D01*
X81480982Y-102904714D01*
X81480116Y-102899186D01*
X81393755Y-102254814D01*
X81370285Y-102079698D01*
X81369666Y-102074146D01*
X81368615Y-102062346D01*
X81296325Y-101250585D01*
X81295953Y-101245014D01*
X81294877Y-101220789D01*
X81259246Y-100418996D01*
X81259122Y-100413402D01*
X81259122Y-99586598D01*
X81259246Y-99581004D01*
X81263610Y-99482798D01*
X81295954Y-98754973D01*
X81296326Y-98749403D01*
X81296327Y-98749400D01*
X81369667Y-97925847D01*
X81370286Y-97920294D01*
X81370371Y-97919664D01*
X81405917Y-97654440D01*
X81480116Y-97100814D01*
X81480982Y-97095286D01*
X81627083Y-96281493D01*
X81628193Y-96276009D01*
X81773760Y-95631248D01*
X81810290Y-95469449D01*
X81811642Y-95464027D01*
X81812198Y-95461992D01*
X82029349Y-94666416D01*
X82030940Y-94661058D01*
X82283858Y-93873849D01*
X82285688Y-93868561D01*
X82467971Y-93377258D01*
X82573296Y-93093379D01*
X82575352Y-93088194D01*
X82575359Y-93088178D01*
X82897097Y-92326531D01*
X82899380Y-92321443D01*
X82899389Y-92321426D01*
X83254622Y-91574816D01*
X83257138Y-91569818D01*
X83645158Y-90839731D01*
X83647892Y-90834850D01*
X83970315Y-90288221D01*
X84067964Y-90122669D01*
X84070910Y-90117919D01*
X84114578Y-90050877D01*
X84522185Y-89425092D01*
X84525332Y-89420489D01*
X85006914Y-88748388D01*
X85010273Y-88743913D01*
X85521201Y-88093876D01*
X85524755Y-88089555D01*
X85846573Y-87715562D01*
X85906166Y-87676973D01*
X85977163Y-87676728D01*
X86002673Y-87687271D01*
X86034688Y-87704830D01*
X86056377Y-87716726D01*
X86260525Y-87786665D01*
X86265865Y-87787518D01*
X86265868Y-87787519D01*
X86468278Y-87819861D01*
X86468281Y-87819861D01*
X86473618Y-87820714D01*
X86479026Y-87820643D01*
X86479028Y-87820643D01*
X86604488Y-87818992D01*
X86689396Y-87817875D01*
X86694707Y-87816882D01*
X86694711Y-87816882D01*
X86896201Y-87779223D01*
X86896202Y-87779223D01*
X86901519Y-87778229D01*
X86918528Y-87771897D01*
X87098685Y-87704830D01*
X87098687Y-87704829D01*
X87103756Y-87702942D01*
X87108426Y-87700219D01*
X87108429Y-87700217D01*
X87285497Y-87596948D01*
X87290166Y-87594225D01*
X87336646Y-87555108D01*
X87451143Y-87458747D01*
X87455272Y-87455272D01*
X87594225Y-87290166D01*
X87631507Y-87226241D01*
X87700217Y-87108429D01*
X87700219Y-87108426D01*
X87702942Y-87103756D01*
X87709734Y-87085513D01*
X87776342Y-86906588D01*
X87778229Y-86901519D01*
X87781530Y-86883857D01*
X87816882Y-86694711D01*
X87816882Y-86694707D01*
X87817875Y-86689396D01*
X87819540Y-86562837D01*
X87820643Y-86479028D01*
X87820643Y-86479026D01*
X87820714Y-86473618D01*
X87819198Y-86464130D01*
X87787519Y-86265868D01*
X87787518Y-86265865D01*
X87786665Y-86260525D01*
X87716726Y-86056377D01*
X87687271Y-86002673D01*
X87672050Y-85933327D01*
X87696737Y-85866761D01*
X87715562Y-85846573D01*
X88089543Y-85524765D01*
X88093864Y-85521210D01*
X88633628Y-85096957D01*
X88743930Y-85010260D01*
X88748404Y-85006903D01*
X89420491Y-84525331D01*
X89425094Y-84522184D01*
X90117925Y-84070907D01*
X90122678Y-84067959D01*
X90834854Y-83647889D01*
X90839735Y-83645155D01*
X91569823Y-83257135D01*
X91574821Y-83254619D01*
X91694957Y-83197459D01*
X92321467Y-82899369D01*
X92326537Y-82897094D01*
X93088213Y-82575344D01*
X93093389Y-82573292D01*
X93481086Y-82429449D01*
X93868570Y-82285685D01*
X93873858Y-82283855D01*
X94661068Y-82030937D01*
X94666431Y-82029345D01*
X95464031Y-81811642D01*
X95464044Y-81811638D01*
X95469460Y-81810288D01*
X95671951Y-81764571D01*
X96276020Y-81628191D01*
X96281504Y-81627081D01*
X97095298Y-81480980D01*
X97100826Y-81480114D01*
X97920310Y-81370285D01*
X97925870Y-81369665D01*
X97946626Y-81367817D01*
X98749439Y-81296323D01*
X98754979Y-81295953D01*
X99581019Y-81259246D01*
X99586614Y-81259122D01*
X100413419Y-81259122D01*
X100419014Y-81259246D01*
G37*
G04 #@! TD.AperFunction*
G04 #@! TA.AperFunction,Conductor*
G36*
X97496067Y-106540494D02*
G01*
X97522675Y-106572720D01*
X97529335Y-106584255D01*
X97537782Y-106591343D01*
X97557440Y-106607838D01*
X97565544Y-106615264D01*
X100768473Y-109818191D01*
X100775899Y-109826295D01*
X100799482Y-109854400D01*
X100809027Y-109859911D01*
X100809031Y-109859914D01*
X100831252Y-109872743D01*
X100840522Y-109878648D01*
X100842499Y-109880032D01*
X100870576Y-109899692D01*
X100881228Y-109902546D01*
X100884089Y-109903880D01*
X100887055Y-109904959D01*
X100896602Y-109910472D01*
X100907458Y-109912386D01*
X100907463Y-109912388D01*
X100932732Y-109916844D01*
X100943461Y-109919222D01*
X100965176Y-109925040D01*
X100978899Y-109928717D01*
X101015452Y-109925519D01*
X101026434Y-109925040D01*
X105657185Y-109925040D01*
X105725306Y-109945042D01*
X105771799Y-109998698D01*
X105781903Y-110068972D01*
X105752409Y-110133552D01*
X105750386Y-110135754D01*
X105742626Y-110141450D01*
X105736681Y-110149999D01*
X105736679Y-110150001D01*
X105717482Y-110177606D01*
X105712804Y-110183905D01*
X105708424Y-110189435D01*
X105685463Y-110218420D01*
X105682324Y-110227293D01*
X105682222Y-110227456D01*
X105680694Y-110230436D01*
X105680620Y-110230614D01*
X105675246Y-110238343D01*
X105663164Y-110280716D01*
X105660789Y-110288156D01*
X105646096Y-110329680D01*
X105646000Y-110339092D01*
X105645531Y-110341130D01*
X105645058Y-110344213D01*
X105642884Y-110351837D01*
X105642746Y-110357051D01*
X105642908Y-110359750D01*
X105642908Y-110359751D01*
X105645106Y-110396366D01*
X105645325Y-110405203D01*
X105645052Y-110431956D01*
X105644891Y-110447692D01*
X105648165Y-110457583D01*
X105648244Y-110458092D01*
X105649522Y-110469953D01*
X105709670Y-111472038D01*
X105709799Y-111474183D01*
X105709806Y-111480458D01*
X105708181Y-111487641D01*
X105713293Y-111535081D01*
X105713338Y-111535498D01*
X105713837Y-111541448D01*
X105714888Y-111558968D01*
X105716047Y-111564035D01*
X105716784Y-111569178D01*
X105716654Y-111569197D01*
X105717531Y-111574420D01*
X105719586Y-111593488D01*
X105720824Y-111604980D01*
X105725233Y-111614414D01*
X105726496Y-111618937D01*
X105730444Y-111630424D01*
X105732226Y-111634761D01*
X105734548Y-111644911D01*
X105750743Y-111671046D01*
X105757782Y-111684057D01*
X105765249Y-111700032D01*
X105770794Y-111711897D01*
X105778021Y-111719394D01*
X105780692Y-111723280D01*
X105788120Y-111732833D01*
X105791226Y-111736377D01*
X105796712Y-111745230D01*
X105804771Y-111751830D01*
X105820496Y-111764708D01*
X105831375Y-111774741D01*
X105852703Y-111796865D01*
X105861974Y-111801619D01*
X105865767Y-111804436D01*
X105875875Y-111811059D01*
X105879962Y-111813406D01*
X105888019Y-111820004D01*
X105897778Y-111823636D01*
X105897781Y-111823638D01*
X105916830Y-111830728D01*
X105930371Y-111836695D01*
X105948452Y-111845967D01*
X105957717Y-111850718D01*
X105968020Y-111852212D01*
X105972507Y-111853644D01*
X105984246Y-111856643D01*
X105988862Y-111857537D01*
X105998625Y-111861171D01*
X106029358Y-111861984D01*
X106044102Y-111863244D01*
X106074514Y-111867653D01*
X106084745Y-111865729D01*
X106089438Y-111865631D01*
X106101546Y-111864664D01*
X106106195Y-111864016D01*
X106116602Y-111864291D01*
X106126538Y-111861180D01*
X106126539Y-111861180D01*
X106145935Y-111855107D01*
X106160296Y-111851521D01*
X106169756Y-111849743D01*
X106182709Y-111847307D01*
X106182710Y-111847307D01*
X106190499Y-111845842D01*
X106195223Y-111843634D01*
X106196622Y-111842826D01*
X106205227Y-111840055D01*
X106206061Y-111842644D01*
X106263290Y-111833903D01*
X106328127Y-111862828D01*
X106367033Y-111922215D01*
X106367656Y-111993209D01*
X106362311Y-112008299D01*
X106313130Y-112123322D01*
X106312060Y-112132231D01*
X106309592Y-112152775D01*
X106281608Y-112218023D01*
X106222790Y-112257785D01*
X106151813Y-112259436D01*
X106123116Y-112247788D01*
X106105050Y-112237712D01*
X106105049Y-112237712D01*
X106097209Y-112233339D01*
X106046497Y-112221771D01*
X105973790Y-112205186D01*
X105965044Y-112203191D01*
X105829729Y-112211348D01*
X105774309Y-112229141D01*
X105771215Y-112230519D01*
X105771206Y-112230522D01*
X105268470Y-112454356D01*
X105224259Y-112474040D01*
X105173951Y-112503319D01*
X105077346Y-112598419D01*
X105011314Y-112716810D01*
X105009319Y-112725557D01*
X105009318Y-112725559D01*
X105004717Y-112745731D01*
X104970067Y-112807698D01*
X104907415Y-112841095D01*
X104836654Y-112835318D01*
X104809332Y-112820735D01*
X104792418Y-112808826D01*
X104792416Y-112808825D01*
X104785075Y-112803656D01*
X104656785Y-112759858D01*
X104521359Y-112753826D01*
X104513625Y-112755442D01*
X104513622Y-112755442D01*
X104467718Y-112765032D01*
X104467713Y-112765033D01*
X104464383Y-112765729D01*
X104392018Y-112789242D01*
X104242482Y-112837829D01*
X104171514Y-112839857D01*
X104131276Y-112821210D01*
X104120509Y-112813671D01*
X104111479Y-112807348D01*
X104100827Y-112804494D01*
X104097966Y-112803160D01*
X104095000Y-112802081D01*
X104085453Y-112796568D01*
X104074597Y-112794654D01*
X104074592Y-112794652D01*
X104049323Y-112790196D01*
X104038594Y-112787818D01*
X104013807Y-112781177D01*
X104003156Y-112778323D01*
X103970535Y-112781177D01*
X103966603Y-112781521D01*
X103955621Y-112782000D01*
X102942441Y-112782000D01*
X102874320Y-112761998D01*
X102853346Y-112745095D01*
X102441346Y-112333095D01*
X102407320Y-112270783D01*
X102412385Y-112199968D01*
X102454932Y-112143132D01*
X102521452Y-112118321D01*
X102530441Y-112118000D01*
X102880608Y-112118000D01*
X102891590Y-112118479D01*
X102928143Y-112121677D01*
X102941866Y-112118000D01*
X102963581Y-112112182D01*
X102974310Y-112109804D01*
X102999579Y-112105348D01*
X102999584Y-112105346D01*
X103010440Y-112103432D01*
X103019987Y-112097919D01*
X103022953Y-112096840D01*
X103025814Y-112095506D01*
X103036466Y-112092652D01*
X103066520Y-112071608D01*
X103075790Y-112065703D01*
X103098011Y-112052874D01*
X103098015Y-112052871D01*
X103107560Y-112047360D01*
X103131143Y-112019255D01*
X103138569Y-112011151D01*
X103157330Y-111992390D01*
X103219642Y-111958364D01*
X103243549Y-111956015D01*
X103247776Y-111955488D01*
X103256755Y-111955653D01*
X103308917Y-111941432D01*
X103373701Y-111923770D01*
X103373703Y-111923769D01*
X103382360Y-111921409D01*
X103472344Y-111866159D01*
X103485658Y-111857984D01*
X103485659Y-111857984D01*
X103493306Y-111853288D01*
X103500046Y-111845842D01*
X103574644Y-111763427D01*
X103574645Y-111763426D01*
X103580672Y-111756767D01*
X103588697Y-111740205D01*
X103633522Y-111647685D01*
X103633522Y-111647684D01*
X103637437Y-111639604D01*
X103659037Y-111511219D01*
X103659174Y-111500000D01*
X103640718Y-111371125D01*
X103609102Y-111301590D01*
X103590548Y-111260782D01*
X103590547Y-111260780D01*
X103586832Y-111252610D01*
X103501850Y-111153983D01*
X103392601Y-111083172D01*
X103267870Y-111045870D01*
X103258894Y-111045815D01*
X103258893Y-111045815D01*
X103205678Y-111045490D01*
X103137683Y-111045074D01*
X103129051Y-111047541D01*
X103125895Y-111048443D01*
X103012505Y-111080850D01*
X103004918Y-111085637D01*
X103004916Y-111085638D01*
X102982271Y-111099926D01*
X102902400Y-111150321D01*
X102896458Y-111157049D01*
X102896457Y-111157050D01*
X102852956Y-111206306D01*
X102816219Y-111247903D01*
X102812404Y-111256028D01*
X102812403Y-111256030D01*
X102791473Y-111300610D01*
X102760890Y-111365751D01*
X102759509Y-111374619D01*
X102759508Y-111374623D01*
X102759390Y-111375383D01*
X102759065Y-111376074D01*
X102756884Y-111383206D01*
X102755855Y-111382891D01*
X102729147Y-111439616D01*
X102668978Y-111477301D01*
X102634890Y-111482000D01*
X102479266Y-111482000D01*
X102411145Y-111461998D01*
X102404372Y-111456910D01*
X102401850Y-111453983D01*
X102292601Y-111383172D01*
X102167870Y-111345870D01*
X102158894Y-111345815D01*
X102158893Y-111345815D01*
X102105678Y-111345490D01*
X102037683Y-111345074D01*
X101912505Y-111380850D01*
X101904918Y-111385637D01*
X101904916Y-111385638D01*
X101872665Y-111405987D01*
X101802400Y-111450321D01*
X101796457Y-111457050D01*
X101796456Y-111457051D01*
X101776790Y-111479318D01*
X101716704Y-111517135D01*
X101645711Y-111516464D01*
X101593255Y-111485004D01*
X100843580Y-110735329D01*
X100836154Y-110727225D01*
X100819659Y-110707567D01*
X100812571Y-110699120D01*
X100803026Y-110693609D01*
X100803022Y-110693606D01*
X100780801Y-110680777D01*
X100771531Y-110674872D01*
X100750507Y-110660151D01*
X100741477Y-110653828D01*
X100730825Y-110650974D01*
X100727964Y-110649640D01*
X100724998Y-110648561D01*
X100715451Y-110643048D01*
X100704595Y-110641134D01*
X100704590Y-110641132D01*
X100679321Y-110636676D01*
X100668592Y-110634298D01*
X100643805Y-110627657D01*
X100633154Y-110624803D01*
X100600533Y-110627657D01*
X100596601Y-110628001D01*
X100585619Y-110628480D01*
X99088922Y-110628480D01*
X99020801Y-110608478D01*
X98999827Y-110591575D01*
X97324460Y-108916208D01*
X97290434Y-108853896D01*
X97287555Y-108827113D01*
X97287555Y-106635718D01*
X97307557Y-106567597D01*
X97361213Y-106521104D01*
X97431487Y-106511000D01*
X97496067Y-106540494D01*
G37*
G04 #@! TD.AperFunction*
G04 #@! TA.AperFunction,Conductor*
G36*
X94460142Y-103977403D02*
G01*
X94516978Y-104019950D01*
X94541789Y-104086470D01*
X94541838Y-104088111D01*
X94540860Y-104094390D01*
X94542024Y-104103291D01*
X94542024Y-104103293D01*
X94550762Y-104170109D01*
X94557741Y-104223481D01*
X94610174Y-104342645D01*
X94693946Y-104442303D01*
X94701414Y-104447274D01*
X94701415Y-104447275D01*
X94794850Y-104509472D01*
X94794853Y-104509473D01*
X94802320Y-104514444D01*
X94810887Y-104517120D01*
X94810888Y-104517121D01*
X94840948Y-104526512D01*
X94926587Y-104553267D01*
X94954150Y-104553772D01*
X95021892Y-104575019D01*
X95040936Y-104590656D01*
X95224050Y-104773770D01*
X95258076Y-104836082D01*
X95260955Y-104862865D01*
X95260955Y-108319666D01*
X95240953Y-108387787D01*
X95187297Y-108434280D01*
X95134185Y-108445664D01*
X95112710Y-108445533D01*
X95037683Y-108445074D01*
X94912505Y-108480850D01*
X94904918Y-108485637D01*
X94904916Y-108485638D01*
X94816734Y-108541277D01*
X94748449Y-108560711D01*
X94680967Y-108540447D01*
X94600138Y-108488056D01*
X94600132Y-108488053D01*
X94592601Y-108483172D01*
X94467870Y-108445870D01*
X94458894Y-108445815D01*
X94458893Y-108445815D01*
X94405678Y-108445490D01*
X94337683Y-108445074D01*
X94212505Y-108480850D01*
X94204918Y-108485637D01*
X94204916Y-108485638D01*
X94156788Y-108516005D01*
X94102400Y-108550321D01*
X94096458Y-108557049D01*
X94096457Y-108557050D01*
X94085727Y-108569200D01*
X94016219Y-108647903D01*
X94012404Y-108656028D01*
X94012403Y-108656030D01*
X93973089Y-108739768D01*
X93960890Y-108765751D01*
X93959509Y-108774620D01*
X93950586Y-108831929D01*
X93940860Y-108894390D01*
X93942024Y-108903292D01*
X93942024Y-108903295D01*
X93955220Y-109004202D01*
X93957741Y-109023481D01*
X94010174Y-109142645D01*
X94029092Y-109165150D01*
X94093946Y-109242303D01*
X94092765Y-109243296D01*
X94106699Y-109262058D01*
X94107349Y-109261603D01*
X94121185Y-109281363D01*
X94128392Y-109291656D01*
X94134297Y-109300926D01*
X94147126Y-109323147D01*
X94147129Y-109323151D01*
X94152640Y-109332696D01*
X94161087Y-109339784D01*
X94180745Y-109356279D01*
X94188849Y-109363705D01*
X94645095Y-109819951D01*
X94679121Y-109882263D01*
X94682000Y-109909046D01*
X94682000Y-111680608D01*
X94681520Y-111691592D01*
X94679606Y-111713464D01*
X94653742Y-111779582D01*
X94596237Y-111821220D01*
X94554086Y-111828480D01*
X94376304Y-111828480D01*
X94308183Y-111808478D01*
X94261690Y-111754822D01*
X94251586Y-111684548D01*
X94258037Y-111663239D01*
X94257403Y-111663057D01*
X94265901Y-111633520D01*
X94270821Y-111619562D01*
X94279653Y-111598536D01*
X94279654Y-111598533D01*
X94282724Y-111591224D01*
X94283484Y-111586065D01*
X94283646Y-111583363D01*
X94283648Y-111583345D01*
X94283687Y-111582694D01*
X94283758Y-111582281D01*
X94283927Y-111580647D01*
X94284037Y-111580658D01*
X94286138Y-111568420D01*
X94287153Y-111559650D01*
X94290033Y-111549639D01*
X94288399Y-111516820D01*
X94288469Y-111503008D01*
X94289392Y-111487641D01*
X94323963Y-110911680D01*
X94352371Y-110438410D01*
X94353806Y-110425566D01*
X94354453Y-110421626D01*
X94359401Y-110391459D01*
X94352066Y-110348026D01*
X94351003Y-110340259D01*
X94347481Y-110306831D01*
X94347481Y-110306830D01*
X94346389Y-110296470D01*
X94342424Y-110287934D01*
X94342382Y-110287745D01*
X94341387Y-110284542D01*
X94341317Y-110284369D01*
X94339750Y-110275088D01*
X94334784Y-110265936D01*
X94334783Y-110265933D01*
X94318747Y-110236379D01*
X94315221Y-110229369D01*
X94301059Y-110198881D01*
X94301058Y-110198880D01*
X94296671Y-110189435D01*
X94290155Y-110182644D01*
X94290053Y-110182476D01*
X94288083Y-110179780D01*
X94287954Y-110179631D01*
X94283464Y-110171357D01*
X94251061Y-110141545D01*
X94245453Y-110136053D01*
X94231999Y-110122031D01*
X94214964Y-110104276D01*
X94206599Y-110099961D01*
X94206447Y-110099835D01*
X94203705Y-110097918D01*
X94203535Y-110097819D01*
X94196612Y-110091450D01*
X94187084Y-110087265D01*
X94187080Y-110087262D01*
X94156300Y-110073742D01*
X94149234Y-110070372D01*
X94110077Y-110050174D01*
X94100764Y-110048801D01*
X94100587Y-110048734D01*
X94097365Y-110047807D01*
X94097174Y-110047769D01*
X94088560Y-110043985D01*
X94062005Y-110041748D01*
X94044701Y-110040291D01*
X94036902Y-110039389D01*
X94018075Y-110036614D01*
X93993320Y-110032965D01*
X93984064Y-110034683D01*
X93983878Y-110034677D01*
X93980525Y-110034844D01*
X93980336Y-110034869D01*
X93970958Y-110034079D01*
X93928242Y-110044796D01*
X93920599Y-110046462D01*
X93887522Y-110052601D01*
X93887519Y-110052602D01*
X93877283Y-110054502D01*
X93869086Y-110059124D01*
X93867095Y-110059734D01*
X93864183Y-110060869D01*
X93856488Y-110062799D01*
X93851904Y-110065287D01*
X93819040Y-110086986D01*
X93811511Y-110091585D01*
X93783552Y-110107349D01*
X93783548Y-110107353D01*
X93774480Y-110112465D01*
X93767557Y-110120240D01*
X93767151Y-110120567D01*
X93757514Y-110127609D01*
X93256974Y-110458092D01*
X92917966Y-110681923D01*
X92912537Y-110685065D01*
X92905501Y-110687250D01*
X92871277Y-110712253D01*
X92804474Y-110736285D01*
X92735280Y-110720386D01*
X92707856Y-110699605D01*
X91351926Y-109343675D01*
X91317900Y-109281363D01*
X91315021Y-109254580D01*
X91315021Y-108831929D01*
X91335023Y-108763808D01*
X91383249Y-108722857D01*
X91382360Y-108721409D01*
X91485658Y-108657984D01*
X91485659Y-108657984D01*
X91493306Y-108653288D01*
X91504445Y-108640982D01*
X91574644Y-108563427D01*
X91574645Y-108563426D01*
X91580672Y-108556767D01*
X91599897Y-108517088D01*
X91633522Y-108447685D01*
X91633522Y-108447684D01*
X91637437Y-108439604D01*
X91659037Y-108311219D01*
X91659174Y-108300000D01*
X91640718Y-108171125D01*
X91601762Y-108085446D01*
X91590548Y-108060782D01*
X91590547Y-108060780D01*
X91586832Y-108052610D01*
X91523270Y-107978842D01*
X91507713Y-107960787D01*
X91507712Y-107960786D01*
X91501850Y-107953983D01*
X91392601Y-107883172D01*
X91267870Y-107845870D01*
X91258894Y-107845815D01*
X91258893Y-107845815D01*
X91221924Y-107845589D01*
X91186731Y-107845374D01*
X91118734Y-107824956D01*
X91072570Y-107771017D01*
X91061501Y-107719376D01*
X91061501Y-107324068D01*
X91081503Y-107255947D01*
X91098406Y-107234973D01*
X94327015Y-104006364D01*
X94389327Y-103972338D01*
X94460142Y-103977403D01*
G37*
G04 #@! TD.AperFunction*
G04 #@! TA.AperFunction,Conductor*
G36*
X106604945Y-98017268D02*
G01*
X106625919Y-98034171D01*
X112782349Y-104190601D01*
X112816375Y-104252913D01*
X112813087Y-104318631D01*
X112766788Y-104461127D01*
X112766785Y-104461137D01*
X112765731Y-104464382D01*
X112753826Y-104521359D01*
X112759858Y-104656785D01*
X112803656Y-104785075D01*
X112808825Y-104792416D01*
X112808826Y-104792418D01*
X112820735Y-104809332D01*
X112843598Y-104876546D01*
X112826494Y-104945451D01*
X112774851Y-104994171D01*
X112745731Y-105004717D01*
X112725559Y-105009318D01*
X112725557Y-105009319D01*
X112716810Y-105011314D01*
X112598419Y-105077346D01*
X112556323Y-105120108D01*
X112513828Y-105163276D01*
X112503319Y-105173951D01*
X112474040Y-105224258D01*
X112229143Y-105774308D01*
X112211348Y-105829729D01*
X112203191Y-105965044D01*
X112205186Y-105973790D01*
X112217790Y-106029042D01*
X112233339Y-106097209D01*
X112237712Y-106105049D01*
X112237712Y-106105050D01*
X112247788Y-106123116D01*
X112263502Y-106192352D01*
X112239288Y-106259092D01*
X112182837Y-106302147D01*
X112152775Y-106309592D01*
X112123322Y-106313130D01*
X112082307Y-106330667D01*
X112005321Y-106363584D01*
X111934822Y-106371974D01*
X111870978Y-106340917D01*
X111834060Y-106280274D01*
X111835789Y-106209299D01*
X111843806Y-106189966D01*
X111845687Y-106186320D01*
X111850461Y-106177065D01*
X111851980Y-106166758D01*
X111853419Y-106162285D01*
X111856446Y-106150557D01*
X111857354Y-106145931D01*
X111861009Y-106136180D01*
X111861894Y-106105457D01*
X111863189Y-106090713D01*
X111866152Y-106070611D01*
X111866152Y-106070607D01*
X111867670Y-106060308D01*
X111865770Y-106050073D01*
X111865683Y-106045365D01*
X111864746Y-106033277D01*
X111864107Y-106028616D01*
X111864407Y-106018211D01*
X111861320Y-106008268D01*
X111861319Y-106008263D01*
X111855293Y-105988856D01*
X111851741Y-105974485D01*
X111848034Y-105954511D01*
X111848033Y-105954509D01*
X111846133Y-105944271D01*
X111841018Y-105935199D01*
X111839413Y-105930782D01*
X111834618Y-105919664D01*
X111832499Y-105915450D01*
X111829410Y-105905502D01*
X111811279Y-105880683D01*
X111803264Y-105868239D01*
X111801364Y-105864868D01*
X111796042Y-105855430D01*
X111793286Y-105850541D01*
X111793285Y-105850540D01*
X111788170Y-105841468D01*
X111780390Y-105834540D01*
X111777429Y-105830866D01*
X111769293Y-105821903D01*
X111765934Y-105818613D01*
X111759791Y-105810205D01*
X111750037Y-105803388D01*
X111734596Y-105792596D01*
X111722979Y-105783416D01*
X111707810Y-105769907D01*
X111707808Y-105769906D01*
X111700033Y-105762982D01*
X111690434Y-105758950D01*
X111686451Y-105756438D01*
X111675835Y-105750586D01*
X111671593Y-105748563D01*
X111663057Y-105742597D01*
X111633517Y-105734098D01*
X111619559Y-105729178D01*
X111598539Y-105720348D01*
X111598537Y-105720347D01*
X111591225Y-105717276D01*
X111586065Y-105716516D01*
X111583350Y-105716353D01*
X111583330Y-105716351D01*
X111582694Y-105716313D01*
X111582289Y-105716243D01*
X111580642Y-105716073D01*
X111580653Y-105715963D01*
X111568420Y-105713862D01*
X111559650Y-105712847D01*
X111549639Y-105709967D01*
X111516820Y-105711601D01*
X111503013Y-105711531D01*
X111044629Y-105684017D01*
X110438410Y-105647629D01*
X110425570Y-105646194D01*
X110391459Y-105640599D01*
X110348026Y-105647934D01*
X110340262Y-105648997D01*
X110330409Y-105650035D01*
X110306831Y-105652519D01*
X110306830Y-105652519D01*
X110296470Y-105653611D01*
X110287932Y-105657577D01*
X110287747Y-105657618D01*
X110284546Y-105658612D01*
X110284372Y-105658682D01*
X110275088Y-105660250D01*
X110236376Y-105681256D01*
X110229369Y-105684780D01*
X110189436Y-105703329D01*
X110182645Y-105709844D01*
X110182480Y-105709945D01*
X110179774Y-105711922D01*
X110179630Y-105712047D01*
X110171357Y-105716536D01*
X110147354Y-105742626D01*
X110141543Y-105748942D01*
X110136049Y-105754552D01*
X110104276Y-105785036D01*
X110099960Y-105793402D01*
X110099837Y-105793551D01*
X110097923Y-105796288D01*
X110097821Y-105796463D01*
X110091450Y-105803388D01*
X110080725Y-105827803D01*
X110073740Y-105843703D01*
X110070364Y-105850782D01*
X110050175Y-105889923D01*
X110048803Y-105899235D01*
X110048736Y-105899411D01*
X110047807Y-105902640D01*
X110047770Y-105902824D01*
X110043985Y-105911440D01*
X110041117Y-105945484D01*
X110040290Y-105955307D01*
X110039388Y-105963103D01*
X110032965Y-106006680D01*
X110034683Y-106015936D01*
X110034677Y-106016122D01*
X110034844Y-106019475D01*
X110034869Y-106019664D01*
X110034079Y-106029042D01*
X110044796Y-106071758D01*
X110046462Y-106079401D01*
X110052601Y-106112478D01*
X110052602Y-106112481D01*
X110054502Y-106122717D01*
X110059124Y-106130914D01*
X110059734Y-106132905D01*
X110060869Y-106135817D01*
X110062799Y-106143512D01*
X110065287Y-106148096D01*
X110086986Y-106180960D01*
X110091585Y-106188489D01*
X110107349Y-106216448D01*
X110107353Y-106216452D01*
X110112465Y-106225520D01*
X110120240Y-106232443D01*
X110120567Y-106232849D01*
X110127609Y-106242486D01*
X110489198Y-106790139D01*
X110681923Y-107082034D01*
X110685065Y-107087463D01*
X110687250Y-107094499D01*
X110693392Y-107102907D01*
X110693394Y-107102910D01*
X110715655Y-107133380D01*
X110719063Y-107138285D01*
X110728723Y-107152916D01*
X110732266Y-107156730D01*
X110735477Y-107160817D01*
X110735373Y-107160899D01*
X110738739Y-107164979D01*
X110745525Y-107174267D01*
X110756869Y-107189796D01*
X110765406Y-107195763D01*
X110768766Y-107199053D01*
X110777903Y-107207005D01*
X110781633Y-107209884D01*
X110788720Y-107217515D01*
X110815811Y-107232050D01*
X110828405Y-107239793D01*
X110853603Y-107257404D01*
X110863610Y-107260283D01*
X110867858Y-107262309D01*
X110879067Y-107266867D01*
X110883533Y-107268385D01*
X110892715Y-107273311D01*
X110902991Y-107274997D01*
X110902995Y-107274998D01*
X110923043Y-107278286D01*
X110937469Y-107281532D01*
X110967021Y-107290033D01*
X110977422Y-107289515D01*
X110982106Y-107290057D01*
X110994175Y-107290739D01*
X110998897Y-107290728D01*
X111009176Y-107292414D01*
X111039495Y-107287294D01*
X111054192Y-107285694D01*
X111069243Y-107284944D01*
X111074492Y-107284683D01*
X111074493Y-107284683D01*
X111084893Y-107284165D01*
X111094568Y-107280305D01*
X111099172Y-107279301D01*
X111110819Y-107276035D01*
X111115276Y-107274497D01*
X111125547Y-107272763D01*
X111152576Y-107258096D01*
X111165961Y-107251822D01*
X111194510Y-107240432D01*
X111202410Y-107233649D01*
X111206436Y-107231211D01*
X111216423Y-107224330D01*
X111220128Y-107221442D01*
X111229278Y-107216477D01*
X111250094Y-107193851D01*
X111260732Y-107183572D01*
X111272861Y-107173158D01*
X111278042Y-107168710D01*
X111278044Y-107168708D01*
X111284050Y-107163551D01*
X111287038Y-107159277D01*
X111287843Y-107157883D01*
X111293906Y-107151185D01*
X111295919Y-107153008D01*
X111341124Y-107116816D01*
X111411737Y-107109451D01*
X111475123Y-107141431D01*
X111511156Y-107202604D01*
X111514073Y-107218349D01*
X111521003Y-107276035D01*
X111528992Y-107342540D01*
X111532521Y-107350793D01*
X111540654Y-107369814D01*
X111549045Y-107440313D01*
X111517990Y-107504157D01*
X111457347Y-107541076D01*
X111426670Y-107545338D01*
X111417517Y-107545474D01*
X111397007Y-107545778D01*
X111388428Y-107548426D01*
X111388425Y-107548426D01*
X111353501Y-107559204D01*
X111267475Y-107585752D01*
X111259991Y-107590696D01*
X111259989Y-107590697D01*
X111160957Y-107656120D01*
X111160955Y-107656122D01*
X111154367Y-107660474D01*
X111115269Y-107703594D01*
X110936275Y-107949958D01*
X110911572Y-107983959D01*
X110855350Y-108027313D01*
X110809636Y-108035898D01*
X110565496Y-108035898D01*
X110554518Y-108035419D01*
X110543770Y-108034479D01*
X110528935Y-108033181D01*
X110528934Y-108033181D01*
X110517959Y-108032221D01*
X110507316Y-108035073D01*
X110507314Y-108035073D01*
X110482521Y-108041716D01*
X110471792Y-108044094D01*
X110446523Y-108048550D01*
X110446518Y-108048552D01*
X110435662Y-108050466D01*
X110426115Y-108055979D01*
X110423149Y-108057058D01*
X110420288Y-108058392D01*
X110409636Y-108061246D01*
X110400606Y-108067569D01*
X110379582Y-108082290D01*
X110370312Y-108088195D01*
X110348091Y-108101024D01*
X110348087Y-108101027D01*
X110338542Y-108106538D01*
X110331454Y-108114985D01*
X110314959Y-108134643D01*
X110307533Y-108142747D01*
X109705185Y-108745095D01*
X109642873Y-108779121D01*
X109616090Y-108782000D01*
X103414519Y-108782000D01*
X103346398Y-108761998D01*
X103299905Y-108708342D01*
X103289801Y-108638068D01*
X103319295Y-108573488D01*
X103325424Y-108566905D01*
X103376924Y-108515405D01*
X103376934Y-108515394D01*
X103379024Y-108513304D01*
X103399393Y-108488683D01*
X103458554Y-108365481D01*
X103463266Y-108334143D01*
X103477472Y-108239643D01*
X103478872Y-108230330D01*
X103474500Y-108201245D01*
X103458554Y-108095179D01*
X103461890Y-108094678D01*
X103461192Y-108040495D01*
X103498804Y-107980280D01*
X103563000Y-107949958D01*
X103600397Y-107949707D01*
X103721448Y-107967042D01*
X103730330Y-107968314D01*
X103739212Y-107967042D01*
X103857408Y-107950116D01*
X103857411Y-107950115D01*
X103866294Y-107948843D01*
X103901130Y-107933004D01*
X103984141Y-107895261D01*
X103984142Y-107895260D01*
X103991328Y-107891993D01*
X104037293Y-107855036D01*
X104455035Y-107437293D01*
X104491993Y-107391328D01*
X104497037Y-107380236D01*
X104545128Y-107274465D01*
X104545128Y-107274464D01*
X104548843Y-107266294D01*
X104555829Y-107217515D01*
X104563352Y-107164979D01*
X104568314Y-107130330D01*
X104548843Y-106994366D01*
X104551438Y-106993994D01*
X104551503Y-106936724D01*
X104589954Y-106877041D01*
X104654568Y-106847621D01*
X104694136Y-106850451D01*
X104694366Y-106848843D01*
X104830330Y-106868314D01*
X104839212Y-106867042D01*
X104957408Y-106850116D01*
X104957411Y-106850115D01*
X104966294Y-106848843D01*
X104974465Y-106845128D01*
X105084141Y-106795261D01*
X105084142Y-106795260D01*
X105091328Y-106791993D01*
X105137293Y-106755036D01*
X105555035Y-106337293D01*
X105591993Y-106291328D01*
X105596413Y-106281608D01*
X105645128Y-106174465D01*
X105645128Y-106174464D01*
X105648843Y-106166294D01*
X105650746Y-106153010D01*
X105667042Y-106039212D01*
X105668314Y-106030330D01*
X105656458Y-105947541D01*
X105649707Y-105900397D01*
X105659851Y-105830128D01*
X105706374Y-105776499D01*
X105774506Y-105756535D01*
X105795018Y-105759625D01*
X105795179Y-105758554D01*
X105870930Y-105769942D01*
X105930330Y-105778872D01*
X105939643Y-105777472D01*
X106056165Y-105759955D01*
X106056168Y-105759954D01*
X106065481Y-105758554D01*
X106157960Y-105714146D01*
X106181761Y-105702717D01*
X106181762Y-105702717D01*
X106188683Y-105699393D01*
X106208346Y-105683127D01*
X106211017Y-105680917D01*
X106211018Y-105680916D01*
X106213304Y-105679025D01*
X106679024Y-105213304D01*
X106699393Y-105188683D01*
X106758554Y-105065481D01*
X106760037Y-105055621D01*
X106777472Y-104939643D01*
X106778872Y-104930330D01*
X106774915Y-104904006D01*
X106759955Y-104804495D01*
X106759954Y-104804492D01*
X106758554Y-104795179D01*
X106699393Y-104671977D01*
X106693855Y-104665282D01*
X106680917Y-104649643D01*
X106680916Y-104649642D01*
X106679025Y-104647356D01*
X106399768Y-104368100D01*
X106365743Y-104305787D01*
X106362863Y-104279004D01*
X106362863Y-101580362D01*
X106365412Y-101556414D01*
X106365491Y-101554749D01*
X106367683Y-101544566D01*
X106363736Y-101511219D01*
X106363386Y-101505288D01*
X106363291Y-101505296D01*
X106362863Y-101500118D01*
X106362863Y-101494918D01*
X106361906Y-101489167D01*
X106359694Y-101475877D01*
X106358857Y-101469999D01*
X106354057Y-101429441D01*
X106354057Y-101429440D01*
X106352833Y-101419101D01*
X106348870Y-101410849D01*
X106347367Y-101401816D01*
X106323028Y-101356708D01*
X106320332Y-101351417D01*
X106301578Y-101312360D01*
X106301575Y-101312356D01*
X106298144Y-101305210D01*
X106294549Y-101300934D01*
X106292626Y-101299011D01*
X106290854Y-101297079D01*
X106290811Y-101297000D01*
X106290935Y-101296887D01*
X106290459Y-101296347D01*
X106287373Y-101290628D01*
X106247776Y-101254025D01*
X106244211Y-101250596D01*
X104816470Y-99822855D01*
X104782444Y-99760543D01*
X104787509Y-99689728D01*
X104816468Y-99644668D01*
X105766502Y-98694633D01*
X105773778Y-98683745D01*
X105792250Y-98656099D01*
X105808553Y-98631701D01*
X105810975Y-98619528D01*
X105825884Y-98544571D01*
X105828305Y-98532400D01*
X105815734Y-98469202D01*
X105810974Y-98445269D01*
X105810973Y-98445268D01*
X105808553Y-98433099D01*
X105787041Y-98400903D01*
X105769942Y-98375312D01*
X105769939Y-98375308D01*
X105766503Y-98370166D01*
X105608698Y-98212361D01*
X105574673Y-98150050D01*
X105579737Y-98079234D01*
X105622284Y-98022398D01*
X105688804Y-97997587D01*
X105697793Y-97997266D01*
X106536824Y-97997266D01*
X106604945Y-98017268D01*
G37*
G04 #@! TD.AperFunction*
G04 #@! TA.AperFunction,Conductor*
G36*
X91804275Y-104338002D02*
G01*
X91850768Y-104391658D01*
X91860872Y-104461932D01*
X91831378Y-104526512D01*
X91825249Y-104533095D01*
X90170419Y-106187925D01*
X90108107Y-106221951D01*
X90037292Y-106216886D01*
X89980456Y-106174339D01*
X89955645Y-106107819D01*
X89955822Y-106087635D01*
X89955898Y-106086783D01*
X89957253Y-106077184D01*
X89960536Y-106068362D01*
X89961700Y-106024324D01*
X89962152Y-106016492D01*
X89962771Y-106009544D01*
X89966054Y-105972646D01*
X89963807Y-105963508D01*
X89963802Y-105963316D01*
X89963442Y-105959972D01*
X89963407Y-105959790D01*
X89963656Y-105950385D01*
X89960545Y-105940450D01*
X89960545Y-105940447D01*
X89950494Y-105908345D01*
X89948383Y-105900784D01*
X89940360Y-105868157D01*
X89937873Y-105858042D01*
X89932786Y-105850123D01*
X89932721Y-105849947D01*
X89931297Y-105846899D01*
X89931206Y-105846740D01*
X89928394Y-105837758D01*
X89922232Y-105829365D01*
X89922230Y-105829361D01*
X89902327Y-105802251D01*
X89897882Y-105795784D01*
X89879719Y-105767509D01*
X89879718Y-105767508D01*
X89874089Y-105758745D01*
X89866713Y-105752902D01*
X89866597Y-105752760D01*
X89864261Y-105750336D01*
X89864121Y-105750213D01*
X89858551Y-105742626D01*
X89822404Y-105717490D01*
X89816105Y-105712812D01*
X89796693Y-105697435D01*
X89781580Y-105685463D01*
X89772706Y-105682323D01*
X89772545Y-105682223D01*
X89769564Y-105680694D01*
X89769386Y-105680620D01*
X89761657Y-105675246D01*
X89719321Y-105663174D01*
X89711845Y-105660788D01*
X89680140Y-105649570D01*
X89680137Y-105649569D01*
X89670320Y-105646096D01*
X89660908Y-105646000D01*
X89658871Y-105645531D01*
X89655788Y-105645058D01*
X89648164Y-105642884D01*
X89642950Y-105642746D01*
X89640251Y-105642908D01*
X89640250Y-105642908D01*
X89635129Y-105643215D01*
X89603626Y-105645106D01*
X89594805Y-105645325D01*
X89580849Y-105645182D01*
X89562724Y-105644997D01*
X89562722Y-105644997D01*
X89552308Y-105644891D01*
X89542417Y-105648165D01*
X89541908Y-105648244D01*
X89530047Y-105649522D01*
X88884261Y-105688284D01*
X88683702Y-105700322D01*
X88614505Y-105684437D01*
X88564881Y-105633663D01*
X88550585Y-105564121D01*
X88551900Y-105553640D01*
X88556511Y-105526238D01*
X88591669Y-105458051D01*
X89694815Y-104354905D01*
X89757127Y-104320879D01*
X89783910Y-104318000D01*
X91736154Y-104318000D01*
X91804275Y-104338002D01*
G37*
G04 #@! TD.AperFunction*
G04 #@! TA.AperFunction,Conductor*
G36*
X94078792Y-98421670D02*
G01*
X94099766Y-98438573D01*
X94139230Y-98478037D01*
X94173714Y-98542551D01*
X94191447Y-98631701D01*
X94198342Y-98642020D01*
X94230058Y-98689487D01*
X94230061Y-98689491D01*
X94233497Y-98694633D01*
X95117369Y-99578505D01*
X95151393Y-99640815D01*
X95146329Y-99711630D01*
X95103782Y-99768466D01*
X95037262Y-99793277D01*
X95028273Y-99793598D01*
X94539834Y-99793598D01*
X94492698Y-99783235D01*
X94492601Y-99783172D01*
X94367870Y-99745870D01*
X94358894Y-99745815D01*
X94358893Y-99745815D01*
X94305678Y-99745490D01*
X94237683Y-99745074D01*
X94112505Y-99780850D01*
X94104918Y-99785637D01*
X94104916Y-99785638D01*
X94047000Y-99822180D01*
X94002400Y-99850321D01*
X93996458Y-99857049D01*
X93996457Y-99857050D01*
X93962118Y-99895932D01*
X93916219Y-99947903D01*
X93912404Y-99956028D01*
X93912403Y-99956030D01*
X93867206Y-100052298D01*
X93860890Y-100065751D01*
X93849195Y-100140864D01*
X93844415Y-100171560D01*
X93814170Y-100235793D01*
X93809010Y-100241270D01*
X93573829Y-100476451D01*
X93565725Y-100483877D01*
X93537620Y-100507460D01*
X93532109Y-100517005D01*
X93532106Y-100517009D01*
X93519277Y-100539230D01*
X93513372Y-100548500D01*
X93507703Y-100556596D01*
X93492328Y-100578554D01*
X93489474Y-100589206D01*
X93488140Y-100592067D01*
X93487061Y-100595033D01*
X93481548Y-100604580D01*
X93479634Y-100615436D01*
X93479632Y-100615441D01*
X93475176Y-100640710D01*
X93472798Y-100651439D01*
X93471341Y-100656879D01*
X93463303Y-100686877D01*
X93464264Y-100697859D01*
X93466501Y-100723430D01*
X93466980Y-100734412D01*
X93466980Y-100905759D01*
X93446978Y-100973880D01*
X93393322Y-101020373D01*
X93323048Y-101030477D01*
X93318783Y-101029538D01*
X93311451Y-101028442D01*
X93302850Y-101025870D01*
X93293874Y-101025815D01*
X93293873Y-101025815D01*
X93240658Y-101025490D01*
X93172663Y-101025074D01*
X93047485Y-101060850D01*
X93039898Y-101065637D01*
X93039896Y-101065638D01*
X93003331Y-101088709D01*
X92937380Y-101130321D01*
X92931438Y-101137049D01*
X92931437Y-101137050D01*
X92906989Y-101164732D01*
X92851199Y-101227903D01*
X92847384Y-101236028D01*
X92847383Y-101236030D01*
X92825800Y-101282001D01*
X92795870Y-101345751D01*
X92794489Y-101354620D01*
X92781447Y-101438383D01*
X92775840Y-101474390D01*
X92777004Y-101483292D01*
X92777004Y-101483295D01*
X92791557Y-101594582D01*
X92792721Y-101603481D01*
X92839277Y-101709288D01*
X92844809Y-101721861D01*
X92855480Y-101772607D01*
X92855480Y-102027182D01*
X92835478Y-102095303D01*
X92818575Y-102116277D01*
X91666277Y-103268575D01*
X91603965Y-103302601D01*
X91577182Y-103305480D01*
X89388116Y-103305480D01*
X89319995Y-103285478D01*
X89287029Y-103252440D01*
X89286832Y-103252610D01*
X89201850Y-103153983D01*
X89092601Y-103083172D01*
X88967870Y-103045870D01*
X88958894Y-103045815D01*
X88958893Y-103045815D01*
X88905678Y-103045490D01*
X88837683Y-103045074D01*
X88712505Y-103080850D01*
X88704918Y-103085637D01*
X88704916Y-103085638D01*
X88662847Y-103112182D01*
X88602400Y-103150321D01*
X88596458Y-103157049D01*
X88596457Y-103157050D01*
X88581311Y-103174200D01*
X88516219Y-103247903D01*
X88512404Y-103256028D01*
X88512403Y-103256030D01*
X88489187Y-103305480D01*
X88460890Y-103365751D01*
X88459509Y-103374620D01*
X88443003Y-103480630D01*
X88440860Y-103494390D01*
X88442024Y-103503292D01*
X88442024Y-103503295D01*
X88456082Y-103610795D01*
X88457741Y-103623481D01*
X88510174Y-103742645D01*
X88593946Y-103842303D01*
X88601414Y-103847274D01*
X88601415Y-103847275D01*
X88673103Y-103894995D01*
X88702320Y-103914444D01*
X88710892Y-103917122D01*
X88780682Y-103938926D01*
X88821111Y-103960241D01*
X88826784Y-103964713D01*
X88831223Y-103968658D01*
X88831286Y-103968584D01*
X88835243Y-103971937D01*
X88838924Y-103975618D01*
X88854634Y-103986845D01*
X88859360Y-103990393D01*
X88899627Y-104022136D01*
X88906837Y-104024668D01*
X88912934Y-104028506D01*
X88913802Y-104029127D01*
X88957566Y-104085032D01*
X88964158Y-104155721D01*
X88929583Y-104220697D01*
X88142021Y-105008259D01*
X88079709Y-105042285D01*
X88052160Y-105045162D01*
X88048114Y-105045138D01*
X88037683Y-105045074D01*
X87912505Y-105080850D01*
X87904918Y-105085637D01*
X87904916Y-105085638D01*
X87872635Y-105106006D01*
X87802400Y-105150321D01*
X87796458Y-105157049D01*
X87796457Y-105157050D01*
X87759610Y-105198772D01*
X87726791Y-105235933D01*
X87725374Y-105237537D01*
X87665288Y-105275356D01*
X87594294Y-105274686D01*
X87534933Y-105235740D01*
X87522033Y-105217510D01*
X87500654Y-105180777D01*
X87500653Y-105180775D01*
X87496681Y-105173951D01*
X87486173Y-105163276D01*
X87443677Y-105120108D01*
X87401581Y-105077346D01*
X87283190Y-105011314D01*
X87274443Y-105009319D01*
X87274441Y-105009318D01*
X87254269Y-105004717D01*
X87192302Y-104970067D01*
X87158905Y-104907415D01*
X87164682Y-104836654D01*
X87179265Y-104809332D01*
X87191174Y-104792418D01*
X87191175Y-104792416D01*
X87196344Y-104785075D01*
X87240142Y-104656785D01*
X87246174Y-104521359D01*
X87244282Y-104512299D01*
X87234968Y-104467718D01*
X87234967Y-104467713D01*
X87234271Y-104464383D01*
X87048209Y-103891747D01*
X87024350Y-103838654D01*
X86939868Y-103732638D01*
X86829028Y-103654593D01*
X86800952Y-103645008D01*
X86742947Y-103604069D01*
X86716284Y-103538270D01*
X86729427Y-103468500D01*
X86746787Y-103442852D01*
X86752505Y-103436310D01*
X86766307Y-103420516D01*
X86807286Y-103332030D01*
X86854064Y-103278624D01*
X86899740Y-103260896D01*
X86914026Y-103258377D01*
X86923574Y-103252864D01*
X86926539Y-103251785D01*
X86929400Y-103250451D01*
X86940052Y-103247597D01*
X86970106Y-103226553D01*
X86979376Y-103220648D01*
X87001597Y-103207819D01*
X87001601Y-103207816D01*
X87011146Y-103202305D01*
X87034729Y-103174200D01*
X87042155Y-103166096D01*
X90905405Y-99302847D01*
X90967717Y-99268821D01*
X91038533Y-99273886D01*
X91095368Y-99316433D01*
X91120179Y-99382953D01*
X91120500Y-99391942D01*
X91120500Y-99810679D01*
X91108555Y-99864227D01*
X91069270Y-99947903D01*
X91060890Y-99965751D01*
X91059509Y-99974620D01*
X91042410Y-100084438D01*
X91040860Y-100094390D01*
X91042024Y-100103292D01*
X91042024Y-100103295D01*
X91056577Y-100214582D01*
X91057741Y-100223481D01*
X91110174Y-100342645D01*
X91193946Y-100442303D01*
X91201414Y-100447274D01*
X91201415Y-100447275D01*
X91294850Y-100509472D01*
X91294853Y-100509473D01*
X91302320Y-100514444D01*
X91310887Y-100517120D01*
X91310888Y-100517121D01*
X91329556Y-100522953D01*
X91426587Y-100553267D01*
X91435560Y-100553431D01*
X91435563Y-100553432D01*
X91492790Y-100554481D01*
X91556755Y-100555653D01*
X91620504Y-100538273D01*
X91673701Y-100523770D01*
X91673703Y-100523769D01*
X91682360Y-100521409D01*
X91793306Y-100453288D01*
X91799330Y-100446633D01*
X91874644Y-100363427D01*
X91874645Y-100363426D01*
X91880672Y-100356767D01*
X91893676Y-100329928D01*
X91933522Y-100247685D01*
X91933522Y-100247684D01*
X91937437Y-100239604D01*
X91959037Y-100111219D01*
X91959174Y-100100000D01*
X91940718Y-99971125D01*
X91937003Y-99962955D01*
X91937001Y-99962947D01*
X91890800Y-99861335D01*
X91879500Y-99809183D01*
X91879500Y-99277712D01*
X91899502Y-99209591D01*
X91916405Y-99188617D01*
X91955922Y-99149100D01*
X92011876Y-99116632D01*
X92063143Y-99102655D01*
X92071803Y-99100294D01*
X92134852Y-99061582D01*
X92175101Y-99036869D01*
X92175102Y-99036869D01*
X92182749Y-99032173D01*
X92195941Y-99017599D01*
X92264087Y-98942312D01*
X92264088Y-98942311D01*
X92270115Y-98935652D01*
X92279106Y-98917096D01*
X92322965Y-98826570D01*
X92322965Y-98826569D01*
X92326880Y-98818489D01*
X92348480Y-98690104D01*
X92348617Y-98678885D01*
X92330161Y-98550010D01*
X92332657Y-98549653D01*
X92332722Y-98492034D01*
X92371172Y-98432351D01*
X92435786Y-98402930D01*
X92453578Y-98401668D01*
X94010671Y-98401668D01*
X94078792Y-98421670D01*
G37*
G04 #@! TD.AperFunction*
G04 #@! TA.AperFunction,Conductor*
G36*
X111950844Y-96784381D02*
G01*
X111971818Y-96801284D01*
X113378580Y-98208046D01*
X113412606Y-98270358D01*
X113414867Y-98287329D01*
X113414965Y-98287319D01*
X113474838Y-98856962D01*
X113477903Y-98886125D01*
X113490203Y-98943018D01*
X113550796Y-99064283D01*
X113578808Y-99094481D01*
X113632062Y-99151889D01*
X113642988Y-99163668D01*
X113668455Y-99178880D01*
X113716681Y-99230982D01*
X113729082Y-99300887D01*
X113701722Y-99366399D01*
X113679410Y-99387877D01*
X113662853Y-99400286D01*
X113662850Y-99400289D01*
X113655670Y-99405670D01*
X113650289Y-99412850D01*
X113578706Y-99508364D01*
X113521847Y-99550880D01*
X113451028Y-99555906D01*
X113388735Y-99521846D01*
X113354744Y-99459515D01*
X113352021Y-99438770D01*
X113351826Y-99434669D01*
X113351825Y-99434665D01*
X113351332Y-99424264D01*
X113347496Y-99414582D01*
X113346506Y-99409991D01*
X113343259Y-99398308D01*
X113341735Y-99393858D01*
X113340025Y-99383583D01*
X113325430Y-99356534D01*
X113319180Y-99343121D01*
X113311694Y-99324226D01*
X113311691Y-99324221D01*
X113307857Y-99314545D01*
X113301092Y-99306629D01*
X113298664Y-99302598D01*
X113291812Y-99292603D01*
X113288929Y-99288886D01*
X113283983Y-99279720D01*
X113276336Y-99272651D01*
X113276332Y-99272646D01*
X113261411Y-99258853D01*
X113251152Y-99248186D01*
X113237954Y-99232741D01*
X113237951Y-99232738D01*
X113231187Y-99224823D01*
X113222220Y-99219523D01*
X113218618Y-99216497D01*
X113208894Y-99209257D01*
X113204966Y-99206677D01*
X113197320Y-99199609D01*
X113169197Y-99187176D01*
X113156057Y-99180419D01*
X113129588Y-99164774D01*
X113119388Y-99162664D01*
X113114984Y-99160962D01*
X113103458Y-99157269D01*
X113098905Y-99156100D01*
X113089380Y-99151889D01*
X113058758Y-99149237D01*
X113044112Y-99147096D01*
X113024214Y-99142981D01*
X113024213Y-99142981D01*
X113014016Y-99140872D01*
X113003686Y-99142180D01*
X112998980Y-99141996D01*
X112986867Y-99142236D01*
X112982180Y-99142605D01*
X112971802Y-99141706D01*
X112961693Y-99144217D01*
X112941965Y-99149117D01*
X112927420Y-99151834D01*
X112920353Y-99152729D01*
X112896932Y-99155694D01*
X112892084Y-99157615D01*
X112889656Y-99158829D01*
X112889647Y-99158833D01*
X112889084Y-99159115D01*
X112888701Y-99159256D01*
X112887163Y-99159944D01*
X112887117Y-99159841D01*
X112875504Y-99164128D01*
X112867376Y-99167645D01*
X112857264Y-99170157D01*
X112848512Y-99175808D01*
X112848510Y-99175809D01*
X112829661Y-99187979D01*
X112817663Y-99194825D01*
X112340803Y-99433255D01*
X111863736Y-99671788D01*
X111851900Y-99676965D01*
X111829312Y-99685493D01*
X111829311Y-99685494D01*
X111819566Y-99689173D01*
X111811538Y-99695810D01*
X111811539Y-99695810D01*
X111785624Y-99717237D01*
X111779422Y-99722047D01*
X111752236Y-99741810D01*
X111752234Y-99741812D01*
X111743810Y-99747936D01*
X111738403Y-99755634D01*
X111738261Y-99755764D01*
X111735980Y-99758232D01*
X111735865Y-99758379D01*
X111728612Y-99764376D01*
X111723171Y-99773250D01*
X111723170Y-99773251D01*
X111705583Y-99801934D01*
X111701273Y-99808494D01*
X111675975Y-99844510D01*
X111673352Y-99853549D01*
X111673263Y-99853712D01*
X111671903Y-99856787D01*
X111671842Y-99856964D01*
X111666922Y-99864987D01*
X111664647Y-99875152D01*
X111657304Y-99907961D01*
X111655352Y-99915562D01*
X111643078Y-99957851D01*
X111643524Y-99967251D01*
X111643491Y-99967443D01*
X111643202Y-99970776D01*
X111643201Y-99970974D01*
X111641146Y-99980157D01*
X111642286Y-99990508D01*
X111642286Y-99990510D01*
X111645966Y-100023919D01*
X111646582Y-100031744D01*
X111648668Y-100075736D01*
X111652135Y-100084485D01*
X111652163Y-100084658D01*
X111652978Y-100087939D01*
X111653036Y-100088111D01*
X111654066Y-100097465D01*
X111658498Y-100106890D01*
X111672802Y-100137308D01*
X111675917Y-100144506D01*
X111692143Y-100185455D01*
X111698256Y-100192609D01*
X111698352Y-100192789D01*
X111700159Y-100195587D01*
X111700283Y-100195748D01*
X111704288Y-100204264D01*
X111734943Y-100235915D01*
X111740183Y-100241674D01*
X111768813Y-100275177D01*
X111776914Y-100279965D01*
X111778443Y-100281390D01*
X111780881Y-100283344D01*
X111786396Y-100289038D01*
X111790842Y-100291764D01*
X111815695Y-100304190D01*
X111826067Y-100309376D01*
X111833828Y-100313603D01*
X111870412Y-100335226D01*
X111880606Y-100337334D01*
X111881099Y-100337525D01*
X111892013Y-100342350D01*
X112123016Y-100457851D01*
X112791834Y-100792260D01*
X112797270Y-100795390D01*
X112802680Y-100800391D01*
X112812201Y-100804600D01*
X112812203Y-100804601D01*
X112846720Y-100819861D01*
X112852121Y-100822403D01*
X112863154Y-100827920D01*
X112863159Y-100827922D01*
X112867805Y-100830245D01*
X112872775Y-100831775D01*
X112877599Y-100833708D01*
X112877550Y-100833830D01*
X112882505Y-100835681D01*
X112910620Y-100848111D01*
X112920994Y-100849009D01*
X112925549Y-100850179D01*
X112937441Y-100852498D01*
X112942111Y-100853126D01*
X112952063Y-100856191D01*
X112982783Y-100855233D01*
X112997580Y-100855642D01*
X113028198Y-100858294D01*
X113038303Y-100855784D01*
X113043002Y-100855414D01*
X113054981Y-100853758D01*
X113059611Y-100852838D01*
X113070023Y-100852514D01*
X113098776Y-100841658D01*
X113112898Y-100837255D01*
X113114875Y-100836764D01*
X113142736Y-100829843D01*
X113151490Y-100824191D01*
X113155807Y-100822323D01*
X113166622Y-100816868D01*
X113170692Y-100814505D01*
X113180434Y-100810827D01*
X113188459Y-100804191D01*
X113188462Y-100804190D01*
X113204125Y-100791240D01*
X113216064Y-100782496D01*
X113233134Y-100771474D01*
X113233135Y-100771473D01*
X113241882Y-100765825D01*
X113248327Y-100757649D01*
X113251811Y-100754479D01*
X113260269Y-100745822D01*
X113263361Y-100742261D01*
X113271388Y-100735624D01*
X113276832Y-100726745D01*
X113276834Y-100726743D01*
X113287458Y-100709417D01*
X113295921Y-100697277D01*
X113308498Y-100681322D01*
X113314946Y-100673143D01*
X113318397Y-100663316D01*
X113320670Y-100659181D01*
X113325864Y-100648258D01*
X113327634Y-100643891D01*
X113333078Y-100635013D01*
X113339791Y-100605020D01*
X113343866Y-100590794D01*
X113351423Y-100569274D01*
X113351424Y-100569271D01*
X113354050Y-100561792D01*
X113354500Y-100556596D01*
X113354500Y-100554981D01*
X113356402Y-100546146D01*
X113359062Y-100546719D01*
X113380102Y-100492789D01*
X113437568Y-100451098D01*
X113508452Y-100447094D01*
X113570248Y-100482049D01*
X113580652Y-100494232D01*
X113655670Y-100594330D01*
X113679408Y-100612121D01*
X113721923Y-100668978D01*
X113726950Y-100739797D01*
X113692891Y-100802090D01*
X113668455Y-100821120D01*
X113650696Y-100831727D01*
X113650694Y-100831729D01*
X113642987Y-100836332D01*
X113636882Y-100842913D01*
X113636881Y-100842914D01*
X113592274Y-100891002D01*
X113550795Y-100935717D01*
X113490202Y-101056982D01*
X113477901Y-101113874D01*
X113477544Y-101117269D01*
X113477544Y-101117270D01*
X113475465Y-101137050D01*
X113414965Y-101712680D01*
X113415167Y-101770887D01*
X113425956Y-101812455D01*
X113441653Y-101872929D01*
X113449224Y-101902100D01*
X113518738Y-102018481D01*
X113540488Y-102038657D01*
X113576826Y-102099647D01*
X113574422Y-102170603D01*
X113534037Y-102228995D01*
X113507746Y-102245365D01*
X113488978Y-102254056D01*
X113488972Y-102254060D01*
X113480829Y-102257831D01*
X113378754Y-102347035D01*
X113305817Y-102461301D01*
X113303353Y-102468797D01*
X113303351Y-102468800D01*
X113296587Y-102489374D01*
X113287637Y-102516596D01*
X113274130Y-102580146D01*
X113273694Y-102582196D01*
X113239966Y-102644669D01*
X113177817Y-102678991D01*
X113150447Y-102682000D01*
X112583910Y-102682000D01*
X112515789Y-102661998D01*
X112494815Y-102645095D01*
X106829194Y-96979474D01*
X106795168Y-96917162D01*
X106800233Y-96846347D01*
X106842780Y-96789511D01*
X106909300Y-96764700D01*
X106918289Y-96764379D01*
X111882723Y-96764379D01*
X111950844Y-96784381D01*
G37*
G04 #@! TD.AperFunction*
G04 #@! TA.AperFunction,Conductor*
G36*
X94750196Y-100572600D02*
G01*
X94796689Y-100626256D01*
X94806793Y-100696530D01*
X94777299Y-100761110D01*
X94771171Y-100767693D01*
X94318076Y-101220789D01*
X94255763Y-101254814D01*
X94184948Y-101249750D01*
X94128112Y-101207203D01*
X94103301Y-101140683D01*
X94102980Y-101131694D01*
X94102980Y-100898930D01*
X94122982Y-100830809D01*
X94139885Y-100809835D01*
X94257330Y-100692390D01*
X94319642Y-100658364D01*
X94343549Y-100656015D01*
X94347776Y-100655488D01*
X94356755Y-100655653D01*
X94419418Y-100638569D01*
X94473701Y-100623770D01*
X94473703Y-100623769D01*
X94482360Y-100621409D01*
X94490007Y-100616714D01*
X94490011Y-100616712D01*
X94564097Y-100571223D01*
X94630025Y-100552598D01*
X94682075Y-100552598D01*
X94750196Y-100572600D01*
G37*
G04 #@! TD.AperFunction*
G04 #@! TA.AperFunction,Conductor*
G36*
X100802090Y-86307109D02*
G01*
X100821120Y-86331545D01*
X100828757Y-86344330D01*
X100836332Y-86357013D01*
X100935717Y-86449205D01*
X101056982Y-86509798D01*
X101080132Y-86514803D01*
X101110533Y-86521377D01*
X101110540Y-86521378D01*
X101113874Y-86522099D01*
X101117269Y-86522456D01*
X101117270Y-86522456D01*
X101192569Y-86530370D01*
X101712680Y-86585035D01*
X101770887Y-86584833D01*
X101837424Y-86567563D01*
X101893409Y-86553032D01*
X101893410Y-86553031D01*
X101902100Y-86550776D01*
X102018481Y-86481262D01*
X102038657Y-86459512D01*
X102099647Y-86423174D01*
X102170603Y-86425578D01*
X102228995Y-86465963D01*
X102245365Y-86492254D01*
X102254056Y-86511022D01*
X102254059Y-86511026D01*
X102257831Y-86519171D01*
X102347035Y-86621246D01*
X102461301Y-86694183D01*
X102468797Y-86696647D01*
X102468800Y-86696649D01*
X102508145Y-86709584D01*
X102516596Y-86712363D01*
X102742591Y-86760399D01*
X103102212Y-86836838D01*
X103102216Y-86836839D01*
X103105544Y-86837546D01*
X103163453Y-86843430D01*
X103171261Y-86842256D01*
X103171265Y-86842256D01*
X103241717Y-86831663D01*
X103297507Y-86823275D01*
X103348531Y-86799645D01*
X103412369Y-86770080D01*
X103420516Y-86766307D01*
X103442853Y-86746787D01*
X103507307Y-86717021D01*
X103577623Y-86726828D01*
X103631475Y-86773094D01*
X103645008Y-86800951D01*
X103654593Y-86829028D01*
X103732638Y-86939868D01*
X103838654Y-87024350D01*
X103891746Y-87048210D01*
X103972509Y-87074451D01*
X103984592Y-87078377D01*
X104043197Y-87118450D01*
X104070835Y-87183846D01*
X104071172Y-87208882D01*
X104071188Y-87209064D01*
X104070227Y-87220047D01*
X104073081Y-87230698D01*
X104079722Y-87255485D01*
X104082100Y-87266214D01*
X104086556Y-87291483D01*
X104086558Y-87291488D01*
X104088472Y-87302344D01*
X104093985Y-87311891D01*
X104095064Y-87314857D01*
X104096398Y-87317718D01*
X104099252Y-87328370D01*
X104105575Y-87337400D01*
X104120296Y-87358424D01*
X104126201Y-87367694D01*
X104139030Y-87389915D01*
X104139033Y-87389919D01*
X104144544Y-87399464D01*
X104152991Y-87406552D01*
X104172649Y-87423047D01*
X104180753Y-87430473D01*
X105145095Y-88394815D01*
X105179121Y-88457127D01*
X105182000Y-88483910D01*
X105182000Y-90775577D01*
X105161998Y-90843698D01*
X105145095Y-90864672D01*
X102034929Y-93974838D01*
X101972617Y-94008864D01*
X101945834Y-94011743D01*
X101800564Y-94011743D01*
X101789586Y-94011264D01*
X101778838Y-94010324D01*
X101764003Y-94009026D01*
X101764002Y-94009026D01*
X101753027Y-94008066D01*
X101742384Y-94010918D01*
X101742382Y-94010918D01*
X101717589Y-94017561D01*
X101706860Y-94019939D01*
X101681591Y-94024395D01*
X101681586Y-94024397D01*
X101670730Y-94026311D01*
X101661183Y-94031824D01*
X101658217Y-94032903D01*
X101655356Y-94034237D01*
X101644704Y-94037091D01*
X101635674Y-94043414D01*
X101614650Y-94058135D01*
X101605380Y-94064040D01*
X101583159Y-94076869D01*
X101583155Y-94076872D01*
X101573610Y-94082383D01*
X101566522Y-94090830D01*
X101550027Y-94110488D01*
X101542601Y-94118592D01*
X101521963Y-94139230D01*
X101457449Y-94173714D01*
X101449335Y-94175328D01*
X101368299Y-94191447D01*
X101357980Y-94198342D01*
X101310513Y-94230058D01*
X101310509Y-94230061D01*
X101305367Y-94233497D01*
X100226935Y-95311930D01*
X100184884Y-95374862D01*
X100182464Y-95387031D01*
X100182463Y-95387032D01*
X100174780Y-95425657D01*
X100165132Y-95474163D01*
X100167553Y-95486334D01*
X100181043Y-95554152D01*
X100184884Y-95573464D01*
X100191777Y-95583780D01*
X100223495Y-95631251D01*
X100223498Y-95631255D01*
X100226934Y-95636397D01*
X100474516Y-95883978D01*
X100479666Y-95887419D01*
X100479667Y-95887420D01*
X100517202Y-95912501D01*
X100551964Y-95947263D01*
X100577046Y-95984801D01*
X100577049Y-95984805D01*
X100580487Y-95989950D01*
X100828069Y-96237531D01*
X100833216Y-96240970D01*
X100833217Y-96240971D01*
X100870755Y-96266053D01*
X100905518Y-96300816D01*
X100934041Y-96343504D01*
X101181623Y-96591085D01*
X101186773Y-96594526D01*
X101186774Y-96594527D01*
X101224309Y-96619608D01*
X101259071Y-96654370D01*
X101284153Y-96691908D01*
X101284156Y-96691912D01*
X101287594Y-96697057D01*
X101535176Y-96944638D01*
X101540326Y-96948079D01*
X101540327Y-96948080D01*
X101577862Y-96973161D01*
X101612624Y-97007923D01*
X101637706Y-97045461D01*
X101637709Y-97045465D01*
X101641147Y-97050610D01*
X101888729Y-97298191D01*
X101893876Y-97301630D01*
X101893877Y-97301631D01*
X101899102Y-97305122D01*
X101913073Y-97314457D01*
X101931415Y-97326713D01*
X101966178Y-97361476D01*
X101994701Y-97404164D01*
X102242283Y-97651745D01*
X102247433Y-97655186D01*
X102247434Y-97655187D01*
X102284969Y-97680268D01*
X102319731Y-97715030D01*
X102344813Y-97752568D01*
X102344816Y-97752572D01*
X102348254Y-97757717D01*
X102595836Y-98005298D01*
X102629390Y-98027718D01*
X102638522Y-98033820D01*
X102673285Y-98068583D01*
X102701808Y-98111271D01*
X102821710Y-98231173D01*
X102855736Y-98293485D01*
X102850671Y-98364300D01*
X102821710Y-98409363D01*
X102373050Y-98858023D01*
X102310738Y-98892049D01*
X102239923Y-98886984D01*
X102194860Y-98858023D01*
X100166613Y-96829777D01*
X100162234Y-96825398D01*
X100099301Y-96783347D01*
X100000000Y-96763595D01*
X99987829Y-96766016D01*
X99912869Y-96780926D01*
X99912868Y-96780927D01*
X99900699Y-96783347D01*
X99837766Y-96825397D01*
X99226780Y-97436384D01*
X98689024Y-97974140D01*
X98626712Y-98008165D01*
X98555897Y-98003101D01*
X98510834Y-97974140D01*
X98054153Y-97517459D01*
X98020127Y-97455147D01*
X98025192Y-97384332D01*
X98073248Y-97323598D01*
X98106121Y-97301634D01*
X98106127Y-97301629D01*
X98111271Y-97298192D01*
X98358852Y-97050610D01*
X98380309Y-97018498D01*
X98387375Y-97007924D01*
X98422137Y-96973162D01*
X98459675Y-96948080D01*
X98459679Y-96948077D01*
X98464824Y-96944639D01*
X98712405Y-96697057D01*
X98715847Y-96691906D01*
X98740928Y-96654371D01*
X98775690Y-96619609D01*
X98813228Y-96594527D01*
X98813232Y-96594524D01*
X98818377Y-96591086D01*
X99065958Y-96343504D01*
X99077458Y-96326294D01*
X99094480Y-96300818D01*
X99129244Y-96266054D01*
X99171931Y-96237532D01*
X99419512Y-95989950D01*
X99422954Y-95984799D01*
X99448035Y-95947264D01*
X99482797Y-95912502D01*
X99520335Y-95887420D01*
X99520339Y-95887417D01*
X99525484Y-95883979D01*
X99773065Y-95636397D01*
X99815116Y-95573464D01*
X99834868Y-95474163D01*
X99815116Y-95374862D01*
X99788293Y-95334718D01*
X99776505Y-95317076D01*
X99776502Y-95317072D01*
X99773066Y-95311930D01*
X98694633Y-94233498D01*
X98689485Y-94230058D01*
X98689484Y-94230057D01*
X98666159Y-94214472D01*
X98631701Y-94191447D01*
X98619532Y-94189027D01*
X98619531Y-94189026D01*
X98532400Y-94171695D01*
X98532862Y-94169374D01*
X98475630Y-94151329D01*
X98464327Y-94143414D01*
X98464324Y-94143413D01*
X98455296Y-94137091D01*
X98444645Y-94134237D01*
X98441783Y-94132903D01*
X98438817Y-94131824D01*
X98429270Y-94126311D01*
X98418414Y-94124397D01*
X98418409Y-94124395D01*
X98393140Y-94119939D01*
X98382411Y-94117561D01*
X98357624Y-94110920D01*
X98346973Y-94108066D01*
X98319290Y-94110488D01*
X98310420Y-94111264D01*
X98299438Y-94111743D01*
X98154166Y-94111743D01*
X98086045Y-94091741D01*
X98065071Y-94074838D01*
X97056569Y-93066336D01*
X97022543Y-93004024D01*
X97019664Y-92977241D01*
X97019664Y-89269746D01*
X97039666Y-89201625D01*
X97056569Y-89180651D01*
X99024565Y-87212655D01*
X99086877Y-87178629D01*
X99157692Y-87183694D01*
X99214528Y-87226241D01*
X99226355Y-87245396D01*
X99671785Y-88136256D01*
X99676965Y-88148100D01*
X99683701Y-88165940D01*
X99689173Y-88180434D01*
X99716599Y-88213604D01*
X99717237Y-88214376D01*
X99722047Y-88220578D01*
X99741810Y-88247764D01*
X99741812Y-88247766D01*
X99747936Y-88256190D01*
X99755634Y-88261597D01*
X99755764Y-88261739D01*
X99758232Y-88264020D01*
X99758379Y-88264135D01*
X99764376Y-88271388D01*
X99773250Y-88276829D01*
X99773251Y-88276830D01*
X99801934Y-88294417D01*
X99808494Y-88298727D01*
X99844510Y-88324025D01*
X99853549Y-88326648D01*
X99853712Y-88326737D01*
X99856787Y-88328097D01*
X99856964Y-88328158D01*
X99864987Y-88333078D01*
X99875152Y-88335353D01*
X99907961Y-88342696D01*
X99915562Y-88344648D01*
X99923742Y-88347022D01*
X99957851Y-88356922D01*
X99967251Y-88356476D01*
X99967443Y-88356509D01*
X99970776Y-88356798D01*
X99970974Y-88356799D01*
X99980157Y-88358854D01*
X99990509Y-88357714D01*
X99990510Y-88357714D01*
X100015480Y-88354964D01*
X100023923Y-88354034D01*
X100031745Y-88353418D01*
X100075736Y-88351332D01*
X100084485Y-88347865D01*
X100084658Y-88347837D01*
X100087939Y-88347022D01*
X100088111Y-88346964D01*
X100097465Y-88345934D01*
X100137313Y-88327196D01*
X100144508Y-88324082D01*
X100159761Y-88318038D01*
X100185455Y-88307857D01*
X100192609Y-88301744D01*
X100192789Y-88301648D01*
X100195587Y-88299841D01*
X100195748Y-88299717D01*
X100204264Y-88295712D01*
X100235915Y-88265057D01*
X100241674Y-88259817D01*
X100275177Y-88231187D01*
X100279965Y-88223086D01*
X100281390Y-88221557D01*
X100283344Y-88219119D01*
X100289038Y-88213604D01*
X100291764Y-88209158D01*
X100309377Y-88173932D01*
X100313603Y-88166172D01*
X100320704Y-88154158D01*
X100335226Y-88129588D01*
X100337334Y-88119394D01*
X100337525Y-88118901D01*
X100342350Y-88107987D01*
X100567303Y-87658080D01*
X100792260Y-87208166D01*
X100795390Y-87202730D01*
X100800391Y-87197320D01*
X100819861Y-87153280D01*
X100822403Y-87147879D01*
X100827920Y-87136846D01*
X100827922Y-87136841D01*
X100830245Y-87132195D01*
X100831775Y-87127225D01*
X100833708Y-87122401D01*
X100833830Y-87122450D01*
X100835681Y-87117495D01*
X100843901Y-87098902D01*
X100848111Y-87089380D01*
X100849009Y-87079006D01*
X100850179Y-87074451D01*
X100852498Y-87062559D01*
X100853126Y-87057889D01*
X100856191Y-87047937D01*
X100855233Y-87017217D01*
X100855642Y-87002417D01*
X100858294Y-86971802D01*
X100855784Y-86961697D01*
X100855414Y-86956998D01*
X100853758Y-86945019D01*
X100852838Y-86940389D01*
X100852514Y-86929977D01*
X100841658Y-86901224D01*
X100837255Y-86887102D01*
X100832354Y-86867374D01*
X100829843Y-86857264D01*
X100824192Y-86848512D01*
X100822323Y-86844193D01*
X100816868Y-86833378D01*
X100814505Y-86829308D01*
X100810827Y-86819566D01*
X100804191Y-86811541D01*
X100804190Y-86811538D01*
X100791240Y-86795875D01*
X100782496Y-86783936D01*
X100771474Y-86766866D01*
X100771473Y-86766865D01*
X100765825Y-86758118D01*
X100757649Y-86751673D01*
X100754479Y-86748189D01*
X100745822Y-86739731D01*
X100742261Y-86736639D01*
X100735624Y-86728612D01*
X100726745Y-86723168D01*
X100726743Y-86723166D01*
X100709417Y-86712542D01*
X100697277Y-86704079D01*
X100681322Y-86691502D01*
X100673143Y-86685054D01*
X100663316Y-86681603D01*
X100659181Y-86679330D01*
X100648258Y-86674136D01*
X100643891Y-86672366D01*
X100635013Y-86666922D01*
X100605021Y-86660209D01*
X100590794Y-86656134D01*
X100569274Y-86648577D01*
X100569271Y-86648576D01*
X100561792Y-86645950D01*
X100556596Y-86645500D01*
X100554981Y-86645500D01*
X100546146Y-86643598D01*
X100546719Y-86640938D01*
X100492789Y-86619898D01*
X100451098Y-86562432D01*
X100447094Y-86491548D01*
X100482049Y-86429752D01*
X100494236Y-86419345D01*
X100494425Y-86419204D01*
X100594330Y-86344330D01*
X100612121Y-86320592D01*
X100668978Y-86278077D01*
X100739797Y-86273050D01*
X100802090Y-86307109D01*
G37*
G04 #@! TD.AperFunction*
G04 #@! TA.AperFunction,Conductor*
G36*
X91428652Y-89776057D02*
G01*
X91449626Y-89792960D01*
X96674034Y-95017369D01*
X96708060Y-95079681D01*
X96710939Y-95106464D01*
X96710939Y-95853228D01*
X96689705Y-95923228D01*
X96679851Y-95937976D01*
X96645087Y-95972741D01*
X96602399Y-96001264D01*
X96354818Y-96248846D01*
X96351377Y-96253996D01*
X96351376Y-96253997D01*
X96326295Y-96291532D01*
X96291533Y-96326294D01*
X96253995Y-96351376D01*
X96253991Y-96351379D01*
X96248846Y-96354817D01*
X96001265Y-96602399D01*
X95997826Y-96607546D01*
X95997825Y-96607547D01*
X95972743Y-96645085D01*
X95937979Y-96679849D01*
X95905673Y-96701435D01*
X95895292Y-96708371D01*
X95888980Y-96714683D01*
X95887718Y-96715372D01*
X95886133Y-96716673D01*
X95885886Y-96716372D01*
X95826668Y-96748709D01*
X95799885Y-96751588D01*
X89353498Y-96751588D01*
X89285377Y-96731586D01*
X89264403Y-96714683D01*
X88254905Y-95705185D01*
X88220879Y-95642873D01*
X88218000Y-95616090D01*
X88218000Y-94392180D01*
X88238002Y-94324059D01*
X88291658Y-94277566D01*
X88361932Y-94267462D01*
X88392795Y-94276011D01*
X88408776Y-94282724D01*
X88413935Y-94283484D01*
X88417305Y-94283686D01*
X88417713Y-94283756D01*
X88419343Y-94283925D01*
X88419332Y-94284034D01*
X88431603Y-94286142D01*
X88440358Y-94287155D01*
X88450361Y-94290032D01*
X88483169Y-94288399D01*
X88496978Y-94288469D01*
X88692409Y-94300199D01*
X89561589Y-94352371D01*
X89574430Y-94353806D01*
X89608541Y-94359401D01*
X89651974Y-94352066D01*
X89659738Y-94351003D01*
X89669591Y-94349965D01*
X89693169Y-94347481D01*
X89693170Y-94347481D01*
X89703530Y-94346389D01*
X89712066Y-94342424D01*
X89712255Y-94342382D01*
X89715458Y-94341387D01*
X89715631Y-94341317D01*
X89724912Y-94339750D01*
X89734064Y-94334784D01*
X89734067Y-94334783D01*
X89763621Y-94318747D01*
X89770631Y-94315221D01*
X89801119Y-94301059D01*
X89801120Y-94301058D01*
X89810565Y-94296671D01*
X89817356Y-94290155D01*
X89817524Y-94290053D01*
X89820220Y-94288083D01*
X89820369Y-94287954D01*
X89828643Y-94283464D01*
X89858455Y-94251061D01*
X89863947Y-94245453D01*
X89880880Y-94229206D01*
X89895724Y-94214964D01*
X89900039Y-94206599D01*
X89900165Y-94206447D01*
X89902082Y-94203705D01*
X89902181Y-94203535D01*
X89908550Y-94196612D01*
X89912735Y-94187084D01*
X89912738Y-94187080D01*
X89926258Y-94156300D01*
X89929628Y-94149234D01*
X89949826Y-94110077D01*
X89951199Y-94100764D01*
X89951266Y-94100587D01*
X89952193Y-94097365D01*
X89952231Y-94097174D01*
X89956015Y-94088560D01*
X89959709Y-94044701D01*
X89960611Y-94036902D01*
X89965516Y-94003624D01*
X89967035Y-93993320D01*
X89965317Y-93984064D01*
X89965323Y-93983878D01*
X89965156Y-93980525D01*
X89965131Y-93980336D01*
X89965921Y-93970958D01*
X89955204Y-93928242D01*
X89953538Y-93920599D01*
X89947399Y-93887522D01*
X89947398Y-93887519D01*
X89945498Y-93877283D01*
X89940876Y-93869086D01*
X89940266Y-93867095D01*
X89939131Y-93864183D01*
X89937201Y-93856488D01*
X89934713Y-93851904D01*
X89913014Y-93819040D01*
X89908415Y-93811511D01*
X89892651Y-93783552D01*
X89892647Y-93783548D01*
X89887535Y-93774480D01*
X89879760Y-93767557D01*
X89879433Y-93767151D01*
X89872389Y-93757511D01*
X89836532Y-93703202D01*
X89318077Y-92917966D01*
X89314935Y-92912537D01*
X89312750Y-92905501D01*
X89306608Y-92897093D01*
X89306606Y-92897090D01*
X89284345Y-92866620D01*
X89280936Y-92861714D01*
X89274146Y-92851430D01*
X89271277Y-92847084D01*
X89267734Y-92843270D01*
X89264523Y-92839183D01*
X89264627Y-92839101D01*
X89261261Y-92835021D01*
X89249276Y-92818615D01*
X89249274Y-92818613D01*
X89243131Y-92810204D01*
X89234594Y-92804237D01*
X89231234Y-92800947D01*
X89222097Y-92792995D01*
X89218367Y-92790116D01*
X89211280Y-92782485D01*
X89184189Y-92767950D01*
X89171593Y-92760206D01*
X89161312Y-92753020D01*
X89146397Y-92742596D01*
X89136390Y-92739717D01*
X89132149Y-92737694D01*
X89120914Y-92733124D01*
X89116457Y-92731610D01*
X89107285Y-92726689D01*
X89076967Y-92721716D01*
X89062528Y-92718467D01*
X89062445Y-92718443D01*
X89032979Y-92709966D01*
X89022581Y-92710484D01*
X89017908Y-92709943D01*
X89005827Y-92709261D01*
X89001103Y-92709272D01*
X88990824Y-92707586D01*
X88960516Y-92712704D01*
X88945811Y-92714306D01*
X88937585Y-92714715D01*
X88925506Y-92715316D01*
X88925504Y-92715316D01*
X88915107Y-92715834D01*
X88905439Y-92719691D01*
X88900843Y-92720693D01*
X88889175Y-92723966D01*
X88884719Y-92725503D01*
X88874453Y-92727237D01*
X88847429Y-92741900D01*
X88834043Y-92748176D01*
X88805491Y-92759567D01*
X88797592Y-92766350D01*
X88793562Y-92768790D01*
X88783599Y-92775655D01*
X88779879Y-92778555D01*
X88770722Y-92783523D01*
X88763671Y-92791187D01*
X88763667Y-92791190D01*
X88749912Y-92806141D01*
X88739266Y-92816428D01*
X88724794Y-92828854D01*
X88715950Y-92836448D01*
X88712962Y-92840723D01*
X88712153Y-92842124D01*
X88706092Y-92848820D01*
X88704072Y-92846992D01*
X88658910Y-92883172D01*
X88588298Y-92890557D01*
X88524903Y-92858594D01*
X88488852Y-92797432D01*
X88485927Y-92781652D01*
X88472079Y-92666372D01*
X88472078Y-92666369D01*
X88471008Y-92657460D01*
X88469113Y-92653028D01*
X88470751Y-92584143D01*
X88501674Y-92533410D01*
X88549279Y-92485805D01*
X88604117Y-92457863D01*
X88602993Y-92454222D01*
X88611574Y-92451574D01*
X88732525Y-92414248D01*
X88740009Y-92409304D01*
X88740011Y-92409303D01*
X88839043Y-92343880D01*
X88839045Y-92343878D01*
X88845633Y-92339526D01*
X88884731Y-92296406D01*
X89238639Y-91809293D01*
X89240333Y-91806335D01*
X89240339Y-91806326D01*
X89263641Y-91765640D01*
X89263642Y-91765638D01*
X89267568Y-91758783D01*
X89303680Y-91628121D01*
X89302852Y-91572277D01*
X89301802Y-91501555D01*
X89301669Y-91492575D01*
X89292921Y-91464228D01*
X89291945Y-91393240D01*
X89329505Y-91332992D01*
X89393674Y-91302615D01*
X89424628Y-91301583D01*
X89433239Y-91302359D01*
X89454176Y-91304246D01*
X89462978Y-91302511D01*
X89462979Y-91302511D01*
X89561652Y-91283062D01*
X89587177Y-91278031D01*
X89707476Y-91215542D01*
X89750867Y-91176745D01*
X89798679Y-91123645D01*
X90054315Y-90839731D01*
X90153754Y-90729293D01*
X90187803Y-90682084D01*
X90237376Y-90555913D01*
X90249545Y-90420900D01*
X90243809Y-90391796D01*
X90250261Y-90321093D01*
X90293913Y-90265102D01*
X90360907Y-90241600D01*
X90391796Y-90243809D01*
X90412095Y-90247810D01*
X90412098Y-90247810D01*
X90420900Y-90249545D01*
X90555913Y-90237376D01*
X90682084Y-90187803D01*
X90688487Y-90183185D01*
X90688489Y-90183184D01*
X90726525Y-90155751D01*
X90729293Y-90153755D01*
X91135039Y-89788419D01*
X91199046Y-89757702D01*
X91219349Y-89756055D01*
X91360531Y-89756055D01*
X91428652Y-89776057D01*
G37*
G04 #@! TD.AperFunction*
G04 #@! TA.AperFunction,Conductor*
G36*
X108584211Y-90138002D02*
G01*
X108605185Y-90154905D01*
X109261431Y-90811151D01*
X109268857Y-90819255D01*
X109283937Y-90837226D01*
X109292440Y-90847360D01*
X109301985Y-90852871D01*
X109301989Y-90852874D01*
X109324210Y-90865703D01*
X109333480Y-90871608D01*
X109363534Y-90892652D01*
X109374186Y-90895506D01*
X109377047Y-90896840D01*
X109380013Y-90897919D01*
X109389560Y-90903432D01*
X109400416Y-90905346D01*
X109400421Y-90905348D01*
X109425690Y-90909804D01*
X109436419Y-90912182D01*
X109458134Y-90918000D01*
X109471857Y-90921677D01*
X109508410Y-90918479D01*
X109519392Y-90918000D01*
X109960059Y-90918000D01*
X110028180Y-90938002D01*
X110053695Y-90959689D01*
X110236181Y-91162359D01*
X110249133Y-91176744D01*
X110251674Y-91179016D01*
X110251679Y-91179021D01*
X110259420Y-91185942D01*
X110292524Y-91215542D01*
X110412823Y-91278031D01*
X110438348Y-91283062D01*
X110537021Y-91302511D01*
X110537022Y-91302511D01*
X110545824Y-91304246D01*
X110566761Y-91302359D01*
X110575372Y-91301583D01*
X110645013Y-91315389D01*
X110696135Y-91364655D01*
X110712506Y-91433738D01*
X110707080Y-91464225D01*
X110698331Y-91492575D01*
X110698198Y-91501555D01*
X110697149Y-91572277D01*
X110696320Y-91628121D01*
X110732432Y-91758783D01*
X110736358Y-91765639D01*
X110736359Y-91765640D01*
X110738645Y-91769631D01*
X110761360Y-91809292D01*
X111115269Y-92296405D01*
X111154367Y-92339526D01*
X111160955Y-92343878D01*
X111160957Y-92343880D01*
X111259989Y-92409303D01*
X111259991Y-92409304D01*
X111267475Y-92414248D01*
X111286503Y-92420120D01*
X111388425Y-92451574D01*
X111388428Y-92451574D01*
X111397007Y-92454222D01*
X111417517Y-92454526D01*
X111426670Y-92454662D01*
X111494486Y-92475672D01*
X111540178Y-92530011D01*
X111549239Y-92600428D01*
X111540655Y-92630184D01*
X111528992Y-92657460D01*
X111513970Y-92782514D01*
X111513686Y-92784879D01*
X111485702Y-92850128D01*
X111426884Y-92889890D01*
X111355907Y-92891541D01*
X111295305Y-92854556D01*
X111282574Y-92837952D01*
X111280355Y-92834498D01*
X111280352Y-92834495D01*
X111274724Y-92825733D01*
X111266559Y-92819266D01*
X111263400Y-92815777D01*
X111254756Y-92807293D01*
X111251214Y-92804203D01*
X111244592Y-92796155D01*
X111218423Y-92780024D01*
X111206306Y-92771534D01*
X111190382Y-92758920D01*
X111190380Y-92758919D01*
X111182215Y-92752451D01*
X111172395Y-92748977D01*
X111168266Y-92746694D01*
X111157349Y-92741471D01*
X111152991Y-92739693D01*
X111144126Y-92734228D01*
X111119169Y-92728581D01*
X111114149Y-92727445D01*
X111099933Y-92723337D01*
X111070955Y-92713084D01*
X111060539Y-92712978D01*
X111055902Y-92712157D01*
X111043867Y-92710750D01*
X111039172Y-92710479D01*
X111029019Y-92708182D01*
X111018670Y-92709297D01*
X111018667Y-92709297D01*
X110998458Y-92711475D01*
X110983672Y-92712193D01*
X110963362Y-92711985D01*
X110963359Y-92711985D01*
X110952943Y-92711879D01*
X110943054Y-92715153D01*
X110938397Y-92715879D01*
X110926572Y-92718443D01*
X110922037Y-92719709D01*
X110911680Y-92720825D01*
X110883831Y-92733841D01*
X110870078Y-92739309D01*
X110850793Y-92745692D01*
X110850790Y-92745694D01*
X110840904Y-92748966D01*
X110832611Y-92755265D01*
X110828437Y-92757462D01*
X110818087Y-92763713D01*
X110814199Y-92766385D01*
X110804763Y-92770795D01*
X110782630Y-92792132D01*
X110771391Y-92801758D01*
X110753231Y-92815549D01*
X110753228Y-92815551D01*
X110746918Y-92820344D01*
X110743679Y-92824432D01*
X110742194Y-92826682D01*
X110742181Y-92826699D01*
X110741824Y-92827241D01*
X110741554Y-92827566D01*
X110740573Y-92828920D01*
X110740483Y-92828854D01*
X110732562Y-92838380D01*
X110727293Y-92845475D01*
X110719795Y-92852704D01*
X110704798Y-92881948D01*
X110697842Y-92893855D01*
X110110416Y-93783552D01*
X110110199Y-93783881D01*
X110102543Y-93794276D01*
X110080631Y-93821032D01*
X110076999Y-93830791D01*
X110076997Y-93830794D01*
X110065266Y-93862313D01*
X110062310Y-93869558D01*
X110044405Y-93909801D01*
X110043571Y-93919175D01*
X110043515Y-93919353D01*
X110042772Y-93922636D01*
X110042746Y-93922819D01*
X110039464Y-93931638D01*
X110038629Y-93963237D01*
X110038300Y-93975666D01*
X110037849Y-93983492D01*
X110033946Y-94027355D01*
X110036193Y-94036494D01*
X110036198Y-94036678D01*
X110036558Y-94040023D01*
X110036593Y-94040206D01*
X110036344Y-94049615D01*
X110039456Y-94059553D01*
X110039456Y-94059556D01*
X110046851Y-94083172D01*
X110048538Y-94088560D01*
X110049502Y-94091640D01*
X110051612Y-94099197D01*
X110052732Y-94103752D01*
X110056563Y-94119330D01*
X110062127Y-94141959D01*
X110067213Y-94149877D01*
X110067278Y-94150052D01*
X110068700Y-94153095D01*
X110068795Y-94153261D01*
X110071607Y-94162242D01*
X110097668Y-94197739D01*
X110102102Y-94204191D01*
X110120281Y-94232492D01*
X110120284Y-94232496D01*
X110125911Y-94241255D01*
X110133286Y-94247097D01*
X110133399Y-94247235D01*
X110135746Y-94249670D01*
X110135883Y-94249790D01*
X110141450Y-94257374D01*
X110149999Y-94263319D01*
X110150001Y-94263321D01*
X110177606Y-94282518D01*
X110183905Y-94287196D01*
X110201406Y-94301059D01*
X110218420Y-94314537D01*
X110227293Y-94317676D01*
X110227456Y-94317778D01*
X110230436Y-94319306D01*
X110230614Y-94319380D01*
X110238343Y-94324754D01*
X110280716Y-94336836D01*
X110288156Y-94339211D01*
X110329680Y-94353904D01*
X110339092Y-94354000D01*
X110341130Y-94354469D01*
X110344213Y-94354942D01*
X110351837Y-94357116D01*
X110357051Y-94357254D01*
X110359750Y-94357092D01*
X110359751Y-94357092D01*
X110364872Y-94356785D01*
X110396375Y-94354894D01*
X110405196Y-94354675D01*
X110419128Y-94354817D01*
X110437276Y-94355003D01*
X110437278Y-94355003D01*
X110447692Y-94355109D01*
X110457583Y-94351835D01*
X110458092Y-94351756D01*
X110469953Y-94350478D01*
X111474185Y-94290201D01*
X111480455Y-94290194D01*
X111487642Y-94291820D01*
X111497999Y-94290704D01*
X111535507Y-94286663D01*
X111541450Y-94286165D01*
X111553770Y-94285425D01*
X111553781Y-94285423D01*
X111558968Y-94285112D01*
X111564034Y-94283953D01*
X111569180Y-94283215D01*
X111569199Y-94283346D01*
X111574422Y-94282469D01*
X111587306Y-94281080D01*
X111594624Y-94280292D01*
X111594625Y-94280292D01*
X111604980Y-94279176D01*
X111614418Y-94274765D01*
X111618949Y-94273500D01*
X111630424Y-94269556D01*
X111634761Y-94267774D01*
X111644911Y-94265452D01*
X111671046Y-94249257D01*
X111684057Y-94242218D01*
X111702460Y-94233617D01*
X111702462Y-94233616D01*
X111711897Y-94229206D01*
X111719394Y-94221979D01*
X111723280Y-94219308D01*
X111732842Y-94211872D01*
X111736376Y-94208774D01*
X111745230Y-94203288D01*
X111756910Y-94189026D01*
X111764704Y-94179509D01*
X111774740Y-94168626D01*
X111781211Y-94162388D01*
X111796865Y-94147298D01*
X111801619Y-94138028D01*
X111804432Y-94134240D01*
X111811060Y-94124124D01*
X111813407Y-94120036D01*
X111820004Y-94111981D01*
X111826181Y-94095387D01*
X111830727Y-94083172D01*
X111836693Y-94069634D01*
X111850719Y-94042283D01*
X111852214Y-94031973D01*
X111853647Y-94027482D01*
X111856642Y-94015760D01*
X111857538Y-94011137D01*
X111861171Y-94001375D01*
X111861984Y-93970643D01*
X111863244Y-93955898D01*
X111866159Y-93935791D01*
X111867653Y-93925486D01*
X111865729Y-93915255D01*
X111865631Y-93910562D01*
X111864664Y-93898454D01*
X111864016Y-93893805D01*
X111864291Y-93883398D01*
X111860503Y-93871297D01*
X111855106Y-93854061D01*
X111851521Y-93839700D01*
X111847308Y-93817297D01*
X111847308Y-93817296D01*
X111845842Y-93809502D01*
X111843634Y-93804777D01*
X111842826Y-93803378D01*
X111840057Y-93794778D01*
X111842647Y-93793944D01*
X111833900Y-93736723D01*
X111862819Y-93671883D01*
X111922202Y-93632971D01*
X111993196Y-93632341D01*
X112008308Y-93637693D01*
X112123322Y-93686870D01*
X112152775Y-93690408D01*
X112218023Y-93718392D01*
X112257785Y-93777210D01*
X112259436Y-93848187D01*
X112247788Y-93876884D01*
X112244892Y-93882077D01*
X112233339Y-93902791D01*
X112231343Y-93911541D01*
X112206312Y-94021273D01*
X112203191Y-94034956D01*
X112211348Y-94170271D01*
X112229141Y-94225691D01*
X112230519Y-94228785D01*
X112230522Y-94228794D01*
X112345783Y-94487672D01*
X112376757Y-94557240D01*
X112401596Y-94613030D01*
X112411030Y-94683397D01*
X112380924Y-94747694D01*
X112375584Y-94753374D01*
X111544524Y-95584434D01*
X111482212Y-95618460D01*
X111455429Y-95621339D01*
X103200671Y-95621339D01*
X103132550Y-95601337D01*
X103086057Y-95547681D01*
X103075150Y-95506320D01*
X103071999Y-95470302D01*
X103071520Y-95459321D01*
X103071520Y-94965473D01*
X103091522Y-94897352D01*
X103108425Y-94876378D01*
X107829898Y-90154905D01*
X107892210Y-90120879D01*
X107918993Y-90118000D01*
X108516090Y-90118000D01*
X108584211Y-90138002D01*
G37*
G04 #@! TD.AperFunction*
M02*
