%TF.GenerationSoftware,KiCad,Pcbnew,8.0.4*%
%TF.CreationDate,2024-08-01T16:10:49+02:00*%
%TF.ProjectId,watch,77617463-682e-46b6-9963-61645f706362,rev?*%
%TF.SameCoordinates,Original*%
%TF.FileFunction,Legend,Bot*%
%TF.FilePolarity,Positive*%
%FSLAX46Y46*%
G04 Gerber Fmt 4.6, Leading zero omitted, Abs format (unit mm)*
G04 Created by KiCad (PCBNEW 8.0.4) date 2024-08-01 16:10:49*
%MOMM*%
%LPD*%
G01*
G04 APERTURE LIST*
G04 Aperture macros list*
%AMRoundRect*
0 Rectangle with rounded corners*
0 $1 Rounding radius*
0 $2 $3 $4 $5 $6 $7 $8 $9 X,Y pos of 4 corners*
0 Add a 4 corners polygon primitive as box body*
4,1,4,$2,$3,$4,$5,$6,$7,$8,$9,$2,$3,0*
0 Add four circle primitives for the rounded corners*
1,1,$1+$1,$2,$3*
1,1,$1+$1,$4,$5*
1,1,$1+$1,$6,$7*
1,1,$1+$1,$8,$9*
0 Add four rect primitives between the rounded corners*
20,1,$1+$1,$2,$3,$4,$5,0*
20,1,$1+$1,$4,$5,$6,$7,0*
20,1,$1+$1,$6,$7,$8,$9,0*
20,1,$1+$1,$8,$9,$2,$3,0*%
G04 Aperture macros list end*
%ADD10C,0.150000*%
%ADD11C,0.120000*%
%ADD12C,0.100000*%
%ADD13C,1.000000*%
%ADD14RoundRect,0.237500X0.008839X0.344715X-0.344715X-0.008839X-0.008839X-0.344715X0.344715X0.008839X0*%
%ADD15RoundRect,0.237500X-0.008839X-0.344715X0.344715X0.008839X0.008839X0.344715X-0.344715X-0.008839X0*%
%ADD16RoundRect,0.150000X0.521491X-0.309359X-0.309359X0.521491X-0.521491X0.309359X0.309359X-0.521491X0*%
%ADD17RoundRect,0.237500X-0.344715X0.008839X0.008839X-0.344715X0.344715X-0.008839X-0.008839X0.344715X0*%
%ADD18RoundRect,0.225000X-0.017678X0.335876X-0.335876X0.017678X0.017678X-0.335876X0.335876X-0.017678X0*%
%ADD19R,2.550000X5.000000*%
%ADD20C,18.000000*%
G04 APERTURE END LIST*
D10*
X114632430Y-92797827D02*
X114228369Y-93201888D01*
X115137506Y-93706964D02*
X114430399Y-92999857D01*
X114699773Y-94144697D02*
X113992666Y-93437590D01*
X113992666Y-93437590D02*
X113723292Y-93706964D01*
X113723292Y-93706964D02*
X113689621Y-93807980D01*
X113689621Y-93807980D02*
X113689621Y-93875323D01*
X113689621Y-93875323D02*
X113723292Y-93976338D01*
X113723292Y-93976338D02*
X113824308Y-94077354D01*
X113824308Y-94077354D02*
X113925323Y-94111025D01*
X113925323Y-94111025D02*
X113992666Y-94111025D01*
X113992666Y-94111025D02*
X114093682Y-94077354D01*
X114093682Y-94077354D02*
X114363056Y-93807980D01*
X113622277Y-95222193D02*
X114026338Y-94818132D01*
X113824308Y-95020163D02*
X113117201Y-94313056D01*
X113117201Y-94313056D02*
X113285560Y-94346728D01*
X113285560Y-94346728D02*
X113420247Y-94346728D01*
X113420247Y-94346728D02*
X113521262Y-94313056D01*
X93317811Y-85803072D02*
X93216796Y-85230653D01*
X93721872Y-85399011D02*
X93014765Y-84691905D01*
X93014765Y-84691905D02*
X92745391Y-84961279D01*
X92745391Y-84961279D02*
X92711719Y-85062294D01*
X92711719Y-85062294D02*
X92711719Y-85129637D01*
X92711719Y-85129637D02*
X92745391Y-85230653D01*
X92745391Y-85230653D02*
X92846406Y-85331668D01*
X92846406Y-85331668D02*
X92947422Y-85365340D01*
X92947422Y-85365340D02*
X93014765Y-85365340D01*
X93014765Y-85365340D02*
X93115780Y-85331668D01*
X93115780Y-85331668D02*
X93385154Y-85062294D01*
X92981093Y-86139790D02*
X92846406Y-86274477D01*
X92846406Y-86274477D02*
X92745391Y-86308149D01*
X92745391Y-86308149D02*
X92678048Y-86308149D01*
X92678048Y-86308149D02*
X92509689Y-86274477D01*
X92509689Y-86274477D02*
X92341330Y-86173462D01*
X92341330Y-86173462D02*
X92071956Y-85904088D01*
X92071956Y-85904088D02*
X92038284Y-85803072D01*
X92038284Y-85803072D02*
X92038284Y-85735729D01*
X92038284Y-85735729D02*
X92071956Y-85634714D01*
X92071956Y-85634714D02*
X92206643Y-85500027D01*
X92206643Y-85500027D02*
X92307658Y-85466355D01*
X92307658Y-85466355D02*
X92375002Y-85466355D01*
X92375002Y-85466355D02*
X92476017Y-85500027D01*
X92476017Y-85500027D02*
X92644376Y-85668385D01*
X92644376Y-85668385D02*
X92678048Y-85769401D01*
X92678048Y-85769401D02*
X92678048Y-85836744D01*
X92678048Y-85836744D02*
X92644376Y-85937759D01*
X92644376Y-85937759D02*
X92509689Y-86072446D01*
X92509689Y-86072446D02*
X92408674Y-86106118D01*
X92408674Y-86106118D02*
X92341330Y-86106118D01*
X92341330Y-86106118D02*
X92240315Y-86072446D01*
X98869776Y-91751108D02*
X98768761Y-91178689D01*
X99273837Y-91347047D02*
X98566730Y-90639941D01*
X98566730Y-90639941D02*
X98297356Y-90909315D01*
X98297356Y-90909315D02*
X98263684Y-91010330D01*
X98263684Y-91010330D02*
X98263684Y-91077673D01*
X98263684Y-91077673D02*
X98297356Y-91178689D01*
X98297356Y-91178689D02*
X98398371Y-91279704D01*
X98398371Y-91279704D02*
X98499387Y-91313376D01*
X98499387Y-91313376D02*
X98566730Y-91313376D01*
X98566730Y-91313376D02*
X98667745Y-91279704D01*
X98667745Y-91279704D02*
X98937119Y-91010330D01*
X97960639Y-91380719D02*
X97893295Y-91380719D01*
X97893295Y-91380719D02*
X97792280Y-91414391D01*
X97792280Y-91414391D02*
X97623921Y-91582750D01*
X97623921Y-91582750D02*
X97590249Y-91683765D01*
X97590249Y-91683765D02*
X97590249Y-91751108D01*
X97590249Y-91751108D02*
X97623921Y-91852124D01*
X97623921Y-91852124D02*
X97691265Y-91919467D01*
X97691265Y-91919467D02*
X97825952Y-91986811D01*
X97825952Y-91986811D02*
X98634074Y-91986811D01*
X98634074Y-91986811D02*
X98196341Y-92424543D01*
X97253532Y-91953139D02*
X96782127Y-92424544D01*
X96782127Y-92424544D02*
X97792280Y-92828605D01*
X95165011Y-91755873D02*
X95063996Y-91183454D01*
X95569072Y-91351812D02*
X94861965Y-90644706D01*
X94861965Y-90644706D02*
X94592591Y-90914080D01*
X94592591Y-90914080D02*
X94558919Y-91015095D01*
X94558919Y-91015095D02*
X94558919Y-91082438D01*
X94558919Y-91082438D02*
X94592591Y-91183454D01*
X94592591Y-91183454D02*
X94693606Y-91284469D01*
X94693606Y-91284469D02*
X94794622Y-91318141D01*
X94794622Y-91318141D02*
X94861965Y-91318141D01*
X94861965Y-91318141D02*
X94962980Y-91284469D01*
X94962980Y-91284469D02*
X95232354Y-91015095D01*
X94491576Y-92429308D02*
X94895637Y-92025247D01*
X94693606Y-92227278D02*
X93986500Y-91520171D01*
X93986500Y-91520171D02*
X94154858Y-91553843D01*
X94154858Y-91553843D02*
X94289545Y-91553843D01*
X94289545Y-91553843D02*
X94390561Y-91520171D01*
X93683454Y-92429309D02*
X93717125Y-92328293D01*
X93717125Y-92328293D02*
X93717125Y-92260950D01*
X93717125Y-92260950D02*
X93683454Y-92159935D01*
X93683454Y-92159935D02*
X93649782Y-92126263D01*
X93649782Y-92126263D02*
X93548767Y-92092591D01*
X93548767Y-92092591D02*
X93481423Y-92092591D01*
X93481423Y-92092591D02*
X93380408Y-92126263D01*
X93380408Y-92126263D02*
X93245721Y-92260950D01*
X93245721Y-92260950D02*
X93212049Y-92361965D01*
X93212049Y-92361965D02*
X93212049Y-92429309D01*
X93212049Y-92429309D02*
X93245721Y-92530324D01*
X93245721Y-92530324D02*
X93279393Y-92563996D01*
X93279393Y-92563996D02*
X93380408Y-92597667D01*
X93380408Y-92597667D02*
X93447751Y-92597667D01*
X93447751Y-92597667D02*
X93548767Y-92563996D01*
X93548767Y-92563996D02*
X93683454Y-92429309D01*
X93683454Y-92429309D02*
X93784469Y-92395637D01*
X93784469Y-92395637D02*
X93851812Y-92395637D01*
X93851812Y-92395637D02*
X93952828Y-92429309D01*
X93952828Y-92429309D02*
X94087515Y-92563996D01*
X94087515Y-92563996D02*
X94121186Y-92665011D01*
X94121186Y-92665011D02*
X94121186Y-92732354D01*
X94121186Y-92732354D02*
X94087515Y-92833370D01*
X94087515Y-92833370D02*
X93952828Y-92968057D01*
X93952828Y-92968057D02*
X93851812Y-93001728D01*
X93851812Y-93001728D02*
X93784469Y-93001728D01*
X93784469Y-93001728D02*
X93683454Y-92968057D01*
X93683454Y-92968057D02*
X93548767Y-92833370D01*
X93548767Y-92833370D02*
X93515095Y-92732354D01*
X93515095Y-92732354D02*
X93515095Y-92665011D01*
X93515095Y-92665011D02*
X93548767Y-92563996D01*
X108100619Y-91764917D02*
X107999604Y-91192498D01*
X108504680Y-91360856D02*
X107797573Y-90653750D01*
X107797573Y-90653750D02*
X107528199Y-90923124D01*
X107528199Y-90923124D02*
X107494527Y-91024139D01*
X107494527Y-91024139D02*
X107494527Y-91091482D01*
X107494527Y-91091482D02*
X107528199Y-91192498D01*
X107528199Y-91192498D02*
X107629214Y-91293513D01*
X107629214Y-91293513D02*
X107730230Y-91327185D01*
X107730230Y-91327185D02*
X107797573Y-91327185D01*
X107797573Y-91327185D02*
X107898588Y-91293513D01*
X107898588Y-91293513D02*
X108167962Y-91024139D01*
X107157810Y-91293513D02*
X106720077Y-91731246D01*
X106720077Y-91731246D02*
X107225153Y-91764917D01*
X107225153Y-91764917D02*
X107124138Y-91865933D01*
X107124138Y-91865933D02*
X107090466Y-91966948D01*
X107090466Y-91966948D02*
X107090466Y-92034291D01*
X107090466Y-92034291D02*
X107124138Y-92135307D01*
X107124138Y-92135307D02*
X107292497Y-92303665D01*
X107292497Y-92303665D02*
X107393512Y-92337337D01*
X107393512Y-92337337D02*
X107460856Y-92337337D01*
X107460856Y-92337337D02*
X107561871Y-92303665D01*
X107561871Y-92303665D02*
X107763901Y-92101635D01*
X107763901Y-92101635D02*
X107797573Y-92000620D01*
X107797573Y-92000620D02*
X107797573Y-91933276D01*
X91204529Y-87866354D02*
X91103514Y-87293935D01*
X91608590Y-87462293D02*
X90901483Y-86755187D01*
X90901483Y-86755187D02*
X90632109Y-87024561D01*
X90632109Y-87024561D02*
X90598437Y-87125576D01*
X90598437Y-87125576D02*
X90598437Y-87192919D01*
X90598437Y-87192919D02*
X90632109Y-87293935D01*
X90632109Y-87293935D02*
X90733124Y-87394950D01*
X90733124Y-87394950D02*
X90834140Y-87428622D01*
X90834140Y-87428622D02*
X90901483Y-87428622D01*
X90901483Y-87428622D02*
X91002498Y-87394950D01*
X91002498Y-87394950D02*
X91271872Y-87125576D01*
X90531094Y-88539789D02*
X90935155Y-88135728D01*
X90733124Y-88337759D02*
X90026018Y-87630652D01*
X90026018Y-87630652D02*
X90194376Y-87664324D01*
X90194376Y-87664324D02*
X90329063Y-87664324D01*
X90329063Y-87664324D02*
X90430079Y-87630652D01*
X89386254Y-88270416D02*
X89318911Y-88337759D01*
X89318911Y-88337759D02*
X89285239Y-88438774D01*
X89285239Y-88438774D02*
X89285239Y-88506118D01*
X89285239Y-88506118D02*
X89318911Y-88607133D01*
X89318911Y-88607133D02*
X89419926Y-88775492D01*
X89419926Y-88775492D02*
X89588285Y-88943851D01*
X89588285Y-88943851D02*
X89756643Y-89044866D01*
X89756643Y-89044866D02*
X89857659Y-89078538D01*
X89857659Y-89078538D02*
X89925002Y-89078538D01*
X89925002Y-89078538D02*
X90026017Y-89044866D01*
X90026017Y-89044866D02*
X90093361Y-88977522D01*
X90093361Y-88977522D02*
X90127033Y-88876507D01*
X90127033Y-88876507D02*
X90127033Y-88809164D01*
X90127033Y-88809164D02*
X90093361Y-88708148D01*
X90093361Y-88708148D02*
X89992346Y-88539790D01*
X89992346Y-88539790D02*
X89823987Y-88371431D01*
X89823987Y-88371431D02*
X89655628Y-88270416D01*
X89655628Y-88270416D02*
X89554613Y-88236744D01*
X89554613Y-88236744D02*
X89487269Y-88236744D01*
X89487269Y-88236744D02*
X89386254Y-88270416D01*
X111697937Y-89863334D02*
X111293876Y-90267395D01*
X112203013Y-90772471D02*
X111495906Y-90065364D01*
X111765280Y-91210204D02*
X111058173Y-90503097D01*
X111058173Y-90503097D02*
X110788799Y-90772471D01*
X110788799Y-90772471D02*
X110755128Y-90873487D01*
X110755128Y-90873487D02*
X110755128Y-90940830D01*
X110755128Y-90940830D02*
X110788799Y-91041845D01*
X110788799Y-91041845D02*
X110889815Y-91142861D01*
X110889815Y-91142861D02*
X110990830Y-91176532D01*
X110990830Y-91176532D02*
X111058173Y-91176532D01*
X111058173Y-91176532D02*
X111159189Y-91142861D01*
X111159189Y-91142861D02*
X111428563Y-90873487D01*
X110283723Y-91748952D02*
X110755128Y-92220357D01*
X110182708Y-91311219D02*
X110856143Y-91647937D01*
X110856143Y-91647937D02*
X110418410Y-92085670D01*
X112550619Y-96214917D02*
X112449604Y-95642498D01*
X112954680Y-95810856D02*
X112247573Y-95103750D01*
X112247573Y-95103750D02*
X111978199Y-95373124D01*
X111978199Y-95373124D02*
X111944527Y-95474139D01*
X111944527Y-95474139D02*
X111944527Y-95541482D01*
X111944527Y-95541482D02*
X111978199Y-95642498D01*
X111978199Y-95642498D02*
X112079214Y-95743513D01*
X112079214Y-95743513D02*
X112180230Y-95777185D01*
X112180230Y-95777185D02*
X112247573Y-95777185D01*
X112247573Y-95777185D02*
X112348588Y-95743513D01*
X112348588Y-95743513D02*
X112617962Y-95474139D01*
X111877184Y-96888352D02*
X112281245Y-96484291D01*
X112079214Y-96686322D02*
X111372108Y-95979215D01*
X111372108Y-95979215D02*
X111540466Y-96012887D01*
X111540466Y-96012887D02*
X111675153Y-96012887D01*
X111675153Y-96012887D02*
X111776169Y-95979215D01*
X86354529Y-92716354D02*
X86253514Y-92143935D01*
X86758590Y-92312293D02*
X86051483Y-91605187D01*
X86051483Y-91605187D02*
X85782109Y-91874561D01*
X85782109Y-91874561D02*
X85748437Y-91975576D01*
X85748437Y-91975576D02*
X85748437Y-92042919D01*
X85748437Y-92042919D02*
X85782109Y-92143935D01*
X85782109Y-92143935D02*
X85883124Y-92244950D01*
X85883124Y-92244950D02*
X85984140Y-92278622D01*
X85984140Y-92278622D02*
X86051483Y-92278622D01*
X86051483Y-92278622D02*
X86152498Y-92244950D01*
X86152498Y-92244950D02*
X86421872Y-91975576D01*
X85681094Y-93389789D02*
X86085155Y-92985728D01*
X85883124Y-93187759D02*
X85176018Y-92480652D01*
X85176018Y-92480652D02*
X85344376Y-92514324D01*
X85344376Y-92514324D02*
X85479063Y-92514324D01*
X85479063Y-92514324D02*
X85580079Y-92480652D01*
X84771956Y-93019400D02*
X84704613Y-93019400D01*
X84704613Y-93019400D02*
X84603598Y-93053072D01*
X84603598Y-93053072D02*
X84435239Y-93221431D01*
X84435239Y-93221431D02*
X84401567Y-93322446D01*
X84401567Y-93322446D02*
X84401567Y-93389790D01*
X84401567Y-93389790D02*
X84435239Y-93490805D01*
X84435239Y-93490805D02*
X84502582Y-93558148D01*
X84502582Y-93558148D02*
X84637269Y-93625492D01*
X84637269Y-93625492D02*
X85445391Y-93625492D01*
X85445391Y-93625492D02*
X85007659Y-94063225D01*
X89916522Y-94576312D02*
X90017537Y-94609984D01*
X90017537Y-94609984D02*
X90152224Y-94609984D01*
X90152224Y-94609984D02*
X90354255Y-94609984D01*
X90354255Y-94609984D02*
X90455270Y-94643656D01*
X90455270Y-94643656D02*
X90522613Y-94710999D01*
X90320583Y-94845686D02*
X90421598Y-94879358D01*
X90421598Y-94879358D02*
X90556285Y-94879358D01*
X90556285Y-94879358D02*
X90724644Y-94778343D01*
X90724644Y-94778343D02*
X90960346Y-94542640D01*
X90960346Y-94542640D02*
X91061361Y-94374282D01*
X91061361Y-94374282D02*
X91061361Y-94239595D01*
X91061361Y-94239595D02*
X91027690Y-94138579D01*
X91027690Y-94138579D02*
X90893003Y-94003892D01*
X90893003Y-94003892D02*
X90791987Y-93970221D01*
X90791987Y-93970221D02*
X90657300Y-93970221D01*
X90657300Y-93970221D02*
X90488942Y-94071236D01*
X90488942Y-94071236D02*
X90253239Y-94306938D01*
X90253239Y-94306938D02*
X90152224Y-94475297D01*
X90152224Y-94475297D02*
X90152224Y-94609984D01*
X90152224Y-94609984D02*
X90185896Y-94710999D01*
X90185896Y-94710999D02*
X90320583Y-94845686D01*
X89882850Y-93465144D02*
X89411446Y-93936549D01*
X90320583Y-93364129D02*
X89983865Y-94037564D01*
X89983865Y-94037564D02*
X89546133Y-93599831D01*
X99925785Y-91583352D02*
X100498204Y-91482337D01*
X100329846Y-91987413D02*
X101036952Y-91280306D01*
X101036952Y-91280306D02*
X100767578Y-91010932D01*
X100767578Y-91010932D02*
X100666563Y-90977260D01*
X100666563Y-90977260D02*
X100599220Y-90977260D01*
X100599220Y-90977260D02*
X100498204Y-91010932D01*
X100498204Y-91010932D02*
X100397189Y-91111947D01*
X100397189Y-91111947D02*
X100363517Y-91212963D01*
X100363517Y-91212963D02*
X100363517Y-91280306D01*
X100363517Y-91280306D02*
X100397189Y-91381321D01*
X100397189Y-91381321D02*
X100666563Y-91650695D01*
X99252350Y-90909917D02*
X99656411Y-91313978D01*
X99454380Y-91111947D02*
X100161487Y-90404841D01*
X100161487Y-90404841D02*
X100127815Y-90573199D01*
X100127815Y-90573199D02*
X100127815Y-90707886D01*
X100127815Y-90707886D02*
X100161487Y-90808902D01*
X99723754Y-89967108D02*
X99286021Y-89529375D01*
X99286021Y-89529375D02*
X99252349Y-90034451D01*
X99252349Y-90034451D02*
X99151334Y-89933436D01*
X99151334Y-89933436D02*
X99050319Y-89899764D01*
X99050319Y-89899764D02*
X98982975Y-89899764D01*
X98982975Y-89899764D02*
X98881960Y-89933436D01*
X98881960Y-89933436D02*
X98713601Y-90101795D01*
X98713601Y-90101795D02*
X98679930Y-90202810D01*
X98679930Y-90202810D02*
X98679930Y-90270153D01*
X98679930Y-90270153D02*
X98713601Y-90371169D01*
X98713601Y-90371169D02*
X98915632Y-90573199D01*
X98915632Y-90573199D02*
X99016647Y-90606871D01*
X99016647Y-90606871D02*
X99083991Y-90606871D01*
X111660949Y-95175248D02*
X111728293Y-95175248D01*
X111728293Y-95175248D02*
X111862980Y-95107904D01*
X111862980Y-95107904D02*
X111930323Y-95040561D01*
X111930323Y-95040561D02*
X111997667Y-94905874D01*
X111997667Y-94905874D02*
X111997667Y-94771187D01*
X111997667Y-94771187D02*
X111963995Y-94670172D01*
X111963995Y-94670172D02*
X111862980Y-94501813D01*
X111862980Y-94501813D02*
X111761965Y-94400798D01*
X111761965Y-94400798D02*
X111593606Y-94299782D01*
X111593606Y-94299782D02*
X111492591Y-94266111D01*
X111492591Y-94266111D02*
X111357904Y-94266111D01*
X111357904Y-94266111D02*
X111223217Y-94333454D01*
X111223217Y-94333454D02*
X111155873Y-94400798D01*
X111155873Y-94400798D02*
X111088530Y-94535485D01*
X111088530Y-94535485D02*
X111088530Y-94602828D01*
X110819156Y-94872202D02*
X110751812Y-94872202D01*
X110751812Y-94872202D02*
X110650797Y-94905874D01*
X110650797Y-94905874D02*
X110482438Y-95074233D01*
X110482438Y-95074233D02*
X110448766Y-95175248D01*
X110448766Y-95175248D02*
X110448766Y-95242591D01*
X110448766Y-95242591D02*
X110482438Y-95343607D01*
X110482438Y-95343607D02*
X110549782Y-95410950D01*
X110549782Y-95410950D02*
X110684469Y-95478294D01*
X110684469Y-95478294D02*
X111492591Y-95478294D01*
X111492591Y-95478294D02*
X111054858Y-95916026D01*
X110230691Y-88396088D02*
X109826630Y-88800149D01*
X110735767Y-89305225D02*
X110028660Y-88598118D01*
X110298034Y-89742958D02*
X109590927Y-89035851D01*
X109590927Y-89035851D02*
X109321553Y-89305225D01*
X109321553Y-89305225D02*
X109287882Y-89406241D01*
X109287882Y-89406241D02*
X109287882Y-89473584D01*
X109287882Y-89473584D02*
X109321553Y-89574599D01*
X109321553Y-89574599D02*
X109422569Y-89675615D01*
X109422569Y-89675615D02*
X109523584Y-89709286D01*
X109523584Y-89709286D02*
X109590927Y-89709286D01*
X109590927Y-89709286D02*
X109691943Y-89675615D01*
X109691943Y-89675615D02*
X109961317Y-89406241D01*
X108951164Y-89675615D02*
X108513431Y-90113347D01*
X108513431Y-90113347D02*
X109018508Y-90147019D01*
X109018508Y-90147019D02*
X108917492Y-90248034D01*
X108917492Y-90248034D02*
X108883821Y-90349050D01*
X108883821Y-90349050D02*
X108883821Y-90416393D01*
X108883821Y-90416393D02*
X108917492Y-90517408D01*
X108917492Y-90517408D02*
X109085851Y-90685767D01*
X109085851Y-90685767D02*
X109186866Y-90719439D01*
X109186866Y-90719439D02*
X109254210Y-90719439D01*
X109254210Y-90719439D02*
X109355225Y-90685767D01*
X109355225Y-90685767D02*
X109557256Y-90483737D01*
X109557256Y-90483737D02*
X109590927Y-90382721D01*
X109590927Y-90382721D02*
X109590927Y-90315378D01*
X102117816Y-89391321D02*
X102690235Y-89290306D01*
X102521877Y-89795382D02*
X103228983Y-89088275D01*
X103228983Y-89088275D02*
X102959609Y-88818901D01*
X102959609Y-88818901D02*
X102858594Y-88785229D01*
X102858594Y-88785229D02*
X102791251Y-88785229D01*
X102791251Y-88785229D02*
X102690235Y-88818901D01*
X102690235Y-88818901D02*
X102589220Y-88919916D01*
X102589220Y-88919916D02*
X102555548Y-89020932D01*
X102555548Y-89020932D02*
X102555548Y-89088275D01*
X102555548Y-89088275D02*
X102589220Y-89189290D01*
X102589220Y-89189290D02*
X102858594Y-89458664D01*
X101444381Y-88717886D02*
X101848442Y-89121947D01*
X101646411Y-88919916D02*
X102353518Y-88212810D01*
X102353518Y-88212810D02*
X102319846Y-88381168D01*
X102319846Y-88381168D02*
X102319846Y-88515855D01*
X102319846Y-88515855D02*
X102353518Y-88616871D01*
X101511724Y-87371016D02*
X101848442Y-87707733D01*
X101848442Y-87707733D02*
X101545396Y-88078122D01*
X101545396Y-88078122D02*
X101545396Y-88010779D01*
X101545396Y-88010779D02*
X101511724Y-87909764D01*
X101511724Y-87909764D02*
X101343365Y-87741405D01*
X101343365Y-87741405D02*
X101242350Y-87707733D01*
X101242350Y-87707733D02*
X101175006Y-87707733D01*
X101175006Y-87707733D02*
X101073991Y-87741405D01*
X101073991Y-87741405D02*
X100905632Y-87909764D01*
X100905632Y-87909764D02*
X100871961Y-88010779D01*
X100871961Y-88010779D02*
X100871961Y-88078122D01*
X100871961Y-88078122D02*
X100905632Y-88179138D01*
X100905632Y-88179138D02*
X101073991Y-88347496D01*
X101073991Y-88347496D02*
X101175006Y-88381168D01*
X101175006Y-88381168D02*
X101242350Y-88381168D01*
X97615011Y-89305873D02*
X97513996Y-88733454D01*
X98019072Y-88901812D02*
X97311965Y-88194706D01*
X97311965Y-88194706D02*
X97042591Y-88464080D01*
X97042591Y-88464080D02*
X97008919Y-88565095D01*
X97008919Y-88565095D02*
X97008919Y-88632438D01*
X97008919Y-88632438D02*
X97042591Y-88733454D01*
X97042591Y-88733454D02*
X97143606Y-88834469D01*
X97143606Y-88834469D02*
X97244622Y-88868141D01*
X97244622Y-88868141D02*
X97311965Y-88868141D01*
X97311965Y-88868141D02*
X97412980Y-88834469D01*
X97412980Y-88834469D02*
X97682354Y-88565095D01*
X96941576Y-89979308D02*
X97345637Y-89575247D01*
X97143606Y-89777278D02*
X96436500Y-89070171D01*
X96436500Y-89070171D02*
X96604858Y-89103843D01*
X96604858Y-89103843D02*
X96739545Y-89103843D01*
X96739545Y-89103843D02*
X96840561Y-89070171D01*
X95998767Y-89507904D02*
X95527362Y-89979309D01*
X95527362Y-89979309D02*
X96537515Y-90383370D01*
X92715011Y-94205873D02*
X92613996Y-93633454D01*
X93119072Y-93801812D02*
X92411965Y-93094706D01*
X92411965Y-93094706D02*
X92142591Y-93364080D01*
X92142591Y-93364080D02*
X92108919Y-93465095D01*
X92108919Y-93465095D02*
X92108919Y-93532438D01*
X92108919Y-93532438D02*
X92142591Y-93633454D01*
X92142591Y-93633454D02*
X92243606Y-93734469D01*
X92243606Y-93734469D02*
X92344622Y-93768141D01*
X92344622Y-93768141D02*
X92411965Y-93768141D01*
X92411965Y-93768141D02*
X92512980Y-93734469D01*
X92512980Y-93734469D02*
X92782354Y-93465095D01*
X92041576Y-94879308D02*
X92445637Y-94475247D01*
X92243606Y-94677278D02*
X91536500Y-93970171D01*
X91536500Y-93970171D02*
X91704858Y-94003843D01*
X91704858Y-94003843D02*
X91839545Y-94003843D01*
X91839545Y-94003843D02*
X91940561Y-93970171D01*
X91704858Y-95216026D02*
X91570171Y-95350713D01*
X91570171Y-95350713D02*
X91469156Y-95384385D01*
X91469156Y-95384385D02*
X91401812Y-95384385D01*
X91401812Y-95384385D02*
X91233454Y-95350713D01*
X91233454Y-95350713D02*
X91065095Y-95249698D01*
X91065095Y-95249698D02*
X90795721Y-94980324D01*
X90795721Y-94980324D02*
X90762049Y-94879309D01*
X90762049Y-94879309D02*
X90762049Y-94811965D01*
X90762049Y-94811965D02*
X90795721Y-94710950D01*
X90795721Y-94710950D02*
X90930408Y-94576263D01*
X90930408Y-94576263D02*
X91031423Y-94542591D01*
X91031423Y-94542591D02*
X91098767Y-94542591D01*
X91098767Y-94542591D02*
X91199782Y-94576263D01*
X91199782Y-94576263D02*
X91368141Y-94744622D01*
X91368141Y-94744622D02*
X91401812Y-94845637D01*
X91401812Y-94845637D02*
X91401812Y-94912980D01*
X91401812Y-94912980D02*
X91368141Y-95013996D01*
X91368141Y-95013996D02*
X91233454Y-95148683D01*
X91233454Y-95148683D02*
X91132438Y-95182354D01*
X91132438Y-95182354D02*
X91065095Y-95182354D01*
X91065095Y-95182354D02*
X90964080Y-95148683D01*
X108763444Y-86928841D02*
X108359383Y-87332902D01*
X109268520Y-87837978D02*
X108561413Y-87130871D01*
X108830787Y-88275711D02*
X108123680Y-87568604D01*
X108123680Y-87568604D02*
X107854306Y-87837978D01*
X107854306Y-87837978D02*
X107820635Y-87938994D01*
X107820635Y-87938994D02*
X107820635Y-88006337D01*
X107820635Y-88006337D02*
X107854306Y-88107352D01*
X107854306Y-88107352D02*
X107955322Y-88208368D01*
X107955322Y-88208368D02*
X108056337Y-88242039D01*
X108056337Y-88242039D02*
X108123680Y-88242039D01*
X108123680Y-88242039D02*
X108224696Y-88208368D01*
X108224696Y-88208368D02*
X108494070Y-87938994D01*
X107079856Y-88612429D02*
X107416574Y-88275711D01*
X107416574Y-88275711D02*
X107786963Y-88578757D01*
X107786963Y-88578757D02*
X107719619Y-88578757D01*
X107719619Y-88578757D02*
X107618604Y-88612429D01*
X107618604Y-88612429D02*
X107450245Y-88780787D01*
X107450245Y-88780787D02*
X107416574Y-88881803D01*
X107416574Y-88881803D02*
X107416574Y-88949146D01*
X107416574Y-88949146D02*
X107450245Y-89050161D01*
X107450245Y-89050161D02*
X107618604Y-89218520D01*
X107618604Y-89218520D02*
X107719619Y-89252192D01*
X107719619Y-89252192D02*
X107786963Y-89252192D01*
X107786963Y-89252192D02*
X107887978Y-89218520D01*
X107887978Y-89218520D02*
X108056337Y-89050161D01*
X108056337Y-89050161D02*
X108090009Y-88949146D01*
X108090009Y-88949146D02*
X108090009Y-88881803D01*
X111050619Y-94714917D02*
X110949604Y-94142498D01*
X111454680Y-94310856D02*
X110747573Y-93603750D01*
X110747573Y-93603750D02*
X110478199Y-93873124D01*
X110478199Y-93873124D02*
X110444527Y-93974139D01*
X110444527Y-93974139D02*
X110444527Y-94041482D01*
X110444527Y-94041482D02*
X110478199Y-94142498D01*
X110478199Y-94142498D02*
X110579214Y-94243513D01*
X110579214Y-94243513D02*
X110680230Y-94277185D01*
X110680230Y-94277185D02*
X110747573Y-94277185D01*
X110747573Y-94277185D02*
X110848588Y-94243513D01*
X110848588Y-94243513D02*
X111117962Y-93974139D01*
X110141482Y-94344528D02*
X110074138Y-94344528D01*
X110074138Y-94344528D02*
X109973123Y-94378200D01*
X109973123Y-94378200D02*
X109804764Y-94546559D01*
X109804764Y-94546559D02*
X109771092Y-94647574D01*
X109771092Y-94647574D02*
X109771092Y-94714917D01*
X109771092Y-94714917D02*
X109804764Y-94815933D01*
X109804764Y-94815933D02*
X109872108Y-94883276D01*
X109872108Y-94883276D02*
X110006795Y-94950620D01*
X110006795Y-94950620D02*
X110814917Y-94950620D01*
X110814917Y-94950620D02*
X110377184Y-95388352D01*
X92338363Y-92172149D02*
X92439378Y-92205821D01*
X92439378Y-92205821D02*
X92574065Y-92205821D01*
X92574065Y-92205821D02*
X92776096Y-92205821D01*
X92776096Y-92205821D02*
X92877111Y-92239493D01*
X92877111Y-92239493D02*
X92944454Y-92306836D01*
X92742424Y-92441523D02*
X92843439Y-92475195D01*
X92843439Y-92475195D02*
X92978126Y-92475195D01*
X92978126Y-92475195D02*
X93146485Y-92374180D01*
X93146485Y-92374180D02*
X93382187Y-92138477D01*
X93382187Y-92138477D02*
X93483202Y-91970119D01*
X93483202Y-91970119D02*
X93483202Y-91835432D01*
X93483202Y-91835432D02*
X93449531Y-91734416D01*
X93449531Y-91734416D02*
X93314844Y-91599729D01*
X93314844Y-91599729D02*
X93213828Y-91566058D01*
X93213828Y-91566058D02*
X93079141Y-91566058D01*
X93079141Y-91566058D02*
X92910783Y-91667073D01*
X92910783Y-91667073D02*
X92675080Y-91902775D01*
X92675080Y-91902775D02*
X92574065Y-92071134D01*
X92574065Y-92071134D02*
X92574065Y-92205821D01*
X92574065Y-92205821D02*
X92607737Y-92306836D01*
X92607737Y-92306836D02*
X92742424Y-92441523D01*
X92910783Y-91195668D02*
X92473050Y-90757936D01*
X92473050Y-90757936D02*
X92439378Y-91263012D01*
X92439378Y-91263012D02*
X92338363Y-91161997D01*
X92338363Y-91161997D02*
X92237348Y-91128325D01*
X92237348Y-91128325D02*
X92170004Y-91128325D01*
X92170004Y-91128325D02*
X92068989Y-91161997D01*
X92068989Y-91161997D02*
X91900630Y-91330355D01*
X91900630Y-91330355D02*
X91866958Y-91431371D01*
X91866958Y-91431371D02*
X91866958Y-91498714D01*
X91866958Y-91498714D02*
X91900630Y-91599729D01*
X91900630Y-91599729D02*
X92102661Y-91801760D01*
X92102661Y-91801760D02*
X92203676Y-91835432D01*
X92203676Y-91835432D02*
X92271019Y-91835432D01*
X113165184Y-91330581D02*
X112761123Y-91734642D01*
X113670260Y-92239718D02*
X112963153Y-91532611D01*
X113232527Y-92677451D02*
X112525420Y-91970344D01*
X112525420Y-91970344D02*
X112256046Y-92239718D01*
X112256046Y-92239718D02*
X112222375Y-92340734D01*
X112222375Y-92340734D02*
X112222375Y-92408077D01*
X112222375Y-92408077D02*
X112256046Y-92509092D01*
X112256046Y-92509092D02*
X112357062Y-92610108D01*
X112357062Y-92610108D02*
X112458077Y-92643779D01*
X112458077Y-92643779D02*
X112525420Y-92643779D01*
X112525420Y-92643779D02*
X112626436Y-92610108D01*
X112626436Y-92610108D02*
X112895810Y-92340734D01*
X111919329Y-92711123D02*
X111851985Y-92711123D01*
X111851985Y-92711123D02*
X111750970Y-92744795D01*
X111750970Y-92744795D02*
X111582611Y-92913153D01*
X111582611Y-92913153D02*
X111548940Y-93014169D01*
X111548940Y-93014169D02*
X111548940Y-93081512D01*
X111548940Y-93081512D02*
X111582611Y-93182527D01*
X111582611Y-93182527D02*
X111649955Y-93249871D01*
X111649955Y-93249871D02*
X111784642Y-93317214D01*
X111784642Y-93317214D02*
X112592764Y-93317214D01*
X112592764Y-93317214D02*
X112155031Y-93754947D01*
X88804529Y-90266354D02*
X88703514Y-89693935D01*
X89208590Y-89862293D02*
X88501483Y-89155187D01*
X88501483Y-89155187D02*
X88232109Y-89424561D01*
X88232109Y-89424561D02*
X88198437Y-89525576D01*
X88198437Y-89525576D02*
X88198437Y-89592919D01*
X88198437Y-89592919D02*
X88232109Y-89693935D01*
X88232109Y-89693935D02*
X88333124Y-89794950D01*
X88333124Y-89794950D02*
X88434140Y-89828622D01*
X88434140Y-89828622D02*
X88501483Y-89828622D01*
X88501483Y-89828622D02*
X88602498Y-89794950D01*
X88602498Y-89794950D02*
X88871872Y-89525576D01*
X88131094Y-90939789D02*
X88535155Y-90535728D01*
X88333124Y-90737759D02*
X87626018Y-90030652D01*
X87626018Y-90030652D02*
X87794376Y-90064324D01*
X87794376Y-90064324D02*
X87929063Y-90064324D01*
X87929063Y-90064324D02*
X88030079Y-90030652D01*
X87457659Y-91613225D02*
X87861720Y-91209164D01*
X87659689Y-91411194D02*
X86952582Y-90704087D01*
X86952582Y-90704087D02*
X87120941Y-90737759D01*
X87120941Y-90737759D02*
X87255628Y-90737759D01*
X87255628Y-90737759D02*
X87356643Y-90704087D01*
X101021800Y-90487337D02*
X101594219Y-90386322D01*
X101425861Y-90891398D02*
X102132967Y-90184291D01*
X102132967Y-90184291D02*
X101863593Y-89914917D01*
X101863593Y-89914917D02*
X101762578Y-89881245D01*
X101762578Y-89881245D02*
X101695235Y-89881245D01*
X101695235Y-89881245D02*
X101594219Y-89914917D01*
X101594219Y-89914917D02*
X101493204Y-90015932D01*
X101493204Y-90015932D02*
X101459532Y-90116948D01*
X101459532Y-90116948D02*
X101459532Y-90184291D01*
X101459532Y-90184291D02*
X101493204Y-90285306D01*
X101493204Y-90285306D02*
X101762578Y-90554680D01*
X100348365Y-89813902D02*
X100752426Y-90217963D01*
X100550395Y-90015932D02*
X101257502Y-89308826D01*
X101257502Y-89308826D02*
X101223830Y-89477184D01*
X101223830Y-89477184D02*
X101223830Y-89611871D01*
X101223830Y-89611871D02*
X101257502Y-89712887D01*
X100213677Y-88736406D02*
X99742273Y-89207810D01*
X100651410Y-88635390D02*
X100314693Y-89308825D01*
X100314693Y-89308825D02*
X99876960Y-88871093D01*
X97217400Y-87293112D02*
X97318415Y-87326784D01*
X97318415Y-87326784D02*
X97453102Y-87326784D01*
X97453102Y-87326784D02*
X97655133Y-87326784D01*
X97655133Y-87326784D02*
X97756148Y-87360456D01*
X97756148Y-87360456D02*
X97823491Y-87427799D01*
X97621461Y-87562486D02*
X97722476Y-87596158D01*
X97722476Y-87596158D02*
X97857163Y-87596158D01*
X97857163Y-87596158D02*
X98025522Y-87495143D01*
X98025522Y-87495143D02*
X98261224Y-87259440D01*
X98261224Y-87259440D02*
X98362239Y-87091082D01*
X98362239Y-87091082D02*
X98362239Y-86956395D01*
X98362239Y-86956395D02*
X98328568Y-86855379D01*
X98328568Y-86855379D02*
X98193881Y-86720692D01*
X98193881Y-86720692D02*
X98092865Y-86687021D01*
X98092865Y-86687021D02*
X97958178Y-86687021D01*
X97958178Y-86687021D02*
X97789820Y-86788036D01*
X97789820Y-86788036D02*
X97554117Y-87023738D01*
X97554117Y-87023738D02*
X97453102Y-87192097D01*
X97453102Y-87192097D02*
X97453102Y-87326784D01*
X97453102Y-87326784D02*
X97486774Y-87427799D01*
X97486774Y-87427799D02*
X97621461Y-87562486D01*
X96644980Y-86586005D02*
X97049041Y-86990066D01*
X96847011Y-86788036D02*
X97554117Y-86080929D01*
X97554117Y-86080929D02*
X97520446Y-86249288D01*
X97520446Y-86249288D02*
X97520446Y-86383975D01*
X97520446Y-86383975D02*
X97554117Y-86484990D01*
X90265011Y-96655873D02*
X90163996Y-96083454D01*
X90669072Y-96251812D02*
X89961965Y-95544706D01*
X89961965Y-95544706D02*
X89692591Y-95814080D01*
X89692591Y-95814080D02*
X89658919Y-95915095D01*
X89658919Y-95915095D02*
X89658919Y-95982438D01*
X89658919Y-95982438D02*
X89692591Y-96083454D01*
X89692591Y-96083454D02*
X89793606Y-96184469D01*
X89793606Y-96184469D02*
X89894622Y-96218141D01*
X89894622Y-96218141D02*
X89961965Y-96218141D01*
X89961965Y-96218141D02*
X90062980Y-96184469D01*
X90062980Y-96184469D02*
X90332354Y-95915095D01*
X89355874Y-96285484D02*
X89288530Y-96285484D01*
X89288530Y-96285484D02*
X89187515Y-96319156D01*
X89187515Y-96319156D02*
X89019156Y-96487515D01*
X89019156Y-96487515D02*
X88985484Y-96588530D01*
X88985484Y-96588530D02*
X88985484Y-96655873D01*
X88985484Y-96655873D02*
X89019156Y-96756889D01*
X89019156Y-96756889D02*
X89086500Y-96824232D01*
X89086500Y-96824232D02*
X89221187Y-96891576D01*
X89221187Y-96891576D02*
X90029309Y-96891576D01*
X90029309Y-96891576D02*
X89591576Y-97329308D01*
X88446736Y-97059935D02*
X88379393Y-97127278D01*
X88379393Y-97127278D02*
X88345721Y-97228293D01*
X88345721Y-97228293D02*
X88345721Y-97295637D01*
X88345721Y-97295637D02*
X88379393Y-97396652D01*
X88379393Y-97396652D02*
X88480408Y-97565011D01*
X88480408Y-97565011D02*
X88648767Y-97733370D01*
X88648767Y-97733370D02*
X88817125Y-97834385D01*
X88817125Y-97834385D02*
X88918141Y-97868057D01*
X88918141Y-97868057D02*
X88985484Y-97868057D01*
X88985484Y-97868057D02*
X89086499Y-97834385D01*
X89086499Y-97834385D02*
X89153843Y-97767041D01*
X89153843Y-97767041D02*
X89187515Y-97666026D01*
X89187515Y-97666026D02*
X89187515Y-97598683D01*
X89187515Y-97598683D02*
X89153843Y-97497667D01*
X89153843Y-97497667D02*
X89052828Y-97329309D01*
X89052828Y-97329309D02*
X88884469Y-97160950D01*
X88884469Y-97160950D02*
X88716110Y-97059935D01*
X88716110Y-97059935D02*
X88615095Y-97026263D01*
X88615095Y-97026263D02*
X88547751Y-97026263D01*
X88547751Y-97026263D02*
X88446736Y-97059935D01*
X94777881Y-89732630D02*
X94878896Y-89766302D01*
X94878896Y-89766302D02*
X95013583Y-89766302D01*
X95013583Y-89766302D02*
X95215614Y-89766302D01*
X95215614Y-89766302D02*
X95316629Y-89799974D01*
X95316629Y-89799974D02*
X95383972Y-89867317D01*
X95181942Y-90002004D02*
X95282957Y-90035676D01*
X95282957Y-90035676D02*
X95417644Y-90035676D01*
X95417644Y-90035676D02*
X95586003Y-89934661D01*
X95586003Y-89934661D02*
X95821705Y-89698958D01*
X95821705Y-89698958D02*
X95922720Y-89530600D01*
X95922720Y-89530600D02*
X95922720Y-89395913D01*
X95922720Y-89395913D02*
X95889049Y-89294897D01*
X95889049Y-89294897D02*
X95754362Y-89160210D01*
X95754362Y-89160210D02*
X95653346Y-89126539D01*
X95653346Y-89126539D02*
X95518659Y-89126539D01*
X95518659Y-89126539D02*
X95350301Y-89227554D01*
X95350301Y-89227554D02*
X95114598Y-89463256D01*
X95114598Y-89463256D02*
X95013583Y-89631615D01*
X95013583Y-89631615D02*
X95013583Y-89766302D01*
X95013583Y-89766302D02*
X95047255Y-89867317D01*
X95047255Y-89867317D02*
X95181942Y-90002004D01*
X95249285Y-88789821D02*
X95249285Y-88722478D01*
X95249285Y-88722478D02*
X95215614Y-88621462D01*
X95215614Y-88621462D02*
X95047255Y-88453104D01*
X95047255Y-88453104D02*
X94946240Y-88419432D01*
X94946240Y-88419432D02*
X94878896Y-88419432D01*
X94878896Y-88419432D02*
X94777881Y-88453104D01*
X94777881Y-88453104D02*
X94710537Y-88520447D01*
X94710537Y-88520447D02*
X94643194Y-88655134D01*
X94643194Y-88655134D02*
X94643194Y-89463256D01*
X94643194Y-89463256D02*
X94205461Y-89025523D01*
X103213831Y-88295306D02*
X103786250Y-88194291D01*
X103617892Y-88699367D02*
X104324998Y-87992260D01*
X104324998Y-87992260D02*
X104055624Y-87722886D01*
X104055624Y-87722886D02*
X103954609Y-87689214D01*
X103954609Y-87689214D02*
X103887266Y-87689214D01*
X103887266Y-87689214D02*
X103786250Y-87722886D01*
X103786250Y-87722886D02*
X103685235Y-87823901D01*
X103685235Y-87823901D02*
X103651563Y-87924917D01*
X103651563Y-87924917D02*
X103651563Y-87992260D01*
X103651563Y-87992260D02*
X103685235Y-88093275D01*
X103685235Y-88093275D02*
X103954609Y-88362649D01*
X102540396Y-87621871D02*
X102944457Y-88025932D01*
X102742426Y-87823901D02*
X103449533Y-87116795D01*
X103449533Y-87116795D02*
X103415861Y-87285153D01*
X103415861Y-87285153D02*
X103415861Y-87419840D01*
X103415861Y-87419840D02*
X103449533Y-87520856D01*
X102641411Y-86308672D02*
X102776098Y-86443359D01*
X102776098Y-86443359D02*
X102809769Y-86544375D01*
X102809769Y-86544375D02*
X102809769Y-86611718D01*
X102809769Y-86611718D02*
X102776098Y-86780077D01*
X102776098Y-86780077D02*
X102675082Y-86948436D01*
X102675082Y-86948436D02*
X102405708Y-87217810D01*
X102405708Y-87217810D02*
X102304693Y-87251481D01*
X102304693Y-87251481D02*
X102237350Y-87251481D01*
X102237350Y-87251481D02*
X102136334Y-87217810D01*
X102136334Y-87217810D02*
X102001647Y-87083123D01*
X102001647Y-87083123D02*
X101967976Y-86982107D01*
X101967976Y-86982107D02*
X101967976Y-86914764D01*
X101967976Y-86914764D02*
X102001647Y-86813749D01*
X102001647Y-86813749D02*
X102170006Y-86645390D01*
X102170006Y-86645390D02*
X102271021Y-86611718D01*
X102271021Y-86611718D02*
X102338365Y-86611718D01*
X102338365Y-86611718D02*
X102439380Y-86645390D01*
X102439380Y-86645390D02*
X102574067Y-86780077D01*
X102574067Y-86780077D02*
X102607739Y-86881092D01*
X102607739Y-86881092D02*
X102607739Y-86948436D01*
X102607739Y-86948436D02*
X102574067Y-87049451D01*
D11*
%TO.C,TP1*%
X113801739Y-93051739D02*
G75*
G02*
X112401739Y-93051739I-700000J0D01*
G01*
X112401739Y-93051739D02*
G75*
G02*
X113801739Y-93051739I700000J0D01*
G01*
%TO.C,R9*%
X93339938Y-86421135D02*
X93700172Y-86060901D01*
X94078864Y-87160061D02*
X94439098Y-86799827D01*
%TO.C,R27*%
X98555185Y-92705889D02*
X98915419Y-92345655D01*
X99294111Y-93444815D02*
X99654345Y-93084581D01*
%TO.C,R18*%
X94850420Y-92710654D02*
X95210654Y-92350420D01*
X95589346Y-93449580D02*
X95949580Y-93089346D01*
%TO.C,R3*%
X106460654Y-90000420D02*
X106100420Y-90360654D01*
X107199580Y-90739346D02*
X106839346Y-91099580D01*
%TO.C,R10*%
X90889938Y-88821135D02*
X91250172Y-88460901D01*
X91628864Y-89560061D02*
X91989098Y-89199827D01*
%TO.C,TP4*%
X110867246Y-90117246D02*
G75*
G02*
X109467246Y-90117246I-700000J0D01*
G01*
X109467246Y-90117246D02*
G75*
G02*
X110867246Y-90117246I700000J0D01*
G01*
%TO.C,R1*%
X110910654Y-94450420D02*
X110550420Y-94810654D01*
X111649580Y-95189346D02*
X111289346Y-95549580D01*
%TO.C,R12*%
X86039938Y-93671135D02*
X86400172Y-93310901D01*
X86778864Y-94410061D02*
X87139098Y-94049827D01*
%TO.C,Q4*%
X86978366Y-96460543D02*
X87437985Y-96920163D01*
X87897605Y-97379782D02*
X87437985Y-96920163D01*
X89184539Y-94254370D02*
X89644159Y-94713989D01*
X90103778Y-95173609D02*
X89644159Y-94713989D01*
X90833866Y-95507717D02*
X90430815Y-95571356D01*
X90494454Y-95168306D01*
X90833866Y-95507717D01*
G36*
X90833866Y-95507717D02*
G01*
X90430815Y-95571356D01*
X90494454Y-95168306D01*
X90833866Y-95507717D01*
G37*
%TO.C,R13*%
X100614639Y-90345595D02*
X100254405Y-89985361D01*
X101353565Y-89606669D02*
X100993331Y-89246435D01*
%TO.C,C2*%
X111839970Y-95788781D02*
X112038781Y-95589970D01*
X112561219Y-96510030D02*
X112760030Y-96311219D01*
%TO.C,TP3*%
X109400000Y-88650000D02*
G75*
G02*
X108000000Y-88650000I-700000J0D01*
G01*
X108000000Y-88650000D02*
G75*
G02*
X109400000Y-88650000I700000J0D01*
G01*
%TO.C,R15*%
X102806670Y-88153564D02*
X102446436Y-87793330D01*
X103545596Y-87414638D02*
X103185362Y-87054404D01*
%TO.C,R17*%
X97300420Y-90260654D02*
X97660654Y-89900420D01*
X98039346Y-90999580D02*
X98399580Y-90639346D01*
%TO.C,R19*%
X92400420Y-95160654D02*
X92760654Y-94800420D01*
X93139346Y-95899580D02*
X93499580Y-95539346D01*
%TO.C,TP5*%
X107932753Y-87182753D02*
G75*
G02*
X106532753Y-87182753I-700000J0D01*
G01*
X106532753Y-87182753D02*
G75*
G02*
X107932753Y-87182753I700000J0D01*
G01*
%TO.C,R2*%
X109410654Y-92950420D02*
X109050420Y-93310654D01*
X110149580Y-93689346D02*
X109789346Y-94049580D01*
%TO.C,Q3*%
X89400207Y-94056380D02*
X89859826Y-94516000D01*
X90319446Y-94975619D02*
X89859826Y-94516000D01*
X91606380Y-91850207D02*
X92066000Y-92309826D01*
X92525619Y-92769446D02*
X92066000Y-92309826D01*
X93255707Y-93103554D02*
X92852656Y-93167193D01*
X92916295Y-92764143D01*
X93255707Y-93103554D01*
G36*
X93255707Y-93103554D02*
G01*
X92852656Y-93167193D01*
X92916295Y-92764143D01*
X93255707Y-93103554D01*
G37*
D12*
%TO.C,BT1*%
X89500000Y-98737500D02*
X89500000Y-103737500D01*
X89500000Y-108737500D02*
X89500000Y-113737500D01*
X95000000Y-98737500D02*
X89500000Y-98737500D01*
X95000000Y-113737500D02*
X89500000Y-113737500D01*
X105000000Y-98737500D02*
X110500000Y-98737500D01*
X105000000Y-113737500D02*
X105500000Y-113737500D01*
X105500000Y-113737500D02*
X110500000Y-113737500D01*
X110500000Y-103737500D02*
X110500000Y-98737500D01*
X110500000Y-113737500D02*
X110500000Y-108737500D01*
D11*
%TO.C,TP2*%
X112334493Y-91584493D02*
G75*
G02*
X110934493Y-91584493I-700000J0D01*
G01*
X110934493Y-91584493D02*
G75*
G02*
X112334493Y-91584493I700000J0D01*
G01*
%TO.C,R11*%
X88489938Y-91221135D02*
X88850172Y-90860901D01*
X89228864Y-91960061D02*
X89589098Y-91599827D01*
%TO.C,R14*%
X101710654Y-89249580D02*
X101350420Y-88889346D01*
X102449580Y-88510654D02*
X102089346Y-88150420D01*
%TO.C,Q1*%
X94279244Y-89177343D02*
X94738863Y-89636963D01*
X95198483Y-90096582D02*
X94738863Y-89636963D01*
X96485417Y-86971170D02*
X96945037Y-87430789D01*
X97404656Y-87890409D02*
X96945037Y-87430789D01*
X98134744Y-88224517D02*
X97731693Y-88288156D01*
X97795332Y-87885106D01*
X98134744Y-88224517D01*
G36*
X98134744Y-88224517D02*
G01*
X97731693Y-88288156D01*
X97795332Y-87885106D01*
X98134744Y-88224517D01*
G37*
%TO.C,R20*%
X89950420Y-97610654D02*
X90310654Y-97250420D01*
X90689346Y-98349580D02*
X91049580Y-97989346D01*
%TO.C,Q2*%
X91839725Y-91616861D02*
X92299344Y-92076481D01*
X92758964Y-92536100D02*
X92299344Y-92076481D01*
X94045898Y-89410688D02*
X94505518Y-89870307D01*
X94965137Y-90329927D02*
X94505518Y-89870307D01*
X95695225Y-90664035D02*
X95292174Y-90727674D01*
X95355813Y-90324624D01*
X95695225Y-90664035D01*
G36*
X95695225Y-90664035D02*
G01*
X95292174Y-90727674D01*
X95355813Y-90324624D01*
X95695225Y-90664035D01*
G37*
%TO.C,R16*%
X103902685Y-87057549D02*
X103542451Y-86697315D01*
X104641611Y-86318623D02*
X104281377Y-85958389D01*
%TD*%
%LPC*%
D13*
%TO.C,TP1*%
X113101739Y-93051739D03*
%TD*%
D14*
%TO.C,R9*%
X94534753Y-85965246D03*
X93244283Y-87255716D03*
%TD*%
%TO.C,R27*%
X99750000Y-92250000D03*
X98459530Y-93540470D03*
%TD*%
%TO.C,R18*%
X96045235Y-92254765D03*
X94754765Y-93545235D03*
%TD*%
D15*
%TO.C,R3*%
X106004765Y-91195235D03*
X107295235Y-89904765D03*
%TD*%
D14*
%TO.C,R10*%
X92084753Y-88365246D03*
X90794283Y-89655716D03*
%TD*%
D13*
%TO.C,TP4*%
X110167246Y-90117246D03*
%TD*%
D15*
%TO.C,R1*%
X110454765Y-95645235D03*
X111745235Y-94354765D03*
%TD*%
D14*
%TO.C,R12*%
X87234753Y-93215246D03*
X85944283Y-94505716D03*
%TD*%
D16*
%TO.C,Q4*%
X89875736Y-95808237D03*
X88532233Y-97151740D03*
X87878159Y-95154163D03*
%TD*%
D17*
%TO.C,R13*%
X100158750Y-89150780D03*
X101449220Y-90441250D03*
%TD*%
D18*
%TO.C,C2*%
X112848008Y-95501992D03*
X111751992Y-96598008D03*
%TD*%
D13*
%TO.C,TP3*%
X108700000Y-88650000D03*
%TD*%
D17*
%TO.C,R15*%
X102350781Y-86958749D03*
X103641251Y-88249219D03*
%TD*%
D14*
%TO.C,R17*%
X98495235Y-89804765D03*
X97204765Y-91095235D03*
%TD*%
%TO.C,R19*%
X93595235Y-94704765D03*
X92304765Y-95995235D03*
%TD*%
D13*
%TO.C,TP5*%
X107232753Y-87182753D03*
%TD*%
D15*
%TO.C,R2*%
X108954765Y-94145235D03*
X110245235Y-92854765D03*
%TD*%
D16*
%TO.C,Q3*%
X92297577Y-93404074D03*
X90954074Y-94747577D03*
X90300000Y-92750000D03*
%TD*%
D19*
%TO.C,BT1*%
X111725000Y-106237500D03*
X88275000Y-106237500D03*
D20*
X100000000Y-106237500D03*
%TD*%
D13*
%TO.C,TP2*%
X111634493Y-91584493D03*
%TD*%
D14*
%TO.C,R11*%
X89684753Y-90765246D03*
X88394283Y-92055716D03*
%TD*%
D17*
%TO.C,R14*%
X101254765Y-88054765D03*
X102545235Y-89345235D03*
%TD*%
D16*
%TO.C,Q1*%
X97176614Y-88525037D03*
X95833111Y-89868540D03*
X95179037Y-87870963D03*
%TD*%
D14*
%TO.C,R20*%
X91145235Y-97154765D03*
X89854765Y-98445235D03*
%TD*%
D16*
%TO.C,Q2*%
X94737095Y-90964555D03*
X93393592Y-92308058D03*
X92739518Y-90310481D03*
%TD*%
D17*
%TO.C,R16*%
X103446796Y-85862734D03*
X104737266Y-87153204D03*
%TD*%
%LPD*%
M02*
