M48
; DRILL file {KiCad 8.0.4} date 2024-08-01T16:10:49+0200
; FORMAT={-:-/ absolute / inch / decimal}
; #@! TF.CreationDate,2024-08-01T16:10:49+02:00
; #@! TF.GenerationSoftware,Kicad,Pcbnew,8.0.4
; #@! TF.FileFunction,Plated,1,4,PTH
FMAT,2
INCH
; #@! TA.AperFunction,Plated,PTH,ViaDrill
T1C0.0079
; #@! TA.AperFunction,Plated,PTH,ComponentDrill
T2C0.0079
%
G90
G05
T1
X3.2629Y-4.078
X3.2637Y-3.792
X3.2713Y-4.0066
X3.2874Y-3.937
X3.3011Y-3.7283
X3.3087Y-3.8915
X3.341Y-4.1953
X3.3435Y-4.148
X3.3446Y-3.6704
X3.3553Y-4.268
X3.3763Y-4.337
X3.3795Y-3.6438
X3.3809Y-3.5306
X3.3917Y-4.0413
X3.439Y-3.4898
X3.4777Y-4.3681
X3.4862Y-3.8268
X3.4862Y-3.9783
X3.498Y-4.0354
X3.4981Y-3.4581
X3.4985Y-4.4163
X3.5157Y-3.9803
X3.5217Y-4.0531
X3.5335Y-3.5354
X3.5394Y-4.1437
X3.5413Y-3.8287
X3.5433Y-4.0965
X3.5451Y-4.4796
X3.5478Y-3.4417
X3.5512Y-4.1791
X3.561Y-3.9882
X3.561Y-4.0256
X3.5748Y-3.9626
X3.5787Y-4.0591
X3.5809Y-3.7302
X3.5866Y-4.3189
X3.5872Y-4.5303
X3.5933Y-3.3403
X3.5965Y-3.9882
X3.5965Y-4.0354
X3.6299Y-3.8327
X3.6358Y-3.9665
X3.6654Y-3.8012
X3.6661Y-3.325
X3.687Y-3.6437
X3.6957Y-4.5189
X3.6969Y-3.874
X3.7027Y-3.8385
X3.7028Y-3.6142
X3.7028Y-3.7598
X3.7264Y-3.5335
X3.7265Y-4.1456
X3.7316Y-3.3207
X3.7346Y-4.5543
X3.7461Y-3.4114
X3.7618Y-3.6594
X3.7677Y-3.689
X3.7697Y-3.7224
X3.7769Y-3.3278
X3.7854Y-3.7461
X3.7894Y-3.498
X3.7981Y-4.5917
X3.811Y-3.7657
X3.811Y-3.8957
X3.8131Y-4.2322
X3.8248Y-3.628
X3.8268Y-3.6909
X3.8386Y-3.4547
X3.8386Y-3.5394
X3.8622Y-3.435
X3.8647Y-3.2521
X3.8667Y-4.6221
X3.8681Y-3.5827
X3.8691Y-3.3829
X3.878Y-3.6437
X3.8957Y-3.815
X3.9075Y-3.5177
X3.9173Y-4.0807
X3.9291Y-3.7126
X3.937Y-3.2677
X3.937Y-4.25
X3.9449Y-3.7362
X3.9488Y-3.7795
X3.9547Y-3.813
X3.959Y-4.5665
X3.9744Y-3.7087
X3.9823Y-3.815
X3.9941Y-3.561
X4.0059Y-3.378
X4.0066Y-3.2911
X4.0076Y-4.5828
X4.0236Y-4.3661
X4.0335Y-3.5905
X4.0394Y-3.5138
X4.0427Y-3.316
X4.0669Y-4.3228
X4.0728Y-3.7283
X4.0748Y-3.5453
X4.0759Y-4.5917
X4.0787Y-3.4744
X4.0866Y-3.7854
X4.0945Y-4.5276
X4.0984Y-3.811
X4.1102Y-4.2815
X4.1161Y-3.685
X4.124Y-3.4311
X4.1481Y-3.2814
X4.1513Y-4.5916
X4.2008Y-3.8661
X4.2079Y-3.325
X4.21Y-4.5047
X4.2185Y-3.6732
X4.2323Y-4.061
X4.2441Y-3.8228
X4.2441Y-3.9665
X4.252Y-3.7165
X4.2625Y-3.3748
X4.2637Y-4.4985
X4.2677Y-4.3622
X4.2736Y-3.9311
X4.2756Y-4.0177
X4.2776Y-4.3307
X4.2889Y-3.4145
X4.3012Y-3.9547
X4.3012Y-4.1161
X4.3051Y-3.5276
X4.3051Y-4.1693
X4.3159Y-4.2904
X4.3169Y-4.2205
X4.3228Y-4.0945
X4.3258Y-4.3219
X4.3307Y-4.4783
X4.3602Y-4.2992
X4.3701Y-4.3661
X4.3967Y-3.4241
X4.3979Y-4.4488
X4.4211Y-4.3401
X4.4345Y-3.4893
X4.4409Y-3.7598
X4.4602Y-3.552
X4.4649Y-4.3155
X4.4701Y-3.6014
X4.5144Y-4.2755
X4.543Y-4.1091
X4.5603Y-3.8456
X4.5654Y-3.655
X4.5682Y-4.2126
X4.5716Y-3.7982
X4.5721Y-4.0738
X4.5729Y-3.7283
X4.6027Y-4.0066
X4.6257Y-3.9336
T2
X3.9064Y-3.6332
X3.9259Y-3.6527
X3.9273Y-3.6123
X3.9468Y-3.6318
X3.9481Y-3.5914
X3.9676Y-3.6109
M30
