%TF.GenerationSoftware,KiCad,Pcbnew,8.0.4*%
%TF.CreationDate,2024-08-01T18:58:47+02:00*%
%TF.ProjectId,watch,77617463-682e-46b6-9963-61645f706362,rev?*%
%TF.SameCoordinates,Original*%
%TF.FileFunction,Copper,L4,Bot*%
%TF.FilePolarity,Positive*%
%FSLAX46Y46*%
G04 Gerber Fmt 4.6, Leading zero omitted, Abs format (unit mm)*
G04 Created by KiCad (PCBNEW 8.0.4) date 2024-08-01 18:58:47*
%MOMM*%
%LPD*%
G01*
G04 APERTURE LIST*
G04 Aperture macros list*
%AMRoundRect*
0 Rectangle with rounded corners*
0 $1 Rounding radius*
0 $2 $3 $4 $5 $6 $7 $8 $9 X,Y pos of 4 corners*
0 Add a 4 corners polygon primitive as box body*
4,1,4,$2,$3,$4,$5,$6,$7,$8,$9,$2,$3,0*
0 Add four circle primitives for the rounded corners*
1,1,$1+$1,$2,$3*
1,1,$1+$1,$4,$5*
1,1,$1+$1,$6,$7*
1,1,$1+$1,$8,$9*
0 Add four rect primitives between the rounded corners*
20,1,$1+$1,$2,$3,$4,$5,0*
20,1,$1+$1,$4,$5,$6,$7,0*
20,1,$1+$1,$6,$7,$8,$9,0*
20,1,$1+$1,$8,$9,$2,$3,0*%
%AMRotRect*
0 Rectangle, with rotation*
0 The origin of the aperture is its center*
0 $1 length*
0 $2 width*
0 $3 Rotation angle, in degrees counterclockwise*
0 Add horizontal line*
21,1,$1,$2,0,0,$3*%
G04 Aperture macros list end*
%TA.AperFunction,Conductor*%
%ADD10C,0.200000*%
%TD*%
%TA.AperFunction,HeatsinkPad*%
%ADD11C,0.500000*%
%TD*%
%TA.AperFunction,HeatsinkPad*%
%ADD12RotRect,1.200000X2.000000X315.000000*%
%TD*%
%TA.AperFunction,SMDPad,CuDef*%
%ADD13C,1.000000*%
%TD*%
%TA.AperFunction,SMDPad,CuDef*%
%ADD14RoundRect,0.237500X0.008839X0.344715X-0.344715X-0.008839X-0.008839X-0.344715X0.344715X0.008839X0*%
%TD*%
%TA.AperFunction,SMDPad,CuDef*%
%ADD15RoundRect,0.237500X-0.008839X-0.344715X0.344715X0.008839X0.008839X0.344715X-0.344715X-0.008839X0*%
%TD*%
%TA.AperFunction,SMDPad,CuDef*%
%ADD16RoundRect,0.150000X0.521491X-0.309359X-0.309359X0.521491X-0.521491X0.309359X0.309359X-0.521491X0*%
%TD*%
%TA.AperFunction,SMDPad,CuDef*%
%ADD17RoundRect,0.237500X-0.344715X0.008839X0.008839X-0.344715X0.344715X-0.008839X-0.008839X0.344715X0*%
%TD*%
%TA.AperFunction,SMDPad,CuDef*%
%ADD18RoundRect,0.225000X-0.017678X0.335876X-0.335876X0.017678X0.017678X-0.335876X0.335876X-0.017678X0*%
%TD*%
%TA.AperFunction,SMDPad,CuDef*%
%ADD19C,18.000000*%
%TD*%
%TA.AperFunction,SMDPad,CuDef*%
%ADD20R,2.550000X5.000000*%
%TD*%
%TA.AperFunction,ViaPad*%
%ADD21C,0.400000*%
%TD*%
%TA.AperFunction,Conductor*%
%ADD22C,0.127000*%
%TD*%
G04 APERTURE END LIST*
D10*
%TO.N,Net-(D12-K)*%
X83972701Y-107011944D02*
G75*
G02*
X82505953Y-100000000I16027299J7011944D01*
G01*
%TO.N,Net-(D11-K)*%
X113540337Y-91475959D02*
G75*
G02*
X115830789Y-97679196I-13540337J-8524041D01*
G01*
%TO.N,Net-(D12-K)*%
X114128652Y-89683841D02*
G75*
G02*
X117098937Y-96302933I-14128652J-10316159D01*
G01*
%TO.N,Net-(D1-K)*%
X83092033Y-101766504D02*
G75*
G02*
X83847326Y-94699904I16907967J1766504D01*
G01*
%TO.N,Net-(D10-K)*%
X84953301Y-93228985D02*
G75*
G02*
X88850548Y-87836961I15046699J-6771015D01*
G01*
%TO.N,Net-(D11-K)*%
X106934038Y-114419398D02*
G75*
G02*
X100558392Y-115990251I-6934038J14419398D01*
G01*
%TO.N,Net-(D1-K)*%
X100000000Y-83000000D02*
G75*
G02*
X106880701Y-84454713I0J-17000000D01*
G01*
%TO.N,Net-(D12-K)*%
X117134673Y-103527727D02*
G75*
G02*
X114235496Y-110168212I-17134673J3527727D01*
G01*
%TO.N,Net-(D10-K)*%
X101766708Y-83594856D02*
G75*
G02*
X108267098Y-85720466I-1766708J-16405144D01*
G01*
%TO.N,Net-(D12-K)*%
X101779767Y-82596712D02*
G75*
G02*
X108711085Y-84829008I-1779767J-17403288D01*
G01*
%TO.N,Net-(D11-K)*%
X108937943Y-86729237D02*
G75*
G02*
X113540336Y-91475959I-8937943J-13270763D01*
G01*
X85839535Y-92551434D02*
G75*
G02*
X90114646Y-87419074I14160465J-7448566D01*
G01*
%TO.N,Net-(D1-K)*%
X116907968Y-101766504D02*
G75*
G02*
X114665864Y-108597230I-16907968J1766504D01*
G01*
%TO.N,Net-(D10-K)*%
X94859415Y-115678785D02*
G75*
G02*
X88862280Y-112173787I5140585J15678785D01*
G01*
%TO.N,Net-(D1-K)*%
X109998916Y-113748510D02*
G75*
G02*
X103527571Y-116629976I-9998916J13748510D01*
G01*
X103527571Y-116629975D02*
G75*
G02*
X96472429Y-116629975I-3527571J16629969D01*
G01*
%TO.N,Net-(D11-K)*%
X84924392Y-105359663D02*
G75*
G02*
X84041885Y-98843054I15075608J5359663D01*
G01*
%TO.N,Net-(D1-K)*%
X90046663Y-113781544D02*
G75*
G02*
X85224218Y-108406910I9953337J13781544D01*
G01*
%TO.N,Net-(D11-K)*%
X102684624Y-84226834D02*
G75*
G02*
X108937943Y-86729237I-2684624J-15773166D01*
G01*
X115391655Y-104370003D02*
G75*
G02*
X112295303Y-110238432I-15391655J4370003D01*
G01*
%TO.N,Net-(D10-K)*%
X108267098Y-85720466D02*
G75*
G02*
X113289721Y-90220771I-8267098J-14279534D01*
G01*
%TO.N,Net-(D1-K)*%
X112636000Y-88627600D02*
G75*
G02*
X116152676Y-94699903I-12636000J-11372400D01*
G01*
%TO.N,Net-(D10-K)*%
X116130097Y-103474175D02*
G75*
G02*
X113409484Y-109614347I-16130097J3474175D01*
G01*
%TO.N,Net-(D11-K)*%
X93871998Y-114779971D02*
G75*
G02*
X88333812Y-110949887I6128002J14779971D01*
G01*
X100558392Y-115990251D02*
G75*
G02*
X93871998Y-114779970I-558392J15990251D01*
G01*
%TO.N,Net-(D1-K)*%
X85224218Y-108406910D02*
G75*
G02*
X83092033Y-101766504I14775782J8406910D01*
G01*
X96472429Y-116629974D02*
G75*
G02*
X90046664Y-113781542I3527571J16629974D01*
G01*
%TO.N,Net-(D10-K)*%
X88862281Y-112173786D02*
G75*
G02*
X84860336Y-106560521I11137719J12173786D01*
G01*
%TO.N,Net-(D12-K)*%
X82505953Y-100000000D02*
G75*
G02*
X84056440Y-92799683I17494047J0D01*
G01*
%TO.N,Net-(D11-K)*%
X95933296Y-84525447D02*
G75*
G02*
X102684623Y-84226837I4066704J-15474553D01*
G01*
X84041887Y-98843054D02*
G75*
G02*
X85839535Y-92551434I15958113J-1156946D01*
G01*
X88333813Y-110949886D02*
G75*
G02*
X84924393Y-105359663I11666187J10949886D01*
G01*
%TO.N,Net-(D12-K)*%
X108624788Y-115220212D02*
G75*
G02*
X102044027Y-117374227I-8624788J15220212D01*
G01*
%TO.N,Net-(D10-K)*%
X84860337Y-106560521D02*
G75*
G02*
X83500005Y-100000000I15139663J6560521D01*
G01*
X113289721Y-90220771D02*
G75*
G02*
X116118850Y-96474001I-13289721J-9779229D01*
G01*
X101793988Y-116402180D02*
G75*
G02*
X94859415Y-115678785I-1793988J16402180D01*
G01*
%TO.N,Net-(D1-K)*%
X87351173Y-88641869D02*
G75*
G02*
X93119299Y-84454714I12648827J-11358131D01*
G01*
%TO.N,Net-(D10-K)*%
X113409483Y-109614346D02*
G75*
G02*
X108297743Y-114261744I-13409483J9614346D01*
G01*
X83500005Y-100000000D02*
G75*
G02*
X84953300Y-93228985I16499995J0D01*
G01*
%TO.N,Net-(D12-K)*%
X94467896Y-116596312D02*
G75*
G02*
X88155540Y-112874413I5532104J16596312D01*
G01*
%TO.N,Net-(D1-K)*%
X93119299Y-84454713D02*
G75*
G02*
X100000000Y-83000000I6880701J-15545287D01*
G01*
%TO.N,Net-(D11-K)*%
X90114646Y-87419074D02*
G75*
G02*
X95933296Y-84525445I9885354J-12580926D01*
G01*
%TO.N,Net-(D12-K)*%
X114235495Y-110168212D02*
G75*
G02*
X108624788Y-115220213I-14235495J10168212D01*
G01*
%TO.N,Net-(D11-K)*%
X112295303Y-110238432D02*
G75*
G02*
X106934038Y-114419399I-12295303J10238432D01*
G01*
%TO.N,Net-(D10-K)*%
X108297743Y-114261745D02*
G75*
G02*
X101793988Y-116402180I-8297743J14261745D01*
G01*
X88850549Y-87836962D02*
G75*
G02*
X94782244Y-84346733I11149451J-12163038D01*
G01*
X116118849Y-96474001D02*
G75*
G02*
X116130098Y-103474175I-16118849J-3525999D01*
G01*
%TO.N,Net-(D1-K)*%
X114665863Y-108597230D02*
G75*
G02*
X109998917Y-113748511I-14665863J8597230D01*
G01*
X83847325Y-94699904D02*
G75*
G02*
X87351174Y-88641870I16152675J-5300096D01*
G01*
%TO.N,Net-(D12-K)*%
X88300000Y-87000000D02*
G75*
G02*
X94624570Y-83356841I11700000J-13000000D01*
G01*
X84056441Y-92799683D02*
G75*
G02*
X88297100Y-86996778I15943559J-7200317D01*
G01*
%TO.N,Net-(D11-K)*%
X115830788Y-97679196D02*
G75*
G02*
X115391655Y-104370003I-15830788J-2320804D01*
G01*
%TO.N,Net-(D12-K)*%
X88155541Y-112874412D02*
G75*
G02*
X83972700Y-107011944I11844459J12874412D01*
G01*
X108711085Y-84829008D02*
G75*
G02*
X114128653Y-89683840I-8711085J-15170992D01*
G01*
%TO.N,Net-(D1-K)*%
X116152676Y-94699903D02*
G75*
G02*
X116907970Y-101766504I-16152676J-5300097D01*
G01*
X106880701Y-84454714D02*
G75*
G02*
X112636000Y-88627600I-6880701J-15545286D01*
G01*
%TO.N,Net-(D12-K)*%
X102044027Y-117374226D02*
G75*
G02*
X94467896Y-116596313I-2044027J17374226D01*
G01*
X117098936Y-96302933D02*
G75*
G02*
X117134674Y-103527727I-17098936J-3697067D01*
G01*
X94624570Y-83356841D02*
G75*
G02*
X101779767Y-82596712I5375430J-16543159D01*
G01*
%TO.N,Net-(D10-K)*%
X94782244Y-84346732D02*
G75*
G02*
X101766707Y-83594863I5217756J-15653268D01*
G01*
%TD*%
D11*
%TO.P,U3,11,GND*%
%TO.N,GND*%
X99717157Y-92777817D03*
X100247487Y-92247487D03*
X100777817Y-91717157D03*
D12*
X100000000Y-92000000D03*
D11*
X99222183Y-92282843D03*
X99752513Y-91752513D03*
X100282843Y-91222183D03*
%TD*%
D13*
%TO.P,TP1,1,1*%
%TO.N,Net-(R1-Pad2)*%
X113101739Y-93051739D03*
%TD*%
D14*
%TO.P,R9,2*%
%TO.N,Net-(D1-K)*%
X93244283Y-87255716D03*
%TO.P,R9,1*%
%TO.N,Net-(Q1-D)*%
X94534753Y-85965246D03*
%TD*%
%TO.P,R27,2*%
%TO.N,Net-(U3-CFG3)*%
X98459530Y-93540470D03*
%TO.P,R27,1*%
%TO.N,GND*%
X99750000Y-92250000D03*
%TD*%
%TO.P,R18,2*%
%TO.N,LEDROW1*%
X94754765Y-93545235D03*
%TO.P,R18,1*%
%TO.N,Net-(Q2-G)*%
X96045235Y-92254765D03*
%TD*%
D15*
%TO.P,R3,2*%
%TO.N,Net-(R3-Pad2)*%
X107295235Y-89904765D03*
%TO.P,R3,1*%
%TO.N,SWDIO*%
X106004765Y-91195235D03*
%TD*%
D14*
%TO.P,R10,2*%
%TO.N,Net-(D10-K)*%
X90794283Y-89655716D03*
%TO.P,R10,1*%
%TO.N,Net-(Q2-D)*%
X92084753Y-88365246D03*
%TD*%
D13*
%TO.P,TP4,1,1*%
%TO.N,GND*%
X110167246Y-90117246D03*
%TD*%
D15*
%TO.P,R1,2*%
%TO.N,Net-(R1-Pad2)*%
X111745235Y-94354765D03*
%TO.P,R1,1*%
%TO.N,nRST*%
X110454765Y-95645235D03*
%TD*%
D14*
%TO.P,R12,2*%
%TO.N,Net-(D12-K)*%
X85944283Y-94505716D03*
%TO.P,R12,1*%
%TO.N,Net-(Q4-D)*%
X87234753Y-93215246D03*
%TD*%
D16*
%TO.P,Q4,3,D*%
%TO.N,Net-(Q4-D)*%
X87878159Y-95154163D03*
%TO.P,Q4,2,S*%
%TO.N,GND*%
X88532233Y-97151740D03*
%TO.P,Q4,1,G*%
%TO.N,Net-(Q4-G)*%
X89875736Y-95808237D03*
%TD*%
D17*
%TO.P,R13,2*%
%TO.N,GND*%
X101449220Y-90441250D03*
%TO.P,R13,1*%
%TO.N,Net-(Q1-G)*%
X100158750Y-89150780D03*
%TD*%
D18*
%TO.P,C2,2*%
%TO.N,nRST*%
X111751992Y-96598008D03*
%TO.P,C2,1*%
%TO.N,GND*%
X112848008Y-95501992D03*
%TD*%
D13*
%TO.P,TP3,1,1*%
%TO.N,Net-(R3-Pad2)*%
X108700000Y-88650000D03*
%TD*%
D17*
%TO.P,R15,2*%
%TO.N,GND*%
X103641251Y-88249219D03*
%TO.P,R15,1*%
%TO.N,Net-(Q3-G)*%
X102350781Y-86958749D03*
%TD*%
D14*
%TO.P,R17,2*%
%TO.N,LEDROW0*%
X97204765Y-91095235D03*
%TO.P,R17,1*%
%TO.N,Net-(Q1-G)*%
X98495235Y-89804765D03*
%TD*%
%TO.P,R19,2*%
%TO.N,LEDROW2*%
X92304765Y-95995235D03*
%TO.P,R19,1*%
%TO.N,Net-(Q3-G)*%
X93595235Y-94704765D03*
%TD*%
D13*
%TO.P,TP5,1,1*%
%TO.N,+BATT*%
X107232753Y-87182753D03*
%TD*%
D15*
%TO.P,R2,2*%
%TO.N,Net-(R2-Pad2)*%
X110245235Y-92854765D03*
%TO.P,R2,1*%
%TO.N,SWDCLK*%
X108954765Y-94145235D03*
%TD*%
D16*
%TO.P,Q3,3,D*%
%TO.N,Net-(Q3-D)*%
X90300000Y-92750000D03*
%TO.P,Q3,2,S*%
%TO.N,GND*%
X90954074Y-94747577D03*
%TO.P,Q3,1,G*%
%TO.N,Net-(Q3-G)*%
X92297577Y-93404074D03*
%TD*%
D19*
%TO.P,BT1,2,-*%
%TO.N,GND*%
X100000000Y-106237500D03*
D20*
%TO.P,BT1,1,+*%
%TO.N,+BATT*%
X88275000Y-106237500D03*
X111725000Y-106237500D03*
%TD*%
D13*
%TO.P,TP2,1,1*%
%TO.N,Net-(R2-Pad2)*%
X111634493Y-91584493D03*
%TD*%
D14*
%TO.P,R11,2*%
%TO.N,Net-(D11-K)*%
X88394283Y-92055716D03*
%TO.P,R11,1*%
%TO.N,Net-(Q3-D)*%
X89684753Y-90765246D03*
%TD*%
D17*
%TO.P,R14,2*%
%TO.N,GND*%
X102545235Y-89345235D03*
%TO.P,R14,1*%
%TO.N,Net-(Q2-G)*%
X101254765Y-88054765D03*
%TD*%
D16*
%TO.P,Q1,3,D*%
%TO.N,Net-(Q1-D)*%
X95179037Y-87870963D03*
%TO.P,Q1,2,S*%
%TO.N,GND*%
X95833111Y-89868540D03*
%TO.P,Q1,1,G*%
%TO.N,Net-(Q1-G)*%
X97176614Y-88525037D03*
%TD*%
D14*
%TO.P,R20,2*%
%TO.N,LEDROW3*%
X89854765Y-98445235D03*
%TO.P,R20,1*%
%TO.N,Net-(Q4-G)*%
X91145235Y-97154765D03*
%TD*%
D16*
%TO.P,Q2,3,D*%
%TO.N,Net-(Q2-D)*%
X92739518Y-90310481D03*
%TO.P,Q2,2,S*%
%TO.N,GND*%
X93393592Y-92308058D03*
%TO.P,Q2,1,G*%
%TO.N,Net-(Q2-G)*%
X94737095Y-90964555D03*
%TD*%
D17*
%TO.P,R16,2*%
%TO.N,GND*%
X104737266Y-87153204D03*
%TO.P,R16,1*%
%TO.N,Net-(Q4-G)*%
X103446796Y-85862734D03*
%TD*%
D21*
%TO.N,GND*%
X105750000Y-93350000D03*
X103300000Y-109800000D03*
X102200000Y-110900000D03*
X104750000Y-87150000D03*
X89200000Y-96450000D03*
X108550000Y-102050000D03*
X96851992Y-107498008D03*
X100200000Y-88200000D03*
X99500000Y-103650000D03*
X109350000Y-89600000D03*
X100000000Y-107950000D03*
X96800000Y-98950000D03*
X92750000Y-92700000D03*
X103600000Y-88250000D03*
X94651992Y-105298008D03*
X102600000Y-89250000D03*
X106450000Y-92600000D03*
X113300000Y-96850000D03*
X101450000Y-90450000D03*
X91750000Y-94100000D03*
X94650000Y-89750000D03*
X107500000Y-103200000D03*
X92550000Y-97100000D03*
X109050000Y-99000000D03*
X104400000Y-108750000D03*
X103500000Y-90050000D03*
%TO.N,+BATT*%
X103550000Y-91200000D03*
X89900000Y-105250000D03*
%TO.N,nRST*%
X103800000Y-96150000D03*
%TO.N,VDD*%
X90200000Y-106150000D03*
X103650000Y-93800000D03*
X91100000Y-109700000D03*
X94048008Y-97498008D03*
X107350000Y-98800000D03*
X108650000Y-100950000D03*
X97200000Y-93750000D03*
X108400000Y-110800000D03*
%TO.N,Net-(U1-PA5)*%
X93900000Y-98400000D03*
X96800000Y-95650000D03*
X90000000Y-104050000D03*
X92350000Y-100750000D03*
%TO.N,Net-(D1-K)*%
X112636000Y-88627600D03*
X100000000Y-83000000D03*
X85224218Y-108406910D03*
X109998917Y-113748511D03*
X87351173Y-88641869D03*
X114665864Y-108597230D03*
X83092034Y-101766504D03*
X95150000Y-86650000D03*
X93119299Y-84454713D03*
X90046664Y-113781542D03*
X83847326Y-94699904D03*
X116152676Y-94699903D03*
X106880701Y-84454714D03*
X103527571Y-116629975D03*
X96472429Y-116629974D03*
X116907969Y-101766504D03*
%TO.N,/LED_Matrix/LEDCOL0*%
X97500000Y-89900000D03*
X96250000Y-88850000D03*
%TO.N,/LED_Matrix/LEDCOL1*%
X98275000Y-85925000D03*
X101150000Y-86500000D03*
%TO.N,/LED_Matrix/LEDCOL5*%
X108650000Y-110000000D03*
X109650000Y-107200000D03*
%TO.N,/LED_Matrix/LEDCOL6*%
X109625000Y-108975000D03*
X110750000Y-109200000D03*
%TO.N,/LED_Matrix/LEDCOL7*%
X109875000Y-109775000D03*
X111000000Y-110900000D03*
%TO.N,SWDIO*%
X99867500Y-95050000D03*
%TO.N,SWDCLK*%
X100450000Y-96850000D03*
%TO.N,/LED_Matrix/LEDCOL8*%
X109350000Y-105900000D03*
X109250000Y-104550000D03*
%TO.N,/LED_Matrix/LEDCOL9*%
X104000000Y-115000000D03*
X109800000Y-104000000D03*
%TO.N,/LED_Matrix/LEDCOL10*%
X88550000Y-101050000D03*
X89450000Y-102950000D03*
%TO.N,/LED_Matrix/LEDCOL11*%
X89300000Y-101100000D03*
X88850000Y-102500000D03*
%TO.N,/LED_Matrix/LEDCOL12*%
X91350000Y-102500000D03*
X91350000Y-101300000D03*
%TO.N,/LED_Matrix/LEDCOL14*%
X90450000Y-101300000D03*
X90450000Y-102250000D03*
%TO.N,Net-(Q3-G)*%
X93700000Y-93550000D03*
X98100000Y-87250000D03*
%TO.N,Net-(U1-BOOT0)*%
X109250000Y-100450000D03*
X104100000Y-96800000D03*
%TO.N,/Accel/ACCEL_SDA*%
X90900000Y-103100000D03*
X90800000Y-100650000D03*
%TO.N,LEDROW0*%
X99200000Y-94323663D03*
X95700000Y-93700000D03*
X100950000Y-94200000D03*
%TO.N,LEDROW1*%
X95550000Y-92950000D03*
%TO.N,LEDROW2*%
X95750000Y-94550000D03*
%TO.N,LEDROW3*%
X96150000Y-95150000D03*
%TO.N,Net-(U3-CFG2)*%
X98250000Y-91000000D03*
X94050000Y-95500000D03*
%TO.N,/Accel/ACCEL_EVT0*%
X100300000Y-96000000D03*
X101150000Y-96900000D03*
%TO.N,Net-(U3-SEL)*%
X99250000Y-89350000D03*
X97500000Y-87750000D03*
%TO.N,Net-(D10-K)*%
X88862280Y-112173787D03*
X94859415Y-115678785D03*
X101766707Y-83594863D03*
X113289721Y-90220771D03*
X113409484Y-109614347D03*
X83500005Y-100000000D03*
X108267098Y-85720466D03*
X84860336Y-106560521D03*
X108297743Y-114261745D03*
X101793988Y-116402180D03*
X89750000Y-89800000D03*
X116130098Y-103474175D03*
X84953300Y-93228985D03*
X116118849Y-96474001D03*
X94782244Y-84346732D03*
X88850548Y-87836961D03*
%TO.N,Net-(D11-K)*%
X93871998Y-114779971D03*
X112295303Y-110238432D03*
X108937943Y-86729237D03*
X100558392Y-115990251D03*
X90114646Y-87419074D03*
X106934038Y-114419399D03*
X85839535Y-92551434D03*
X115830788Y-97679196D03*
X115391655Y-104370003D03*
X84924392Y-105359663D03*
X88333813Y-110949886D03*
X102684624Y-84226834D03*
X95933296Y-84525447D03*
X84041887Y-98843054D03*
X113540337Y-91475959D03*
%TO.N,Net-(D12-K)*%
X98162434Y-82602754D03*
X98213115Y-117402552D03*
X116032651Y-106999714D03*
X85759183Y-110160749D03*
X115960691Y-92837719D03*
X117493840Y-99913465D03*
X86150000Y-102650000D03*
X82897967Y-96317318D03*
X91114654Y-115069584D03*
X91270124Y-84844827D03*
X105362861Y-83348222D03*
X105442045Y-116626063D03*
X111705931Y-113000502D03*
X85875550Y-89678104D03*
X82876566Y-103581854D03*
X111675006Y-86971714D03*
%TO.N,Net-(U3-CFG3)*%
X98500000Y-92550000D03*
%TO.N,GND*%
X108900000Y-95100000D03*
X108500000Y-96400000D03*
%TD*%
D22*
%TO.N,+BATT*%
X107232753Y-87182753D02*
X106200000Y-88215506D01*
X106200000Y-88215506D02*
X106200000Y-90050000D01*
X106200000Y-90050000D02*
X104700000Y-90050000D01*
X104700000Y-90050000D02*
X103550000Y-91200000D01*
%TO.N,GND*%
X88532233Y-97117767D02*
X89200000Y-96450000D01*
X112848008Y-95501992D02*
X113300000Y-95953984D01*
X99049845Y-98099845D02*
X101200155Y-98099845D01*
X108550000Y-102050000D02*
X108600000Y-102050000D01*
X93393592Y-92308058D02*
X93141942Y-92308058D01*
X90954074Y-94747577D02*
X91102423Y-94747577D01*
X94768540Y-89868540D02*
X94650000Y-89750000D01*
X108550000Y-102000000D02*
X108550000Y-102050000D01*
X95833111Y-89868540D02*
X94768540Y-89868540D01*
X101450000Y-90450000D02*
X101440470Y-90450000D01*
X109867246Y-90117246D02*
X109350000Y-89600000D01*
X103400000Y-90050000D02*
X102600000Y-89250000D01*
X110167246Y-90117246D02*
X109867246Y-90117246D01*
X88532233Y-97151740D02*
X88532233Y-97117767D01*
X101449220Y-90441250D02*
X104737266Y-87153204D01*
X101450000Y-90440470D02*
X101450000Y-90450000D01*
X93141942Y-92308058D02*
X92750000Y-92700000D01*
X91102423Y-94747577D02*
X91750000Y-94100000D01*
X113300000Y-95953984D02*
X113300000Y-96850000D01*
X103500000Y-90050000D02*
X103400000Y-90050000D01*
%TO.N,+BATT*%
X112569276Y-105393224D02*
X112569276Y-96419276D01*
X98290435Y-94750000D02*
X99577065Y-94750000D01*
X93090435Y-99950000D02*
X98290435Y-94750000D01*
X111725000Y-106237500D02*
X112569276Y-105393224D01*
X107232753Y-87182753D02*
X107217247Y-87182753D01*
X89262500Y-105250000D02*
X88275000Y-106237500D01*
X88046000Y-106008500D02*
X88046000Y-100963565D01*
X89059565Y-99950000D02*
X93090435Y-99950000D01*
X112569276Y-96419276D02*
X106506367Y-90356367D01*
X103550000Y-92890790D02*
X103550000Y-91200000D01*
X89900000Y-105250000D02*
X89262500Y-105250000D01*
X101808290Y-94632500D02*
X103550000Y-92890790D01*
X99694565Y-94632500D02*
X101808290Y-94632500D01*
%TO.N,nRST*%
X111407538Y-96598008D02*
X111751992Y-96598008D01*
X104304765Y-95645235D02*
X103800000Y-96150000D01*
X110454765Y-95645235D02*
X104304765Y-95645235D01*
X110454765Y-95645235D02*
X111407538Y-96598008D01*
%TO.N,Net-(U1-PA5)*%
X96600000Y-95650000D02*
X96800000Y-95650000D01*
X94334492Y-97915508D02*
X96600000Y-95650000D01*
X90000000Y-100850000D02*
X90000000Y-104050000D01*
X93900000Y-98400000D02*
X94334492Y-97965508D01*
X92350000Y-100750000D02*
X91832500Y-100232500D01*
X91832500Y-100232500D02*
X90617500Y-100232500D01*
%TO.N,Net-(D1-K)*%
X94791159Y-86650000D02*
X95150000Y-86650000D01*
X93244283Y-87255716D02*
X94185443Y-87255716D01*
X94185443Y-87255716D02*
X94791159Y-86650000D01*
%TO.N,/LED_Matrix/LEDCOL0*%
X97500000Y-89900000D02*
X97300000Y-89900000D01*
X97300000Y-89900000D02*
X96250000Y-88850000D01*
%TO.N,/LED_Matrix/LEDCOL1*%
X100908000Y-86742000D02*
X99092000Y-86742000D01*
X101150000Y-86500000D02*
X100908000Y-86742000D01*
X99092000Y-86742000D02*
X98275000Y-85925000D01*
%TO.N,/LED_Matrix/LEDCOL5*%
X109650000Y-107200000D02*
X109050000Y-108350000D01*
X109050000Y-108350000D02*
X108650000Y-110000000D01*
%TO.N,/LED_Matrix/LEDCOL6*%
X109850000Y-109200000D02*
X110750000Y-109200000D01*
X109625000Y-108975000D02*
X109850000Y-109200000D01*
%TO.N,/LED_Matrix/LEDCOL7*%
X109875000Y-109775000D02*
X109800000Y-109700000D01*
X109800000Y-109700000D02*
X111000000Y-110900000D01*
%TO.N,Net-(R1-Pad2)*%
X113048261Y-93051739D02*
X113101739Y-93051739D01*
X111745235Y-94354765D02*
X113048261Y-93051739D01*
%TO.N,SWDIO*%
X105604765Y-91195235D02*
X106004765Y-91195235D01*
X101900000Y-94900000D02*
X105604765Y-91195235D01*
X99867500Y-95050000D02*
X100017500Y-94900000D01*
X100017500Y-94900000D02*
X101900000Y-94900000D01*
%TO.N,Net-(R2-Pad2)*%
X110245235Y-92854765D02*
X111515507Y-91584493D01*
X111515507Y-91584493D02*
X111634493Y-91584493D01*
%TO.N,SWDCLK*%
X100450000Y-96850000D02*
X99882500Y-96282500D01*
X99882500Y-95827065D02*
X100555565Y-95154000D01*
X107946000Y-95154000D02*
X108954765Y-94145235D01*
X100555565Y-95154000D02*
X107946000Y-95154000D01*
%TO.N,Net-(R3-Pad2)*%
X108550000Y-88650000D02*
X108700000Y-88650000D01*
X107295235Y-89904765D02*
X108550000Y-88650000D01*
%TO.N,/LED_Matrix/LEDCOL8*%
X109250000Y-104550000D02*
X109250000Y-105800000D01*
X109250000Y-105800000D02*
X109350000Y-105900000D01*
%TO.N,/LED_Matrix/LEDCOL9*%
X105550000Y-114400000D02*
X104600000Y-114400000D01*
X109207500Y-110742500D02*
X105550000Y-114400000D01*
X109207500Y-108792500D02*
X109207500Y-110742500D01*
X104600000Y-114400000D02*
X104000000Y-115000000D01*
X109800000Y-104000000D02*
X110067500Y-104267500D01*
X110067500Y-104267500D02*
X110067500Y-107932500D01*
%TO.N,/LED_Matrix/LEDCOL10*%
X88709565Y-102950000D02*
X89450000Y-102950000D01*
X88550000Y-101050000D02*
X88300000Y-101300000D01*
X88300000Y-101300000D02*
X88300000Y-102540435D01*
%TO.N,/LED_Matrix/LEDCOL11*%
X89300000Y-102050000D02*
X88850000Y-102500000D01*
X89300000Y-101100000D02*
X89300000Y-102050000D01*
%TO.N,/LED_Matrix/LEDCOL12*%
X91350000Y-101300000D02*
X91350000Y-102500000D01*
%TO.N,/LED_Matrix/LEDCOL14*%
X90450000Y-102250000D02*
X90450000Y-101300000D01*
%TO.N,Net-(Q1-D)*%
X95567500Y-87482500D02*
X95179037Y-87870963D01*
X95119863Y-85965246D02*
X95567500Y-86412883D01*
X95567500Y-86412883D02*
X95567500Y-87482500D01*
X94534753Y-85965246D02*
X95119863Y-85965246D01*
%TO.N,Net-(Q1-G)*%
X99504765Y-89804765D02*
X100158750Y-89150780D01*
X97215507Y-88525037D02*
X97176614Y-88525037D01*
X98495235Y-89804765D02*
X97215507Y-88525037D01*
X98495235Y-89804765D02*
X99504765Y-89804765D01*
%TO.N,Net-(Q2-D)*%
X92084753Y-89655716D02*
X92739518Y-90310481D01*
X92084753Y-88365246D02*
X92084753Y-89655716D01*
%TO.N,Net-(Q2-G)*%
X96045235Y-92254765D02*
X94755025Y-90964555D01*
X97682133Y-90582133D02*
X99686235Y-90582133D01*
X97040973Y-90317867D02*
X97417867Y-90317867D01*
X94755025Y-90964555D02*
X94737095Y-90964555D01*
X99686235Y-90582133D02*
X101254765Y-89013603D01*
X96045235Y-91313605D02*
X97040973Y-90317867D01*
X96045235Y-92254765D02*
X96045235Y-91313605D01*
X101254765Y-89013603D02*
X101254765Y-88054765D01*
%TO.N,Net-(Q3-G)*%
X93595235Y-94704765D02*
X92297577Y-93407107D01*
X92297577Y-93407107D02*
X92297577Y-93404074D01*
X98100000Y-87250000D02*
X102059530Y-87250000D01*
X102059530Y-87250000D02*
X102350781Y-86958749D01*
X93700000Y-93550000D02*
X93700000Y-94600000D01*
%TO.N,Net-(Q3-D)*%
X89684753Y-92134753D02*
X90300000Y-92750000D01*
X89684753Y-90765246D02*
X89684753Y-92134753D01*
%TO.N,Net-(Q4-D)*%
X87234753Y-93215246D02*
X87234753Y-94510757D01*
X87234753Y-94510757D02*
X87878159Y-95154163D01*
%TO.N,Net-(Q4-G)*%
X93604448Y-90784811D02*
X89875736Y-94513523D01*
X98272935Y-86832500D02*
X97529892Y-86832500D01*
X89875736Y-94513523D02*
X89875736Y-95808237D01*
X103446796Y-85862734D02*
X102487958Y-85862734D01*
X101354692Y-86996000D02*
X98436435Y-86996000D01*
X102487958Y-85862734D02*
X101354692Y-86996000D01*
X94814107Y-88735893D02*
X93604448Y-89945552D01*
X91145235Y-97154765D02*
X89875736Y-95885266D01*
X97529892Y-86832500D02*
X95626499Y-88735893D01*
%TO.N,Net-(U1-BOOT0)*%
X106090435Y-96800000D02*
X104100000Y-96800000D01*
X109250000Y-100450000D02*
X109250000Y-99959565D01*
X109250000Y-99959565D02*
X106090435Y-96800000D01*
%TO.N,/Accel/ACCEL_SDA*%
X90867500Y-100717500D02*
X90867500Y-103067500D01*
X90867500Y-103067500D02*
X90900000Y-103100000D01*
X90800000Y-100650000D02*
X90867500Y-100717500D01*
%TO.N,LEDROW0*%
X97567500Y-92322935D02*
X97567500Y-91457970D01*
X95700000Y-93700000D02*
X96190435Y-93700000D01*
X96190435Y-93700000D02*
X97567500Y-92322935D01*
X99200000Y-94323663D02*
X99323663Y-94200000D01*
X99323663Y-94200000D02*
X100950000Y-94200000D01*
X97567500Y-91457970D02*
X97204765Y-91095235D01*
%TO.N,LEDROW1*%
X95550000Y-92950000D02*
X95350000Y-92950000D01*
X95350000Y-92950000D02*
X94754765Y-93545235D01*
%TO.N,LEDROW2*%
X95750000Y-94550000D02*
X95650000Y-94550000D01*
X94204765Y-95995235D02*
X92304765Y-95995235D01*
X95650000Y-94550000D02*
X94204765Y-95995235D01*
%TO.N,LEDROW3*%
X95409210Y-95150000D02*
X92113975Y-98445235D01*
X92113975Y-98445235D02*
X89854765Y-98445235D01*
X96150000Y-95150000D02*
X95409210Y-95150000D01*
%TO.N,Net-(U3-CFG2)*%
X94050000Y-95500000D02*
X95432500Y-94117500D01*
X97821500Y-92428145D02*
X97821500Y-91428500D01*
X97821500Y-91428500D02*
X98250000Y-91000000D01*
X96132145Y-94117500D02*
X97821500Y-92428145D01*
%TO.N,/Accel/ACCEL_EVT0*%
X101150000Y-96900000D02*
X100300000Y-96050000D01*
X100300000Y-96050000D02*
X100300000Y-96000000D01*
%TO.N,Net-(U3-SEL)*%
X99100000Y-89350000D02*
X97500000Y-87750000D01*
X99250000Y-89350000D02*
X99100000Y-89350000D01*
%TO.N,Net-(D10-K)*%
X89894284Y-89655716D02*
X89750000Y-89800000D01*
X90794283Y-89655716D02*
X89894284Y-89655716D01*
%TO.N,Net-(D11-K)*%
X88394283Y-92055716D02*
X88394283Y-90447680D01*
X88394283Y-90447680D02*
X87706277Y-89759674D01*
X92854765Y-85694494D02*
X92875517Y-85673742D01*
%TO.N,Net-(D12-K)*%
X86150000Y-102650000D02*
X85944283Y-102444283D01*
X85944283Y-102444283D02*
X85944283Y-94505716D01*
%TO.N,Net-(U3-CFG3)*%
X98459530Y-92590470D02*
X98500000Y-92550000D01*
X98459530Y-93540470D02*
X98459530Y-92590470D01*
%TO.N,Net-(U3-CFG2)*%
X95432500Y-94117500D02*
X96132145Y-94117500D01*
%TO.N,Net-(Q4-G)*%
X98436435Y-86996000D02*
X98272935Y-86832500D01*
X95626499Y-88735893D02*
X94814107Y-88735893D01*
X89875736Y-95885266D02*
X89875736Y-95808237D01*
X93604448Y-89945552D02*
X93604448Y-90784811D01*
%TO.N,Net-(Q3-G)*%
X93700000Y-94600000D02*
X93595235Y-94704765D01*
%TO.N,Net-(Q2-G)*%
X97417867Y-90317867D02*
X97682133Y-90582133D01*
%TO.N,/LED_Matrix/LEDCOL10*%
X88300000Y-102540435D02*
X88709565Y-102950000D01*
%TO.N,/LED_Matrix/LEDCOL9*%
X110067500Y-107932500D02*
X109207500Y-108792500D01*
%TO.N,SWDCLK*%
X99882500Y-96282500D02*
X99882500Y-95827065D01*
%TO.N,Net-(U1-PA5)*%
X94334492Y-97965508D02*
X94334492Y-97915508D01*
X90617500Y-100232500D02*
X90000000Y-100850000D01*
%TO.N,+BATT*%
X88275000Y-106237500D02*
X88046000Y-106008500D01*
X88046000Y-100963565D02*
X89059565Y-99950000D01*
X99577065Y-94750000D02*
X99694565Y-94632500D01*
%TO.N,GND*%
X101449220Y-90441250D02*
X101450000Y-90440470D01*
X108550000Y-102000000D02*
X108550000Y-102000000D01*
X108600000Y-102050000D02*
X108600000Y-102050000D01*
%TO.N,+BATT*%
X106506367Y-90356367D02*
X106200000Y-90050000D01*
%TD*%
%TA.AperFunction,Conductor*%
%TO.N,GND*%
G36*
X104102562Y-95364685D02*
G01*
X104148317Y-95417489D01*
X104158261Y-95486647D01*
X104129236Y-95550203D01*
X104123221Y-95556663D01*
X103987276Y-95692608D01*
X103965038Y-95714846D01*
X103903714Y-95748330D01*
X103857960Y-95749637D01*
X103800004Y-95740458D01*
X103799997Y-95740458D01*
X103673448Y-95760500D01*
X103622357Y-95786533D01*
X103559277Y-95818674D01*
X103559276Y-95818675D01*
X103559271Y-95818678D01*
X103468678Y-95909271D01*
X103468675Y-95909276D01*
X103468674Y-95909277D01*
X103454589Y-95936921D01*
X103410500Y-96023448D01*
X103390458Y-96149996D01*
X103390458Y-96150003D01*
X103410500Y-96276551D01*
X103410501Y-96276554D01*
X103410502Y-96276555D01*
X103468674Y-96390723D01*
X103468676Y-96390725D01*
X103468678Y-96390728D01*
X103559271Y-96481321D01*
X103559273Y-96481322D01*
X103559277Y-96481326D01*
X103648216Y-96526643D01*
X103699011Y-96574617D01*
X103715806Y-96642438D01*
X103711954Y-96663793D01*
X103712028Y-96663805D01*
X103690458Y-96799996D01*
X103690458Y-96800003D01*
X103710500Y-96926551D01*
X103710501Y-96926554D01*
X103710502Y-96926555D01*
X103768674Y-97040723D01*
X103768676Y-97040725D01*
X103768678Y-97040728D01*
X103859271Y-97131321D01*
X103859273Y-97131322D01*
X103859277Y-97131326D01*
X103973445Y-97189498D01*
X103973446Y-97189498D01*
X103973448Y-97189499D01*
X104099997Y-97209542D01*
X104100000Y-97209542D01*
X104100003Y-97209542D01*
X104226551Y-97189499D01*
X104226552Y-97189498D01*
X104226555Y-97189498D01*
X104340723Y-97131326D01*
X104388493Y-97083556D01*
X104438227Y-97033823D01*
X104439464Y-97035060D01*
X104485640Y-96999451D01*
X104530633Y-96991000D01*
X105959958Y-96991000D01*
X106026997Y-97010685D01*
X106047639Y-97027319D01*
X107240141Y-98219821D01*
X107273626Y-98281144D01*
X107268642Y-98350836D01*
X107226770Y-98406769D01*
X107208756Y-98417986D01*
X107109278Y-98468673D01*
X107109271Y-98468678D01*
X107018678Y-98559271D01*
X107018675Y-98559276D01*
X106960500Y-98673448D01*
X106940458Y-98799996D01*
X106940458Y-98800003D01*
X106960500Y-98926551D01*
X106960501Y-98926554D01*
X106960502Y-98926555D01*
X107018674Y-99040723D01*
X107018676Y-99040725D01*
X107018678Y-99040728D01*
X107109271Y-99131321D01*
X107109273Y-99131322D01*
X107109277Y-99131326D01*
X107223445Y-99189498D01*
X107223446Y-99189498D01*
X107223448Y-99189499D01*
X107349997Y-99209542D01*
X107350000Y-99209542D01*
X107350003Y-99209542D01*
X107476551Y-99189499D01*
X107476552Y-99189498D01*
X107476555Y-99189498D01*
X107590723Y-99131326D01*
X107681326Y-99040723D01*
X107732014Y-98941242D01*
X107779986Y-98890448D01*
X107847807Y-98873653D01*
X107913942Y-98896190D01*
X107930178Y-98909858D01*
X108986454Y-99966134D01*
X109019939Y-100027457D01*
X109014955Y-100097149D01*
X108986454Y-100141496D01*
X108918678Y-100209271D01*
X108918675Y-100209276D01*
X108918674Y-100209277D01*
X108900579Y-100244791D01*
X108860500Y-100323448D01*
X108841218Y-100445197D01*
X108811289Y-100508332D01*
X108751978Y-100545264D01*
X108699348Y-100548273D01*
X108650000Y-100540458D01*
X108649998Y-100540458D01*
X108649997Y-100540458D01*
X108523448Y-100560500D01*
X108491947Y-100576551D01*
X108409277Y-100618674D01*
X108409276Y-100618675D01*
X108409271Y-100618678D01*
X108318678Y-100709271D01*
X108318675Y-100709276D01*
X108318674Y-100709277D01*
X108289011Y-100767493D01*
X108260500Y-100823448D01*
X108240458Y-100949996D01*
X108240458Y-100950003D01*
X108260715Y-101077906D01*
X108251760Y-101147199D01*
X108206764Y-101200651D01*
X108140012Y-101221290D01*
X108072698Y-101202565D01*
X108032204Y-101161584D01*
X107965922Y-101052245D01*
X107965905Y-101052220D01*
X107617353Y-100552543D01*
X107617347Y-100552534D01*
X107237456Y-100076165D01*
X106893556Y-99697496D01*
X93461232Y-113129820D01*
X93461233Y-113129821D01*
X93609832Y-113273730D01*
X93609884Y-113273778D01*
X94073791Y-113668709D01*
X94562101Y-114033143D01*
X95072730Y-114365526D01*
X95603633Y-114664525D01*
X96152577Y-114928883D01*
X96717340Y-115157531D01*
X96717358Y-115157537D01*
X96849310Y-115201348D01*
X96906732Y-115241154D01*
X96933517Y-115305686D01*
X96921162Y-115374454D01*
X96873589Y-115425626D01*
X96805902Y-115442955D01*
X96782377Y-115439861D01*
X96094697Y-115281298D01*
X96088985Y-115279837D01*
X95372751Y-115078396D01*
X95367123Y-115076667D01*
X95117659Y-114993522D01*
X94661285Y-114841414D01*
X94655737Y-114839417D01*
X94326916Y-114712156D01*
X94271501Y-114669602D01*
X94261188Y-114652811D01*
X94212676Y-114557602D01*
X94203324Y-114539248D01*
X94203321Y-114539245D01*
X94203319Y-114539242D01*
X94112726Y-114448649D01*
X94112723Y-114448647D01*
X94112721Y-114448645D01*
X93998553Y-114390473D01*
X93998552Y-114390472D01*
X93998549Y-114390471D01*
X93872001Y-114370429D01*
X93871995Y-114370429D01*
X93745446Y-114390471D01*
X93745444Y-114390472D01*
X93708923Y-114409080D01*
X93640253Y-114421975D01*
X93602453Y-114411988D01*
X93282331Y-114270334D01*
X93277047Y-114267845D01*
X92617709Y-113938124D01*
X92612547Y-113935389D01*
X91969480Y-113574987D01*
X91964453Y-113572012D01*
X91339082Y-113181729D01*
X91334200Y-113178521D01*
X90727875Y-112759201D01*
X90723151Y-112755766D01*
X90137247Y-112308356D01*
X90132689Y-112304702D01*
X90121384Y-112295194D01*
X89568534Y-111830217D01*
X89564158Y-111826358D01*
X89543821Y-111807549D01*
X89022951Y-111325809D01*
X89018766Y-111321751D01*
X89001375Y-111304076D01*
X88774678Y-111073674D01*
X88741692Y-111012082D01*
X88740595Y-110967310D01*
X88743355Y-110949886D01*
X88743354Y-110949883D01*
X88743355Y-110949882D01*
X88723312Y-110823334D01*
X88723311Y-110823332D01*
X88723311Y-110823331D01*
X88665139Y-110709163D01*
X88665135Y-110709159D01*
X88665134Y-110709157D01*
X88574541Y-110618564D01*
X88574538Y-110618562D01*
X88574536Y-110618560D01*
X88460368Y-110560388D01*
X88460367Y-110560387D01*
X88460364Y-110560386D01*
X88333816Y-110540344D01*
X88327506Y-110540344D01*
X88260467Y-110520659D01*
X88235174Y-110499113D01*
X88228860Y-110492070D01*
X88073277Y-110318510D01*
X88019501Y-110258521D01*
X88015809Y-110254208D01*
X87808111Y-110000000D01*
X87562430Y-109699303D01*
X87558946Y-109694834D01*
X87550715Y-109683761D01*
X87131446Y-109119755D01*
X87128171Y-109115133D01*
X87089863Y-109058344D01*
X87068692Y-108991759D01*
X87086880Y-108924298D01*
X87138652Y-108877380D01*
X87192661Y-108865000D01*
X89562559Y-108865000D01*
X89569957Y-108863528D01*
X89599748Y-108857602D01*
X89641922Y-108829422D01*
X89670102Y-108787248D01*
X89677500Y-108750058D01*
X89677500Y-106498912D01*
X89697185Y-106431873D01*
X89749989Y-106386118D01*
X89819147Y-106376174D01*
X89882703Y-106405199D01*
X89889181Y-106411231D01*
X89959271Y-106481321D01*
X89959273Y-106481322D01*
X89959277Y-106481326D01*
X90073445Y-106539498D01*
X90073446Y-106539498D01*
X90073448Y-106539499D01*
X90199997Y-106559542D01*
X90200000Y-106559542D01*
X90200003Y-106559542D01*
X90326551Y-106539499D01*
X90326552Y-106539498D01*
X90326555Y-106539498D01*
X90327957Y-106538783D01*
X90329846Y-106538428D01*
X90335834Y-106536483D01*
X90336085Y-106537256D01*
X90396624Y-106525883D01*
X90461366Y-106552156D01*
X90501626Y-106609260D01*
X90508193Y-106645290D01*
X90514644Y-106846455D01*
X90514646Y-106846486D01*
X90573151Y-107452946D01*
X90573153Y-107452966D01*
X90670396Y-108054444D01*
X90805973Y-108648446D01*
X90969295Y-109198737D01*
X90969498Y-109268606D01*
X90931895Y-109327494D01*
X90906716Y-109344502D01*
X90859278Y-109368673D01*
X90859271Y-109368678D01*
X90768678Y-109459271D01*
X90768675Y-109459276D01*
X90768674Y-109459277D01*
X90754145Y-109487792D01*
X90710500Y-109573448D01*
X90690458Y-109699996D01*
X90690458Y-109700003D01*
X90710500Y-109826551D01*
X90710501Y-109826554D01*
X90710502Y-109826555D01*
X90768674Y-109940723D01*
X90768676Y-109940725D01*
X90768678Y-109940728D01*
X90859271Y-110031321D01*
X90859273Y-110031322D01*
X90859277Y-110031326D01*
X90973445Y-110089498D01*
X90973446Y-110089498D01*
X90973448Y-110089499D01*
X91099997Y-110109542D01*
X91100000Y-110109542D01*
X91100003Y-110109542D01*
X91215939Y-110091180D01*
X91285232Y-110100135D01*
X91338684Y-110145131D01*
X91348723Y-110163460D01*
X91436391Y-110361506D01*
X91436392Y-110361508D01*
X91718212Y-110901702D01*
X91718213Y-110901704D01*
X92034077Y-111422754D01*
X92034094Y-111422779D01*
X92382646Y-111922456D01*
X92382652Y-111922465D01*
X92762543Y-112398834D01*
X93106442Y-112777502D01*
X99646446Y-106237500D01*
X93447428Y-100038482D01*
X93413943Y-99977159D01*
X93418927Y-99907467D01*
X93447424Y-99863125D01*
X93625624Y-99684925D01*
X93686943Y-99651443D01*
X93756635Y-99656427D01*
X93800982Y-99684928D01*
X99999999Y-105883945D01*
X106538766Y-99345178D01*
X106390151Y-99201253D01*
X106390115Y-99201221D01*
X105926208Y-98806290D01*
X105437898Y-98441856D01*
X104927269Y-98109473D01*
X104396366Y-97810474D01*
X103847422Y-97546116D01*
X103282659Y-97317468D01*
X103282640Y-97317462D01*
X102704417Y-97125479D01*
X102704400Y-97125474D01*
X102115031Y-96970923D01*
X101638645Y-96878147D01*
X101576605Y-96846011D01*
X101541788Y-96785434D01*
X101539875Y-96775826D01*
X101539498Y-96773446D01*
X101539498Y-96773445D01*
X101481326Y-96659277D01*
X101481322Y-96659273D01*
X101481321Y-96659271D01*
X101390728Y-96568678D01*
X101390725Y-96568676D01*
X101390723Y-96568674D01*
X101276555Y-96510502D01*
X101276554Y-96510501D01*
X101276551Y-96510500D01*
X101150003Y-96490458D01*
X101150002Y-96490458D01*
X101150000Y-96490458D01*
X101092037Y-96499638D01*
X101022744Y-96490682D01*
X100984960Y-96464845D01*
X100728318Y-96208203D01*
X100694833Y-96146880D01*
X100693526Y-96101124D01*
X100709542Y-96000002D01*
X100709542Y-95999996D01*
X100689499Y-95873448D01*
X100689498Y-95873446D01*
X100689498Y-95873445D01*
X100631326Y-95759277D01*
X100631322Y-95759273D01*
X100631321Y-95759271D01*
X100540728Y-95668678D01*
X100540724Y-95668675D01*
X100540723Y-95668674D01*
X100540610Y-95668616D01*
X100540501Y-95668513D01*
X100532831Y-95662941D01*
X100533551Y-95661949D01*
X100489816Y-95620642D01*
X100473021Y-95552821D01*
X100495559Y-95486686D01*
X100509218Y-95470460D01*
X100598362Y-95381318D01*
X100659685Y-95347833D01*
X100686042Y-95345000D01*
X104035523Y-95345000D01*
X104102562Y-95364685D01*
G37*
%TD.AperFunction*%
%TA.AperFunction,Conductor*%
G36*
X100418610Y-84233130D02*
G01*
X100424395Y-84233283D01*
X101163436Y-84270541D01*
X101169218Y-84270970D01*
X101905598Y-84343112D01*
X101911406Y-84343820D01*
X102257231Y-84394299D01*
X102320724Y-84423460D01*
X102349805Y-84460702D01*
X102353298Y-84467558D01*
X102443895Y-84558155D01*
X102443897Y-84558156D01*
X102443901Y-84558160D01*
X102558069Y-84616332D01*
X102558070Y-84616332D01*
X102558072Y-84616333D01*
X102684621Y-84636376D01*
X102684624Y-84636376D01*
X102684627Y-84636376D01*
X102811175Y-84616333D01*
X102811176Y-84616333D01*
X102811177Y-84616332D01*
X102811179Y-84616332D01*
X102925347Y-84558160D01*
X102925349Y-84558158D01*
X102933239Y-84552426D01*
X102934556Y-84554238D01*
X102984220Y-84527113D01*
X103034269Y-84526558D01*
X103373172Y-84592492D01*
X103378816Y-84593728D01*
X104095226Y-84768496D01*
X104100853Y-84770011D01*
X104316757Y-84833594D01*
X104808203Y-84978324D01*
X104813768Y-84980106D01*
X104947089Y-85026298D01*
X105426995Y-85192572D01*
X105510532Y-85221515D01*
X105516004Y-85223557D01*
X105595905Y-85255531D01*
X106200605Y-85497516D01*
X106205977Y-85499814D01*
X106876928Y-85805725D01*
X106882142Y-85808252D01*
X107537977Y-86145453D01*
X107543087Y-86148235D01*
X108027149Y-86426699D01*
X108182255Y-86515926D01*
X108187251Y-86518958D01*
X108433089Y-86676242D01*
X108482877Y-86708095D01*
X108528739Y-86760806D01*
X108538523Y-86793150D01*
X108548443Y-86855788D01*
X108548444Y-86855791D01*
X108548445Y-86855792D01*
X108606617Y-86969960D01*
X108606619Y-86969962D01*
X108606621Y-86969965D01*
X108697214Y-87060558D01*
X108697216Y-87060559D01*
X108697220Y-87060563D01*
X108811388Y-87118735D01*
X108811389Y-87118735D01*
X108811391Y-87118736D01*
X108937940Y-87138779D01*
X108937943Y-87138779D01*
X108937946Y-87138779D01*
X109039272Y-87122731D01*
X109108565Y-87131686D01*
X109130297Y-87143985D01*
X109403865Y-87337577D01*
X109408468Y-87340996D01*
X109979233Y-87785888D01*
X109983667Y-87789512D01*
X110142852Y-87925877D01*
X110533209Y-88260275D01*
X110537477Y-88264105D01*
X110844224Y-88552509D01*
X111060299Y-88755664D01*
X111064705Y-88759806D01*
X111068789Y-88763829D01*
X111525251Y-89234606D01*
X111572494Y-89283330D01*
X111576388Y-89287536D01*
X112044290Y-89817040D01*
X112055568Y-89829802D01*
X112059260Y-89834180D01*
X112170111Y-89971972D01*
X112512852Y-90398012D01*
X112516342Y-90402562D01*
X112765969Y-90744055D01*
X112943123Y-90986405D01*
X112943375Y-90986749D01*
X112946649Y-90991452D01*
X112994880Y-91064276D01*
X113130546Y-91269117D01*
X113151152Y-91335879D01*
X113149638Y-91356984D01*
X113139257Y-91422530D01*
X113133262Y-91460387D01*
X113130795Y-91475961D01*
X113130795Y-91475962D01*
X113150837Y-91602510D01*
X113150838Y-91602513D01*
X113150839Y-91602514D01*
X113209011Y-91716682D01*
X113209013Y-91716684D01*
X113209015Y-91716687D01*
X113299608Y-91807280D01*
X113299610Y-91807281D01*
X113299614Y-91807285D01*
X113413782Y-91865457D01*
X113460755Y-91872896D01*
X113523888Y-91902823D01*
X113547794Y-91931752D01*
X113720583Y-92220845D01*
X113723411Y-92225834D01*
X114065602Y-92863580D01*
X114068196Y-92868695D01*
X114380538Y-93521588D01*
X114382892Y-93526818D01*
X114491154Y-93782909D01*
X114630413Y-94112326D01*
X114664689Y-94193404D01*
X114666800Y-94198736D01*
X114917498Y-94877703D01*
X114919359Y-94883128D01*
X115138378Y-95572906D01*
X115139987Y-95578410D01*
X115326886Y-96277604D01*
X115328239Y-96283178D01*
X115482610Y-96990274D01*
X115483703Y-96995904D01*
X115539640Y-97324353D01*
X115531490Y-97393745D01*
X115505088Y-97432845D01*
X115499464Y-97438468D01*
X115499464Y-97438470D01*
X115499462Y-97438472D01*
X115499462Y-97438473D01*
X115478652Y-97479315D01*
X115441288Y-97552644D01*
X115421246Y-97679192D01*
X115421246Y-97679199D01*
X115441288Y-97805747D01*
X115441289Y-97805750D01*
X115441290Y-97805751D01*
X115499462Y-97919919D01*
X115590065Y-98010522D01*
X115590067Y-98010523D01*
X115590070Y-98010526D01*
X115597964Y-98016262D01*
X115596654Y-98018064D01*
X115637829Y-98056946D01*
X115653819Y-98104360D01*
X115695455Y-98443640D01*
X115696028Y-98449429D01*
X115751173Y-99181402D01*
X115751473Y-99187210D01*
X115772232Y-99920927D01*
X115772260Y-99926744D01*
X115758589Y-100660627D01*
X115758345Y-100666438D01*
X115710272Y-101398902D01*
X115709755Y-101404695D01*
X115627387Y-102134087D01*
X115626599Y-102139850D01*
X115510117Y-102864585D01*
X115509059Y-102870305D01*
X115358725Y-103588749D01*
X115357401Y-103594413D01*
X115270341Y-103930894D01*
X115234491Y-103990865D01*
X115206590Y-104010317D01*
X115150930Y-104038677D01*
X115060333Y-104129274D01*
X115060330Y-104129279D01*
X115060329Y-104129280D01*
X115036243Y-104176551D01*
X115002155Y-104243451D01*
X114982113Y-104369999D01*
X114982113Y-104370006D01*
X115002155Y-104496554D01*
X115002155Y-104496555D01*
X115049207Y-104588898D01*
X115062103Y-104657567D01*
X115057189Y-104681819D01*
X114957440Y-105004458D01*
X114955613Y-105009916D01*
X114709133Y-105693066D01*
X114707055Y-105698432D01*
X114429144Y-106369410D01*
X114426819Y-106374674D01*
X114118079Y-107032031D01*
X114115512Y-107037182D01*
X113776612Y-107679490D01*
X113773810Y-107684516D01*
X113405449Y-108310449D01*
X113402423Y-108315327D01*
X113355333Y-108387464D01*
X113302206Y-108432840D01*
X113232978Y-108442290D01*
X113169631Y-108412812D01*
X113132277Y-108353766D01*
X113127500Y-108319681D01*
X113127500Y-103724941D01*
X113122346Y-103699033D01*
X113120102Y-103687752D01*
X113120101Y-103687750D01*
X113091922Y-103645577D01*
X113049749Y-103617398D01*
X113012559Y-103610000D01*
X113012558Y-103610000D01*
X112884276Y-103610000D01*
X112817237Y-103590315D01*
X112771482Y-103537511D01*
X112760276Y-103486000D01*
X112760276Y-96686868D01*
X112779961Y-96619829D01*
X112832765Y-96574074D01*
X112884276Y-96562868D01*
X112950424Y-96562868D01*
X113115342Y-96523781D01*
X113266786Y-96447723D01*
X113266793Y-96447718D01*
X113344171Y-96384685D01*
X113344184Y-96384673D01*
X113360660Y-96368197D01*
X112582136Y-95589673D01*
X112548651Y-95528350D01*
X112550536Y-95501991D01*
X113201561Y-95501991D01*
X113201561Y-95501992D01*
X113714212Y-96014644D01*
X113730696Y-95998160D01*
X113730710Y-95998144D01*
X113793734Y-95920777D01*
X113793739Y-95920770D01*
X113869797Y-95769326D01*
X113908884Y-95604408D01*
X113908884Y-95434930D01*
X113869797Y-95270012D01*
X113793739Y-95118568D01*
X113793734Y-95118561D01*
X113730702Y-95041184D01*
X113730690Y-95041170D01*
X113696535Y-95007017D01*
X113696534Y-95007017D01*
X113201561Y-95501991D01*
X112550536Y-95501991D01*
X112553635Y-95458658D01*
X112582136Y-95414311D01*
X112848008Y-95148439D01*
X113342982Y-94653464D01*
X113308810Y-94619293D01*
X113308805Y-94619289D01*
X113231438Y-94556265D01*
X113231431Y-94556260D01*
X113079987Y-94480202D01*
X112915069Y-94441116D01*
X112745592Y-94441116D01*
X112607546Y-94473833D01*
X112537774Y-94470139D01*
X112481075Y-94429310D01*
X112455451Y-94364309D01*
X112454950Y-94353175D01*
X112454950Y-94285018D01*
X112440448Y-94242778D01*
X112415396Y-94169804D01*
X112415394Y-94169801D01*
X112387628Y-94132563D01*
X112363334Y-94067052D01*
X112378315Y-93998808D01*
X112399350Y-93970763D01*
X112714541Y-93655572D01*
X112775862Y-93622089D01*
X112845554Y-93627073D01*
X112859843Y-93633457D01*
X112864036Y-93635657D01*
X112877590Y-93642771D01*
X112877589Y-93642771D01*
X113025547Y-93679239D01*
X113177931Y-93679239D01*
X113325888Y-93642771D01*
X113460818Y-93571955D01*
X113574879Y-93470905D01*
X113661444Y-93345495D01*
X113715480Y-93203013D01*
X113733848Y-93051739D01*
X113733390Y-93047962D01*
X113715480Y-92900464D01*
X113694986Y-92846428D01*
X113661444Y-92757983D01*
X113574879Y-92632573D01*
X113566458Y-92625113D01*
X113546018Y-92607004D01*
X113460818Y-92531523D01*
X113325888Y-92460707D01*
X113325887Y-92460706D01*
X113325886Y-92460706D01*
X113177931Y-92424239D01*
X113025547Y-92424239D01*
X112877591Y-92460706D01*
X112742661Y-92531522D01*
X112628599Y-92632572D01*
X112628597Y-92632575D01*
X112542034Y-92757981D01*
X112542034Y-92757982D01*
X112487997Y-92900464D01*
X112469630Y-93051738D01*
X112469630Y-93051739D01*
X112487997Y-93203009D01*
X112487999Y-93203018D01*
X112497754Y-93228739D01*
X112503121Y-93298402D01*
X112469973Y-93359908D01*
X112469493Y-93360390D01*
X112129239Y-93700644D01*
X112067916Y-93734129D01*
X111998224Y-93729145D01*
X111967436Y-93712371D01*
X111930198Y-93684605D01*
X111930196Y-93684604D01*
X111845636Y-93655574D01*
X111814982Y-93645050D01*
X111814981Y-93645050D01*
X111693166Y-93645050D01*
X111693165Y-93645050D01*
X111593578Y-93679239D01*
X111577951Y-93684604D01*
X111577948Y-93684605D01*
X111577948Y-93684606D01*
X111520475Y-93727460D01*
X111117930Y-94130005D01*
X111075963Y-94186289D01*
X111075074Y-94187481D01*
X111075073Y-94187484D01*
X111035520Y-94302695D01*
X111035520Y-94316043D01*
X111015835Y-94383082D01*
X110963031Y-94428837D01*
X110893873Y-94438781D01*
X110830317Y-94409756D01*
X110823839Y-94403724D01*
X110196276Y-93776161D01*
X110162791Y-93714838D01*
X110167775Y-93645146D01*
X110209647Y-93589213D01*
X110275111Y-93564796D01*
X110283957Y-93564480D01*
X110297305Y-93564480D01*
X110320347Y-93556569D01*
X110412519Y-93524926D01*
X110469996Y-93482068D01*
X110872538Y-93079526D01*
X110915396Y-93022049D01*
X110954950Y-92906834D01*
X110954950Y-92785019D01*
X110915396Y-92669804D01*
X110914136Y-92668114D01*
X110887628Y-92632563D01*
X110863334Y-92567052D01*
X110878315Y-92498808D01*
X110899350Y-92470763D01*
X111204335Y-92165778D01*
X111265656Y-92132295D01*
X111335348Y-92137279D01*
X111349634Y-92143662D01*
X111410344Y-92175525D01*
X111410343Y-92175525D01*
X111558301Y-92211993D01*
X111710685Y-92211993D01*
X111858642Y-92175525D01*
X111993572Y-92104709D01*
X112107633Y-92003659D01*
X112194198Y-91878249D01*
X112248234Y-91735767D01*
X112266602Y-91584493D01*
X112264065Y-91563594D01*
X112248234Y-91433218D01*
X112213718Y-91342208D01*
X112194198Y-91290737D01*
X112174807Y-91262645D01*
X112131563Y-91199996D01*
X112107633Y-91165327D01*
X112107242Y-91164981D01*
X112063864Y-91126551D01*
X111993572Y-91064277D01*
X111858642Y-90993461D01*
X111858641Y-90993460D01*
X111858640Y-90993460D01*
X111710685Y-90956993D01*
X111558301Y-90956993D01*
X111410345Y-90993460D01*
X111275415Y-91064276D01*
X111161353Y-91165326D01*
X111161351Y-91165329D01*
X111074788Y-91290735D01*
X111074788Y-91290736D01*
X111020751Y-91433218D01*
X111002384Y-91584492D01*
X111002384Y-91584493D01*
X111021418Y-91741253D01*
X111009958Y-91810176D01*
X110986003Y-91843880D01*
X110629239Y-92200644D01*
X110567916Y-92234129D01*
X110498224Y-92229145D01*
X110467436Y-92212371D01*
X110430198Y-92184605D01*
X110430196Y-92184604D01*
X110366425Y-92162711D01*
X110314982Y-92145050D01*
X110314981Y-92145050D01*
X110193166Y-92145050D01*
X110193165Y-92145050D01*
X110112486Y-92172748D01*
X110077951Y-92184604D01*
X110077948Y-92184605D01*
X110077948Y-92184606D01*
X110020475Y-92227460D01*
X109617930Y-92630005D01*
X109578401Y-92683019D01*
X109575074Y-92687481D01*
X109575073Y-92687484D01*
X109535520Y-92802695D01*
X109535520Y-92816043D01*
X109515835Y-92883082D01*
X109463031Y-92928837D01*
X109393873Y-92938781D01*
X109330317Y-92909756D01*
X109323839Y-92903724D01*
X107246276Y-90826161D01*
X107212791Y-90764838D01*
X107217775Y-90695146D01*
X107259647Y-90639213D01*
X107325111Y-90614796D01*
X107333957Y-90614480D01*
X107347305Y-90614480D01*
X107370347Y-90606569D01*
X107462519Y-90574926D01*
X107519996Y-90532068D01*
X107684818Y-90367246D01*
X109198086Y-90367246D01*
X109238898Y-90501787D01*
X109331749Y-90675499D01*
X109331753Y-90675506D01*
X109456717Y-90827774D01*
X109608985Y-90952737D01*
X109782711Y-91045595D01*
X109917246Y-91086405D01*
X110417246Y-91086405D01*
X110551780Y-91045595D01*
X110725506Y-90952737D01*
X110877774Y-90827774D01*
X111002738Y-90675506D01*
X111002742Y-90675499D01*
X111095593Y-90501787D01*
X111136406Y-90367246D01*
X110417246Y-90367246D01*
X110417246Y-91086405D01*
X109917246Y-91086405D01*
X109917246Y-90367246D01*
X109198086Y-90367246D01*
X107684818Y-90367246D01*
X107922538Y-90129526D01*
X107965396Y-90072049D01*
X108004950Y-89956834D01*
X108004950Y-89867245D01*
X109198085Y-89867245D01*
X109198086Y-89867246D01*
X109917246Y-89867246D01*
X110417246Y-89867246D01*
X111136406Y-89867246D01*
X111136406Y-89867245D01*
X111095593Y-89732704D01*
X111002742Y-89558992D01*
X111002738Y-89558985D01*
X110877774Y-89406717D01*
X110725506Y-89281753D01*
X110725499Y-89281749D01*
X110551787Y-89188898D01*
X110417246Y-89148085D01*
X110417246Y-89867246D01*
X109917246Y-89867246D01*
X109917246Y-89148085D01*
X109917245Y-89148085D01*
X109782704Y-89188898D01*
X109608992Y-89281749D01*
X109608985Y-89281753D01*
X109456717Y-89406717D01*
X109331753Y-89558985D01*
X109331749Y-89558992D01*
X109238898Y-89732704D01*
X109198085Y-89867245D01*
X108004950Y-89867245D01*
X108004950Y-89835019D01*
X108004667Y-89834196D01*
X107992017Y-89797348D01*
X107965396Y-89719804D01*
X107965394Y-89719801D01*
X107937628Y-89682563D01*
X107913334Y-89617052D01*
X107928315Y-89548808D01*
X107949350Y-89520763D01*
X108249502Y-89220611D01*
X108310823Y-89187128D01*
X108380515Y-89192112D01*
X108394806Y-89198497D01*
X108421700Y-89212611D01*
X108475851Y-89241032D01*
X108623808Y-89277500D01*
X108776192Y-89277500D01*
X108924149Y-89241032D01*
X109059079Y-89170216D01*
X109173140Y-89069166D01*
X109259705Y-88943756D01*
X109313741Y-88801274D01*
X109332109Y-88650000D01*
X109326375Y-88602772D01*
X109313741Y-88498725D01*
X109278970Y-88407043D01*
X109259705Y-88356244D01*
X109173140Y-88230834D01*
X109059079Y-88129784D01*
X108924149Y-88058968D01*
X108924148Y-88058967D01*
X108924147Y-88058967D01*
X108776192Y-88022500D01*
X108623808Y-88022500D01*
X108475852Y-88058967D01*
X108340922Y-88129783D01*
X108226860Y-88230833D01*
X108226858Y-88230836D01*
X108140295Y-88356242D01*
X108140295Y-88356243D01*
X108086258Y-88498725D01*
X108067891Y-88649999D01*
X108067891Y-88650000D01*
X108082121Y-88767191D01*
X108083567Y-88779103D01*
X108072107Y-88848027D01*
X108048152Y-88881731D01*
X107679239Y-89250644D01*
X107617916Y-89284129D01*
X107548224Y-89279145D01*
X107517436Y-89262371D01*
X107480198Y-89234605D01*
X107480196Y-89234604D01*
X107421062Y-89214303D01*
X107364982Y-89195050D01*
X107364981Y-89195050D01*
X107243166Y-89195050D01*
X107243165Y-89195050D01*
X107147368Y-89227938D01*
X107127951Y-89234604D01*
X107127948Y-89234605D01*
X107127948Y-89234606D01*
X107070475Y-89277460D01*
X106667930Y-89680005D01*
X106625072Y-89737482D01*
X106624658Y-89738269D01*
X106623923Y-89739024D01*
X106619318Y-89745201D01*
X106618506Y-89744596D01*
X106575954Y-89788365D01*
X106507897Y-89804177D01*
X106442095Y-89780685D01*
X106399440Y-89725347D01*
X106391000Y-89680381D01*
X106391000Y-88345982D01*
X106410685Y-88278943D01*
X106427315Y-88258305D01*
X106881753Y-87803866D01*
X106943076Y-87770382D01*
X107000701Y-87774503D01*
X107001321Y-87771990D01*
X107057708Y-87785888D01*
X107156561Y-87810253D01*
X107308945Y-87810253D01*
X107456902Y-87773785D01*
X107591832Y-87702969D01*
X107705893Y-87601919D01*
X107792458Y-87476509D01*
X107846494Y-87334027D01*
X107864862Y-87182753D01*
X107863080Y-87168072D01*
X107846494Y-87031478D01*
X107812397Y-86941573D01*
X107792458Y-86888997D01*
X107705893Y-86763587D01*
X107591832Y-86662537D01*
X107456902Y-86591721D01*
X107456901Y-86591720D01*
X107456900Y-86591720D01*
X107308945Y-86555253D01*
X107156561Y-86555253D01*
X107008605Y-86591720D01*
X106873675Y-86662536D01*
X106759613Y-86763586D01*
X106759611Y-86763589D01*
X106673048Y-86888995D01*
X106673048Y-86888996D01*
X106619011Y-87031478D01*
X106600644Y-87182752D01*
X106600644Y-87182753D01*
X106619011Y-87334023D01*
X106619011Y-87334025D01*
X106619012Y-87334027D01*
X106621451Y-87340458D01*
X106643473Y-87398526D01*
X106648840Y-87468190D01*
X106615692Y-87529696D01*
X106615212Y-87530178D01*
X106091807Y-88053584D01*
X106038079Y-88107311D01*
X106038078Y-88107312D01*
X106009000Y-88177512D01*
X106009000Y-89735000D01*
X105989315Y-89802039D01*
X105936511Y-89847794D01*
X105885000Y-89859000D01*
X104662006Y-89859000D01*
X104591806Y-89888078D01*
X104591805Y-89888079D01*
X103715038Y-90764845D01*
X103653715Y-90798330D01*
X103607960Y-90799637D01*
X103550004Y-90790458D01*
X103549997Y-90790458D01*
X103423448Y-90810500D01*
X103389547Y-90827774D01*
X103309277Y-90868674D01*
X103309276Y-90868675D01*
X103309271Y-90868678D01*
X103218678Y-90959271D01*
X103218675Y-90959276D01*
X103218674Y-90959277D01*
X103197923Y-91000003D01*
X103160500Y-91073448D01*
X103140458Y-91199996D01*
X103140458Y-91200003D01*
X103160500Y-91326551D01*
X103160501Y-91326554D01*
X103160502Y-91326555D01*
X103218674Y-91440723D01*
X103218676Y-91440725D01*
X103218678Y-91440728D01*
X103316177Y-91538227D01*
X103314939Y-91539464D01*
X103350549Y-91585640D01*
X103359000Y-91630633D01*
X103359000Y-92760313D01*
X103339315Y-92827352D01*
X103322681Y-92847994D01*
X101765494Y-94405181D01*
X101704171Y-94438666D01*
X101677813Y-94441500D01*
X101466478Y-94441500D01*
X101399439Y-94421815D01*
X101353684Y-94369011D01*
X101343740Y-94299853D01*
X101344005Y-94298103D01*
X101359542Y-94200003D01*
X101359542Y-94199996D01*
X101339499Y-94073448D01*
X101339498Y-94073446D01*
X101339498Y-94073445D01*
X101281326Y-93959277D01*
X101281322Y-93959273D01*
X101281321Y-93959271D01*
X101190728Y-93868678D01*
X101190725Y-93868676D01*
X101190723Y-93868674D01*
X101076555Y-93810502D01*
X101076554Y-93810501D01*
X101076551Y-93810500D01*
X100950003Y-93790458D01*
X100949997Y-93790458D01*
X100823448Y-93810500D01*
X100767493Y-93839011D01*
X100709277Y-93868674D01*
X100709276Y-93868675D01*
X100709271Y-93868678D01*
X100611773Y-93966177D01*
X100610535Y-93964939D01*
X100564360Y-94000549D01*
X100519367Y-94009000D01*
X99503195Y-94009000D01*
X99446900Y-93995485D01*
X99440724Y-93992338D01*
X99440723Y-93992337D01*
X99326555Y-93934165D01*
X99326554Y-93934164D01*
X99326551Y-93934163D01*
X99326552Y-93934163D01*
X99202159Y-93914462D01*
X99139024Y-93884533D01*
X99102093Y-93825221D01*
X99103091Y-93755359D01*
X99122147Y-93717870D01*
X99129691Y-93707754D01*
X99169245Y-93592539D01*
X99169245Y-93543669D01*
X99188930Y-93476630D01*
X99241734Y-93430875D01*
X99310892Y-93420931D01*
X99359219Y-93438676D01*
X99389685Y-93457820D01*
X99467156Y-93484927D01*
X99467157Y-93484927D01*
X99967157Y-93484927D01*
X100044630Y-93457819D01*
X100187729Y-93367903D01*
X100307242Y-93248391D01*
X100341043Y-93194596D01*
X100341043Y-93194595D01*
X99967157Y-92820709D01*
X99967157Y-93484927D01*
X99467157Y-93484927D01*
X99467157Y-92757926D01*
X99617157Y-92757926D01*
X99617157Y-92797708D01*
X99632381Y-92834462D01*
X99660512Y-92862593D01*
X99697266Y-92877817D01*
X99737048Y-92877817D01*
X99773802Y-92862593D01*
X99801933Y-92834462D01*
X99817157Y-92797708D01*
X99817157Y-92757926D01*
X99801933Y-92721172D01*
X99773802Y-92693041D01*
X99737048Y-92677817D01*
X99697266Y-92677817D01*
X99660512Y-92693041D01*
X99632381Y-92721172D01*
X99617157Y-92757926D01*
X99467157Y-92757926D01*
X99467157Y-92532843D01*
X99096183Y-92532843D01*
X99029144Y-92513158D01*
X99015565Y-92497487D01*
X100351039Y-92497487D01*
X100701518Y-92847966D01*
X100701519Y-92847966D01*
X100718061Y-92837572D01*
X100837573Y-92718059D01*
X100927490Y-92574959D01*
X100927490Y-92574958D01*
X100953854Y-92499613D01*
X100994575Y-92442836D01*
X101029943Y-92423524D01*
X101105288Y-92397160D01*
X101105289Y-92397160D01*
X101248392Y-92307241D01*
X101367902Y-92187731D01*
X101367903Y-92187731D01*
X101457820Y-92044626D01*
X101484928Y-91967157D01*
X100545513Y-91967157D01*
X100497487Y-92015183D01*
X100497487Y-92373487D01*
X100477802Y-92440526D01*
X100424998Y-92486281D01*
X100373487Y-92497487D01*
X100351039Y-92497487D01*
X99015565Y-92497487D01*
X98983389Y-92460354D01*
X98972183Y-92408843D01*
X98972183Y-92262952D01*
X99122183Y-92262952D01*
X99122183Y-92302734D01*
X99137407Y-92339488D01*
X99165538Y-92367619D01*
X99202292Y-92382843D01*
X99242074Y-92382843D01*
X99278828Y-92367619D01*
X99306959Y-92339488D01*
X99322183Y-92302734D01*
X99322183Y-92262952D01*
X99307538Y-92227596D01*
X100147487Y-92227596D01*
X100147487Y-92267378D01*
X100162711Y-92304132D01*
X100190842Y-92332263D01*
X100227596Y-92347487D01*
X100267378Y-92347487D01*
X100304132Y-92332263D01*
X100332263Y-92304132D01*
X100347487Y-92267378D01*
X100347487Y-92227596D01*
X100332263Y-92190842D01*
X100304132Y-92162711D01*
X100267378Y-92147487D01*
X100227596Y-92147487D01*
X100190842Y-92162711D01*
X100162711Y-92190842D01*
X100147487Y-92227596D01*
X99307538Y-92227596D01*
X99306959Y-92226198D01*
X99278828Y-92198067D01*
X99242074Y-92182843D01*
X99202292Y-92182843D01*
X99165538Y-92198067D01*
X99137407Y-92226198D01*
X99122183Y-92262952D01*
X98972183Y-92262952D01*
X98972183Y-92156843D01*
X98991868Y-92089804D01*
X99044672Y-92044049D01*
X99096183Y-92032843D01*
X99454487Y-92032843D01*
X99502513Y-91984817D01*
X99502513Y-91732622D01*
X99652513Y-91732622D01*
X99652513Y-91772404D01*
X99667737Y-91809158D01*
X99695868Y-91837289D01*
X99732622Y-91852513D01*
X99772404Y-91852513D01*
X99809158Y-91837289D01*
X99837289Y-91809158D01*
X99852513Y-91772404D01*
X99852513Y-91732622D01*
X99837868Y-91697266D01*
X100677817Y-91697266D01*
X100677817Y-91737048D01*
X100693041Y-91773802D01*
X100721172Y-91801933D01*
X100757926Y-91817157D01*
X100797708Y-91817157D01*
X100834462Y-91801933D01*
X100862593Y-91773802D01*
X100877817Y-91737048D01*
X100877817Y-91697266D01*
X100862593Y-91660512D01*
X100834462Y-91632381D01*
X100797708Y-91617157D01*
X100757926Y-91617157D01*
X100721172Y-91632381D01*
X100693041Y-91660512D01*
X100677817Y-91697266D01*
X99837868Y-91697266D01*
X99837289Y-91695868D01*
X99809158Y-91667737D01*
X99772404Y-91652513D01*
X99732622Y-91652513D01*
X99695868Y-91667737D01*
X99667737Y-91695868D01*
X99652513Y-91732622D01*
X99502513Y-91732622D01*
X99502513Y-91626513D01*
X99522198Y-91559474D01*
X99575002Y-91513719D01*
X99626513Y-91502513D01*
X99984817Y-91502513D01*
X100032843Y-91454487D01*
X100032843Y-91368807D01*
X100875215Y-91368807D01*
X100875215Y-91467157D01*
X101464465Y-91467157D01*
X101531504Y-91486842D01*
X101541375Y-91493890D01*
X101570816Y-91517169D01*
X101712020Y-91483704D01*
X101866076Y-91406334D01*
X101866077Y-91406334D01*
X101944796Y-91342208D01*
X101970711Y-91316293D01*
X101449220Y-90794803D01*
X100875215Y-91368807D01*
X100032843Y-91368807D01*
X100032843Y-91202292D01*
X100182843Y-91202292D01*
X100182843Y-91242074D01*
X100198067Y-91278828D01*
X100226198Y-91306959D01*
X100262952Y-91322183D01*
X100302734Y-91322183D01*
X100339488Y-91306959D01*
X100367619Y-91278828D01*
X100382843Y-91242074D01*
X100382843Y-91202292D01*
X100367619Y-91165538D01*
X100339488Y-91137407D01*
X100302734Y-91122183D01*
X100262952Y-91122183D01*
X100226198Y-91137407D01*
X100198067Y-91165538D01*
X100182843Y-91202292D01*
X100032843Y-91202292D01*
X100032843Y-91096183D01*
X100052528Y-91029144D01*
X100105332Y-90983389D01*
X100156843Y-90972183D01*
X100431187Y-90972183D01*
X100478640Y-90981622D01*
X100532843Y-91004074D01*
X101095667Y-90441250D01*
X101802773Y-90441250D01*
X102324264Y-90962741D01*
X102350169Y-90936835D01*
X102350177Y-90936826D01*
X102414300Y-90858113D01*
X102414305Y-90858105D01*
X102491674Y-90704049D01*
X102531434Y-90536289D01*
X102531442Y-90536227D01*
X102531458Y-90536187D01*
X102533100Y-90529263D01*
X102534282Y-90529543D01*
X102558774Y-90471926D01*
X102616532Y-90432608D01*
X102640212Y-90427457D01*
X102640274Y-90427449D01*
X102808034Y-90387689D01*
X102962091Y-90310319D01*
X102962092Y-90310319D01*
X103040811Y-90246193D01*
X103066726Y-90220278D01*
X102545235Y-89698788D01*
X101802773Y-90441250D01*
X101095667Y-90441250D01*
X102191682Y-89345235D01*
X102898788Y-89345235D01*
X103420279Y-89866726D01*
X103446184Y-89840820D01*
X103446192Y-89840811D01*
X103510315Y-89762098D01*
X103510320Y-89762090D01*
X103587689Y-89608034D01*
X103627449Y-89440273D01*
X103627457Y-89440213D01*
X103627473Y-89440174D01*
X103629115Y-89433248D01*
X103630298Y-89433528D01*
X103654788Y-89375911D01*
X103712545Y-89336593D01*
X103736229Y-89331441D01*
X103736289Y-89331433D01*
X103904050Y-89291673D01*
X104058107Y-89214303D01*
X104058108Y-89214303D01*
X104136827Y-89150177D01*
X104162742Y-89124262D01*
X103641251Y-88602772D01*
X102898788Y-89345235D01*
X102191682Y-89345235D01*
X103287698Y-88249219D01*
X103994804Y-88249219D01*
X104516295Y-88770710D01*
X104542200Y-88744804D01*
X104542208Y-88744795D01*
X104606331Y-88666082D01*
X104606336Y-88666074D01*
X104683705Y-88512018D01*
X104723465Y-88344258D01*
X104723473Y-88344196D01*
X104723489Y-88344156D01*
X104725131Y-88337232D01*
X104726313Y-88337512D01*
X104750805Y-88279895D01*
X104808563Y-88240577D01*
X104832243Y-88235426D01*
X104832305Y-88235418D01*
X105000065Y-88195658D01*
X105154122Y-88118288D01*
X105154123Y-88118288D01*
X105232842Y-88054162D01*
X105258757Y-88028247D01*
X104737266Y-87506757D01*
X103994804Y-88249219D01*
X103287698Y-88249219D01*
X104383714Y-87153203D01*
X105090819Y-87153203D01*
X105090819Y-87153204D01*
X105612309Y-87674695D01*
X105638215Y-87648789D01*
X105638223Y-87648780D01*
X105702346Y-87570067D01*
X105702351Y-87570059D01*
X105779720Y-87416003D01*
X105819481Y-87248242D01*
X105819481Y-87075843D01*
X105779720Y-86908081D01*
X105702350Y-86754026D01*
X105702350Y-86754024D01*
X105638223Y-86675303D01*
X105603471Y-86640551D01*
X105603470Y-86640551D01*
X105090819Y-87153203D01*
X104383714Y-87153203D01*
X104737266Y-86799651D01*
X105249918Y-86286998D01*
X105249918Y-86286997D01*
X105215169Y-86252250D01*
X105215149Y-86252232D01*
X105136456Y-86188127D01*
X105136443Y-86188118D01*
X104982388Y-86110749D01*
X104814626Y-86070989D01*
X104642228Y-86070989D01*
X104474466Y-86110749D01*
X104320409Y-86188119D01*
X104320404Y-86188122D01*
X104305849Y-86199979D01*
X104241439Y-86227056D01*
X104172616Y-86215012D01*
X104121229Y-86167672D01*
X104103593Y-86100064D01*
X104114914Y-86057174D01*
X104113830Y-86056802D01*
X104117758Y-86045363D01*
X104156511Y-85932480D01*
X104156511Y-85810665D01*
X104155686Y-85808263D01*
X104138065Y-85756935D01*
X104116957Y-85695450D01*
X104078112Y-85643355D01*
X104074100Y-85637974D01*
X103671555Y-85235429D01*
X103629307Y-85203927D01*
X103614080Y-85192573D01*
X103554065Y-85171969D01*
X103498866Y-85153019D01*
X103498865Y-85153019D01*
X103377050Y-85153019D01*
X103377049Y-85153019D01*
X103261832Y-85192574D01*
X103204358Y-85235429D01*
X102819493Y-85620294D01*
X102819487Y-85620302D01*
X102818326Y-85621859D01*
X102817795Y-85622257D01*
X102816555Y-85623692D01*
X102816244Y-85623423D01*
X102762471Y-85663835D01*
X102718921Y-85671734D01*
X102449964Y-85671734D01*
X102379764Y-85700812D01*
X102379763Y-85700813D01*
X101716763Y-86363812D01*
X101655440Y-86397297D01*
X101585748Y-86392313D01*
X101529815Y-86350441D01*
X101518600Y-86332431D01*
X101481326Y-86259277D01*
X101481322Y-86259273D01*
X101481321Y-86259271D01*
X101390728Y-86168678D01*
X101390725Y-86168676D01*
X101390723Y-86168674D01*
X101276555Y-86110502D01*
X101276554Y-86110501D01*
X101276551Y-86110500D01*
X101150003Y-86090458D01*
X101149997Y-86090458D01*
X101023448Y-86110500D01*
X100988116Y-86128503D01*
X100909277Y-86168674D01*
X100909276Y-86168675D01*
X100909271Y-86168678D01*
X100818678Y-86259271D01*
X100818675Y-86259276D01*
X100818674Y-86259277D01*
X100803739Y-86288588D01*
X100760500Y-86373448D01*
X100748947Y-86446397D01*
X100719018Y-86509532D01*
X100659707Y-86546464D01*
X100626474Y-86551000D01*
X99222476Y-86551000D01*
X99155437Y-86531315D01*
X99134795Y-86514681D01*
X98924803Y-86304689D01*
X98710151Y-86090036D01*
X98676668Y-86028716D01*
X98675361Y-85982964D01*
X98684542Y-85925000D01*
X98684542Y-85924998D01*
X98684542Y-85924996D01*
X98664499Y-85798448D01*
X98664498Y-85798446D01*
X98664498Y-85798445D01*
X98606326Y-85684277D01*
X98606322Y-85684273D01*
X98606321Y-85684271D01*
X98515728Y-85593678D01*
X98515725Y-85593676D01*
X98515723Y-85593674D01*
X98401555Y-85535502D01*
X98401554Y-85535501D01*
X98401551Y-85535500D01*
X98275003Y-85515458D01*
X98274997Y-85515458D01*
X98148448Y-85535500D01*
X98111340Y-85554408D01*
X98034277Y-85593674D01*
X98034276Y-85593675D01*
X98034271Y-85593678D01*
X97943678Y-85684271D01*
X97943675Y-85684276D01*
X97943674Y-85684277D01*
X97915034Y-85740485D01*
X97885500Y-85798448D01*
X97865458Y-85924996D01*
X97865458Y-85925003D01*
X97885500Y-86051551D01*
X97885501Y-86051554D01*
X97885502Y-86051555D01*
X97943674Y-86165723D01*
X97943676Y-86165725D01*
X97943678Y-86165728D01*
X98034271Y-86256321D01*
X98034273Y-86256322D01*
X98034277Y-86256326D01*
X98148445Y-86314498D01*
X98148446Y-86314498D01*
X98148448Y-86314499D01*
X98274997Y-86334542D01*
X98274999Y-86334542D01*
X98274999Y-86334541D01*
X98275000Y-86334542D01*
X98332962Y-86325361D01*
X98402251Y-86334315D01*
X98440036Y-86360151D01*
X98642058Y-86562172D01*
X98673205Y-86593319D01*
X98706690Y-86654642D01*
X98701706Y-86724334D01*
X98659834Y-86780267D01*
X98594370Y-86804684D01*
X98585524Y-86805000D01*
X98566912Y-86805000D01*
X98499873Y-86785315D01*
X98479231Y-86768681D01*
X98381128Y-86670578D01*
X98310928Y-86641500D01*
X98310927Y-86641500D01*
X97567884Y-86641500D01*
X97491900Y-86641500D01*
X97491898Y-86641500D01*
X97421698Y-86670578D01*
X97421697Y-86670579D01*
X96090144Y-88002131D01*
X96028821Y-88035616D01*
X95959129Y-88030632D01*
X95914782Y-88002131D01*
X95704064Y-87791413D01*
X95670579Y-87730090D01*
X95675563Y-87660398D01*
X95704063Y-87616051D01*
X95729422Y-87590693D01*
X95758500Y-87520492D01*
X95758500Y-87444508D01*
X95758500Y-86374891D01*
X95729422Y-86304690D01*
X95675693Y-86250961D01*
X95453448Y-86028716D01*
X95219421Y-85794688D01*
X95220044Y-85794064D01*
X95203409Y-85778266D01*
X95162057Y-85722808D01*
X94777190Y-85337941D01*
X94765821Y-85329464D01*
X94723844Y-85273609D01*
X94718728Y-85203927D01*
X94752098Y-85142541D01*
X94800330Y-85112554D01*
X95299619Y-84944233D01*
X95304964Y-84942566D01*
X95613538Y-84853931D01*
X95683404Y-84854343D01*
X95704060Y-84862626D01*
X95778641Y-84900627D01*
X95806741Y-84914945D01*
X95806744Y-84914946D01*
X95933293Y-84934989D01*
X95933296Y-84934989D01*
X95933299Y-84934989D01*
X96059847Y-84914946D01*
X96059848Y-84914945D01*
X96059851Y-84914945D01*
X96174019Y-84856773D01*
X96264622Y-84766170D01*
X96288275Y-84719747D01*
X96336249Y-84668953D01*
X96370086Y-84655405D01*
X96713805Y-84573712D01*
X96719523Y-84572494D01*
X97446683Y-84435617D01*
X97452412Y-84434678D01*
X98185233Y-84332323D01*
X98191040Y-84331652D01*
X98927857Y-84264055D01*
X98933632Y-84263662D01*
X99672857Y-84230966D01*
X99678710Y-84230847D01*
X100418610Y-84233130D01*
G37*
%TD.AperFunction*%
%TA.AperFunction,Conductor*%
G36*
X93947973Y-85514250D02*
G01*
X93985019Y-85573491D01*
X93984155Y-85643355D01*
X93953301Y-85694633D01*
X93907448Y-85740486D01*
X93867033Y-85794688D01*
X93864592Y-85797962D01*
X93864591Y-85797965D01*
X93840403Y-85868422D01*
X93825038Y-85913177D01*
X93825038Y-86034992D01*
X93862793Y-86144968D01*
X93864593Y-86150209D01*
X93907448Y-86207683D01*
X93907450Y-86207685D01*
X94292314Y-86592549D01*
X94324630Y-86616645D01*
X94341313Y-86629085D01*
X94383289Y-86684940D01*
X94388405Y-86754622D01*
X94355035Y-86816008D01*
X94354870Y-86816173D01*
X94142647Y-87028397D01*
X94081324Y-87061882D01*
X94054966Y-87064716D01*
X93972158Y-87064716D01*
X93905119Y-87045031D01*
X93874624Y-87016586D01*
X93874524Y-87016674D01*
X93873713Y-87015736D01*
X93872753Y-87014841D01*
X93871591Y-87013284D01*
X93871585Y-87013276D01*
X93486720Y-86628411D01*
X93429246Y-86585556D01*
X93429247Y-86585556D01*
X93314030Y-86546001D01*
X93314029Y-86546001D01*
X93192214Y-86546001D01*
X93192213Y-86546001D01*
X93165264Y-86555253D01*
X93076999Y-86585555D01*
X93076996Y-86585556D01*
X93076996Y-86585557D01*
X93019523Y-86628411D01*
X92616978Y-87030956D01*
X92574339Y-87088141D01*
X92574122Y-87088432D01*
X92574121Y-87088435D01*
X92535805Y-87200045D01*
X92534568Y-87203647D01*
X92534568Y-87325462D01*
X92571698Y-87433617D01*
X92574123Y-87440679D01*
X92616978Y-87498153D01*
X93001845Y-87883020D01*
X93059319Y-87925875D01*
X93059320Y-87925875D01*
X93059322Y-87925877D01*
X93133761Y-87951432D01*
X93174536Y-87965431D01*
X93174537Y-87965431D01*
X93296353Y-87965431D01*
X93319395Y-87957520D01*
X93411567Y-87925877D01*
X93469044Y-87883019D01*
X93869028Y-87483035D01*
X93930351Y-87449550D01*
X93956709Y-87446716D01*
X94223435Y-87446716D01*
X94231849Y-87445042D01*
X94301441Y-87451267D01*
X94356620Y-87494128D01*
X94379867Y-87560016D01*
X94380045Y-87566658D01*
X94380045Y-87613478D01*
X94417523Y-87710218D01*
X94432030Y-87728533D01*
X95036710Y-88333212D01*
X95070195Y-88394535D01*
X95065211Y-88464226D01*
X95023340Y-88520160D01*
X94957875Y-88544577D01*
X94949029Y-88544893D01*
X94776113Y-88544893D01*
X94705913Y-88573971D01*
X93442526Y-89837358D01*
X93413448Y-89907558D01*
X93413448Y-90080472D01*
X93393763Y-90147511D01*
X93340959Y-90193266D01*
X93271801Y-90203210D01*
X93208245Y-90174185D01*
X93201767Y-90168153D01*
X92597088Y-89563474D01*
X92578773Y-89548967D01*
X92482034Y-89511489D01*
X92482033Y-89511489D01*
X92399753Y-89511489D01*
X92332714Y-89491804D01*
X92286959Y-89439000D01*
X92275753Y-89387489D01*
X92275753Y-89077672D01*
X92295438Y-89010633D01*
X92312072Y-88989991D01*
X92506980Y-88795083D01*
X92712056Y-88590007D01*
X92754914Y-88532530D01*
X92794468Y-88417315D01*
X92794468Y-88295500D01*
X92794166Y-88294621D01*
X92778579Y-88249219D01*
X92754914Y-88180285D01*
X92752848Y-88177514D01*
X92712057Y-88122808D01*
X92327190Y-87737941D01*
X92269716Y-87695086D01*
X92269717Y-87695086D01*
X92154500Y-87655531D01*
X92154499Y-87655531D01*
X92032684Y-87655531D01*
X92032683Y-87655531D01*
X91976862Y-87674695D01*
X91917469Y-87695085D01*
X91917466Y-87695086D01*
X91917466Y-87695087D01*
X91859993Y-87737941D01*
X91457448Y-88140486D01*
X91416310Y-88195658D01*
X91414592Y-88197962D01*
X91414591Y-88197965D01*
X91380522Y-88297204D01*
X91375038Y-88313177D01*
X91375038Y-88434992D01*
X91410638Y-88538691D01*
X91414593Y-88550209D01*
X91457448Y-88607683D01*
X91457450Y-88607685D01*
X91842314Y-88992549D01*
X91843868Y-88993707D01*
X91844266Y-88994237D01*
X91845711Y-88995487D01*
X91845440Y-88995799D01*
X91885848Y-89049556D01*
X91893753Y-89093120D01*
X91893753Y-89693709D01*
X91922831Y-89763909D01*
X91930204Y-89771282D01*
X91963689Y-89832605D01*
X91958705Y-89902297D01*
X91958162Y-89903723D01*
X91942450Y-89944283D01*
X91940526Y-89949249D01*
X91940526Y-90052996D01*
X91978004Y-90149736D01*
X91992511Y-90168051D01*
X92828749Y-91004289D01*
X92862234Y-91065612D01*
X92857250Y-91135304D01*
X92815378Y-91191237D01*
X92800806Y-91200632D01*
X92699141Y-91256522D01*
X92699133Y-91256528D01*
X92697234Y-91258148D01*
X92697056Y-91262645D01*
X92724918Y-91313670D01*
X92719934Y-91383362D01*
X92691433Y-91427709D01*
X92513243Y-91605899D01*
X92451920Y-91639384D01*
X92382228Y-91634400D01*
X92346721Y-91611580D01*
X92343682Y-91611700D01*
X92342062Y-91613599D01*
X92342054Y-91613611D01*
X92262943Y-91757512D01*
X92262940Y-91757520D01*
X92237287Y-91857435D01*
X92204864Y-91914278D01*
X91224541Y-92894602D01*
X91163218Y-92928087D01*
X91093527Y-92923103D01*
X91049179Y-92894602D01*
X90157570Y-92002993D01*
X90139255Y-91988486D01*
X90042516Y-91951008D01*
X90042515Y-91951008D01*
X89999753Y-91951008D01*
X89932714Y-91931323D01*
X89886959Y-91878519D01*
X89875753Y-91827008D01*
X89875753Y-91477672D01*
X89895438Y-91410633D01*
X89912072Y-91389991D01*
X90110826Y-91191237D01*
X90312056Y-90990007D01*
X90354914Y-90932530D01*
X90394468Y-90817315D01*
X90394468Y-90695500D01*
X90394346Y-90695146D01*
X90372089Y-90630313D01*
X90354914Y-90580285D01*
X90354912Y-90580282D01*
X90312057Y-90522808D01*
X90043330Y-90254081D01*
X90009845Y-90192758D01*
X90014829Y-90123066D01*
X90043331Y-90078718D01*
X90081322Y-90040727D01*
X90081326Y-90040723D01*
X90081328Y-90040717D01*
X90087059Y-90032831D01*
X90088307Y-90033738D01*
X90128840Y-89990813D01*
X90196660Y-89974011D01*
X90262797Y-89996543D01*
X90279042Y-90010217D01*
X90551845Y-90283020D01*
X90609319Y-90325875D01*
X90609320Y-90325875D01*
X90609322Y-90325877D01*
X90671800Y-90347326D01*
X90724536Y-90365431D01*
X90724537Y-90365431D01*
X90846353Y-90365431D01*
X90869395Y-90357520D01*
X90961567Y-90325877D01*
X91019044Y-90283019D01*
X91421586Y-89880477D01*
X91464444Y-89823000D01*
X91503998Y-89707785D01*
X91503998Y-89585970D01*
X91464444Y-89470755D01*
X91464442Y-89470752D01*
X91421587Y-89413278D01*
X91036720Y-89028411D01*
X90979246Y-88985556D01*
X90979247Y-88985556D01*
X90864030Y-88946001D01*
X90864029Y-88946001D01*
X90742214Y-88946001D01*
X90742213Y-88946001D01*
X90671251Y-88970363D01*
X90626999Y-88985555D01*
X90626996Y-88985556D01*
X90626996Y-88985557D01*
X90569523Y-89028411D01*
X90569521Y-89028413D01*
X90169538Y-89428397D01*
X90108215Y-89461882D01*
X90081857Y-89464716D01*
X90012725Y-89464716D01*
X89956431Y-89451201D01*
X89876555Y-89410502D01*
X89876554Y-89410501D01*
X89876551Y-89410500D01*
X89750003Y-89390458D01*
X89749997Y-89390458D01*
X89623448Y-89410500D01*
X89588324Y-89428397D01*
X89509277Y-89468674D01*
X89509276Y-89468675D01*
X89509271Y-89468678D01*
X89418678Y-89559271D01*
X89418675Y-89559276D01*
X89418674Y-89559277D01*
X89408117Y-89579996D01*
X89360500Y-89673448D01*
X89340458Y-89799996D01*
X89340458Y-89800003D01*
X89360500Y-89926551D01*
X89360501Y-89926554D01*
X89360502Y-89926555D01*
X89418674Y-90040723D01*
X89418675Y-90040724D01*
X89423105Y-90049418D01*
X89420281Y-90050856D01*
X89438202Y-90101111D01*
X89422365Y-90169162D01*
X89402084Y-90195849D01*
X89057450Y-90540484D01*
X89057448Y-90540486D01*
X89014594Y-90597959D01*
X89014592Y-90597962D01*
X89014591Y-90597965D01*
X88977135Y-90707070D01*
X88975038Y-90713177D01*
X88975038Y-90834992D01*
X89014451Y-90949797D01*
X89014593Y-90950209D01*
X89057448Y-91007683D01*
X89057450Y-91007685D01*
X89442314Y-91392549D01*
X89443868Y-91393707D01*
X89444266Y-91394237D01*
X89445711Y-91395487D01*
X89445440Y-91395799D01*
X89485848Y-91449556D01*
X89493753Y-91493120D01*
X89493753Y-92172743D01*
X89493754Y-92172748D01*
X89521728Y-92240285D01*
X89529197Y-92309754D01*
X89522794Y-92332530D01*
X89501008Y-92388767D01*
X89501008Y-92492515D01*
X89538486Y-92589255D01*
X89552993Y-92607570D01*
X90389231Y-93443808D01*
X90422716Y-93505131D01*
X90417732Y-93574823D01*
X90375860Y-93630756D01*
X90361288Y-93640151D01*
X90259623Y-93696041D01*
X90259615Y-93696047D01*
X90257716Y-93697667D01*
X90257538Y-93702164D01*
X90285400Y-93753189D01*
X90280416Y-93822881D01*
X90251915Y-93867228D01*
X90073725Y-94045418D01*
X90012402Y-94078903D01*
X89942710Y-94073919D01*
X89907203Y-94051099D01*
X89904164Y-94051219D01*
X89902544Y-94053118D01*
X89902536Y-94053130D01*
X89823425Y-94197031D01*
X89823422Y-94197040D01*
X89797768Y-94296955D01*
X89765346Y-94353798D01*
X89713814Y-94405330D01*
X89684736Y-94475529D01*
X89684736Y-94885245D01*
X89665051Y-94952284D01*
X89612247Y-94998039D01*
X89560736Y-95009245D01*
X89514503Y-95009245D01*
X89417761Y-95046723D01*
X89399446Y-95061230D01*
X89128729Y-95331947D01*
X89114222Y-95350262D01*
X89076744Y-95447004D01*
X89076744Y-95550752D01*
X89114222Y-95647492D01*
X89128729Y-95665807D01*
X90018165Y-96555243D01*
X90018169Y-96555246D01*
X90018170Y-96555247D01*
X90029182Y-96563969D01*
X90036480Y-96569750D01*
X90133220Y-96607229D01*
X90133221Y-96607229D01*
X90236972Y-96607229D01*
X90248264Y-96605118D01*
X90249037Y-96609254D01*
X90296561Y-96605252D01*
X90358302Y-96637960D01*
X90359415Y-96639060D01*
X90498666Y-96778311D01*
X90532151Y-96839634D01*
X90527167Y-96909326D01*
X90510393Y-96940114D01*
X90483221Y-96976555D01*
X90475074Y-96987481D01*
X90475073Y-96987484D01*
X90439050Y-97092415D01*
X90435520Y-97102696D01*
X90435520Y-97224511D01*
X90469796Y-97324353D01*
X90475075Y-97339728D01*
X90517930Y-97397202D01*
X90902797Y-97782069D01*
X90960271Y-97824924D01*
X90960272Y-97824924D01*
X90960274Y-97824926D01*
X91034713Y-97850481D01*
X91075488Y-97864480D01*
X91075489Y-97864480D01*
X91197305Y-97864480D01*
X91220347Y-97856569D01*
X91312519Y-97824926D01*
X91369996Y-97782068D01*
X91772538Y-97379526D01*
X91815396Y-97322049D01*
X91854950Y-97206834D01*
X91854950Y-97085019D01*
X91854699Y-97084289D01*
X91842529Y-97048839D01*
X91815396Y-96969804D01*
X91815394Y-96969801D01*
X91772539Y-96912327D01*
X91387672Y-96527460D01*
X91330198Y-96484605D01*
X91330199Y-96484605D01*
X91214982Y-96445050D01*
X91214981Y-96445050D01*
X91093166Y-96445050D01*
X91093165Y-96445050D01*
X91024341Y-96468678D01*
X90977951Y-96484604D01*
X90977948Y-96484605D01*
X90977948Y-96484606D01*
X90930584Y-96519923D01*
X90865073Y-96544216D01*
X90796829Y-96529234D01*
X90768781Y-96508196D01*
X90663540Y-96402955D01*
X90630055Y-96341632D01*
X90635039Y-96271940D01*
X90635595Y-96270478D01*
X90637246Y-96266215D01*
X90637249Y-96266212D01*
X90674728Y-96169470D01*
X90674728Y-96065722D01*
X90667607Y-96047342D01*
X90637249Y-95968981D01*
X90630426Y-95960367D01*
X90622746Y-95950671D01*
X90622745Y-95950670D01*
X90622742Y-95950666D01*
X90103055Y-95430979D01*
X90069570Y-95369656D01*
X90066736Y-95343298D01*
X90066736Y-95260486D01*
X90086421Y-95193447D01*
X90139225Y-95147692D01*
X90190736Y-95136486D01*
X90211612Y-95136486D01*
X90600521Y-94747577D01*
X90343839Y-94490895D01*
X90310354Y-94429572D01*
X90315338Y-94359880D01*
X90343835Y-94315538D01*
X90522033Y-94137339D01*
X90583353Y-94103857D01*
X90653045Y-94108841D01*
X90697392Y-94137342D01*
X91219946Y-94659896D01*
X91253431Y-94721219D01*
X91248447Y-94790911D01*
X91219946Y-94835258D01*
X90565165Y-95490039D01*
X90850222Y-95775096D01*
X90850236Y-95775109D01*
X90878330Y-95799104D01*
X90878337Y-95799108D01*
X91022248Y-95878225D01*
X91022257Y-95878228D01*
X91181311Y-95919067D01*
X91181319Y-95919068D01*
X91345547Y-95919068D01*
X91345551Y-95919067D01*
X91440212Y-95894762D01*
X91510040Y-95897155D01*
X91567490Y-95936921D01*
X91594320Y-96001434D01*
X91595050Y-96014866D01*
X91595050Y-96064981D01*
X91623166Y-96146880D01*
X91634605Y-96180198D01*
X91677460Y-96237672D01*
X92062327Y-96622539D01*
X92119801Y-96665394D01*
X92119802Y-96665394D01*
X92119804Y-96665396D01*
X92182349Y-96686868D01*
X92235018Y-96704950D01*
X92235019Y-96704950D01*
X92356835Y-96704950D01*
X92379877Y-96697039D01*
X92472049Y-96665396D01*
X92529526Y-96622538D01*
X92929510Y-96222554D01*
X92990833Y-96189069D01*
X93017191Y-96186235D01*
X93803498Y-96186235D01*
X93870537Y-96205920D01*
X93916292Y-96258724D01*
X93926236Y-96327882D01*
X93897211Y-96391438D01*
X93891179Y-96397916D01*
X92071179Y-98217916D01*
X92009856Y-98251401D01*
X91983498Y-98254235D01*
X90582640Y-98254235D01*
X90515601Y-98234550D01*
X90485106Y-98206105D01*
X90485006Y-98206193D01*
X90484195Y-98205255D01*
X90483235Y-98204360D01*
X90482073Y-98202803D01*
X90482067Y-98202795D01*
X90097202Y-97817930D01*
X90039728Y-97775075D01*
X90039729Y-97775075D01*
X89924512Y-97735520D01*
X89924511Y-97735520D01*
X89814208Y-97735520D01*
X89747169Y-97715835D01*
X89701414Y-97663031D01*
X89691470Y-97593873D01*
X89694104Y-97580682D01*
X89703723Y-97543217D01*
X89703724Y-97543213D01*
X89703724Y-97378984D01*
X89703723Y-97378977D01*
X89662884Y-97219923D01*
X89662881Y-97219914D01*
X89583764Y-97076003D01*
X89583760Y-97075996D01*
X89559765Y-97047902D01*
X89559752Y-97047888D01*
X89274695Y-96762831D01*
X88143324Y-97894202D01*
X88428381Y-98179259D01*
X88428395Y-98179272D01*
X88456489Y-98203267D01*
X88456496Y-98203271D01*
X88600407Y-98282388D01*
X88600416Y-98282391D01*
X88759470Y-98323230D01*
X88759478Y-98323231D01*
X88923706Y-98323231D01*
X88923708Y-98323230D01*
X88990211Y-98306155D01*
X89060040Y-98308548D01*
X89117490Y-98348314D01*
X89144320Y-98412827D01*
X89145050Y-98426259D01*
X89145050Y-98514981D01*
X89175037Y-98602330D01*
X89184605Y-98630198D01*
X89227460Y-98687672D01*
X89612327Y-99072539D01*
X89669801Y-99115394D01*
X89669802Y-99115394D01*
X89669804Y-99115396D01*
X89716206Y-99131326D01*
X89785018Y-99154950D01*
X89785019Y-99154950D01*
X89906835Y-99154950D01*
X89929877Y-99147039D01*
X90022049Y-99115396D01*
X90079526Y-99072538D01*
X90479510Y-98672554D01*
X90540833Y-98639069D01*
X90567191Y-98636235D01*
X92151965Y-98636235D01*
X92151967Y-98636235D01*
X92222168Y-98607157D01*
X93426785Y-97402540D01*
X93488108Y-97369055D01*
X93557800Y-97374039D01*
X93613733Y-97415911D01*
X93638150Y-97481375D01*
X93638466Y-97490221D01*
X93638466Y-97498011D01*
X93658508Y-97624559D01*
X93658509Y-97624562D01*
X93658510Y-97624563D01*
X93716682Y-97738731D01*
X93716684Y-97738733D01*
X93716686Y-97738736D01*
X93795195Y-97817245D01*
X93828680Y-97878568D01*
X93823696Y-97948260D01*
X93781824Y-98004193D01*
X93763810Y-98015410D01*
X93659278Y-98068673D01*
X93659271Y-98068678D01*
X93568678Y-98159271D01*
X93568675Y-98159276D01*
X93568674Y-98159277D01*
X93546500Y-98202795D01*
X93510500Y-98273448D01*
X93490458Y-98399996D01*
X93490458Y-98400003D01*
X93510500Y-98526551D01*
X93510501Y-98526554D01*
X93510502Y-98526555D01*
X93568674Y-98640723D01*
X93568676Y-98640725D01*
X93568678Y-98640728D01*
X93659271Y-98731321D01*
X93659273Y-98731322D01*
X93659277Y-98731326D01*
X93758755Y-98782013D01*
X93809550Y-98829987D01*
X93826345Y-98897808D01*
X93803807Y-98963943D01*
X93790140Y-98980178D01*
X93047639Y-99722681D01*
X92986316Y-99756166D01*
X92959958Y-99759000D01*
X89021571Y-99759000D01*
X88951371Y-99788078D01*
X87884078Y-100855371D01*
X87855000Y-100925571D01*
X87855000Y-103486000D01*
X87835315Y-103553039D01*
X87782511Y-103598794D01*
X87731000Y-103610000D01*
X86987441Y-103610000D01*
X86950250Y-103617398D01*
X86908077Y-103645577D01*
X86879898Y-103687750D01*
X86872500Y-103724941D01*
X86872500Y-108317712D01*
X86852815Y-108384751D01*
X86800011Y-108430506D01*
X86730853Y-108440450D01*
X86667297Y-108411425D01*
X86642636Y-108382278D01*
X86351283Y-107904564D01*
X86348438Y-107899650D01*
X86227630Y-107679490D01*
X86003714Y-107271426D01*
X86001119Y-107266427D01*
X85685514Y-106623075D01*
X85683139Y-106617939D01*
X85679364Y-106609260D01*
X85397316Y-105960813D01*
X85395213Y-105955660D01*
X85277600Y-105647391D01*
X85272096Y-105577742D01*
X85282972Y-105546897D01*
X85286490Y-105539993D01*
X85313890Y-105486218D01*
X85328244Y-105395590D01*
X85333934Y-105359666D01*
X85333934Y-105359659D01*
X85313891Y-105233111D01*
X85313890Y-105233109D01*
X85313890Y-105233108D01*
X85255718Y-105118940D01*
X85255714Y-105118936D01*
X85255713Y-105118934D01*
X85165120Y-105028341D01*
X85165116Y-105028338D01*
X85165115Y-105028337D01*
X85127706Y-105009276D01*
X85077759Y-104983826D01*
X85026964Y-104935852D01*
X85016295Y-104912182D01*
X84976237Y-104790728D01*
X84912418Y-104597232D01*
X84910789Y-104591883D01*
X84717002Y-103898674D01*
X84715604Y-103893184D01*
X84646226Y-103592266D01*
X84553913Y-103191873D01*
X84552763Y-103186299D01*
X84547319Y-103156485D01*
X84423493Y-102478316D01*
X84422598Y-102472684D01*
X84369814Y-102082917D01*
X84326015Y-101759500D01*
X84325381Y-101753835D01*
X84325291Y-101752817D01*
X84261690Y-101036949D01*
X84261319Y-101031314D01*
X84230657Y-100312226D01*
X84230546Y-100306578D01*
X84232979Y-99586859D01*
X84233129Y-99581173D01*
X84233195Y-99579849D01*
X84249343Y-99253039D01*
X84272312Y-99187054D01*
X84285505Y-99171484D01*
X84373213Y-99083777D01*
X84431385Y-98969609D01*
X84431386Y-98969605D01*
X84451429Y-98843057D01*
X84451429Y-98843050D01*
X84431386Y-98716502D01*
X84431385Y-98716500D01*
X84431385Y-98716499D01*
X84373213Y-98602331D01*
X84373209Y-98602327D01*
X84373208Y-98602325D01*
X84341640Y-98570757D01*
X84308155Y-98509434D01*
X84305883Y-98471282D01*
X84308524Y-98443640D01*
X84337169Y-98143827D01*
X84337831Y-98138258D01*
X84438482Y-97429242D01*
X84439397Y-97423714D01*
X84572374Y-96720065D01*
X84573553Y-96714528D01*
X84575822Y-96704950D01*
X84738570Y-96017744D01*
X84740000Y-96012266D01*
X84744031Y-95998160D01*
X84936731Y-95323724D01*
X84938394Y-95318367D01*
X85113248Y-94797836D01*
X85153252Y-94740560D01*
X85217877Y-94714001D01*
X85286601Y-94726597D01*
X85318471Y-94749646D01*
X85701844Y-95133019D01*
X85703398Y-95134177D01*
X85703796Y-95134707D01*
X85705241Y-95135957D01*
X85704970Y-95136269D01*
X85745378Y-95190026D01*
X85753283Y-95233590D01*
X85753283Y-102482277D01*
X85755665Y-102494252D01*
X85752317Y-102494917D01*
X85757751Y-102540809D01*
X85740458Y-102649996D01*
X85740458Y-102650003D01*
X85760500Y-102776551D01*
X85760501Y-102776554D01*
X85760502Y-102776555D01*
X85818674Y-102890723D01*
X85818676Y-102890725D01*
X85818678Y-102890728D01*
X85909271Y-102981321D01*
X85909273Y-102981322D01*
X85909277Y-102981326D01*
X86023445Y-103039498D01*
X86023446Y-103039498D01*
X86023448Y-103039499D01*
X86149997Y-103059542D01*
X86150000Y-103059542D01*
X86150003Y-103059542D01*
X86276551Y-103039499D01*
X86276552Y-103039498D01*
X86276555Y-103039498D01*
X86390723Y-102981326D01*
X86481326Y-102890723D01*
X86539498Y-102776555D01*
X86539499Y-102776551D01*
X86559542Y-102650003D01*
X86559542Y-102649996D01*
X86539499Y-102523448D01*
X86539498Y-102523446D01*
X86539498Y-102523445D01*
X86481326Y-102409277D01*
X86481322Y-102409273D01*
X86481321Y-102409271D01*
X86390728Y-102318678D01*
X86390725Y-102318676D01*
X86390723Y-102318674D01*
X86313130Y-102279138D01*
X86276552Y-102260500D01*
X86239884Y-102254693D01*
X86176750Y-102224763D01*
X86139819Y-102165451D01*
X86135283Y-102132220D01*
X86135283Y-96760259D01*
X87360742Y-96760259D01*
X87360742Y-96924502D01*
X87401581Y-97083556D01*
X87401584Y-97083565D01*
X87480701Y-97227476D01*
X87480705Y-97227483D01*
X87504700Y-97255577D01*
X87504713Y-97255591D01*
X87789771Y-97540649D01*
X88178680Y-97151740D01*
X88178680Y-97151739D01*
X87482323Y-96455382D01*
X87480703Y-96457281D01*
X87480695Y-96457293D01*
X87401586Y-96601192D01*
X87401581Y-96601205D01*
X87360742Y-96760259D01*
X86135283Y-96760259D01*
X86135283Y-95218142D01*
X86154968Y-95151103D01*
X86171602Y-95130461D01*
X86366859Y-94935204D01*
X86571586Y-94730477D01*
X86614444Y-94673000D01*
X86653998Y-94557785D01*
X86653998Y-94435970D01*
X86646383Y-94413790D01*
X86639126Y-94392650D01*
X86614444Y-94320755D01*
X86609105Y-94313595D01*
X86571587Y-94263278D01*
X86186720Y-93878411D01*
X86129246Y-93835556D01*
X86129247Y-93835556D01*
X86014030Y-93796001D01*
X86014029Y-93796001D01*
X85892214Y-93796001D01*
X85892213Y-93796001D01*
X85796643Y-93828811D01*
X85776999Y-93835555D01*
X85776996Y-93835556D01*
X85776996Y-93835557D01*
X85719433Y-93878479D01*
X85653923Y-93902772D01*
X85585678Y-93887790D01*
X85536366Y-93838292D01*
X85521644Y-93769991D01*
X85531866Y-93729008D01*
X85718457Y-93306187D01*
X85720842Y-93301101D01*
X85789409Y-93163177D01*
X86525038Y-93163177D01*
X86525038Y-93284992D01*
X86561808Y-93392099D01*
X86564593Y-93400209D01*
X86607448Y-93457683D01*
X86607450Y-93457685D01*
X86992314Y-93842549D01*
X86993868Y-93843707D01*
X86994266Y-93844237D01*
X86995711Y-93845487D01*
X86995440Y-93845799D01*
X87035848Y-93899556D01*
X87043753Y-93943120D01*
X87043753Y-94548750D01*
X87047999Y-94559000D01*
X87072831Y-94618950D01*
X87072832Y-94618951D01*
X87079618Y-94629108D01*
X87077382Y-94630601D01*
X87102329Y-94676287D01*
X87097345Y-94745979D01*
X87096790Y-94747437D01*
X87079167Y-94792929D01*
X87079167Y-94896678D01*
X87116645Y-94993418D01*
X87131152Y-95011733D01*
X87967390Y-95847971D01*
X88000875Y-95909294D01*
X87995891Y-95978986D01*
X87954019Y-96034919D01*
X87939447Y-96044314D01*
X87837782Y-96100204D01*
X87837774Y-96100210D01*
X87835875Y-96101830D01*
X88532231Y-96798186D01*
X88921141Y-96409277D01*
X88636084Y-96124220D01*
X88636070Y-96124207D01*
X88607976Y-96100212D01*
X88607969Y-96100207D01*
X88460673Y-96019230D01*
X88411409Y-95969683D01*
X88396753Y-95901368D01*
X88421357Y-95835974D01*
X88432730Y-95822887D01*
X88515588Y-95740029D01*
X88625169Y-95630448D01*
X88639672Y-95612138D01*
X88677151Y-95515396D01*
X88677151Y-95411648D01*
X88676271Y-95409377D01*
X88639672Y-95314907D01*
X88625165Y-95296592D01*
X87735729Y-94407156D01*
X87717414Y-94392649D01*
X87620675Y-94355171D01*
X87620674Y-94355171D01*
X87549753Y-94355171D01*
X87482714Y-94335486D01*
X87436959Y-94282682D01*
X87425753Y-94231171D01*
X87425753Y-93927672D01*
X87445438Y-93860633D01*
X87462072Y-93839991D01*
X87661912Y-93640151D01*
X87862056Y-93440007D01*
X87904914Y-93382530D01*
X87944468Y-93267315D01*
X87944468Y-93145500D01*
X87904914Y-93030285D01*
X87904912Y-93030282D01*
X87862057Y-92972808D01*
X87477190Y-92587941D01*
X87419716Y-92545086D01*
X87419717Y-92545086D01*
X87304500Y-92505531D01*
X87304499Y-92505531D01*
X87182684Y-92505531D01*
X87182683Y-92505531D01*
X87076707Y-92541913D01*
X87067469Y-92545085D01*
X87067466Y-92545086D01*
X87067466Y-92545087D01*
X87009993Y-92587941D01*
X86607448Y-92990486D01*
X86576353Y-93032189D01*
X86564592Y-93047962D01*
X86564591Y-93047965D01*
X86531107Y-93145500D01*
X86525038Y-93163177D01*
X85789409Y-93163177D01*
X85865768Y-93009579D01*
X85913238Y-92958312D01*
X85957410Y-92942306D01*
X85966090Y-92940932D01*
X86080258Y-92882760D01*
X86170861Y-92792157D01*
X86229033Y-92677989D01*
X86229034Y-92677985D01*
X86249077Y-92551437D01*
X86249077Y-92551430D01*
X86229034Y-92424882D01*
X86226018Y-92415600D01*
X86228317Y-92414852D01*
X86217984Y-92359840D01*
X86232999Y-92311937D01*
X86397725Y-92015784D01*
X86400626Y-92010845D01*
X86785533Y-91389110D01*
X86788668Y-91384300D01*
X87202200Y-90781222D01*
X87205564Y-90776553D01*
X87646815Y-90193451D01*
X87650397Y-90188942D01*
X87658302Y-90179452D01*
X87661192Y-90175981D01*
X87719221Y-90137070D01*
X87789078Y-90135707D01*
X87844150Y-90167662D01*
X88166964Y-90490476D01*
X88200449Y-90551799D01*
X88203283Y-90578157D01*
X88203283Y-91343289D01*
X88183598Y-91410328D01*
X88166964Y-91430970D01*
X87766978Y-91830956D01*
X87728941Y-91881969D01*
X87724122Y-91888432D01*
X87724121Y-91888435D01*
X87684793Y-92002993D01*
X87684568Y-92003647D01*
X87684568Y-92125462D01*
X87724026Y-92240398D01*
X87724123Y-92240679D01*
X87766978Y-92298153D01*
X88151845Y-92683020D01*
X88209319Y-92725875D01*
X88209320Y-92725875D01*
X88209322Y-92725877D01*
X88283761Y-92751432D01*
X88324536Y-92765431D01*
X88324537Y-92765431D01*
X88446353Y-92765431D01*
X88469395Y-92757520D01*
X88561567Y-92725877D01*
X88619044Y-92683019D01*
X89021586Y-92280477D01*
X89064444Y-92223000D01*
X89103998Y-92107785D01*
X89103998Y-91985970D01*
X89097539Y-91967157D01*
X89091995Y-91951008D01*
X89064444Y-91870755D01*
X89044405Y-91843880D01*
X89021587Y-91813278D01*
X88636724Y-91428415D01*
X88636722Y-91428413D01*
X88635778Y-91427709D01*
X88635155Y-91427244D01*
X88634755Y-91426712D01*
X88633327Y-91425477D01*
X88633594Y-91425167D01*
X88593181Y-91371387D01*
X88585283Y-91327841D01*
X88585283Y-90409689D01*
X88585282Y-90409686D01*
X88556205Y-90339487D01*
X88502476Y-90285758D01*
X88073671Y-89856953D01*
X88040186Y-89795630D01*
X88045170Y-89725938D01*
X88066071Y-89689915D01*
X88118397Y-89627097D01*
X88122152Y-89622798D01*
X88615928Y-89083384D01*
X88619872Y-89079274D01*
X89138302Y-88563519D01*
X89142441Y-88559589D01*
X89684366Y-88068644D01*
X89688706Y-88064892D01*
X89954716Y-87845634D01*
X90018966Y-87818187D01*
X90052977Y-87818848D01*
X90101376Y-87826514D01*
X90114645Y-87828616D01*
X90114646Y-87828616D01*
X90114649Y-87828616D01*
X90241197Y-87808573D01*
X90241198Y-87808572D01*
X90241201Y-87808572D01*
X90355369Y-87750400D01*
X90445972Y-87659797D01*
X90504144Y-87545629D01*
X90506592Y-87530178D01*
X90520412Y-87442917D01*
X90550341Y-87379782D01*
X90568500Y-87363102D01*
X90826480Y-87169714D01*
X90830963Y-87166511D01*
X91418759Y-86766256D01*
X91423447Y-86763217D01*
X92028825Y-86390075D01*
X92033607Y-86387275D01*
X92655347Y-86041999D01*
X92660242Y-86039424D01*
X93296996Y-85722766D01*
X93302089Y-85720377D01*
X93346368Y-85700813D01*
X93815508Y-85493530D01*
X93884781Y-85484443D01*
X93947973Y-85514250D01*
G37*
%TD.AperFunction*%
%TA.AperFunction,Conductor*%
G36*
X109793929Y-95855920D02*
G01*
X109824423Y-95884364D01*
X109824524Y-95884277D01*
X109825334Y-95885214D01*
X109826295Y-95886110D01*
X109827456Y-95887666D01*
X109827462Y-95887674D01*
X110212327Y-96272539D01*
X110269801Y-96315394D01*
X110269802Y-96315394D01*
X110269804Y-96315396D01*
X110344243Y-96340951D01*
X110385018Y-96354950D01*
X110385019Y-96354950D01*
X110506835Y-96354950D01*
X110545627Y-96341632D01*
X110622049Y-96315396D01*
X110669415Y-96280076D01*
X110734925Y-96255783D01*
X110803170Y-96270764D01*
X110831216Y-96291800D01*
X110907613Y-96368197D01*
X111027297Y-96487881D01*
X111060782Y-96549204D01*
X111063616Y-96575562D01*
X111063616Y-96639153D01*
X111074111Y-96669722D01*
X111094679Y-96729636D01*
X111101816Y-96750423D01*
X111143204Y-96805929D01*
X111143206Y-96805931D01*
X111544065Y-97206789D01*
X111544072Y-97206795D01*
X111576970Y-97231326D01*
X111599579Y-97248185D01*
X111672648Y-97273269D01*
X111710847Y-97286384D01*
X111710848Y-97286384D01*
X111828491Y-97286384D01*
X111939761Y-97248185D01*
X111995270Y-97206794D01*
X112078914Y-97123150D01*
X112166595Y-97035469D01*
X112227918Y-97001984D01*
X112297609Y-97006968D01*
X112353543Y-97048839D01*
X112377960Y-97114304D01*
X112378276Y-97123150D01*
X112378276Y-103486000D01*
X112358591Y-103553039D01*
X112305787Y-103598794D01*
X112254276Y-103610000D01*
X110437441Y-103610000D01*
X110400250Y-103617398D01*
X110358077Y-103645577D01*
X110329897Y-103687752D01*
X110325225Y-103699033D01*
X110323618Y-103698367D01*
X110297953Y-103747424D01*
X110237234Y-103781994D01*
X110167465Y-103778249D01*
X110121046Y-103748996D01*
X110040728Y-103668678D01*
X110040725Y-103668676D01*
X110040723Y-103668674D01*
X109926555Y-103610502D01*
X109926554Y-103610501D01*
X109926551Y-103610500D01*
X109800003Y-103590458D01*
X109799997Y-103590458D01*
X109673448Y-103610500D01*
X109638454Y-103628331D01*
X109559277Y-103668674D01*
X109559276Y-103668675D01*
X109559271Y-103668678D01*
X109468678Y-103759271D01*
X109468673Y-103759278D01*
X109423496Y-103847941D01*
X109375521Y-103898737D01*
X109307700Y-103915531D01*
X109241565Y-103892993D01*
X109198114Y-103838277D01*
X109194137Y-103826926D01*
X109020662Y-103242429D01*
X109020655Y-103242409D01*
X108810235Y-102670631D01*
X108563608Y-102113493D01*
X108563607Y-102113491D01*
X108281787Y-101573297D01*
X108281786Y-101573295D01*
X108168212Y-101385943D01*
X108150293Y-101318410D01*
X108171728Y-101251910D01*
X108225714Y-101207556D01*
X108295110Y-101199429D01*
X108357882Y-101230111D01*
X108361931Y-101233981D01*
X108409271Y-101281321D01*
X108409273Y-101281322D01*
X108409277Y-101281326D01*
X108523445Y-101339498D01*
X108523446Y-101339498D01*
X108523448Y-101339499D01*
X108649997Y-101359542D01*
X108650000Y-101359542D01*
X108650003Y-101359542D01*
X108776551Y-101339499D01*
X108776552Y-101339498D01*
X108776555Y-101339498D01*
X108890723Y-101281326D01*
X108981326Y-101190723D01*
X109039498Y-101076555D01*
X109058781Y-100954798D01*
X109088709Y-100891667D01*
X109148020Y-100854736D01*
X109200651Y-100851726D01*
X109234212Y-100857041D01*
X109249999Y-100859542D01*
X109250000Y-100859542D01*
X109250003Y-100859542D01*
X109376551Y-100839499D01*
X109376552Y-100839498D01*
X109376555Y-100839498D01*
X109490723Y-100781326D01*
X109581326Y-100690723D01*
X109639498Y-100576555D01*
X109643301Y-100552543D01*
X109659542Y-100450003D01*
X109659542Y-100449996D01*
X109639499Y-100323448D01*
X109639498Y-100323446D01*
X109639498Y-100323445D01*
X109581326Y-100209277D01*
X109581322Y-100209273D01*
X109581321Y-100209271D01*
X109483823Y-100111773D01*
X109485059Y-100110536D01*
X109449446Y-100064348D01*
X109441000Y-100019366D01*
X109441000Y-99921574D01*
X109440999Y-99921571D01*
X109437643Y-99913468D01*
X109411922Y-99851372D01*
X109358193Y-99797643D01*
X106198628Y-96638078D01*
X106178585Y-96629776D01*
X106128428Y-96609000D01*
X106128427Y-96609000D01*
X104530633Y-96609000D01*
X104463594Y-96589315D01*
X104438648Y-96565755D01*
X104438227Y-96566177D01*
X104340728Y-96468678D01*
X104340724Y-96468675D01*
X104340723Y-96468674D01*
X104333208Y-96464845D01*
X104251783Y-96423356D01*
X104200988Y-96375382D01*
X104184193Y-96307560D01*
X104188046Y-96286206D01*
X104187972Y-96286195D01*
X104209542Y-96150003D01*
X104209542Y-96150000D01*
X104208562Y-96143811D01*
X104200361Y-96092037D01*
X104209315Y-96022747D01*
X104235151Y-95984962D01*
X104347562Y-95872553D01*
X104408885Y-95839069D01*
X104435242Y-95836235D01*
X109726890Y-95836235D01*
X109793929Y-95855920D01*
G37*
%TD.AperFunction*%
%TA.AperFunction,Conductor*%
G36*
X91517483Y-93244403D02*
G01*
X91561830Y-93272904D01*
X92440006Y-94151080D01*
X92458321Y-94165587D01*
X92555061Y-94203066D01*
X92555062Y-94203066D01*
X92658808Y-94203066D01*
X92658810Y-94203066D01*
X92702116Y-94186288D01*
X92771735Y-94180426D01*
X92833476Y-94213134D01*
X92834589Y-94214234D01*
X92948666Y-94328311D01*
X92982151Y-94389634D01*
X92977167Y-94459326D01*
X92960393Y-94490114D01*
X92925076Y-94537478D01*
X92925074Y-94537481D01*
X92925073Y-94537484D01*
X92886107Y-94650987D01*
X92885520Y-94652696D01*
X92885520Y-94774511D01*
X92920946Y-94877703D01*
X92925075Y-94889728D01*
X92967930Y-94947202D01*
X93352797Y-95332069D01*
X93410271Y-95374924D01*
X93410272Y-95374924D01*
X93410274Y-95374926D01*
X93525489Y-95414480D01*
X93535621Y-95416171D01*
X93535207Y-95418649D01*
X93588046Y-95434165D01*
X93633801Y-95486969D01*
X93643480Y-95519083D01*
X93660500Y-95626551D01*
X93663517Y-95635834D01*
X93661524Y-95636481D01*
X93672066Y-95692608D01*
X93645790Y-95757349D01*
X93588685Y-95797606D01*
X93548685Y-95804235D01*
X93032640Y-95804235D01*
X92965601Y-95784550D01*
X92935106Y-95756105D01*
X92935006Y-95756193D01*
X92934195Y-95755255D01*
X92933235Y-95754360D01*
X92932073Y-95752803D01*
X92932067Y-95752795D01*
X92547202Y-95367930D01*
X92489728Y-95325075D01*
X92489729Y-95325075D01*
X92374512Y-95285520D01*
X92374511Y-95285520D01*
X92252696Y-95285520D01*
X92247712Y-95285520D01*
X92180673Y-95265835D01*
X92134918Y-95213031D01*
X92124690Y-95145980D01*
X92125565Y-95139053D01*
X92125565Y-94974821D01*
X92125564Y-94974814D01*
X92084725Y-94815760D01*
X92084722Y-94815751D01*
X92005605Y-94671840D01*
X92005601Y-94671833D01*
X91981606Y-94643739D01*
X91981593Y-94643725D01*
X91086301Y-93748433D01*
X91052816Y-93687110D01*
X91057800Y-93617418D01*
X91086298Y-93573074D01*
X91386470Y-93272902D01*
X91447791Y-93239419D01*
X91517483Y-93244403D01*
G37*
%TD.AperFunction*%
%TA.AperFunction,Conductor*%
G36*
X109869683Y-93990244D02*
G01*
X109876161Y-93996276D01*
X110603724Y-94723839D01*
X110637209Y-94785162D01*
X110632225Y-94854854D01*
X110590353Y-94910787D01*
X110524889Y-94935204D01*
X110516043Y-94935520D01*
X110402695Y-94935520D01*
X110329394Y-94960685D01*
X110287481Y-94975074D01*
X110287478Y-94975075D01*
X110287478Y-94975076D01*
X110230005Y-95017930D01*
X110230003Y-95017932D01*
X109830020Y-95417916D01*
X109768697Y-95451401D01*
X109742339Y-95454235D01*
X108215242Y-95454235D01*
X108148203Y-95434550D01*
X108102448Y-95381746D01*
X108092504Y-95312588D01*
X108121529Y-95249032D01*
X108127561Y-95242554D01*
X108237100Y-95133015D01*
X108570761Y-94799352D01*
X108632082Y-94765869D01*
X108701773Y-94770853D01*
X108732563Y-94787628D01*
X108769801Y-94815394D01*
X108769802Y-94815394D01*
X108769804Y-94815396D01*
X108827659Y-94835258D01*
X108885018Y-94854950D01*
X108885019Y-94854950D01*
X109006835Y-94854950D01*
X109029877Y-94847039D01*
X109122049Y-94815396D01*
X109179526Y-94772538D01*
X109582068Y-94369996D01*
X109624926Y-94312519D01*
X109664480Y-94197304D01*
X109664480Y-94083957D01*
X109684165Y-94016918D01*
X109736969Y-93971163D01*
X109806127Y-93961219D01*
X109869683Y-93990244D01*
G37*
%TD.AperFunction*%
%TA.AperFunction,Conductor*%
G36*
X106919683Y-91040244D02*
G01*
X106926161Y-91046276D01*
X109103724Y-93223839D01*
X109137209Y-93285162D01*
X109132225Y-93354854D01*
X109090353Y-93410787D01*
X109024889Y-93435204D01*
X109016043Y-93435520D01*
X108902695Y-93435520D01*
X108800152Y-93470724D01*
X108787481Y-93475074D01*
X108787478Y-93475075D01*
X108787478Y-93475076D01*
X108730005Y-93517930D01*
X108327460Y-93920475D01*
X108284606Y-93977948D01*
X108284604Y-93977951D01*
X108284603Y-93977954D01*
X108248212Y-94083957D01*
X108245050Y-94093166D01*
X108245050Y-94214981D01*
X108282376Y-94323707D01*
X108284605Y-94330198D01*
X108312371Y-94367436D01*
X108336664Y-94432947D01*
X108321682Y-94501191D01*
X108300644Y-94529239D01*
X107903204Y-94926681D01*
X107841881Y-94960166D01*
X107815523Y-94963000D01*
X102406477Y-94963000D01*
X102339438Y-94943315D01*
X102293683Y-94890511D01*
X102283739Y-94821353D01*
X102312764Y-94757797D01*
X102318796Y-94751319D01*
X102513855Y-94556260D01*
X103100348Y-93969765D01*
X103161669Y-93936282D01*
X103231360Y-93941266D01*
X103287294Y-93983137D01*
X103298511Y-94001152D01*
X103318673Y-94040721D01*
X103318678Y-94040728D01*
X103409271Y-94131321D01*
X103409273Y-94131322D01*
X103409277Y-94131326D01*
X103523445Y-94189498D01*
X103523446Y-94189498D01*
X103523448Y-94189499D01*
X103649997Y-94209542D01*
X103650000Y-94209542D01*
X103650003Y-94209542D01*
X103776551Y-94189499D01*
X103776552Y-94189498D01*
X103776555Y-94189498D01*
X103890723Y-94131326D01*
X103981326Y-94040723D01*
X104039498Y-93926555D01*
X104040886Y-93917794D01*
X104059542Y-93800003D01*
X104059542Y-93799996D01*
X104039499Y-93673448D01*
X104039498Y-93673446D01*
X104039498Y-93673445D01*
X103981326Y-93559277D01*
X103981322Y-93559273D01*
X103981321Y-93559271D01*
X103890728Y-93468678D01*
X103890724Y-93468675D01*
X103890723Y-93468674D01*
X103869156Y-93457685D01*
X103851152Y-93448511D01*
X103800356Y-93400536D01*
X103783562Y-93332715D01*
X103806100Y-93266580D01*
X103819761Y-93250352D01*
X105417270Y-91652844D01*
X105478593Y-91619359D01*
X105548285Y-91624343D01*
X105592632Y-91652844D01*
X105762327Y-91822539D01*
X105819801Y-91865394D01*
X105819802Y-91865394D01*
X105819804Y-91865396D01*
X105886913Y-91888435D01*
X105935018Y-91904950D01*
X105935019Y-91904950D01*
X106056835Y-91904950D01*
X106079877Y-91897039D01*
X106172049Y-91865396D01*
X106229526Y-91822538D01*
X106632068Y-91419996D01*
X106674926Y-91362519D01*
X106714480Y-91247304D01*
X106714480Y-91133957D01*
X106734165Y-91066918D01*
X106786969Y-91021163D01*
X106856127Y-91011219D01*
X106919683Y-91040244D01*
G37*
%TD.AperFunction*%
%TA.AperFunction,Conductor*%
G36*
X92350099Y-92411784D02*
G01*
X92394448Y-92440285D01*
X93275001Y-93320838D01*
X93308486Y-93382161D01*
X93309793Y-93427917D01*
X93293577Y-93530300D01*
X93263648Y-93593435D01*
X93204336Y-93630366D01*
X93134474Y-93629368D01*
X93076241Y-93590758D01*
X93063478Y-93572487D01*
X93059088Y-93564815D01*
X93044583Y-93546503D01*
X92166407Y-92668327D01*
X92132922Y-92607004D01*
X92137906Y-92537312D01*
X92166404Y-92492968D01*
X92219089Y-92440283D01*
X92280408Y-92406800D01*
X92350099Y-92411784D01*
G37*
%TD.AperFunction*%
%TA.AperFunction,Conductor*%
G36*
X93092564Y-91669323D02*
G01*
X93136911Y-91697824D01*
X93659464Y-92220377D01*
X93692949Y-92281700D01*
X93687965Y-92351392D01*
X93659464Y-92395739D01*
X93481273Y-92573930D01*
X93419950Y-92607415D01*
X93350258Y-92602431D01*
X93305911Y-92573930D01*
X92783358Y-92051377D01*
X92749873Y-91990054D01*
X92754857Y-91920362D01*
X92783358Y-91876015D01*
X92901861Y-91757512D01*
X92961550Y-91697823D01*
X93022872Y-91664339D01*
X93092564Y-91669323D01*
G37*
%TD.AperFunction*%
%TA.AperFunction,Conductor*%
G36*
X94582602Y-89340025D02*
G01*
X94638536Y-89381896D01*
X94662953Y-89447361D01*
X94662292Y-89471742D01*
X94661620Y-89477063D01*
X94661620Y-89641302D01*
X94702459Y-89800356D01*
X94702462Y-89800365D01*
X94781579Y-89944276D01*
X94781583Y-89944283D01*
X94805578Y-89972377D01*
X94805591Y-89972391D01*
X95729259Y-90896059D01*
X95729273Y-90896072D01*
X95757367Y-90920067D01*
X95757374Y-90920071D01*
X95878033Y-90986405D01*
X95927297Y-91035951D01*
X95941953Y-91104267D01*
X95917349Y-91169661D01*
X95905978Y-91182747D01*
X95883313Y-91205412D01*
X95854235Y-91275611D01*
X95854235Y-91494288D01*
X95834550Y-91561327D01*
X95781746Y-91607082D01*
X95712588Y-91617026D01*
X95649032Y-91588001D01*
X95642554Y-91581969D01*
X95551415Y-91490830D01*
X95517930Y-91429507D01*
X95522914Y-91359815D01*
X95523420Y-91358484D01*
X95536087Y-91325788D01*
X95536087Y-91222040D01*
X95528436Y-91202292D01*
X95498608Y-91125299D01*
X95496140Y-91122183D01*
X95484105Y-91106989D01*
X95484104Y-91106988D01*
X95484101Y-91106984D01*
X94594665Y-90217548D01*
X94576350Y-90203041D01*
X94479611Y-90165563D01*
X94479610Y-90165563D01*
X94375862Y-90165563D01*
X94279120Y-90203041D01*
X94260805Y-90217548D01*
X94007129Y-90471225D01*
X93945806Y-90504710D01*
X93876114Y-90499726D01*
X93820181Y-90457854D01*
X93795764Y-90392390D01*
X93795448Y-90383544D01*
X93795448Y-90076029D01*
X93815133Y-90008990D01*
X93831767Y-89988348D01*
X94140111Y-89680004D01*
X94451590Y-89368524D01*
X94512911Y-89335041D01*
X94582602Y-89340025D01*
G37*
%TD.AperFunction*%
%TA.AperFunction,Conductor*%
G36*
X95260694Y-88946578D02*
G01*
X95281336Y-88963212D01*
X96098983Y-89780859D01*
X96132468Y-89842182D01*
X96127484Y-89911874D01*
X96098983Y-89956221D01*
X95920792Y-90134411D01*
X95859469Y-90167896D01*
X95789777Y-90162912D01*
X95745430Y-90134411D01*
X94803247Y-89192229D01*
X94769762Y-89130906D01*
X94774746Y-89061215D01*
X94803246Y-89016868D01*
X94856904Y-88963211D01*
X94918227Y-88929727D01*
X94944584Y-88926893D01*
X95193655Y-88926893D01*
X95260694Y-88946578D01*
G37*
%TD.AperFunction*%
%TA.AperFunction,Conductor*%
G36*
X100766465Y-87460685D02*
G01*
X100812220Y-87513489D01*
X100822164Y-87582647D01*
X100793139Y-87646203D01*
X100787107Y-87652681D01*
X100627462Y-87812325D01*
X100627460Y-87812327D01*
X100584605Y-87869801D01*
X100551775Y-87965431D01*
X100545050Y-87985019D01*
X100545050Y-88106834D01*
X100584604Y-88222049D01*
X100598679Y-88240925D01*
X100627460Y-88279524D01*
X101027446Y-88679510D01*
X101060931Y-88740833D01*
X101063765Y-88767191D01*
X101063765Y-88883126D01*
X101044080Y-88950165D01*
X101027448Y-88970804D01*
X101017545Y-88980708D01*
X101009675Y-88988578D01*
X100948351Y-89022061D01*
X100878659Y-89017075D01*
X100822727Y-88975202D01*
X100822589Y-88975018D01*
X100822486Y-88974880D01*
X100786053Y-88926019D01*
X100383511Y-88523477D01*
X100383509Y-88523475D01*
X100342126Y-88492618D01*
X100326034Y-88480619D01*
X100240816Y-88451363D01*
X100210820Y-88441065D01*
X100210819Y-88441065D01*
X100089004Y-88441065D01*
X100089003Y-88441065D01*
X99973786Y-88480620D01*
X99916312Y-88523475D01*
X99531449Y-88908338D01*
X99523085Y-88919556D01*
X99467230Y-88961532D01*
X99397548Y-88966648D01*
X99385357Y-88963362D01*
X99376551Y-88960500D01*
X99250003Y-88940458D01*
X99249997Y-88940458D01*
X99123449Y-88960500D01*
X99123447Y-88960501D01*
X99123445Y-88960501D01*
X99123445Y-88960502D01*
X99109095Y-88967813D01*
X99040428Y-88980708D01*
X98975688Y-88954430D01*
X98965123Y-88945008D01*
X97935154Y-87915039D01*
X97901669Y-87853716D01*
X97900361Y-87807964D01*
X97908782Y-87754797D01*
X97938709Y-87691667D01*
X97998020Y-87654735D01*
X98050651Y-87651726D01*
X98084212Y-87657041D01*
X98099999Y-87659542D01*
X98100000Y-87659542D01*
X98100003Y-87659542D01*
X98226551Y-87639499D01*
X98226552Y-87639498D01*
X98226555Y-87639498D01*
X98340723Y-87581326D01*
X98383483Y-87538566D01*
X98438227Y-87483823D01*
X98439464Y-87485060D01*
X98485640Y-87449451D01*
X98530633Y-87441000D01*
X100699426Y-87441000D01*
X100766465Y-87460685D01*
G37*
%TD.AperFunction*%
%TD*%
M02*
