%TF.GenerationSoftware,KiCad,Pcbnew,8.0.4*%
%TF.CreationDate,2024-08-01T16:10:49+02:00*%
%TF.ProjectId,watch,77617463-682e-46b6-9963-61645f706362,rev?*%
%TF.SameCoordinates,Original*%
%TF.FileFunction,Soldermask,Bot*%
%TF.FilePolarity,Negative*%
%FSLAX46Y46*%
G04 Gerber Fmt 4.6, Leading zero omitted, Abs format (unit mm)*
G04 Created by KiCad (PCBNEW 8.0.4) date 2024-08-01 16:10:49*
%MOMM*%
%LPD*%
G01*
G04 APERTURE LIST*
G04 Aperture macros list*
%AMRoundRect*
0 Rectangle with rounded corners*
0 $1 Rounding radius*
0 $2 $3 $4 $5 $6 $7 $8 $9 X,Y pos of 4 corners*
0 Add a 4 corners polygon primitive as box body*
4,1,4,$2,$3,$4,$5,$6,$7,$8,$9,$2,$3,0*
0 Add four circle primitives for the rounded corners*
1,1,$1+$1,$2,$3*
1,1,$1+$1,$4,$5*
1,1,$1+$1,$6,$7*
1,1,$1+$1,$8,$9*
0 Add four rect primitives between the rounded corners*
20,1,$1+$1,$2,$3,$4,$5,0*
20,1,$1+$1,$4,$5,$6,$7,0*
20,1,$1+$1,$6,$7,$8,$9,0*
20,1,$1+$1,$8,$9,$2,$3,0*%
G04 Aperture macros list end*
%ADD10C,1.000000*%
%ADD11RoundRect,0.237500X0.008839X0.344715X-0.344715X-0.008839X-0.008839X-0.344715X0.344715X0.008839X0*%
%ADD12RoundRect,0.237500X-0.008839X-0.344715X0.344715X0.008839X0.008839X0.344715X-0.344715X-0.008839X0*%
%ADD13RoundRect,0.150000X0.521491X-0.309359X-0.309359X0.521491X-0.521491X0.309359X0.309359X-0.521491X0*%
%ADD14RoundRect,0.237500X-0.344715X0.008839X0.008839X-0.344715X0.344715X-0.008839X-0.008839X0.344715X0*%
%ADD15RoundRect,0.225000X-0.017678X0.335876X-0.335876X0.017678X0.017678X-0.335876X0.335876X-0.017678X0*%
%ADD16R,2.550000X5.000000*%
%ADD17C,18.000000*%
G04 APERTURE END LIST*
D10*
%TO.C,TP1*%
X113101739Y-93051739D03*
%TD*%
D11*
%TO.C,R9*%
X94534753Y-85965246D03*
X93244283Y-87255716D03*
%TD*%
%TO.C,R27*%
X99750000Y-92250000D03*
X98459530Y-93540470D03*
%TD*%
%TO.C,R18*%
X96045235Y-92254765D03*
X94754765Y-93545235D03*
%TD*%
D12*
%TO.C,R3*%
X106004765Y-91195235D03*
X107295235Y-89904765D03*
%TD*%
D11*
%TO.C,R10*%
X92084753Y-88365246D03*
X90794283Y-89655716D03*
%TD*%
D10*
%TO.C,TP4*%
X110167246Y-90117246D03*
%TD*%
D12*
%TO.C,R1*%
X110454765Y-95645235D03*
X111745235Y-94354765D03*
%TD*%
D11*
%TO.C,R12*%
X87234753Y-93215246D03*
X85944283Y-94505716D03*
%TD*%
D13*
%TO.C,Q4*%
X89875736Y-95808237D03*
X88532233Y-97151740D03*
X87878159Y-95154163D03*
%TD*%
D14*
%TO.C,R13*%
X100158750Y-89150780D03*
X101449220Y-90441250D03*
%TD*%
D15*
%TO.C,C2*%
X112848008Y-95501992D03*
X111751992Y-96598008D03*
%TD*%
D10*
%TO.C,TP3*%
X108700000Y-88650000D03*
%TD*%
D14*
%TO.C,R15*%
X102350781Y-86958749D03*
X103641251Y-88249219D03*
%TD*%
D11*
%TO.C,R17*%
X98495235Y-89804765D03*
X97204765Y-91095235D03*
%TD*%
%TO.C,R19*%
X93595235Y-94704765D03*
X92304765Y-95995235D03*
%TD*%
D10*
%TO.C,TP5*%
X107232753Y-87182753D03*
%TD*%
D12*
%TO.C,R2*%
X108954765Y-94145235D03*
X110245235Y-92854765D03*
%TD*%
D13*
%TO.C,Q3*%
X92297577Y-93404074D03*
X90954074Y-94747577D03*
X90300000Y-92750000D03*
%TD*%
D16*
%TO.C,BT1*%
X111725000Y-106237500D03*
X88275000Y-106237500D03*
D17*
X100000000Y-106237500D03*
%TD*%
D10*
%TO.C,TP2*%
X111634493Y-91584493D03*
%TD*%
D11*
%TO.C,R11*%
X89684753Y-90765246D03*
X88394283Y-92055716D03*
%TD*%
D14*
%TO.C,R14*%
X101254765Y-88054765D03*
X102545235Y-89345235D03*
%TD*%
D13*
%TO.C,Q1*%
X97176614Y-88525037D03*
X95833111Y-89868540D03*
X95179037Y-87870963D03*
%TD*%
D11*
%TO.C,R20*%
X91145235Y-97154765D03*
X89854765Y-98445235D03*
%TD*%
D13*
%TO.C,Q2*%
X94737095Y-90964555D03*
X93393592Y-92308058D03*
X92739518Y-90310481D03*
%TD*%
D14*
%TO.C,R16*%
X103446796Y-85862734D03*
X104737266Y-87153204D03*
%TD*%
M02*
