%TF.GenerationSoftware,KiCad,Pcbnew,8.0.4*%
%TF.CreationDate,2024-08-01T18:58:47+02:00*%
%TF.ProjectId,watch,77617463-682e-46b6-9963-61645f706362,rev?*%
%TF.SameCoordinates,Original*%
%TF.FileFunction,Legend,Top*%
%TF.FilePolarity,Positive*%
%FSLAX46Y46*%
G04 Gerber Fmt 4.6, Leading zero omitted, Abs format (unit mm)*
G04 Created by KiCad (PCBNEW 8.0.4) date 2024-08-01 18:58:47*
%MOMM*%
%LPD*%
G01*
G04 APERTURE LIST*
G04 Aperture macros list*
%AMRoundRect*
0 Rectangle with rounded corners*
0 $1 Rounding radius*
0 $2 $3 $4 $5 $6 $7 $8 $9 X,Y pos of 4 corners*
0 Add a 4 corners polygon primitive as box body*
4,1,4,$2,$3,$4,$5,$6,$7,$8,$9,$2,$3,0*
0 Add four circle primitives for the rounded corners*
1,1,$1+$1,$2,$3*
1,1,$1+$1,$4,$5*
1,1,$1+$1,$6,$7*
1,1,$1+$1,$8,$9*
0 Add four rect primitives between the rounded corners*
20,1,$1+$1,$2,$3,$4,$5,0*
20,1,$1+$1,$4,$5,$6,$7,0*
20,1,$1+$1,$6,$7,$8,$9,0*
20,1,$1+$1,$8,$9,$2,$3,0*%
%AMRotRect*
0 Rectangle, with rotation*
0 The origin of the aperture is its center*
0 $1 length*
0 $2 width*
0 $3 Rotation angle, in degrees counterclockwise*
0 Add horizontal line*
21,1,$1,$2,0,0,$3*%
G04 Aperture macros list end*
%ADD10C,0.100000*%
%ADD11RoundRect,0.237500X0.372573X-0.015878X-0.054736X0.368872X-0.372573X0.015878X0.054736X-0.368872X0*%
%ADD12RoundRect,0.237500X-0.166044X-0.333904X0.359244X-0.100030X0.166044X0.333904X-0.359244X0.100030X0*%
%ADD13RoundRect,0.237500X0.292085X-0.231838X0.172535X0.330596X-0.292085X0.231838X-0.172535X-0.330596X0*%
%ADD14RoundRect,0.237500X-0.206147X0.310751X-0.266251X-0.261100X0.206147X-0.310751X0.266251X0.261100X0*%
%ADD15RoundRect,0.237500X-0.310751X-0.206147X0.261100X-0.266251X0.310751X0.206147X-0.261100X0.266251X0*%
%ADD16RoundRect,0.237500X0.054736X0.368872X-0.372573X-0.015878X-0.054736X-0.368872X0.372573X0.015878X0*%
%ADD17RoundRect,0.237500X-0.349431X0.130232X-0.061931X-0.367732X0.349431X-0.130232X0.061931X0.367732X0*%
%ADD18RoundRect,0.237500X0.237500X-0.287500X0.237500X0.287500X-0.237500X0.287500X-0.237500X-0.287500X0*%
%ADD19RoundRect,0.237500X0.372191X0.023153X-0.092993X0.361130X-0.372191X-0.023153X0.092993X-0.361130X0*%
%ADD20RoundRect,0.225000X0.017678X-0.335876X0.335876X-0.017678X-0.017678X0.335876X-0.335876X0.017678X0*%
%ADD21RoundRect,0.237500X0.344715X-0.008839X-0.008839X0.344715X-0.344715X0.008839X0.008839X-0.344715X0*%
%ADD22RoundRect,0.237500X-0.368872X0.054736X0.015878X-0.372573X0.368872X-0.054736X-0.015878X0.372573X0*%
%ADD23RoundRect,0.237500X-0.130232X-0.349431X0.367732X-0.061931X0.130232X0.349431X-0.367732X0.061931X0*%
%ADD24RoundRect,0.237500X-0.344715X0.008839X0.008839X-0.344715X0.344715X-0.008839X-0.008839X0.344715X0*%
%ADD25RoundRect,0.237500X0.266251X-0.261100X0.206147X0.310751X-0.266251X0.261100X-0.206147X-0.310751X0*%
%ADD26RoundRect,0.237500X0.015878X0.372573X-0.368872X-0.054736X-0.015878X-0.372573X0.368872X0.054736X0*%
%ADD27RoundRect,0.237500X-0.372573X0.015878X0.054736X-0.368872X0.372573X-0.015878X-0.054736X0.368872X0*%
%ADD28RoundRect,0.225000X0.335876X0.017678X0.017678X0.335876X-0.335876X-0.017678X-0.017678X-0.335876X0*%
%ADD29RotRect,1.200000X2.000000X315.000000*%
%ADD30RoundRect,0.062500X-0.291682X0.203293X0.203293X-0.291682X0.291682X-0.203293X-0.203293X0.291682X0*%
%ADD31RoundRect,0.237500X0.130232X0.349431X-0.367732X0.061931X-0.130232X-0.349431X0.367732X-0.061931X0*%
%ADD32RoundRect,0.237500X0.008839X0.344715X-0.344715X-0.008839X-0.008839X-0.344715X0.344715X0.008839X0*%
%ADD33RoundRect,0.237500X0.137034X-0.346820X0.314718X0.200037X-0.137034X0.346820X-0.314718X-0.200037X0*%
%ADD34RoundRect,0.237500X-0.372191X-0.023153X0.092993X-0.361130X0.372191X0.023153X-0.092993X0.361130X0*%
%ADD35RoundRect,0.237500X-0.054736X-0.368872X0.372573X0.015878X0.054736X0.368872X-0.372573X-0.015878X0*%
%ADD36RoundRect,0.237500X-0.200037X-0.314718X0.346820X-0.137034X0.200037X0.314718X-0.346820X0.137034X0*%
%ADD37RotRect,1.050000X1.200000X315.000000*%
%ADD38RoundRect,0.237500X0.100030X-0.359244X0.333904X0.166044X-0.100030X0.359244X-0.333904X-0.166044X0*%
%ADD39RoundRect,0.237500X-0.266251X0.261100X-0.206147X-0.310751X0.266251X-0.261100X0.206147X0.310751X0*%
%ADD40RoundRect,0.237500X0.023153X-0.372191X0.361130X0.092993X-0.023153X0.372191X-0.361130X-0.092993X0*%
%ADD41RoundRect,0.237500X0.310751X0.206147X-0.261100X0.266251X-0.310751X-0.206147X0.261100X-0.266251X0*%
%ADD42RoundRect,0.237500X-0.137034X0.346820X-0.314718X-0.200037X0.137034X-0.346820X0.314718X0.200037X0*%
%ADD43RoundRect,0.225000X-0.017678X0.335876X-0.335876X0.017678X0.017678X-0.335876X0.335876X-0.017678X0*%
%ADD44RoundRect,0.237500X0.200037X0.314718X-0.346820X0.137034X-0.200037X-0.314718X0.346820X-0.137034X0*%
%ADD45RoundRect,0.237500X-0.333904X0.166044X-0.100030X-0.359244X0.333904X-0.166044X0.100030X0.359244X0*%
%ADD46RoundRect,0.237500X-0.023153X0.372191X-0.361130X-0.092993X0.023153X-0.372191X0.361130X0.092993X0*%
%ADD47RoundRect,0.225000X-0.335876X-0.017678X-0.017678X-0.335876X0.335876X0.017678X0.017678X0.335876X0*%
%ADD48RoundRect,0.237500X0.231838X0.292085X-0.330596X0.172535X-0.231838X-0.292085X0.330596X-0.172535X0*%
%ADD49RoundRect,0.237500X-0.015878X-0.372573X0.368872X0.054736X0.015878X0.372573X-0.368872X-0.054736X0*%
%ADD50RoundRect,0.237500X0.368872X-0.054736X-0.015878X0.372573X-0.368872X0.054736X0.015878X-0.372573X0*%
%ADD51RoundRect,0.237500X-0.359244X-0.100030X0.166044X-0.333904X0.359244X0.100030X-0.166044X0.333904X0*%
%ADD52RoundRect,0.237500X0.349431X-0.130232X0.061931X0.367732X-0.349431X0.130232X-0.061931X-0.367732X0*%
%ADD53RoundRect,0.237500X0.261100X0.266251X-0.310751X0.206147X-0.261100X-0.266251X0.310751X-0.206147X0*%
%ADD54RoundRect,0.237500X-0.237500X0.287500X-0.237500X-0.287500X0.237500X-0.287500X0.237500X0.287500X0*%
%ADD55RoundRect,0.075000X-0.415425X0.521491X-0.521491X0.415425X0.415425X-0.521491X0.521491X-0.415425X0*%
%ADD56RoundRect,0.075000X0.415425X0.521491X-0.521491X-0.415425X-0.415425X-0.521491X0.521491X0.415425X0*%
%ADD57RoundRect,0.237500X0.333904X-0.166044X0.100030X0.359244X-0.333904X0.166044X-0.100030X-0.359244X0*%
%ADD58RoundRect,0.237500X0.092993X0.361130X-0.372191X0.023153X-0.092993X-0.361130X0.372191X-0.023153X0*%
%ADD59RoundRect,0.237500X-0.100030X0.359244X-0.333904X-0.166044X0.100030X-0.359244X0.333904X0.166044X0*%
%ADD60RoundRect,0.237500X-0.231838X-0.292085X0.330596X-0.172535X0.231838X0.292085X-0.330596X0.172535X0*%
%ADD61RoundRect,0.237500X0.359244X0.100030X-0.166044X0.333904X-0.359244X-0.100030X0.166044X-0.333904X0*%
%ADD62RoundRect,0.237500X-0.314718X0.200037X-0.137034X-0.346820X0.314718X-0.200037X0.137034X0.346820X0*%
%ADD63RoundRect,0.237500X-0.035355X-0.371231X0.371231X0.035355X0.035355X0.371231X-0.371231X-0.035355X0*%
%ADD64RoundRect,0.237500X0.361130X-0.092993X0.023153X0.372191X-0.361130X0.092993X-0.023153X-0.372191X0*%
%ADD65RoundRect,0.237500X-0.092993X-0.361130X0.372191X-0.023153X0.092993X0.361130X-0.372191X0.023153X0*%
%ADD66RoundRect,0.237500X-0.261100X-0.266251X0.310751X-0.206147X0.261100X0.266251X-0.310751X0.206147X0*%
%ADD67RoundRect,0.237500X-0.361130X0.092993X-0.023153X-0.372191X0.361130X-0.092993X0.023153X0.372191X0*%
%ADD68RoundRect,0.237500X0.206147X-0.310751X0.266251X0.261100X-0.206147X0.310751X-0.266251X-0.261100X0*%
%ADD69RoundRect,0.237500X0.367732X0.061931X-0.130232X0.349431X-0.367732X-0.061931X0.130232X-0.349431X0*%
%ADD70RoundRect,0.237500X-0.061931X0.367732X-0.349431X-0.130232X0.061931X-0.367732X0.349431X0.130232X0*%
%ADD71RoundRect,0.237500X-0.287500X-0.237500X0.287500X-0.237500X0.287500X0.237500X-0.287500X0.237500X0*%
%ADD72RoundRect,0.237500X0.287500X0.237500X-0.287500X0.237500X-0.287500X-0.237500X0.287500X-0.237500X0*%
%ADD73RoundRect,0.237500X0.314718X-0.200037X0.137034X0.346820X-0.314718X0.200037X-0.137034X-0.346820X0*%
%ADD74RoundRect,0.237500X0.172535X-0.330596X0.292085X0.231838X-0.172535X0.330596X-0.292085X-0.231838X0*%
%ADD75RoundRect,0.237500X0.061931X-0.367732X0.349431X0.130232X-0.061931X0.367732X-0.349431X-0.130232X0*%
%ADD76RoundRect,0.237500X-0.367732X-0.061931X0.130232X-0.349431X0.367732X0.061931X-0.130232X0.349431X0*%
%ADD77RoundRect,0.237500X0.330596X0.172535X-0.231838X0.292085X-0.330596X-0.172535X0.231838X-0.292085X0*%
%ADD78RoundRect,0.237500X0.166044X0.333904X-0.359244X0.100030X-0.166044X-0.333904X0.359244X-0.100030X0*%
%ADD79RoundRect,0.237500X-0.172535X0.330596X-0.292085X-0.231838X0.172535X-0.330596X0.292085X0.231838X0*%
%ADD80RoundRect,0.237500X-0.330596X-0.172535X0.231838X-0.292085X0.330596X0.172535X-0.231838X0.292085X0*%
%ADD81RoundRect,0.237500X-0.292085X0.231838X-0.172535X-0.330596X0.292085X-0.231838X0.172535X0.330596X0*%
%ADD82RoundRect,0.237500X0.346820X0.137034X-0.200037X0.314718X-0.346820X-0.137034X0.200037X-0.314718X0*%
%ADD83RotRect,0.375000X0.350000X135.000000*%
%ADD84RotRect,0.375000X0.350000X45.000000*%
%ADD85RoundRect,0.237500X-0.346820X-0.137034X0.200037X-0.314718X0.346820X0.137034X-0.200037X0.314718X0*%
G04 APERTURE END LIST*
D10*
X97927693Y-99246895D02*
X97927693Y-99818323D01*
X97927693Y-99818323D02*
X97903884Y-99932609D01*
X97903884Y-99932609D02*
X97856265Y-100008800D01*
X97856265Y-100008800D02*
X97784836Y-100046895D01*
X97784836Y-100046895D02*
X97737217Y-100046895D01*
X98403883Y-100046895D02*
X98165788Y-100046895D01*
X98165788Y-100046895D02*
X98165788Y-99246895D01*
X98856264Y-99970704D02*
X98832455Y-100008800D01*
X98832455Y-100008800D02*
X98761026Y-100046895D01*
X98761026Y-100046895D02*
X98713407Y-100046895D01*
X98713407Y-100046895D02*
X98641979Y-100008800D01*
X98641979Y-100008800D02*
X98594360Y-99932609D01*
X98594360Y-99932609D02*
X98570550Y-99856419D01*
X98570550Y-99856419D02*
X98546741Y-99704038D01*
X98546741Y-99704038D02*
X98546741Y-99589752D01*
X98546741Y-99589752D02*
X98570550Y-99437371D01*
X98570550Y-99437371D02*
X98594360Y-99361180D01*
X98594360Y-99361180D02*
X98641979Y-99284990D01*
X98641979Y-99284990D02*
X98713407Y-99246895D01*
X98713407Y-99246895D02*
X98761026Y-99246895D01*
X98761026Y-99246895D02*
X98832455Y-99284990D01*
X98832455Y-99284990D02*
X98856264Y-99323085D01*
X99213407Y-99246895D02*
X99213407Y-99818323D01*
X99213407Y-99818323D02*
X99189598Y-99932609D01*
X99189598Y-99932609D02*
X99141979Y-100008800D01*
X99141979Y-100008800D02*
X99070550Y-100046895D01*
X99070550Y-100046895D02*
X99022931Y-100046895D01*
X99689597Y-100046895D02*
X99451502Y-100046895D01*
X99451502Y-100046895D02*
X99451502Y-99246895D01*
X100141978Y-99970704D02*
X100118169Y-100008800D01*
X100118169Y-100008800D02*
X100046740Y-100046895D01*
X100046740Y-100046895D02*
X99999121Y-100046895D01*
X99999121Y-100046895D02*
X99927693Y-100008800D01*
X99927693Y-100008800D02*
X99880074Y-99932609D01*
X99880074Y-99932609D02*
X99856264Y-99856419D01*
X99856264Y-99856419D02*
X99832455Y-99704038D01*
X99832455Y-99704038D02*
X99832455Y-99589752D01*
X99832455Y-99589752D02*
X99856264Y-99437371D01*
X99856264Y-99437371D02*
X99880074Y-99361180D01*
X99880074Y-99361180D02*
X99927693Y-99284990D01*
X99927693Y-99284990D02*
X99999121Y-99246895D01*
X99999121Y-99246895D02*
X100046740Y-99246895D01*
X100046740Y-99246895D02*
X100118169Y-99284990D01*
X100118169Y-99284990D02*
X100141978Y-99323085D01*
X100499121Y-99246895D02*
X100499121Y-99818323D01*
X100499121Y-99818323D02*
X100475312Y-99932609D01*
X100475312Y-99932609D02*
X100427693Y-100008800D01*
X100427693Y-100008800D02*
X100356264Y-100046895D01*
X100356264Y-100046895D02*
X100308645Y-100046895D01*
X100975311Y-100046895D02*
X100737216Y-100046895D01*
X100737216Y-100046895D02*
X100737216Y-99246895D01*
X101427692Y-99970704D02*
X101403883Y-100008800D01*
X101403883Y-100008800D02*
X101332454Y-100046895D01*
X101332454Y-100046895D02*
X101284835Y-100046895D01*
X101284835Y-100046895D02*
X101213407Y-100008800D01*
X101213407Y-100008800D02*
X101165788Y-99932609D01*
X101165788Y-99932609D02*
X101141978Y-99856419D01*
X101141978Y-99856419D02*
X101118169Y-99704038D01*
X101118169Y-99704038D02*
X101118169Y-99589752D01*
X101118169Y-99589752D02*
X101141978Y-99437371D01*
X101141978Y-99437371D02*
X101165788Y-99361180D01*
X101165788Y-99361180D02*
X101213407Y-99284990D01*
X101213407Y-99284990D02*
X101284835Y-99246895D01*
X101284835Y-99246895D02*
X101332454Y-99246895D01*
X101332454Y-99246895D02*
X101403883Y-99284990D01*
X101403883Y-99284990D02*
X101427692Y-99323085D01*
X101784835Y-99246895D02*
X101784835Y-99818323D01*
X101784835Y-99818323D02*
X101761026Y-99932609D01*
X101761026Y-99932609D02*
X101713407Y-100008800D01*
X101713407Y-100008800D02*
X101641978Y-100046895D01*
X101641978Y-100046895D02*
X101594359Y-100046895D01*
X102261025Y-100046895D02*
X102022930Y-100046895D01*
X102022930Y-100046895D02*
X102022930Y-99246895D01*
X102713406Y-99970704D02*
X102689597Y-100008800D01*
X102689597Y-100008800D02*
X102618168Y-100046895D01*
X102618168Y-100046895D02*
X102570549Y-100046895D01*
X102570549Y-100046895D02*
X102499121Y-100008800D01*
X102499121Y-100008800D02*
X102451502Y-99932609D01*
X102451502Y-99932609D02*
X102427692Y-99856419D01*
X102427692Y-99856419D02*
X102403883Y-99704038D01*
X102403883Y-99704038D02*
X102403883Y-99589752D01*
X102403883Y-99589752D02*
X102427692Y-99437371D01*
X102427692Y-99437371D02*
X102451502Y-99361180D01*
X102451502Y-99361180D02*
X102499121Y-99284990D01*
X102499121Y-99284990D02*
X102570549Y-99246895D01*
X102570549Y-99246895D02*
X102618168Y-99246895D01*
X102618168Y-99246895D02*
X102689597Y-99284990D01*
X102689597Y-99284990D02*
X102713406Y-99323085D01*
%LPC*%
X87915837Y-107669615D02*
X87315837Y-106630385D01*
X88568465Y-106600000D01*
X87915837Y-107669615D01*
G36*
X87915837Y-107669615D02*
G01*
X87315837Y-106630385D01*
X88568465Y-106600000D01*
X87915837Y-107669615D01*
G37*
X86800000Y-100000000D02*
X85700000Y-100600000D01*
X85700000Y-99400000D01*
X86800000Y-100000000D01*
G36*
X86800000Y-100000000D02*
G01*
X85700000Y-100600000D01*
X85700000Y-99400000D01*
X86800000Y-100000000D01*
G37*
X93369615Y-112684163D02*
X92330385Y-112084163D01*
X93400000Y-111431535D01*
X93369615Y-112684163D01*
G36*
X93369615Y-112684163D02*
G01*
X92330385Y-112084163D01*
X93400000Y-111431535D01*
X93369615Y-112684163D01*
G37*
X112684163Y-93369615D02*
X111431535Y-93400000D01*
X112084163Y-92330385D01*
X112684163Y-93369615D01*
G36*
X112684163Y-93369615D02*
G01*
X111431535Y-93400000D01*
X112084163Y-92330385D01*
X112684163Y-93369615D01*
G37*
X107669615Y-112084163D02*
X106630385Y-112684163D01*
X106600000Y-111431535D01*
X107669615Y-112084163D01*
G36*
X107669615Y-112084163D02*
G01*
X106630385Y-112684163D01*
X106600000Y-111431535D01*
X107669615Y-112084163D01*
G37*
X112684163Y-106630385D02*
X112084163Y-107669615D01*
X111431535Y-106600000D01*
X112684163Y-106630385D01*
G36*
X112684163Y-106630385D02*
G01*
X112084163Y-107669615D01*
X111431535Y-106600000D01*
X112684163Y-106630385D01*
G37*
X114300000Y-100600000D02*
X113200000Y-100000000D01*
X114300000Y-99400000D01*
X114300000Y-100600000D01*
G36*
X114300000Y-100600000D02*
G01*
X113200000Y-100000000D01*
X114300000Y-99400000D01*
X114300000Y-100600000D01*
G37*
X100000000Y-86800000D02*
X99400000Y-85700000D01*
X100600000Y-85700000D01*
X100000000Y-86800000D01*
G36*
X100000000Y-86800000D02*
G01*
X99400000Y-85700000D01*
X100600000Y-85700000D01*
X100000000Y-86800000D01*
G37*
X88568465Y-93400000D02*
X87315837Y-93369615D01*
X87915837Y-92330385D01*
X88568465Y-93400000D01*
G36*
X88568465Y-93400000D02*
G01*
X87315837Y-93369615D01*
X87915837Y-92330385D01*
X88568465Y-93400000D01*
G37*
X107669615Y-87915837D02*
X106600000Y-88568465D01*
X106630385Y-87315837D01*
X107669615Y-87915837D01*
G36*
X107669615Y-87915837D02*
G01*
X106600000Y-88568465D01*
X106630385Y-87315837D01*
X107669615Y-87915837D01*
G37*
X93400000Y-88568465D02*
X92330385Y-87915837D01*
X93369615Y-87315837D01*
X93400000Y-88568465D01*
G36*
X93400000Y-88568465D02*
G01*
X92330385Y-87915837D01*
X93369615Y-87315837D01*
X93400000Y-88568465D01*
G37*
X100600000Y-114300000D02*
X99400000Y-114300000D01*
X100000000Y-113200000D01*
X100600000Y-114300000D01*
G36*
X100600000Y-114300000D02*
G01*
X99400000Y-114300000D01*
X100000000Y-113200000D01*
X100600000Y-114300000D01*
G37*
D11*
%TO.C,D31*%
X111222623Y-110056683D03*
X112523125Y-111227661D03*
%TD*%
D12*
%TO.C,D50*%
X86165180Y-106087975D03*
X84566478Y-106799763D03*
%TD*%
D13*
%TO.C,D37*%
X103127221Y-114730566D03*
X103491067Y-116442322D03*
%TD*%
D14*
%TO.C,D10*%
X101563550Y-84893938D03*
X101746474Y-83153526D03*
%TD*%
D15*
%TO.C,D55*%
X84940412Y-98355089D03*
X83200000Y-98172165D03*
%TD*%
D16*
%TO.C,D17*%
X111222623Y-89815482D03*
X112523125Y-88644504D03*
%TD*%
D17*
%TO.C,D4*%
X92420056Y-86837446D03*
X91545058Y-85321906D03*
%TD*%
D18*
%TO.C,D39*%
X99982557Y-115061084D03*
X99982557Y-116811082D03*
%TD*%
D19*
%TO.C,D30*%
X112218939Y-108826335D03*
X113634717Y-109854959D03*
%TD*%
D20*
%TO.C,C14*%
X103548008Y-90101992D03*
X102451992Y-91198008D03*
%TD*%
D21*
%TO.C,R5*%
X108554765Y-99804765D03*
X109845235Y-101095235D03*
%TD*%
D22*
%TO.C,D2*%
X89861956Y-88696016D03*
X88690978Y-87395514D03*
%TD*%
D23*
%TO.C,D49*%
X86883921Y-107498583D03*
X85368379Y-108373583D03*
%TD*%
D24*
%TO.C,R24*%
X93045235Y-98745235D03*
X91754765Y-97454765D03*
%TD*%
D25*
%TO.C,D38*%
X101563550Y-114978227D03*
X101746474Y-116718639D03*
%TD*%
D26*
%TO.C,D16*%
X110103157Y-88696016D03*
X111274135Y-87395514D03*
%TD*%
D27*
%TO.C,D1*%
X88742490Y-89815482D03*
X87441988Y-88644504D03*
%TD*%
D28*
%TO.C,C8*%
X106401992Y-102051992D03*
X107498008Y-103148008D03*
%TD*%
D29*
%TO.C,U3*%
X100000000Y-92000000D03*
D30*
X101564474Y-92150260D03*
X101210920Y-92503814D03*
X100857367Y-92857367D03*
X100503814Y-93210920D03*
X100150260Y-93564474D03*
X98435526Y-91849740D03*
X98789080Y-91496186D03*
X99142633Y-91142633D03*
X99496186Y-90789080D03*
X99849740Y-90435526D03*
%TD*%
D31*
%TO.C,D19*%
X113081193Y-92373582D03*
X114596733Y-91498584D03*
%TD*%
D32*
%TO.C,R7*%
X97600781Y-111141250D03*
X98891251Y-109850780D03*
%TD*%
D33*
%TO.C,D42*%
X95308675Y-114320813D03*
X94767895Y-115985161D03*
%TD*%
D34*
%TO.C,D60*%
X87746174Y-91045830D03*
X86330396Y-90017206D03*
%TD*%
D35*
%TO.C,D47*%
X88742490Y-110056683D03*
X87441988Y-111227661D03*
%TD*%
D36*
%TO.C,D51*%
X85597826Y-104609964D03*
X83933478Y-105150744D03*
%TD*%
D37*
%TO.C,Y1*%
X105983363Y-96783363D03*
X104816637Y-95616637D03*
%TD*%
D38*
%TO.C,D43*%
X93830664Y-113753459D03*
X93118876Y-115352161D03*
%TD*%
D39*
%TO.C,D8*%
X98401563Y-84893938D03*
X98218639Y-83153526D03*
%TD*%
D40*
%TO.C,D45*%
X91092304Y-112172465D03*
X90063680Y-113588243D03*
%TD*%
D32*
%TO.C,R8*%
X96504765Y-110045235D03*
X97795235Y-108754765D03*
%TD*%
D28*
%TO.C,C15*%
X96851992Y-92151992D03*
X97948008Y-93248008D03*
%TD*%
D41*
%TO.C,D25*%
X115024701Y-101517076D03*
X116765113Y-101700000D03*
%TD*%
D42*
%TO.C,D12*%
X104656438Y-85551352D03*
X105197218Y-83887004D03*
%TD*%
D43*
%TO.C,C4*%
X103451992Y-94698008D03*
X104548008Y-93601992D03*
%TD*%
D44*
%TO.C,D21*%
X114367287Y-95262201D03*
X116031635Y-94721421D03*
%TD*%
D45*
%TO.C,D5*%
X93830664Y-86118706D03*
X93118876Y-84520004D03*
%TD*%
D46*
%TO.C,D15*%
X108872809Y-87699700D03*
X109901433Y-86283922D03*
%TD*%
D47*
%TO.C,C13*%
X102198008Y-110898008D03*
X101101992Y-109801992D03*
%TD*%
D48*
%TO.C,D22*%
X114777040Y-96791418D03*
X116488796Y-96427572D03*
%TD*%
D49*
%TO.C,D46*%
X89861956Y-111176149D03*
X88690978Y-112476651D03*
%TD*%
D50*
%TO.C,D32*%
X110103157Y-111176149D03*
X111274135Y-112476651D03*
%TD*%
D51*
%TO.C,D58*%
X86165180Y-93784190D03*
X84566478Y-93072402D03*
%TD*%
D52*
%TO.C,D34*%
X107545057Y-113034718D03*
X108420057Y-114550260D03*
%TD*%
D53*
%TO.C,D23*%
X115024701Y-98355089D03*
X116765113Y-98172165D03*
%TD*%
D54*
%TO.C,D9*%
X99982557Y-84811082D03*
X99982557Y-83061084D03*
%TD*%
D21*
%TO.C,R22*%
X90504765Y-93954765D03*
X91795235Y-95245235D03*
%TD*%
D43*
%TO.C,C10*%
X106701992Y-98198008D03*
X107798008Y-97101992D03*
%TD*%
D55*
%TO.C,U1*%
X104887876Y-100998788D03*
X104534322Y-101352342D03*
X104180769Y-101705895D03*
X103827215Y-102059449D03*
X103473662Y-102413002D03*
X103120109Y-102766555D03*
X102766555Y-103120109D03*
X102413002Y-103473662D03*
X102059449Y-103827215D03*
X101705895Y-104180769D03*
X101352342Y-104534322D03*
X100998788Y-104887876D03*
D56*
X99001212Y-104887876D03*
X98647658Y-104534322D03*
X98294105Y-104180769D03*
X97940551Y-103827215D03*
X97586998Y-103473662D03*
X97233445Y-103120109D03*
X96879891Y-102766555D03*
X96526338Y-102413002D03*
X96172785Y-102059449D03*
X95819231Y-101705895D03*
X95465678Y-101352342D03*
X95112124Y-100998788D03*
D55*
X95112124Y-99001212D03*
X95465678Y-98647658D03*
X95819231Y-98294105D03*
X96172785Y-97940551D03*
X96526338Y-97586998D03*
X96879891Y-97233445D03*
X97233445Y-96879891D03*
X97586998Y-96526338D03*
X97940551Y-96172785D03*
X98294105Y-95819231D03*
X98647658Y-95465678D03*
X99001212Y-95112124D03*
D56*
X100998788Y-95112124D03*
X101352342Y-95465678D03*
X101705895Y-95819231D03*
X102059449Y-96172785D03*
X102413002Y-96526338D03*
X102766555Y-96879891D03*
X103120109Y-97233445D03*
X103473662Y-97586998D03*
X103827215Y-97940551D03*
X104180769Y-98294105D03*
X104534322Y-98647658D03*
X104887876Y-99001212D03*
%TD*%
D57*
%TO.C,D35*%
X106134449Y-113753459D03*
X106846237Y-115352161D03*
%TD*%
D20*
%TO.C,C7*%
X107148008Y-93301992D03*
X106051992Y-94398008D03*
%TD*%
D58*
%TO.C,D18*%
X112218939Y-91045830D03*
X113634717Y-90017206D03*
%TD*%
D59*
%TO.C,D13*%
X106134449Y-86118706D03*
X106846237Y-84520004D03*
%TD*%
D60*
%TO.C,D52*%
X85188073Y-103080747D03*
X83476317Y-103444593D03*
%TD*%
D61*
%TO.C,D28*%
X113799933Y-106087975D03*
X115398635Y-106799763D03*
%TD*%
D62*
%TO.C,D6*%
X95308675Y-85551352D03*
X94767895Y-83887004D03*
%TD*%
D63*
%TO.C,L1*%
X103468718Y-92431282D03*
X102231282Y-93668718D03*
%TD*%
D64*
%TO.C,D33*%
X108872809Y-112172465D03*
X109901433Y-113588243D03*
%TD*%
D32*
%TO.C,R6*%
X95554765Y-106595235D03*
X96845235Y-105304765D03*
%TD*%
%TO.C,R4*%
X93354765Y-104395235D03*
X94645235Y-103104765D03*
%TD*%
D65*
%TO.C,D48*%
X87746174Y-108826335D03*
X86330396Y-109854959D03*
%TD*%
D66*
%TO.C,D53*%
X84940412Y-101517076D03*
X83200000Y-101700000D03*
%TD*%
D67*
%TO.C,D3*%
X91092304Y-87699700D03*
X90063680Y-86283922D03*
%TD*%
D68*
%TO.C,D40*%
X98401563Y-114978227D03*
X98218639Y-116718639D03*
%TD*%
D69*
%TO.C,D29*%
X113081192Y-107498583D03*
X114596734Y-108373583D03*
%TD*%
D20*
%TO.C,C6*%
X108276866Y-94396788D03*
X107180850Y-95492804D03*
%TD*%
%TO.C,C9*%
X97948008Y-106401992D03*
X96851992Y-107498008D03*
%TD*%
D47*
%TO.C,C12*%
X103298008Y-109798008D03*
X102201992Y-108701992D03*
%TD*%
D70*
%TO.C,D14*%
X107545057Y-86837447D03*
X108420057Y-85321905D03*
%TD*%
D71*
%TO.C,D54*%
X84857556Y-99936083D03*
X83107558Y-99936083D03*
%TD*%
D72*
%TO.C,D24*%
X115107558Y-99936083D03*
X116857556Y-99936083D03*
%TD*%
D73*
%TO.C,D36*%
X104656438Y-114320813D03*
X105197218Y-115985161D03*
%TD*%
D74*
%TO.C,D41*%
X96837892Y-114730566D03*
X96474046Y-116442322D03*
%TD*%
D28*
%TO.C,C3*%
X107501992Y-100951992D03*
X108598008Y-102048008D03*
%TD*%
D75*
%TO.C,D44*%
X92420057Y-113034718D03*
X91545057Y-114550260D03*
%TD*%
D47*
%TO.C,C5*%
X94048008Y-97498008D03*
X92951992Y-96401992D03*
%TD*%
D76*
%TO.C,D59*%
X86883920Y-92373582D03*
X85368380Y-91498584D03*
%TD*%
D77*
%TO.C,D26*%
X114777040Y-103080747D03*
X116488796Y-103444593D03*
%TD*%
D78*
%TO.C,D20*%
X113799933Y-93784190D03*
X115398635Y-93072402D03*
%TD*%
D79*
%TO.C,D11*%
X103127221Y-85141599D03*
X103491067Y-83429843D03*
%TD*%
D80*
%TO.C,D56*%
X85188073Y-96791418D03*
X83476317Y-96427572D03*
%TD*%
D81*
%TO.C,D7*%
X96837892Y-85141599D03*
X96474046Y-83429843D03*
%TD*%
D47*
%TO.C,C11*%
X104398008Y-108698008D03*
X103301992Y-107601992D03*
%TD*%
D21*
%TO.C,R23*%
X90654765Y-98554765D03*
X91945235Y-99845235D03*
%TD*%
D82*
%TO.C,D27*%
X114367287Y-104609964D03*
X116031635Y-105150744D03*
%TD*%
D43*
%TO.C,C1*%
X94651992Y-105298008D03*
X95748008Y-104201992D03*
%TD*%
D83*
%TO.C,U2*%
X99284054Y-107637608D03*
X99637608Y-107284054D03*
D84*
X100008839Y-106930501D03*
X100362392Y-107284054D03*
X100715946Y-107637608D03*
X101069499Y-107991161D03*
D83*
X100715946Y-108362392D03*
X100362392Y-108715946D03*
D84*
X99991161Y-109069499D03*
X99637608Y-108715946D03*
X99284054Y-108362392D03*
X98930501Y-108008839D03*
%TD*%
D85*
%TO.C,D57*%
X85597826Y-95262201D03*
X83933478Y-94721421D03*
%TD*%
%LPD*%
M02*
